<?xml version="1.0" encoding="UTF-8" standalone="no"?>
<svg
   xmlns:dc="http://purl.org/dc/elements/1.1/"
   xmlns:cc="http://creativecommons.org/ns#"
   xmlns:rdf="http://www.w3.org/1999/02/22-rdf-syntax-ns#"
   xmlns:svg="http://www.w3.org/2000/svg"
   xmlns="http://www.w3.org/2000/svg"
   xmlns:sodipodi="http://sodipodi.sourceforge.net/DTD/sodipodi-0.dtd"
   xmlns:inkscape="http://www.inkscape.org/namespaces/inkscape"
   width="256"
   height="256"
   viewBox="0 0 67.733332 67.733335"
   version="1.1"
   id="svg8"
   inkscape:version="1.0.1 (3bc2e813f5, 2020-09-07)"
   sodipodi:docname="android-ref.svg"
   inkscape:export-filename="C:\Users\keath\Workspace\KMX\elite-streamdeck-icons\ship-lights.png"
   inkscape:export-xdpi="96"
   inkscape:export-ydpi="96">
  <defs
     id="defs2" />
  <sodipodi:namedview
     id="base"
     pagecolor="#000000"
     bordercolor="#666666"
     borderopacity="1.0"
     inkscape:pageopacity="0"
     inkscape:pageshadow="2"
     inkscape:zoom="5.6"
     inkscape:cx="117.63844"
     inkscape:cy="98.178571"
     inkscape:document-units="px"
     inkscape:current-layer="layer2"
     showgrid="true"
     units="px"
     inkscape:snap-grids="true"
     objecttolerance="10000"
     guidetolerance="10000"
     inkscape:window-width="2780"
     inkscape:window-height="1895"
     inkscape:window-x="4681"
     inkscape:window-y="172"
     inkscape:window-maximized="0"
     inkscape:document-rotation="0"
     showguides="true"
     inkscape:guide-bbox="true">
    <inkscape:grid
       type="xygrid"
       id="grid4623" />
    <sodipodi:guide
       position="-3.96875,62.441667"
       orientation="0,256"
       id="guide3351" />
    <sodipodi:guide
       position="62.441667,42.597917"
       orientation="-1,0"
       id="guide3353"
       inkscape:label=""
       inkscape:locked="false"
       inkscape:color="rgb(0,0,255)" />
    <sodipodi:guide
       position="-2.6458333,22.754167"
       orientation="0,-256"
       id="guide3355" />
    <sodipodi:guide
       position="5.2916667,70.379167"
       orientation="-256,0"
       id="guide3357" />
    <sodipodi:guide
       position="0,67.733334"
       orientation="0,256"
       id="guide3359" />
    <sodipodi:guide
       position="67.733334,67.733334"
       orientation="256,0"
       id="guide3361" />
    <sodipodi:guide
       position="67.733334,0"
       orientation="0,-256"
       id="guide3363" />
    <sodipodi:guide
       position="0,0"
       orientation="-256,0"
       id="guide3365" />
    <sodipodi:guide
       position="0,67.733334"
       orientation="0,256"
       id="guide3367" />
    <sodipodi:guide
       position="67.733334,67.733334"
       orientation="256,0"
       id="guide3369" />
    <sodipodi:guide
       position="67.733334,0"
       orientation="0,-256"
       id="guide3371" />
    <sodipodi:guide
       position="0,0"
       orientation="-256,0"
       id="guide3373" />
    <sodipodi:guide
       position="0,67.733334"
       orientation="0,256"
       id="guide3375" />
    <sodipodi:guide
       position="67.733334,67.733334"
       orientation="256,0"
       id="guide3377" />
    <sodipodi:guide
       position="67.733334,0"
       orientation="0,-256"
       id="guide3379" />
    <sodipodi:guide
       position="0,0"
       orientation="-256,0"
       id="guide3381" />
    <sodipodi:guide
       position="33.866667,46.83125"
       orientation="1,0"
       id="guide895" />
    <sodipodi:guide
       position="41.010417,42.597917"
       orientation="0,-1"
       id="guide897" />
  </sodipodi:namedview>
  <metadata
     id="metadata5">
    <rdf:RDF>
      <cc:Work
         rdf:about="">
        <dc:format>image/svg+xml</dc:format>
        <dc:type
           rdf:resource="http://purl.org/dc/dcmitype/StillImage" />
        <dc:title />
      </cc:Work>
    </rdf:RDF>
  </metadata>
  <g
     inkscape:groupmode="layer"
     id="layer2"
     inkscape:label="Icon">
    <path
       id="path870"
       style="color:#000000;font-style:normal;font-variant:normal;font-weight:normal;font-stretch:normal;font-size:medium;line-height:normal;font-family:sans-serif;font-variant-ligatures:normal;font-variant-position:normal;font-variant-caps:normal;font-variant-numeric:normal;font-variant-alternates:normal;font-variant-east-asian:normal;font-feature-settings:normal;font-variation-settings:normal;text-indent:0;text-align:start;text-decoration:none;text-decoration-line:none;text-decoration-style:solid;text-decoration-color:#000000;letter-spacing:normal;word-spacing:normal;text-transform:none;writing-mode:lr-tb;direction:ltr;text-orientation:mixed;dominant-baseline:auto;baseline-shift:baseline;text-anchor:start;white-space:normal;shape-padding:0;shape-margin:0;inline-size:0;clip-rule:nonzero;display:inline;overflow:visible;visibility:visible;opacity:1;isolation:auto;mix-blend-mode:normal;color-interpolation:sRGB;color-interpolation-filters:linearRGB;solid-color:#000000;solid-opacity:1;vector-effect:none;fill:#808080;fill-opacity:1;fill-rule:nonzero;stroke:none;stroke-width:6;stroke-linecap:square;stroke-linejoin:miter;stroke-miterlimit:4;stroke-dasharray:none;stroke-dashoffset:0;stroke-opacity:1;paint-order:markers stroke fill;color-rendering:auto;image-rendering:auto;shape-rendering:auto;text-rendering:auto;enable-background:accumulate;stop-color:#000000;stop-opacity:1"
       d="m 32,21.998047 v 3.003906 19.496094 H 19.998047 v 5.005859 H 32 v 15 H 19.998047 V 69.5 H 32 v 15 H 19.998047 v 4.998047 H 32 V 104.49805 H 19.998047 v 5.00586 H 32 v 15 H 19.998047 V 129.5 H 32 v 15 H 19.998047 v 4.99805 H 32 v 18.49804 h 176 v -2.27343 l 29,-19.79688 V 98.960938 L 226.08984,93.375 237,85.925781 V 38.960938 l -29,-14.84961 v -2.113281 z m 176,5.322265 26.79883,13.714844 v 43.03711 L 223.2793,91.935547 208,84.109375 Z M 38.001953,28 H 201.99805 V 162.00391 H 38.001953 V 149.49805 H 49.998047 V 144.5 H 38.001953 v -15 h 11.996094 v -4.99609 H 38.001953 v -15 h 11.996094 v -5.00586 H 38.001953 V 89.498047 H 49.998047 V 84.5 H 38.001953 v -15 H 49.998047 V 64.503906 H 38.001953 v -15 H 49.998047 V 44.498047 H 38.001953 Z M 208,87.320312 234.79883,101.03516 v 43.03711 L 208,162.36523 Z"
       transform="scale(0.26458333)" />
    <path
       id="ellipse999"
       style="fill:#808080;fill-opacity:1;stroke:none;stroke-width:3.81;stroke-opacity:1"
       d="m 28.290897,11.264595 c -0.09453,8.16e-4 -0.19025,0.0225 -0.279049,0.06693 -0.284158,0.142218 -0.386131,0.463213 -0.228619,0.719782 l 1.297748,2.114111 a 8.2102932,6.8428972 0 0 0 -3.899966,5.816023 H 41.601515 A 8.2102932,6.8428972 0 0 0 37.701244,14.16542 l 1.297748,-2.114111 c 0.157512,-0.256569 0.05584,-0.577564 -0.228313,-0.719782 -0.284158,-0.142219 -0.639903,-0.04996 -0.797414,0.206612 l -1.330757,2.167598 a 8.2102932,6.8428972 0 0 0 -3.251397,-0.559321 8.2102932,6.8428972 0 0 0 -3.251093,0.559321 l -1.331061,-2.167595 c -0.108289,-0.176391 -0.310109,-0.275341 -0.51806,-0.273547 z m 1.510473,4.385933 a 1.1277877,1.0182884 0 0 1 3.12e-4,0 1.1277877,1.0182884 0 0 1 9.47e-4,0 1.1277877,1.0182884 0 0 1 1.12781,1.018391 1.1277877,1.0182884 0 0 1 -1.12781,1.018087 1.1277877,1.0182884 0 0 1 -1.127507,-1.018087 1.1277877,1.0182884 0 0 1 1.126282,-1.018391 z m 7.152279,0 a 1.1277876,1.0182883 0 0 1 0.0013,0 1.1277876,1.0182883 0 0 1 1.127811,1.018391 1.1277876,1.0182883 0 0 1 -1.127811,1.018087 1.1277876,1.0182883 0 0 1 -1.127504,-1.018087 1.1277876,1.0182883 0 0 1 1.126282,-1.018391 z m -14.612033,4.338864 c -1.199605,0 -2.165153,0.872045 -2.165153,1.955179 v 6.924272 c 0,1.083132 0.965548,1.955179 2.165153,1.955179 1.199606,0 2.165459,-0.872047 2.165459,-1.955179 v -6.924272 c 0,-1.083134 -0.965853,-1.955179 -2.165459,-1.955179 z m 22.098989,0 c -1.199605,0 -2.165154,0.872045 -2.165154,1.955179 v 6.924272 c 0,1.083132 0.965549,1.955179 2.165154,1.955179 1.199606,0 2.165458,-0.872047 2.165458,-1.955179 v -6.924272 c 0,-1.083134 -0.965852,-1.955179 -2.165458,-1.955179 z M 25.20913,20.804839 v 10.604789 c 0,0.979906 0.883725,1.768737 1.981464,1.768737 h 0.990883 v 3.617859 c 0,1.068989 0.963954,1.929506 2.161487,1.929506 1.197532,0 2.16179,-0.860517 2.16179,-1.929506 v -3.617859 h 1.801442 v 3.617859 c 0,1.068989 0.963952,1.929506 2.161485,1.929506 1.197533,0 2.161487,-0.860517 2.161487,-1.929506 v -3.617859 h 0.990883 c 1.09774,0 1.981464,-0.788831 1.981464,-1.768737 V 20.804839 Z" />
  </g>
</svg>
