<?xml version="1.0" encoding="UTF-8" standalone="no"?>
<svg
   xmlns:dc="http://purl.org/dc/elements/1.1/"
   xmlns:cc="http://creativecommons.org/ns#"
   xmlns:rdf="http://www.w3.org/1999/02/22-rdf-syntax-ns#"
   xmlns:svg="http://www.w3.org/2000/svg"
   xmlns="http://www.w3.org/2000/svg"
   xmlns:sodipodi="http://sodipodi.sourceforge.net/DTD/sodipodi-0.dtd"
   xmlns:inkscape="http://www.inkscape.org/namespaces/inkscape"
   width="256"
   height="256"
   viewBox="0 0 67.733332 67.733335"
   version="1.1"
   id="svg8"
   inkscape:version="1.0.1 (3bc2e813f5, 2020-09-07)"
   sodipodi:docname="android.svg"
   inkscape:export-filename="C:\Users\keath\Workspace\KMX\elite-streamdeck-icons\ship-lights.png"
   inkscape:export-xdpi="96"
   inkscape:export-ydpi="96">
  <defs
     id="defs2" />
  <sodipodi:namedview
     id="base"
     pagecolor="#000000"
     bordercolor="#666666"
     borderopacity="1.0"
     inkscape:pageopacity="0"
     inkscape:pageshadow="2"
     inkscape:zoom="3.959798"
     inkscape:cx="93.495661"
     inkscape:cy="158.69949"
     inkscape:document-units="px"
     inkscape:current-layer="layer2"
     showgrid="true"
     units="px"
     inkscape:snap-grids="true"
     objecttolerance="10000"
     guidetolerance="10000"
     inkscape:window-width="3840"
     inkscape:window-height="2066"
     inkscape:window-x="-11"
     inkscape:window-y="-11"
     inkscape:window-maximized="1"
     inkscape:document-rotation="0"
     showguides="true"
     inkscape:guide-bbox="true">
    <inkscape:grid
       type="xygrid"
       id="grid4623" />
    <sodipodi:guide
       position="-3.96875,62.441667"
       orientation="0,256"
       id="guide3351" />
    <sodipodi:guide
       position="62.441667,42.597917"
       orientation="-1,0"
       id="guide3353"
       inkscape:label=""
       inkscape:locked="false"
       inkscape:color="rgb(0,0,255)" />
    <sodipodi:guide
       position="-2.6458333,22.754167"
       orientation="0,-256"
       id="guide3355" />
    <sodipodi:guide
       position="5.2916667,70.379167"
       orientation="-256,0"
       id="guide3357" />
    <sodipodi:guide
       position="0,67.733334"
       orientation="0,256"
       id="guide3359" />
    <sodipodi:guide
       position="67.733334,67.733334"
       orientation="256,0"
       id="guide3361" />
    <sodipodi:guide
       position="67.733334,0"
       orientation="0,-256"
       id="guide3363" />
    <sodipodi:guide
       position="0,0"
       orientation="-256,0"
       id="guide3365" />
    <sodipodi:guide
       position="0,67.733334"
       orientation="0,256"
       id="guide3367" />
    <sodipodi:guide
       position="67.733334,67.733334"
       orientation="256,0"
       id="guide3369" />
    <sodipodi:guide
       position="67.733334,0"
       orientation="0,-256"
       id="guide3371" />
    <sodipodi:guide
       position="0,0"
       orientation="-256,0"
       id="guide3373" />
    <sodipodi:guide
       position="0,67.733334"
       orientation="0,256"
       id="guide3375" />
    <sodipodi:guide
       position="67.733334,67.733334"
       orientation="256,0"
       id="guide3377" />
    <sodipodi:guide
       position="67.733334,0"
       orientation="0,-256"
       id="guide3379" />
    <sodipodi:guide
       position="0,0"
       orientation="-256,0"
       id="guide3381" />
    <sodipodi:guide
       position="33.866667,46.83125"
       orientation="1,0"
       id="guide895" />
    <sodipodi:guide
       position="41.010417,42.597917"
       orientation="0,-1"
       id="guide897" />
  </sodipodi:namedview>
  <metadata
     id="metadata5">
    <rdf:RDF>
      <cc:Work
         rdf:about="">
        <dc:format>image/svg+xml</dc:format>
        <dc:type
           rdf:resource="http://purl.org/dc/dcmitype/StillImage" />
        <dc:title />
      </cc:Work>
    </rdf:RDF>
  </metadata>
  <g
     inkscape:groupmode="layer"
     id="layer2"
     inkscape:label="Icon">
    <path
       id="ellipse999"
       style="fill:#808080;fill-opacity:1;stroke:none;stroke-width:14.4;stroke-opacity:1"
       d="m 95.699219,-0.96484375 c -0.604033,0.005208 -1.215753,0.14372989 -1.783203,0.42773437 C 92.100168,0.37170416 91.448533,2.4229558 92.455078,4.0625 l 8.292972,13.509766 A 52.466084,43.728036 0 0 0 75.826172,54.738281 H 180.75781 A 52.466084,43.728036 0 0 0 155.83398,17.572266 L 164.12695,4.0625 c 1.00655,-1.6395442 0.35684,-3.69079486 -1.45898,-4.59960938 -1.81585,-0.90881442 -4.08916,-0.31923235 -5.0957,1.3203125 L 149.06836,14.634766 a 52.466084,43.728036 0 0 0 -20.77734,-3.574219 52.466084,43.728036 0 0 0 -20.7754,3.574219 L 99.009766,0.78320312 C 98.317768,-0.34398397 97.028082,-0.97630426 95.699219,-0.96484375 Z M 105.35156,27.0625 a 7.2068805,6.5071486 0 0 1 0.002,0 7.2068805,6.5071486 0 0 1 0.006,0 7.2068805,6.5071486 0 0 1 7.20703,6.507812 7.2068805,6.5071486 0 0 1 -7.20703,6.50586 7.2068805,6.5071486 0 0 1 -7.205083,-6.50586 7.2068805,6.5071486 0 0 1 7.197263,-6.507812 z m 45.70508,0 a 7.2068804,6.5071485 0 0 1 0.008,0 7.2068804,6.5071485 0 0 1 7.20703,6.507812 7.2068804,6.5071485 0 0 1 -7.20703,6.50586 7.2068804,6.5071485 0 0 1 -7.20507,-6.50586 7.2068804,6.5071485 0 0 1 7.19726,-6.507812 z M 57.681641,54.789062 c -7.665816,0 -13.835938,5.572617 -13.835938,12.494141 v 44.248047 c 0,6.92152 6.170122,12.49414 13.835938,12.49414 7.665815,0 13.83789,-5.57262 13.83789,-12.49414 V 67.283203 c 0,-6.921524 -6.172075,-12.494141 -13.83789,-12.494141 z m 141.218749,0 c -7.66581,0 -13.83594,5.572617 -13.83594,12.494141 v 44.248047 c 0,6.92152 6.17013,12.49414 13.83594,12.49414 7.66582,0 13.83789,-5.57262 13.83789,-12.49414 V 67.283203 c 0,-6.921524 -6.17207,-12.494141 -13.83789,-12.494141 z M 76.005859,60 v 67.76758 c 0,6.26188 5.647254,11.30273 12.66211,11.30273 H 95 v 23.11914 c 0,6.83114 6.15993,12.33008 13.8125,12.33008 7.65257,0 13.81445,-5.49894 13.81445,-12.33008 v -23.11914 h 11.51172 v 23.11914 c 0,6.83114 6.15993,12.33008 13.8125,12.33008 7.65257,0 13.8125,-5.49894 13.8125,-12.33008 v -23.11914 h 6.33203 c 7.01486,0 12.66211,-5.04085 12.66211,-11.30273 V 60 Z"
       transform="scale(0.26458333)" />
  </g>
</svg>
