<?xml version="1.0" encoding="UTF-8" standalone="no"?>
<svg
   xmlns:dc="http://purl.org/dc/elements/1.1/"
   xmlns:cc="http://creativecommons.org/ns#"
   xmlns:rdf="http://www.w3.org/1999/02/22-rdf-syntax-ns#"
   xmlns:svg="http://www.w3.org/2000/svg"
   xmlns="http://www.w3.org/2000/svg"
   xmlns:sodipodi="http://sodipodi.sourceforge.net/DTD/sodipodi-0.dtd"
   xmlns:inkscape="http://www.inkscape.org/namespaces/inkscape"
   width="256"
   height="256"
   viewBox="0 0 67.733332 67.733335"
   version="1.1"
   id="svg8"
   inkscape:version="1.0.1 (3bc2e813f5, 2020-09-07)"
   sodipodi:docname="bash-ref.svg"
   inkscape:export-filename="C:\Users\keath\Workspace\KMX\elite-streamdeck-icons\ship-lights.png"
   inkscape:export-xdpi="96"
   inkscape:export-ydpi="96">
  <defs
     id="defs2" />
  <sodipodi:namedview
     id="base"
     pagecolor="#000000"
     bordercolor="#666666"
     borderopacity="1.0"
     inkscape:pageopacity="0"
     inkscape:pageshadow="2"
     inkscape:zoom="5.6"
     inkscape:cx="113.27671"
     inkscape:cy="121.54987"
     inkscape:document-units="px"
     inkscape:current-layer="layer2"
     showgrid="true"
     units="px"
     inkscape:snap-grids="true"
     objecttolerance="10000"
     guidetolerance="10000"
     inkscape:window-width="2780"
     inkscape:window-height="1895"
     inkscape:window-x="4681"
     inkscape:window-y="149"
     inkscape:window-maximized="0"
     inkscape:document-rotation="0"
     showguides="true"
     inkscape:guide-bbox="true">
    <inkscape:grid
       type="xygrid"
       id="grid4623" />
    <sodipodi:guide
       position="-3.96875,62.441667"
       orientation="0,256"
       id="guide3351" />
    <sodipodi:guide
       position="62.441667,42.597917"
       orientation="-1,0"
       id="guide3353"
       inkscape:label=""
       inkscape:locked="false"
       inkscape:color="rgb(0,0,255)" />
    <sodipodi:guide
       position="-2.6458333,22.754167"
       orientation="0,-256"
       id="guide3355" />
    <sodipodi:guide
       position="5.2916667,70.379167"
       orientation="-256,0"
       id="guide3357" />
    <sodipodi:guide
       position="0,67.733334"
       orientation="0,256"
       id="guide3359" />
    <sodipodi:guide
       position="67.733334,67.733334"
       orientation="256,0"
       id="guide3361" />
    <sodipodi:guide
       position="67.733334,0"
       orientation="0,-256"
       id="guide3363" />
    <sodipodi:guide
       position="0,0"
       orientation="-256,0"
       id="guide3365" />
    <sodipodi:guide
       position="0,67.733334"
       orientation="0,256"
       id="guide3367" />
    <sodipodi:guide
       position="67.733334,67.733334"
       orientation="256,0"
       id="guide3369" />
    <sodipodi:guide
       position="67.733334,0"
       orientation="0,-256"
       id="guide3371" />
    <sodipodi:guide
       position="0,0"
       orientation="-256,0"
       id="guide3373" />
    <sodipodi:guide
       position="0,67.733334"
       orientation="0,256"
       id="guide3375" />
    <sodipodi:guide
       position="67.733334,67.733334"
       orientation="256,0"
       id="guide3377" />
    <sodipodi:guide
       position="67.733334,0"
       orientation="0,-256"
       id="guide3379" />
    <sodipodi:guide
       position="0,0"
       orientation="-256,0"
       id="guide3381" />
    <sodipodi:guide
       position="33.866667,46.83125"
       orientation="1,0"
       id="guide895" />
    <sodipodi:guide
       position="41.010417,42.597917"
       orientation="0,-1"
       id="guide897" />
  </sodipodi:namedview>
  <metadata
     id="metadata5">
    <rdf:RDF>
      <cc:Work
         rdf:about="">
        <dc:format>image/svg+xml</dc:format>
        <dc:type
           rdf:resource="http://purl.org/dc/dcmitype/StillImage" />
        <dc:title />
      </cc:Work>
    </rdf:RDF>
  </metadata>
  <g
     inkscape:groupmode="layer"
     id="layer2"
     inkscape:label="Icon">
    <path
       id="path859"
       style="font-style:normal;font-variant:normal;font-weight:bold;font-stretch:normal;font-size:10.0497px;line-height:1.25;font-family:sans-serif;-inkscape-font-specification:'sans-serif, Bold';font-variant-ligatures:normal;font-variant-caps:normal;font-variant-numeric:normal;font-variant-east-asian:normal;fill:#808080;fill-opacity:1;stroke:none;stroke-width:0.264583"
       d="m 18.441567,19.884249 v 1.39635 c -0.842862,0.08787 -1.502258,0.343471 -1.977899,0.766863 -0.475641,0.423392 -0.713223,0.932202 -0.713223,1.527348 0,0.395433 0.05395,0.729427 0.16237,1.001035 0.108412,0.267617 0.260585,0.493284 0.456437,0.677018 0.195852,0.183736 0.42829,0.331584 0.697586,0.443423 0.272797,0.111842 0.570074,0.20942 0.891831,0.293297 l 0.508756,0.131579 v 1.642118 c -0.412688,-0.03595 -0.828757,-0.114347 -1.248441,-0.234176 -0.416183,-0.119826 -0.784758,-0.279067 -1.106516,-0.478781 h -0.236337 v 1.749348 c 0.29028,0.155778 0.692233,0.285667 1.206345,0.389518 0.514111,0.103889 0.967386,0.157756 1.359091,0.161721 v 2.138867 h 0.912876 v -2.174806 c 0.821878,-0.06391 1.481274,-0.337462 1.977899,-0.820767 0.496626,-0.483307 0.744494,-1.062727 0.744494,-1.737757 0,-0.639082 -0.186861,-1.1365 -0.561077,-1.491991 -0.370719,-0.359482 -0.951157,-0.627051 -1.741562,-0.802798 l -0.419754,-0.09565 v -1.522131 c 0.374215,0.02796 0.725447,0.09618 1.054199,0.204033 0.32875,0.107848 0.617657,0.243721 0.865969,0.407485 h 0.230326 v -1.725584 c -0.248313,-0.115834 -0.589257,-0.217596 -1.02293,-0.30547 -0.430173,-0.08787 -0.805808,-0.139943 -1.127564,-0.155922 v -1.384178 z m 5.135684,0.119986 v 9.322328 h 1.810116 l 0.07878,-0.335029 c 0.223832,0.151782 0.459498,0.26732 0.70781,0.347203 0.248313,0.07989 0.537219,0.119986 0.865971,0.119986 0.76592,0 1.404142,-0.333415 1.914755,-1.000459 0.51411,-0.66704 0.770955,-1.530187 0.770955,-2.588664 0,-1.078451 -0.200979,-1.92306 -0.603174,-2.534181 -0.402195,-0.615117 -0.975576,-0.922785 -1.720513,-0.922785 -0.3952,0 -0.745116,0.082 -1.049386,0.245766 -0.300774,0.163765 -0.596136,0.37746 -0.886418,0.641081 v -3.295246 z m 21.062912,0 v 9.322328 h 1.888295 v -4.768685 c 0.206345,-0.139805 0.397035,-0.242145 0.571901,-0.306052 0.178366,-0.0639 0.353623,-0.09563 0.524995,-0.09563 0.241317,0 0.428175,0.03412 0.561077,0.102016 0.136397,0.06791 0.239756,0.175652 0.309705,0.323437 0.05945,0.127819 0.101197,0.327738 0.125685,0.599346 0.02447,0.267617 0.03668,0.536988 0.03668,0.808597 v 3.33698 h 1.89912 v -4.37975 c 0,-0.842788 -0.179801,-1.475505 -0.540029,-1.898896 -0.356731,-0.423392 -0.85367,-0.635284 -1.490189,-0.635284 -0.377714,0 -0.721884,0.0802 -1.033151,0.239971 -0.307767,0.159771 -0.63005,0.389041 -0.965798,0.688611 v -3.33698 z m -11.152972,2.402603 c -0.451157,0 -0.90252,0.0419 -1.353677,0.125781 -0.447663,0.07989 -0.77126,0.149909 -0.97061,0.209829 v 1.623568 h 0.173194 c 0.153885,-0.06791 0.407499,-0.163677 0.760732,-0.2875 0.353233,-0.127816 0.685802,-0.19186 0.997068,-0.19186 0.517609,0 0.909273,0.07183 1.175071,0.215626 0.265801,0.139798 0.39871,0.395396 0.39871,0.76686 v 0.03594 c -0.556081,0.03595 -1.092856,0.09221 -1.610464,0.168093 -0.517611,0.07589 -0.951625,0.2034 -1.301359,0.383142 -0.353233,0.179742 -0.626107,0.425169 -0.818465,0.73672 -0.192355,0.311552 -0.288656,0.713195 -0.288656,1.204488 0,0.615117 0.189377,1.120326 0.56709,1.515758 0.377714,0.395432 0.845821,0.592968 1.405397,0.592968 0.237822,0 0.456746,-0.02395 0.656093,-0.07188 0.199349,-0.04394 0.391954,-0.113389 0.577312,-0.20925 0.132899,-0.0719 0.27418,-0.170055 0.424568,-0.293878 0.150385,-0.123822 0.276236,-0.229767 0.377658,-0.317642 v 0.712955 h 1.873263 v -4.577405 c 0,-0.806842 -0.2401,-1.397655 -0.719237,-1.773116 -0.475642,-0.379452 -1.249998,-0.569202 -2.323688,-0.569202 z m 7.417876,0.0058 c -0.930296,0 -1.664818,0.215496 -2.203413,0.646876 -0.535096,0.427386 -0.802825,0.964906 -0.802825,1.611976 0,0.503278 0.129678,0.92468 0.388484,1.264191 0.258802,0.335518 0.655612,0.583329 1.190706,0.743098 0.195853,0.05991 0.412861,0.111404 0.650683,0.155344 0.241316,0.03994 0.432006,0.07825 0.571901,0.114187 0.293777,0.06791 0.492837,0.139739 0.597758,0.215625 0.10492,0.0719 0.157558,0.189817 0.157558,0.35358 0,0.183737 -0.08925,0.323218 -0.267609,0.41908 -0.178363,0.09186 -0.453155,0.137953 -0.823873,0.137953 -0.283287,0 -0.5491,-0.03173 -0.797413,-0.09563 -0.248312,-0.06791 -0.469862,-0.148103 -0.665714,-0.239972 -0.227329,-0.103855 -0.404502,-0.199626 -0.530408,-0.287497 -0.122409,-0.09188 -0.23031,-0.175677 -0.32474,-0.251565 h -0.173194 v 1.773693 c 0.258806,0.135804 0.601662,0.25913 1.028342,0.370969 0.426676,0.111842 0.901839,0.168097 1.426443,0.168097 0.947782,0 1.694509,-0.211895 2.240096,-0.635286 0.545587,-0.427386 0.81846,-0.98827 0.81846,-1.68327 0,-0.475317 -0.11879,-0.870975 -0.356609,-1.186521 -0.237819,-0.31954 -0.60508,-0.552995 -1.101709,-0.700783 -0.223827,-0.06391 -0.447896,-0.115983 -0.671727,-0.155923 -0.22033,-0.04394 -0.426451,-0.08822 -0.618806,-0.132156 -0.349734,-0.08388 -0.571888,-0.167684 -0.666314,-0.251565 -0.09442,-0.08388 -0.141324,-0.205401 -0.141324,-0.365173 0,-0.175748 0.102757,-0.311622 0.309104,-0.407485 0.20984,-0.09586 0.467285,-0.14375 0.771555,-0.14375 0.367221,0 0.728739,0.07002 1.08547,0.209828 0.360228,0.135807 0.680595,0.313584 0.960384,0.533269 h 0.162368 v -1.70182 C 42.891372,22.776175 42.574835,22.668426 42.169143,22.56857 41.766948,22.464715 41.345734,22.412647 40.905067,22.412647 Z m -22.379911,0.431251 v 1.389974 c -0.360228,-0.07589 -0.599722,-0.165681 -0.718633,-0.269532 -0.118911,-0.103844 -0.178007,-0.249318 -0.178007,-0.437048 0,-0.207702 0.09056,-0.367523 0.272422,-0.479361 0.185358,-0.115833 0.393395,-0.18406 0.624218,-0.204033 z m 8.031872,1.198693 c 0.458152,0 0.776607,0.161622 0.954971,0.485156 0.178367,0.323536 0.267609,0.785039 0.267609,1.384179 0,0.671034 -0.122621,1.173862 -0.367436,1.509378 -0.244815,0.335518 -0.617221,0.503707 -1.11734,0.503707 -0.171371,0 -0.318397,-0.01021 -0.440803,-0.03014 -0.122409,-0.01998 -0.251486,-0.05769 -0.387883,-0.113612 v -3.379294 c 0.171371,-0.115828 0.351173,-0.203816 0.540029,-0.263734 0.188857,-0.0639 0.372486,-0.09563 0.550853,-0.09563 z m 8.099825,2.126693 v 1.402147 c -0.14689,0.143793 -0.318317,0.259331 -0.514169,0.347202 -0.192355,0.08787 -0.383044,0.13216 -0.5719,0.13216 -0.237823,0 -0.412479,-0.01796 -0.524395,-0.05391 -0.111915,-0.03994 -0.208217,-0.09981 -0.288657,-0.179689 -0.08393,-0.07988 -0.135971,-0.16427 -0.156955,-0.252142 -0.02099,-0.08787 -0.03187,-0.201611 -0.03187,-0.341407 0,-0.211699 0.04941,-0.381107 0.147336,-0.508925 0.101418,-0.131813 0.246532,-0.231775 0.43539,-0.299672 0.153882,-0.05593 0.379262,-0.10381 0.676536,-0.143752 0.297276,-0.04394 0.573382,-0.07805 0.828686,-0.102016 z m -15.323459,0.08405 c 0.185363,0.03195 0.370906,0.105583 0.556266,0.22142 0.18886,0.111842 0.283246,0.283631 0.283246,0.515299 0,0.227675 -0.08218,0.401268 -0.246562,0.521097 -0.164373,0.115833 -0.362123,0.19185 -0.59295,0.227795 z" />
    <path
       id="path870"
       style="color:#000000;font-style:normal;font-variant:normal;font-weight:normal;font-stretch:normal;font-size:medium;line-height:normal;font-family:sans-serif;font-variant-ligatures:normal;font-variant-position:normal;font-variant-caps:normal;font-variant-numeric:normal;font-variant-alternates:normal;font-variant-east-asian:normal;font-feature-settings:normal;font-variation-settings:normal;text-indent:0;text-align:start;text-decoration:none;text-decoration-line:none;text-decoration-style:solid;text-decoration-color:#000000;letter-spacing:normal;word-spacing:normal;text-transform:none;writing-mode:lr-tb;direction:ltr;text-orientation:mixed;dominant-baseline:auto;baseline-shift:baseline;text-anchor:start;white-space:normal;shape-padding:0;shape-margin:0;inline-size:0;clip-rule:nonzero;display:inline;overflow:visible;visibility:visible;opacity:1;isolation:auto;mix-blend-mode:normal;color-interpolation:sRGB;color-interpolation-filters:linearRGB;solid-color:#000000;solid-opacity:1;vector-effect:none;fill:#808080;fill-opacity:1;fill-rule:nonzero;stroke:none;stroke-width:1.5875;stroke-linecap:square;stroke-linejoin:miter;stroke-miterlimit:4;stroke-dasharray:none;stroke-dashoffset:0;stroke-opacity:1;paint-order:markers stroke fill;color-rendering:auto;image-rendering:auto;shape-rendering:auto;text-rendering:auto;enable-background:accumulate;stop-color:#000000;stop-opacity:1"
       d="M 8.4666666,5.8203176 V 6.615101 11.773443 H 5.2911499 v 1.324466 H 8.4666666 V 17.06666 H 5.2911499 v 1.321883 h 3.1755167 v 3.96875 H 5.2911499 v 1.3224 h 3.1755167 v 3.968751 H 5.2911499 v 1.324467 H 8.4666666 V 32.94166 H 5.2911499 v 1.321882 h 3.1755167 v 3.96875 H 5.2911499 v 1.322401 h 3.1755167 v 4.894273 H 55.033333 V 43.847454 L 62.706249,38.60953 V 26.183416 L 59.819603,24.70547 62.706249,22.734531 V 10.308416 L 55.033333,6.3794565 V 5.8203176 Z M 55.033333,7.2285002 62.123857,10.857219 V 22.244122 L 59.075981,24.324615 55.033333,22.25394 Z M 10.054683,7.4083343 H 53.445317 V 42.863535 H 10.054683 v -3.308842 h 3.173967 v -1.322401 h -3.173967 v -3.96875 H 13.22865 V 32.94166 h -3.173967 v -3.968749 h 3.173967 v -1.324467 h -3.173967 v -3.968751 h 3.173967 v -1.3224 h -3.173967 v -3.96875 H 13.22865 V 17.06666 h -3.173967 v -3.968751 h 3.173967 v -1.324466 h -3.173967 z m 44.97865,15.6951667 7.090524,3.62872 v 11.386901 l -7.090524,4.840012 z" />
  </g>
</svg>
