<?xml version="1.0" encoding="UTF-8" standalone="no"?>
<svg
   xmlns:dc="http://purl.org/dc/elements/1.1/"
   xmlns:cc="http://creativecommons.org/ns#"
   xmlns:rdf="http://www.w3.org/1999/02/22-rdf-syntax-ns#"
   xmlns:svg="http://www.w3.org/2000/svg"
   xmlns="http://www.w3.org/2000/svg"
   xmlns:sodipodi="http://sodipodi.sourceforge.net/DTD/sodipodi-0.dtd"
   xmlns:inkscape="http://www.inkscape.org/namespaces/inkscape"
   width="256"
   height="256"
   viewBox="0 0 67.733332 67.733335"
   version="1.1"
   id="svg8"
   inkscape:version="1.0.1 (3bc2e813f5, 2020-09-07)"
   sodipodi:docname="browser-window.svg"
   inkscape:export-filename="C:\Users\keath\Workspace\KMX\elite-streamdeck-icons\ship-lights.png"
   inkscape:export-xdpi="96"
   inkscape:export-ydpi="96">
  <defs
     id="defs2" />
  <sodipodi:namedview
     id="base"
     pagecolor="#000000"
     bordercolor="#666666"
     borderopacity="1.0"
     inkscape:pageopacity="0"
     inkscape:pageshadow="2"
     inkscape:zoom="5.6"
     inkscape:cx="111.90634"
     inkscape:cy="121.54987"
     inkscape:document-units="px"
     inkscape:current-layer="layer2"
     showgrid="true"
     units="px"
     inkscape:snap-grids="true"
     objecttolerance="10000"
     guidetolerance="10000"
     inkscape:window-width="3840"
     inkscape:window-height="2066"
     inkscape:window-x="3829"
     inkscape:window-y="-11"
     inkscape:window-maximized="1"
     inkscape:document-rotation="0"
     showguides="true"
     inkscape:guide-bbox="true">
    <inkscape:grid
       type="xygrid"
       id="grid4623" />
    <sodipodi:guide
       position="-3.96875,62.441667"
       orientation="0,256"
       id="guide3351" />
    <sodipodi:guide
       position="62.441667,42.597917"
       orientation="-1,0"
       id="guide3353"
       inkscape:label=""
       inkscape:locked="false"
       inkscape:color="rgb(0,0,255)" />
    <sodipodi:guide
       position="-2.6458333,22.754167"
       orientation="0,-256"
       id="guide3355" />
    <sodipodi:guide
       position="5.2916667,70.379167"
       orientation="-256,0"
       id="guide3357" />
    <sodipodi:guide
       position="0,67.733334"
       orientation="0,256"
       id="guide3359" />
    <sodipodi:guide
       position="67.733334,67.733334"
       orientation="256,0"
       id="guide3361" />
    <sodipodi:guide
       position="67.733334,0"
       orientation="0,-256"
       id="guide3363" />
    <sodipodi:guide
       position="0,0"
       orientation="-256,0"
       id="guide3365" />
    <sodipodi:guide
       position="0,67.733334"
       orientation="0,256"
       id="guide3367" />
    <sodipodi:guide
       position="67.733334,67.733334"
       orientation="256,0"
       id="guide3369" />
    <sodipodi:guide
       position="67.733334,0"
       orientation="0,-256"
       id="guide3371" />
    <sodipodi:guide
       position="0,0"
       orientation="-256,0"
       id="guide3373" />
    <sodipodi:guide
       position="0,67.733334"
       orientation="0,256"
       id="guide3375" />
    <sodipodi:guide
       position="67.733334,67.733334"
       orientation="256,0"
       id="guide3377" />
    <sodipodi:guide
       position="67.733334,0"
       orientation="0,-256"
       id="guide3379" />
    <sodipodi:guide
       position="0,0"
       orientation="-256,0"
       id="guide3381" />
    <sodipodi:guide
       position="33.866667,46.83125"
       orientation="1,0"
       id="guide895" />
    <sodipodi:guide
       position="41.010417,42.597917"
       orientation="0,-1"
       id="guide897" />
  </sodipodi:namedview>
  <metadata
     id="metadata5">
    <rdf:RDF>
      <cc:Work
         rdf:about="">
        <dc:format>image/svg+xml</dc:format>
        <dc:type
           rdf:resource="http://purl.org/dc/dcmitype/StillImage" />
        <dc:title></dc:title>
      </cc:Work>
    </rdf:RDF>
  </metadata>
  <g
     inkscape:groupmode="layer"
     id="layer2"
     inkscape:label="Icon">
    <rect
       style="fill:none;stroke:#808080;stroke-width:1.5875;stroke-linecap:square;paint-order:markers stroke fill"
       id="rect851"
       width="54.239582"
       height="37.041668"
       x="6.614583"
       y="6.614583" />
    <path
       style="font-variation-settings:normal;opacity:1;vector-effect:none;fill:none;fill-opacity:1;stroke:#808080;stroke-width:1.5875;stroke-linecap:butt;stroke-linejoin:miter;stroke-miterlimit:4;stroke-dasharray:none;stroke-dashoffset:0;stroke-opacity:1;stop-color:#000000;stop-opacity:1"
       d="M 6.614584,13.229167 H 60.854167"
       id="path853" />
    <path
       id="path879"
       style="color:#000000;font-style:normal;font-variant:normal;font-weight:normal;font-stretch:normal;font-size:medium;line-height:normal;font-family:sans-serif;font-variant-ligatures:normal;font-variant-position:normal;font-variant-caps:normal;font-variant-numeric:normal;font-variant-alternates:normal;font-variant-east-asian:normal;font-feature-settings:normal;font-variation-settings:normal;text-indent:0;text-align:start;text-decoration:none;text-decoration-line:none;text-decoration-style:solid;text-decoration-color:#000000;letter-spacing:normal;word-spacing:normal;text-transform:none;writing-mode:lr-tb;direction:ltr;text-orientation:mixed;dominant-baseline:auto;baseline-shift:baseline;text-anchor:start;white-space:normal;shape-padding:0;shape-margin:0;inline-size:0;clip-rule:nonzero;display:inline;overflow:visible;visibility:visible;opacity:1;isolation:auto;mix-blend-mode:normal;color-interpolation:sRGB;color-interpolation-filters:linearRGB;solid-color:#000000;solid-opacity:1;vector-effect:none;fill:#808080;fill-opacity:1;fill-rule:nonzero;stroke:none;stroke-width:1.10599;stroke-linecap:butt;stroke-linejoin:round;stroke-miterlimit:4;stroke-dasharray:none;stroke-dashoffset:6.00002;stroke-opacity:1;paint-order:markers fill stroke;color-rendering:auto;image-rendering:auto;shape-rendering:auto;text-rendering:auto;enable-background:accumulate;stop-color:#000000;stop-opacity:1"
       d="m 33.819005,15.83646 c -0.08548,0 -0.170477,0.0026 -0.255267,0.0065 -6.699131,0.135002 -12.107537,5.548762 -12.23607,12.249489 -0.0038,0.08072 -0.0062,0.161789 -0.0062,0.243157 0,0.08137 0.0025,0.162118 0.0062,0.24283 0.128427,6.700795 5.536871,12.113206 12.23607,12.24818 0.08479,0.0039 0.169789,0.0066 0.255267,0.0066 0.08545,0 0.170496,-0.0026 0.255266,-0.0066 6.6992,-0.134974 12.10797,-5.547385 12.236397,-12.24818 0.0037,-0.08072 0.0062,-0.161462 0.0062,-0.24283 0,-0.08137 -0.0025,-0.162442 -0.0062,-0.243157 -0.128533,-6.700727 -5.537266,-12.114487 -12.236397,-12.249489 -0.08477,-0.0039 -0.169808,-0.0065 -0.255266,-0.0065 z m 0,0.701327 c 0.269232,0 0.607267,0.224635 0.963791,0.790669 0.356523,0.566034 0.699903,1.429409 0.987029,2.507169 0.05283,0.198317 0.103073,0.406085 0.152177,0.618529 -0.684183,-0.07352 -1.386069,-0.113888 -2.102997,-0.113888 -0.716463,0 -1.417686,0.04013 -2.101361,0.113561 0.0491,-0.212322 0.09937,-0.419994 0.152176,-0.618202 0.287125,-1.07776 0.629196,-1.941134 0.985719,-2.507169 0.356524,-0.566034 0.694232,-0.790669 0.963466,-0.790669 z m -1.417053,0.211412 c -0.04724,0.0663 -0.09376,0.134077 -0.138761,0.205522 -0.41785,0.663401 -0.772601,1.579676 -1.071134,2.700254 -0.07589,0.284865 -0.147938,0.583142 -0.215994,0.893431 -1.142064,0.168672 -2.224141,0.43677 -3.22355,0.790997 0.236359,-0.499484 0.495668,-0.969882 0.777579,-1.403635 1.055605,-1.624167 2.393929,-2.744845 3.87186,-3.186569 z m 2.834104,0 c 1.478052,0.441661 2.816511,1.562291 3.872189,3.186569 0.281792,0.433571 0.540971,0.903731 0.777251,1.40298 -0.999311,-0.354022 -2.081398,-0.621743 -3.223222,-0.790342 -0.06805,-0.310289 -0.140103,-0.608565 -0.215994,-0.893431 -0.298534,-1.120578 -0.653285,-2.036853 -1.071135,-2.700254 -0.04501,-0.07146 -0.09184,-0.139218 -0.139089,-0.205522 z m -5.056553,0.362609 c -0.840463,0.625166 -1.595895,1.456844 -2.236849,2.443025 -0.422652,0.650295 -0.795919,1.370806 -1.11597,2.145869 -0.637842,0.275042 -1.235184,0.586463 -1.783263,0.931393 -1.021989,0.643183 -1.877,1.407085 -2.510113,2.258448 1.121,-3.681665 3.991993,-6.595956 7.646195,-7.778735 z m 7.278676,0 c 3.653929,1.182502 6.525129,4.096003 7.646523,7.777099 -0.63273,-0.850759 -1.487089,-1.614007 -2.50848,-2.256812 -0.548429,-0.34515 -1.146483,-0.656549 -1.784896,-0.93172 -0.320016,-0.774912 -0.693065,-1.495357 -1.115642,-2.145542 -0.641009,-0.986265 -1.396956,-1.81784 -2.237505,-2.443025 z m -3.639174,3.928476 c 0.772666,0 1.527145,0.04805 2.25812,0.136468 0.232136,1.17749 0.405929,2.531411 0.511841,3.993275 -0.891602,-0.04917 -1.815917,-0.07756 -2.769961,-0.07756 -0.954045,-10e-7 -1.878034,0.02839 -2.769636,0.07756 0.106174,-1.461869 0.280503,-2.815782 0.512824,-3.993275 0.730675,-0.08834 1.484484,-0.136468 2.256812,-0.136468 z m -2.990538,0.238903 c -0.221709,1.178744 -0.385764,2.508136 -0.485659,3.934039 -1.41381,0.09963 -2.716821,0.259978 -3.872842,0.467333 0.18282,-1.233472 0.48849,-2.392816 0.896376,-3.443145 1.04904,-0.426493 2.213923,-0.754977 3.462125,-0.958227 z m 5.981402,0 c 1.248128,0.203261 2.413142,0.531747 3.462126,0.958227 0.407885,1.050329 0.713555,2.209673 0.896376,3.443145 -1.15611,-0.207371 -2.459237,-0.367703 -3.87317,-0.467333 -0.09989,-1.425889 -0.263626,-2.755305 -0.485332,-3.934039 z m -10.333358,1.35749 c -0.334781,0.992252 -0.585948,2.059111 -0.736344,3.18166 -0.202274,0.0423 -0.401007,0.08583 -0.591693,0.131232 -1.118693,0.266356 -2.031794,0.582167 -2.694037,0.954957 -0.08564,0.04821 -0.167802,0.09799 -0.24643,0.149232 0.421855,-1.459726 1.551007,-2.785495 3.207514,-3.828006 0.332872,-0.209491 0.688749,-0.405129 1.06099,-0.589075 z m 14.685315,0 c 0.372192,0.183928 0.72783,0.379609 1.060661,0.589075 1.656508,1.042511 2.785661,2.36828 3.207514,3.828006 -0.07863,-0.05124 -0.160468,-0.101027 -0.246102,-0.149232 -0.662243,-0.37279 -1.575345,-0.688601 -2.694036,-0.954957 -0.190688,-0.0454 -0.38942,-0.08893 -0.591693,-0.131232 -0.150397,-1.122549 -0.401565,-2.189409 -0.736344,-3.18166 z m -7.342821,3.155806 c 0.972313,0 1.912848,0.03055 2.818069,0.08247 0.04393,0.794335 0.06774,1.617152 0.06774,2.460698 0,0.843188 -0.02352,1.665485 -0.06742,2.459388 -0.90532,0.05178 -1.845965,0.08247 -2.818396,0.08247 -0.972393,0 -1.912783,-0.0307 -2.81807,-0.08247 -0.04402,-0.793903 -0.06742,-1.6162 -0.06742,-2.459388 0,-0.843546 0.0237,-1.666364 0.06775,-2.460698 0.905188,-0.05191 1.845469,-0.08247 2.817744,-0.08247 z m -3.522997,0.125669 c -0.04162,0.781945 -0.06381,1.589844 -0.06381,2.417499 0,0.827424 0.02222,1.63456 0.06381,2.41619 -1.445291,-0.105064 -2.767881,-0.27375 -3.919312,-0.489587 -0.06645,-0.627072 -0.102761,-1.270103 -0.102761,-1.926603 0,-0.656479 0.03632,-1.299799 0.102761,-1.92693 1.151434,-0.215993 2.474015,-0.38523 3.919312,-0.490569 z m 7.045992,0 c 1.445306,0.105339 2.768201,0.274576 3.919641,0.490569 0.06644,0.627131 0.102434,1.270451 0.102434,1.92693 0,0.6565 -0.03599,1.299531 -0.102434,1.926603 -1.151436,0.215837 -2.474341,0.384523 -3.919641,0.489587 0.0416,-0.78163 0.06414,-1.588766 0.06414,-2.41619 0,-0.827656 -0.02252,-1.635554 -0.06414,-2.417499 z M 25.657696,26.55239 c -0.0545,0.582702 -0.08378,1.177718 -0.08378,1.783261 0,0.605543 0.02927,1.200232 0.08378,1.782933 -0.117628,-0.02584 -0.234221,-0.05164 -0.347226,-0.07854 -1.079647,-0.25706 -1.944887,-0.565312 -2.512079,-0.884596 -0.567192,-0.319283 -0.776924,-0.619173 -0.776924,-0.819795 0,-0.200621 0.209732,-0.502149 0.776924,-0.821432 0.567192,-0.319284 1.432432,-0.626227 2.512079,-0.883286 0.113005,-0.02691 0.229598,-0.05269 0.347226,-0.07854 z m 16.322616,0 c 0.117646,0.02585 0.234532,0.05163 0.347555,0.07854 1.079646,0.257059 1.946195,0.564002 2.513386,0.883286 0.567193,0.319283 0.775288,0.620811 0.775288,0.821432 0,0.200622 -0.208095,0.500512 -0.775288,0.819795 -0.567191,0.319284 -1.43374,0.627536 -2.513386,0.884596 -0.113023,0.0269 -0.229909,0.05269 -0.347555,0.07854 0.0545,-0.582701 0.08411,-1.17739 0.08411,-1.782933 0,-0.605543 -0.0296,-1.200559 -0.08411,-1.783261 z m -19.772305,3.065154 c 0.07863,0.05124 0.160796,0.100699 0.24643,0.148905 0.662243,0.37279 1.575344,0.688602 2.694037,0.954957 0.190686,0.0454 0.389419,0.08894 0.591693,0.131232 0.150385,1.122619 0.401552,2.189349 0.736344,3.181659 -0.372241,-0.183896 -0.728118,-0.379584 -1.06099,-0.589075 -1.656392,-1.04244 -2.78559,-2.368072 -3.207514,-3.827678 z m 23.221994,0 c -0.421922,1.459606 -1.551122,2.785238 -3.207514,3.827678 -0.332831,0.209466 -0.688469,0.405198 -1.060661,0.589075 0.334792,-0.99231 0.585957,-2.05904 0.736344,-3.181659 0.202273,-0.04229 0.401005,-0.08583 0.591693,-0.131232 1.118691,-0.266355 2.031793,-0.582167 2.694036,-0.954957 0.08563,-0.04821 0.167474,-0.09767 0.246102,-0.148905 z m -18.960035,1.372871 c 1.156021,0.207186 2.459032,0.366981 3.872842,0.466352 0.0999,1.426032 0.263887,2.755561 0.485659,3.934367 -1.24807,-0.203011 -2.412842,-0.531349 -3.461798,-0.957575 -0.408051,-1.050312 -0.713825,-2.209562 -0.896703,-3.443144 z m 14.698405,0 c -0.18288,1.233582 -0.488651,2.392832 -0.896703,3.443144 -1.048988,0.42625 -2.214008,0.754555 -3.462125,0.957575 0.221774,-1.178811 0.385758,-2.508324 0.485658,-3.934367 1.413933,-0.09937 2.71706,-0.259152 3.87317,-0.466352 z m -10.119002,0.50955 c 0.891602,0.04903 1.815591,0.07756 2.769636,0.07756 0.954161,0 1.878585,-0.02852 2.770288,-0.07756 -0.105906,1.461907 -0.27999,2.815758 -0.512168,3.993275 -0.730975,0.08831 -1.485454,0.136141 -2.25812,0.136141 -0.772328,0 -1.526137,-0.0479 -2.256812,-0.136141 -0.232362,-1.177515 -0.406657,-2.531371 -0.512824,-3.993275 z m -8.516389,0.279484 c 0.633142,0.851236 1.488305,1.614846 2.510441,2.258121 0.547965,0.344859 1.145244,0.656284 1.782935,0.931395 0.320164,0.775533 0.693422,1.496535 1.116298,2.147177 0.641284,0.986689 1.397174,1.818342 2.238157,2.443352 -3.655138,-1.182618 -6.526912,-4.097484 -7.647831,-7.780045 z m 22.572048,0.0017 c -1.121322,3.682027 -3.993245,6.596418 -7.648157,7.778737 0.841133,-0.625043 1.597434,-1.456844 2.238813,-2.443679 0.422773,-0.650486 0.796183,-1.371202 1.116297,-2.146525 0.638206,-0.275222 1.23597,-0.586997 1.784241,-0.932047 1.021539,-0.642898 1.87605,-1.405853 2.508806,-2.256486 z m -17.352187,3.55016 c 0.999392,0.354396 2.081519,0.622168 3.223549,0.790998 0.06799,0.309902 0.139856,0.608211 0.215667,0.892775 0.298533,1.120578 0.653284,2.036527 1.071134,2.699927 0.0453,0.07191 0.09217,0.140133 0.139742,0.206831 -1.478316,-0.441863 -2.817005,-1.563026 -3.872841,-3.18755 -0.281787,-0.433562 -0.540976,-0.903826 -0.777251,-1.402981 z m 12.132329,3.35e-4 c -0.236232,0.499022 -0.495206,0.969194 -0.776925,1.402653 -1.05591,1.624636 -2.394733,2.74575 -3.87317,3.18755 0.04758,-0.06671 0.09477,-0.134909 0.14007,-0.206831 0.41785,-0.663401 0.772601,-1.579349 1.071135,-2.699928 0.07581,-0.284565 0.147672,-0.582872 0.215667,-0.892775 1.141829,-0.16876 2.2239,-0.436462 3.223223,-0.790669 z m -8.167199,0.885278 c 0.683581,0.0735 1.384676,0.113887 2.101034,0.113887 0.716811,0 1.418594,-0.0403 2.10267,-0.113887 -0.04901,0.211958 -0.09913,0.41964 -0.15185,0.617547 -0.287126,1.07776 -0.630506,1.941134 -0.987029,2.507168 -0.356524,0.566034 -0.694559,0.791652 -0.963791,0.791652 -0.269234,-2e-6 -0.606942,-0.225618 -0.963466,-0.791652 -0.356523,-0.566034 -0.698594,-1.429408 -0.985719,-2.507168 -0.05272,-0.197898 -0.102822,-0.4056 -0.151849,-0.617547 z" />
  </g>
</svg>
