<?xml version="1.0" encoding="UTF-8" standalone="no"?>
<svg
   xmlns:dc="http://purl.org/dc/elements/1.1/"
   xmlns:cc="http://creativecommons.org/ns#"
   xmlns:rdf="http://www.w3.org/1999/02/22-rdf-syntax-ns#"
   xmlns:svg="http://www.w3.org/2000/svg"
   xmlns="http://www.w3.org/2000/svg"
   xmlns:sodipodi="http://sodipodi.sourceforge.net/DTD/sodipodi-0.dtd"
   xmlns:inkscape="http://www.inkscape.org/namespaces/inkscape"
   width="256"
   height="256"
   viewBox="0 0 67.733332 67.733335"
   version="1.1"
   id="svg8"
   inkscape:version="1.0.1 (3bc2e813f5, 2020-09-07)"
   sodipodi:docname="browser-debug.svg"
   inkscape:export-filename="C:\Users\keath\Workspace\KMX\elite-streamdeck-icons\ship-lights.png"
   inkscape:export-xdpi="96"
   inkscape:export-ydpi="96">
  <defs
     id="defs2" />
  <sodipodi:namedview
     id="base"
     pagecolor="#000000"
     bordercolor="#666666"
     borderopacity="1.0"
     inkscape:pageopacity="0"
     inkscape:pageshadow="2"
     inkscape:zoom="5.6"
     inkscape:cx="111.90634"
     inkscape:cy="121.54987"
     inkscape:document-units="px"
     inkscape:current-layer="layer2"
     showgrid="true"
     units="px"
     inkscape:snap-grids="true"
     objecttolerance="10000"
     guidetolerance="10000"
     inkscape:window-width="2705"
     inkscape:window-height="1895"
     inkscape:window-x="4625"
     inkscape:window-y="96"
     inkscape:window-maximized="0"
     inkscape:document-rotation="0"
     showguides="true"
     inkscape:guide-bbox="true">
    <inkscape:grid
       type="xygrid"
       id="grid4623" />
    <sodipodi:guide
       position="-3.96875,62.441667"
       orientation="0,256"
       id="guide3351" />
    <sodipodi:guide
       position="62.441667,42.597917"
       orientation="-1,0"
       id="guide3353"
       inkscape:label=""
       inkscape:locked="false"
       inkscape:color="rgb(0,0,255)" />
    <sodipodi:guide
       position="-2.6458333,22.754167"
       orientation="0,-256"
       id="guide3355" />
    <sodipodi:guide
       position="5.2916667,70.379167"
       orientation="-256,0"
       id="guide3357" />
    <sodipodi:guide
       position="0,67.733334"
       orientation="0,256"
       id="guide3359" />
    <sodipodi:guide
       position="67.733334,67.733334"
       orientation="256,0"
       id="guide3361" />
    <sodipodi:guide
       position="67.733334,0"
       orientation="0,-256"
       id="guide3363" />
    <sodipodi:guide
       position="0,0"
       orientation="-256,0"
       id="guide3365" />
    <sodipodi:guide
       position="0,67.733334"
       orientation="0,256"
       id="guide3367" />
    <sodipodi:guide
       position="67.733334,67.733334"
       orientation="256,0"
       id="guide3369" />
    <sodipodi:guide
       position="67.733334,0"
       orientation="0,-256"
       id="guide3371" />
    <sodipodi:guide
       position="0,0"
       orientation="-256,0"
       id="guide3373" />
    <sodipodi:guide
       position="0,67.733334"
       orientation="0,256"
       id="guide3375" />
    <sodipodi:guide
       position="67.733334,67.733334"
       orientation="256,0"
       id="guide3377" />
    <sodipodi:guide
       position="67.733334,0"
       orientation="0,-256"
       id="guide3379" />
    <sodipodi:guide
       position="0,0"
       orientation="-256,0"
       id="guide3381" />
    <sodipodi:guide
       position="33.866667,46.83125"
       orientation="1,0"
       id="guide895" />
    <sodipodi:guide
       position="41.010417,42.597917"
       orientation="0,-1"
       id="guide897" />
  </sodipodi:namedview>
  <metadata
     id="metadata5">
    <rdf:RDF>
      <cc:Work
         rdf:about="">
        <dc:format>image/svg+xml</dc:format>
        <dc:type
           rdf:resource="http://purl.org/dc/dcmitype/StillImage" />
        <dc:title></dc:title>
      </cc:Work>
    </rdf:RDF>
  </metadata>
  <g
     inkscape:groupmode="layer"
     id="layer2"
     inkscape:label="Icon">
    <path
       id="path906"
       style="color:#000000;font-style:normal;font-variant:normal;font-weight:normal;font-stretch:normal;font-size:medium;line-height:normal;font-family:sans-serif;font-variant-ligatures:normal;font-variant-position:normal;font-variant-caps:normal;font-variant-numeric:normal;font-variant-alternates:normal;font-variant-east-asian:normal;font-feature-settings:normal;font-variation-settings:normal;text-indent:0;text-align:start;text-decoration:none;text-decoration-line:none;text-decoration-style:solid;text-decoration-color:#000000;letter-spacing:normal;word-spacing:normal;text-transform:none;writing-mode:lr-tb;direction:ltr;text-orientation:mixed;dominant-baseline:auto;baseline-shift:baseline;text-anchor:start;white-space:normal;shape-padding:0;shape-margin:0;inline-size:0;clip-rule:nonzero;display:inline;overflow:visible;visibility:visible;isolation:auto;mix-blend-mode:normal;color-interpolation:sRGB;color-interpolation-filters:linearRGB;solid-color:#000000;solid-opacity:1;vector-effect:none;fill:#808080;fill-opacity:1;fill-rule:nonzero;stroke:none;stroke-width:0.999999;stroke-linecap:square;stroke-linejoin:miter;stroke-miterlimit:4;stroke-dasharray:none;stroke-dashoffset:0;stroke-opacity:1;paint-order:markers stroke fill;color-rendering:auto;image-rendering:auto;shape-rendering:auto;text-rendering:auto;enable-background:accumulate;stop-color:#000000"
       d="M 76.248047,22.765625 72.009766,27.009766 95,50 c -3.547279,4.159317 -6.351361,9.525319 -8.019531,15.757812 l -0.169922,0.626954 H 139.7832 l -0.16992,-0.626954 c -1.54867,-5.786033 -4.07426,-10.827534 -7.26562,-14.849609 l 23.90429,-23.898437 -4.24414,-4.244141 -23.81836,23.818359 c -4.3565,-3.71735 -9.47777,-5.843466 -14.89257,-5.84375 -0.0166,-1.9e-5 -0.0344,-1.9e-5 -0.0508,0 -5.02306,0.01172 -9.79327,1.851888 -13.931637,5.091797 z m -24.626953,45.457031 -4.990235,3.330078 10.644532,15.958985 17.589843,4.40039 c -0.115956,1.534322 -0.189566,3.075198 -0.189453,4.623047 -2.2e-5,2.84499 0.204511,5.633344 0.578125,8.353514 H 47.125 v 5.99414 h 29.263672 c 1.02045,4.18129 2.470871,8.13569 4.298828,11.77344 l -18.628906,4.65234 -10.613282,21.23633 5.365235,2.67969 9.382812,-18.76367 17.634766,-4.40821 c 6.256179,9.3575 15.268657,15.79399 25.597655,17.33204 A 47.499995,47.499995 0 0 1 105.92773,127.5 47.499995,47.499995 0 0 1 111.62695,104.94336 V 74.386719 H 78.892578 l -0.125,0.316406 c -1.418052,3.575074 -2.467236,7.341466 -3.152344,11.208984 l -14.632812,-3.65625 z m 125.013676,0 -9.25391,13.873047 a 47.499995,47.499995 0 0 1 5.75195,2.185547 l 8.49024,-12.728516 z m -60.00586,6.164063 v 0.5 22.580078 a 47.499995,47.499995 0 0 1 34.66211,-17.419922 c -0.51572,-1.819313 -1.11469,-3.604682 -1.80469,-5.34375 l -0.125,-0.316406 z"
       transform="scale(0.26458333)" />
    <path
       id="path879"
       style="color:#000000;font-style:normal;font-variant:normal;font-weight:normal;font-stretch:normal;font-size:medium;line-height:normal;font-family:sans-serif;font-variant-ligatures:normal;font-variant-position:normal;font-variant-caps:normal;font-variant-numeric:normal;font-variant-alternates:normal;font-variant-east-asian:normal;font-feature-settings:normal;font-variation-settings:normal;text-indent:0;text-align:start;text-decoration:none;text-decoration-line:none;text-decoration-style:solid;text-decoration-color:#000000;letter-spacing:normal;word-spacing:normal;text-transform:none;writing-mode:lr-tb;direction:ltr;text-orientation:mixed;dominant-baseline:auto;baseline-shift:baseline;text-anchor:start;white-space:normal;shape-padding:0;shape-margin:0;inline-size:0;clip-rule:nonzero;display:inline;overflow:visible;visibility:visible;opacity:1;isolation:auto;mix-blend-mode:normal;color-interpolation:sRGB;color-interpolation-filters:linearRGB;solid-color:#000000;solid-opacity:1;vector-effect:none;fill:#808080;fill-opacity:1;fill-rule:nonzero;stroke:none;stroke-width:1.10599;stroke-linecap:butt;stroke-linejoin:round;stroke-miterlimit:4;stroke-dasharray:none;stroke-dashoffset:6.00002;stroke-opacity:1;paint-order:markers fill stroke;color-rendering:auto;image-rendering:auto;shape-rendering:auto;text-rendering:auto;enable-background:accumulate;stop-color:#000000;stop-opacity:1"
       d="m 40.544647,23.075848 c -0.07421,0 -0.14801,0.0022 -0.221627,0.0056 -5.816268,0.117209 -10.511913,4.817503 -10.623507,10.635157 -0.0033,0.07008 -0.0054,0.140468 -0.0054,0.211112 0,0.07065 0.0021,0.140754 0.0054,0.210829 0.111502,5.817713 4.80718,10.516835 10.623507,10.634021 0.07361,0.0034 0.147414,0.0057 0.221627,0.0057 0.07418,0 0.148026,-0.0022 0.221624,-0.0057 5.816329,-0.117186 10.51229,-4.816308 10.623792,-10.634021 0.0033,-0.07008 0.0054,-0.140184 0.0054,-0.210829 0,-0.07065 -0.0021,-0.141034 -0.0054,-0.211112 -0.111593,-5.81765 -4.807523,-10.517944 -10.623792,-10.635153 -0.07359,-0.0034 -0.147429,-0.0056 -0.221624,-0.0056 z m 0,0.608901 c 0.23375,0 0.527236,0.195031 0.836775,0.686468 0.309538,0.491438 0.607664,1.241031 0.856951,2.176756 0.04587,0.172181 0.08949,0.352568 0.132122,0.537014 -0.594016,-0.06383 -1.203402,-0.09888 -1.825848,-0.09888 -0.622042,0 -1.230852,0.03485 -1.824429,0.0986 0.04263,-0.184342 0.08628,-0.364645 0.132122,-0.536731 0.249285,-0.935725 0.546275,-1.685317 0.855813,-2.176756 0.309539,-0.491437 0.602741,-0.686468 0.836494,-0.686468 z m -1.230303,0.18355 c -0.04102,0.05757 -0.08141,0.116407 -0.120474,0.178437 -0.362783,0.575973 -0.670782,1.371494 -0.929973,2.344394 -0.06589,0.247324 -0.12844,0.506291 -0.187528,0.775688 -0.991554,0.146443 -1.931026,0.379209 -2.798726,0.686754 0.20521,-0.433659 0.430345,-0.842064 0.675104,-1.218654 0.916489,-1.410122 2.078439,-2.383108 3.361597,-2.766619 z m 2.460604,0 c 1.283263,0.383456 2.44533,1.356401 3.361882,2.766619 0.244655,0.376432 0.469678,0.78463 0.674819,1.218084 -0.867614,-0.307365 -1.807095,-0.539804 -2.798441,-0.686184 -0.05908,-0.269397 -0.121639,-0.528364 -0.187528,-0.775688 -0.259191,-0.9729 -0.567191,-1.768421 -0.929973,-2.344394 -0.03907,-0.06204 -0.07974,-0.120871 -0.120759,-0.178437 z m -4.390162,0.314822 c -0.729701,0.542777 -1.385576,1.26485 -1.94206,2.121064 -0.366952,0.564594 -0.691027,1.190152 -0.968899,1.86307 -0.553783,0.238796 -1.072402,0.509175 -1.548252,0.808647 -0.887302,0.55842 -1.629633,1.221649 -2.17931,1.960812 0.973265,-3.196466 3.465897,-5.72669 6.638521,-6.753593 z m 6.319436,0 c 3.172387,1.026663 5.665198,3.556201 6.638806,6.752173 -0.549344,-0.738639 -1.291108,-1.4013 -2.177892,-1.959392 -0.476154,-0.299664 -0.995392,-0.570024 -1.549669,-0.80893 -0.277843,-0.672788 -0.601728,-1.298288 -0.968615,-1.862787 -0.556532,-0.856288 -1.212854,-1.578271 -1.94263,-2.121064 z m -3.159575,3.410751 c 0.670838,0 1.325885,0.04172 1.960527,0.118483 0.201544,1.022311 0.352433,2.197803 0.444387,3.467011 -0.774099,-0.04269 -1.576602,-0.06734 -2.404914,-0.06734 -0.828314,0 -1.630533,0.02465 -2.404633,0.06734 0.09218,-1.269212 0.243536,-2.444696 0.445241,-3.467011 0.634381,-0.0767 1.288846,-0.118483 1.959392,-0.118483 z m -2.596423,0.207418 c -0.19249,1.023401 -0.334925,2.177595 -0.421655,3.415582 -1.227487,0.0865 -2.358778,0.225716 -3.362449,0.405744 0.158726,-1.070915 0.424113,-2.077472 0.778244,-2.989381 0.91079,-0.370286 1.922156,-0.65548 3.00586,-0.831945 z m 5.193128,0 c 1.08364,0.176475 2.09512,0.46167 3.005861,0.831945 0.35413,0.911909 0.619517,1.918466 0.778244,2.989381 -1.003749,-0.180042 -2.13514,-0.319244 -3.362734,-0.405744 -0.08673,-1.237974 -0.228883,-2.392189 -0.421371,-3.415582 z m -8.971549,1.178591 c -0.290661,0.861485 -0.508728,1.787745 -0.639303,2.762356 -0.175618,0.03673 -0.34816,0.07452 -0.513716,0.113937 -0.971263,0.231254 -1.764028,0.505445 -2.338997,0.829106 -0.07436,0.04185 -0.145687,0.08508 -0.213953,0.129565 0.36626,-1.267352 1.346604,-2.418401 2.784804,-3.323522 0.289003,-0.181883 0.59798,-0.351738 0.921165,-0.511442 z m 12.749972,0 c 0.323141,0.159688 0.631911,0.329581 0.920879,0.511442 1.438201,0.905121 2.418545,2.05617 2.784803,3.323522 -0.06826,-0.04448 -0.13932,-0.08771 -0.213668,-0.129565 -0.574968,-0.323661 -1.367735,-0.597852 -2.338996,-0.829106 -0.165558,-0.03942 -0.338099,-0.07721 -0.513716,-0.113937 -0.130576,-0.974611 -0.348642,-1.900872 -0.639302,-2.762356 z m -6.375128,2.739909 c 0.844174,0 1.660758,0.02652 2.446682,0.07161 0.03815,0.689652 0.05881,1.404031 0.05881,2.136409 0,0.732065 -0.02042,1.445994 -0.05853,2.135271 -0.78601,0.04495 -1.60269,0.0716 -2.446966,0.0716 -0.844245,0 -1.660702,-0.02665 -2.446684,-0.0716 -0.03822,-0.689277 -0.05853,-1.403206 -0.05853,-2.135271 0,-0.732378 0.02058,-1.446758 0.05882,-2.136409 0.785896,-0.04508 1.602259,-0.07161 2.446401,-0.07161 z m -3.05871,0.109108 c -0.03614,0.678894 -0.0554,1.380322 -0.0554,2.098903 0,0.718379 0.01929,1.419144 0.0554,2.097765 -1.25482,-0.09122 -2.403109,-0.237672 -3.402795,-0.425065 -0.05769,-0.544432 -0.08922,-1.102719 -0.08922,-1.6727 0,-0.569964 0.03153,-1.128502 0.08922,-1.672985 0.999689,-0.187528 2.14797,-0.334461 3.402795,-0.425918 z m 6.117417,0 c 1.254833,0.09145 2.403387,0.23839 3.403082,0.425918 0.05769,0.544483 0.08894,1.103021 0.08894,1.672985 0,0.569981 -0.03125,1.128268 -0.08894,1.6727 -0.999692,0.187393 -2.148254,0.333848 -3.403082,0.425065 0.03612,-0.678621 0.05569,-1.379386 0.05569,-2.097765 0,-0.718582 -0.01955,-1.420009 -0.05569,-2.098903 z m -10.144457,0.550653 c -0.04732,0.505909 -0.07274,1.02251 -0.07274,1.54825 0,0.525739 0.02541,1.042055 0.07274,1.547964 -0.102126,-0.02244 -0.203354,-0.04483 -0.301466,-0.06819 -0.937363,-0.223182 -1.688575,-0.490811 -2.181018,-0.768017 -0.492443,-0.277206 -0.674536,-0.537574 -0.674536,-0.711756 0,-0.174181 0.182093,-0.435972 0.674536,-0.713178 0.492443,-0.277205 1.243655,-0.543698 2.181018,-0.766879 0.09812,-0.02336 0.19934,-0.04575 0.301466,-0.06819 z m 14.171497,0 c 0.102142,0.02245 0.203624,0.04483 0.301752,0.06819 0.937362,0.223181 1.68971,0.489673 2.182153,0.766879 0.492444,0.277205 0.673114,0.538996 0.673114,0.713178 0,0.174182 -0.18067,0.43455 -0.673114,0.711756 -0.492443,0.277206 -1.244791,0.544835 -2.182153,0.768017 -0.09813,0.02335 -0.19961,0.04575 -0.301752,0.06819 0.04732,-0.505909 0.07302,-1.022225 0.07302,-1.547964 0,-0.525741 -0.0257,-1.042341 -0.07302,-1.54825 z m -17.16656,2.661204 c 0.06826,0.04448 0.139605,0.08743 0.213953,0.129282 0.574969,0.323661 1.367734,0.597853 2.338997,0.829106 0.165556,0.03942 0.338098,0.07722 0.513716,0.113937 0.130566,0.974671 0.348631,1.900819 0.639303,2.762356 -0.323185,-0.159661 -0.632162,-0.329561 -0.921165,-0.511443 -1.4381,-0.905059 -2.418484,-2.055989 -2.784804,-3.323238 z m 20.161623,0 c -0.366317,1.267249 -1.346703,2.418179 -2.784803,3.323238 -0.288968,0.181861 -0.597738,0.351798 -0.920879,0.511443 0.290671,-0.861537 0.508735,-1.787685 0.639302,-2.762356 0.175617,-0.03672 0.348158,-0.07452 0.513716,-0.113937 0.971261,-0.231253 1.764028,-0.505445 2.338996,-0.829106 0.07435,-0.04185 0.145403,-0.0848 0.213668,-0.129282 z M 34.16412,36.232699 c 1.003671,0.179882 2.134962,0.318618 3.362449,0.404893 0.08674,1.238099 0.22911,2.392413 0.421655,3.415866 -1.083589,-0.176256 -2.094859,-0.461324 -3.005575,-0.831378 -0.354275,-0.911895 -0.619752,-1.91837 -0.778529,-2.989381 z m 12.761337,0 c -0.158779,1.071011 -0.424252,2.077486 -0.778529,2.989381 -0.910744,0.370076 -1.922228,0.655113 -3.005859,0.831378 0.192547,-1.023459 0.33492,-2.177758 0.421654,-3.415866 1.227594,-0.08628 2.358985,-0.224999 3.362734,-0.404893 z m -8.785443,0.442398 c 0.7741,0.04257 1.576319,0.06734 2.404633,0.06734 0.828414,0 1.63101,-0.02476 2.405198,-0.06734 -0.09195,1.269246 -0.243091,2.444676 -0.444671,3.467011 -0.634642,0.07667 -1.289689,0.118199 -1.960527,0.118199 -0.670546,0 -1.325011,-0.04159 -1.959392,-0.118199 -0.20174,-1.022333 -0.353065,-2.197768 -0.445241,-3.467011 z m -7.394034,0.242651 c 0.549702,0.739054 1.292165,1.40203 2.179595,1.96053 0.475751,0.29941 0.994316,0.569793 1.547967,0.808648 0.277971,0.673327 0.602038,1.29931 0.969184,1.864206 0.556771,0.856655 1.213044,1.578707 1.943195,2.121348 -3.173436,-1.026763 -5.666745,-3.557486 -6.639941,-6.754732 z m 19.597332,0.0014 c -0.973546,3.196781 -3.466985,5.727092 -6.640225,6.753596 0.730282,-0.542671 1.386912,-1.26485 1.943765,-2.121633 0.367057,-0.56476 0.691256,-1.190495 0.969183,-1.86364 0.554098,-0.238951 1.073085,-0.509638 1.549101,-0.809214 0.886912,-0.558173 1.628809,-1.22058 2.178176,-1.959109 z M 35.277928,40.00144 c 0.867685,0.307691 1.807201,0.540174 2.798725,0.686755 0.05903,0.269061 0.121424,0.528056 0.187244,0.775118 0.259191,0.9729 0.56719,1.768138 0.929973,2.34411 0.03933,0.06244 0.08002,0.121665 0.121325,0.179574 -1.283492,-0.383631 -2.445758,-1.35704 -3.362448,-2.767471 -0.244651,-0.376424 -0.469683,-0.784713 -0.674819,-1.218086 z m 10.533438,2.99e-4 c -0.2051,0.433258 -0.429944,0.841467 -0.674536,1.2178 -0.916754,1.41053 -2.079136,2.383895 -3.362734,2.767471 0.04131,-0.05792 0.08228,-0.117129 0.121611,-0.179573 0.362782,-0.575973 0.670782,-1.371211 0.929973,-2.344111 0.06582,-0.247062 0.12821,-0.506057 0.187245,-0.775118 0.991349,-0.14652 1.930816,-0.378942 2.798441,-0.686469 z m -7.090863,0.768609 c 0.593493,0.06381 1.202192,0.09888 1.824144,0.09888 0.622344,0 1.231641,-0.03499 1.825563,-0.09888 -0.04255,0.184025 -0.08606,0.364337 -0.131837,0.536162 -0.249287,0.935725 -0.547413,1.685317 -0.856951,2.176755 -0.309539,0.491437 -0.603025,0.687322 -0.836775,0.687322 -0.233753,-2e-6 -0.526955,-0.195885 -0.836494,-0.687322 -0.309538,-0.491438 -0.606528,-1.24103 -0.855813,-2.176755 -0.04577,-0.171817 -0.08927,-0.352147 -0.131837,-0.536162 z" />
  </g>
</svg>
