<?xml version="1.0" encoding="UTF-8" standalone="no"?>
<svg
   xmlns:dc="http://purl.org/dc/elements/1.1/"
   xmlns:cc="http://creativecommons.org/ns#"
   xmlns:rdf="http://www.w3.org/1999/02/22-rdf-syntax-ns#"
   xmlns:svg="http://www.w3.org/2000/svg"
   xmlns="http://www.w3.org/2000/svg"
   xmlns:sodipodi="http://sodipodi.sourceforge.net/DTD/sodipodi-0.dtd"
   xmlns:inkscape="http://www.inkscape.org/namespaces/inkscape"
   width="256"
   height="256"
   viewBox="0 0 67.733332 67.733335"
   version="1.1"
   id="svg8"
   inkscape:version="1.0.1 (3bc2e813f5, 2020-09-07)"
   sodipodi:docname="build-settings.svg"
   inkscape:export-filename="C:\Users\keath\Workspace\KMX\elite-streamdeck-icons\ship-lights.png"
   inkscape:export-xdpi="96"
   inkscape:export-ydpi="96">
  <defs
     id="defs2" />
  <sodipodi:namedview
     id="base"
     pagecolor="#000000"
     bordercolor="#666666"
     borderopacity="1.0"
     inkscape:pageopacity="0"
     inkscape:pageshadow="2"
     inkscape:zoom="5.6"
     inkscape:cx="98.406036"
     inkscape:cy="127.86294"
     inkscape:document-units="px"
     inkscape:current-layer="layer2"
     showgrid="true"
     units="px"
     inkscape:snap-grids="true"
     objecttolerance="10000"
     guidetolerance="10000"
     inkscape:window-width="3840"
     inkscape:window-height="2066"
     inkscape:window-x="-11"
     inkscape:window-y="-11"
     inkscape:window-maximized="1"
     inkscape:document-rotation="0"
     showguides="true"
     inkscape:guide-bbox="true"
     inkscape:snap-global="true">
    <inkscape:grid
       type="xygrid"
       id="grid4623" />
    <sodipodi:guide
       position="-3.96875,62.441667"
       orientation="0,256"
       id="guide3351" />
    <sodipodi:guide
       position="62.441667,42.597917"
       orientation="-1,0"
       id="guide3353"
       inkscape:label=""
       inkscape:locked="false"
       inkscape:color="rgb(0,0,255)" />
    <sodipodi:guide
       position="-2.6458333,22.754167"
       orientation="0,-256"
       id="guide3355" />
    <sodipodi:guide
       position="5.2916667,70.379167"
       orientation="-256,0"
       id="guide3357" />
    <sodipodi:guide
       position="0,67.733334"
       orientation="0,256"
       id="guide3359" />
    <sodipodi:guide
       position="67.733334,67.733334"
       orientation="256,0"
       id="guide3361" />
    <sodipodi:guide
       position="67.733334,0"
       orientation="0,-256"
       id="guide3363" />
    <sodipodi:guide
       position="0,0"
       orientation="-256,0"
       id="guide3365" />
    <sodipodi:guide
       position="0,67.733334"
       orientation="0,256"
       id="guide3367" />
    <sodipodi:guide
       position="67.733334,67.733334"
       orientation="256,0"
       id="guide3369" />
    <sodipodi:guide
       position="67.733334,0"
       orientation="0,-256"
       id="guide3371" />
    <sodipodi:guide
       position="0,0"
       orientation="-256,0"
       id="guide3373" />
    <sodipodi:guide
       position="0,67.733334"
       orientation="0,256"
       id="guide3375" />
    <sodipodi:guide
       position="67.733334,67.733334"
       orientation="256,0"
       id="guide3377" />
    <sodipodi:guide
       position="67.733334,0"
       orientation="0,-256"
       id="guide3379" />
    <sodipodi:guide
       position="0,0"
       orientation="-256,0"
       id="guide3381" />
    <sodipodi:guide
       position="33.866667,46.83125"
       orientation="1,0"
       id="guide895" />
    <sodipodi:guide
       position="41.010417,42.597917"
       orientation="0,-1"
       id="guide897" />
  </sodipodi:namedview>
  <metadata
     id="metadata5">
    <rdf:RDF>
      <cc:Work
         rdf:about="">
        <dc:format>image/svg+xml</dc:format>
        <dc:type
           rdf:resource="http://purl.org/dc/dcmitype/StillImage" />
        <dc:title></dc:title>
      </cc:Work>
    </rdf:RDF>
  </metadata>
  <g
     inkscape:groupmode="layer"
     id="layer2"
     inkscape:label="Icon">
    <path
       id="path932"
       style="color:#000000;font-style:normal;font-variant:normal;font-weight:normal;font-stretch:normal;font-size:medium;line-height:normal;font-family:sans-serif;font-variant-ligatures:normal;font-variant-position:normal;font-variant-caps:normal;font-variant-numeric:normal;font-variant-alternates:normal;font-variant-east-asian:normal;font-feature-settings:normal;font-variation-settings:normal;text-indent:0;text-align:start;text-decoration:none;text-decoration-line:none;text-decoration-style:solid;text-decoration-color:#000000;letter-spacing:normal;word-spacing:normal;text-transform:none;writing-mode:lr-tb;direction:ltr;text-orientation:mixed;dominant-baseline:auto;baseline-shift:baseline;text-anchor:start;white-space:normal;shape-padding:0;shape-margin:0;inline-size:0;clip-rule:nonzero;display:inline;overflow:visible;visibility:visible;opacity:1;isolation:auto;mix-blend-mode:normal;color-interpolation:sRGB;color-interpolation-filters:linearRGB;solid-color:#000000;solid-opacity:1;vector-effect:none;fill:#808080;fill-opacity:1;fill-rule:nonzero;stroke:none;stroke-width:8.00001;stroke-linecap:round;stroke-linejoin:round;stroke-miterlimit:4;stroke-dasharray:none;stroke-dashoffset:0;stroke-opacity:1;color-rendering:auto;image-rendering:auto;shape-rendering:auto;text-rendering:auto;enable-background:accumulate;stop-color:#000000;stop-opacity:1"
       d="m 92.248047,38.009766 -44.244141,25.52539 a 4.0004061,4.0004061 0 0 0 -0.308594,6.732422 l 77.996098,55.003902 a 4.0004061,4.0004061 0 0 0 4.63671,-0.0156 l 77,-55.001954 a 4.0004061,4.0004061 0 0 0 -0.31054,-6.710937 L 163.72852,38.244141 c -1.1003,1.492175 -2.6087,2.825977 -3.40821,4.408203 2.90003,0.923656 6.57447,1.152789 9.77344,1.800781 v 6.78125 L 197.65039,67.337891 127.98633,117.0918 57.423828,67.337891 85.914062,50.900391 c -0.143517,-2.169551 -0.340087,-4.364028 0.949219,-6.115235 2.489605,-1.848094 5.872709,-0.904713 8.695313,-1.830078 -0.744322,-1.667735 -2.03123,-3.302901 -3.310547,-4.945312 z M 49.9375,84.962891 a 4.0000058,4.0000058 0 0 0 -0.0957,0.002 4.0000058,4.0000058 0 0 0 -3.115235,1.691406 4.0000058,4.0000058 0 0 0 0.96875,5.580078 l 77.996098,54.996092 a 4.0004061,4.0004061 0 0 0 4.63671,-0.0156 l 77,-54.994144 a 4.0000058,4.0000058 0 0 0 0.92969,-5.582031 4.0000058,4.0000058 0 0 0 -5.58008,-0.929687 L 127.98633,139.06055 52.308594,85.697266 A 4.0000058,4.0000058 0 0 0 49.9375,84.962891 Z m 155,21.035159 a 4.0000058,4.0000058 0 0 0 -2.25977,0.74414 l -74.6914,53.35547 -75.677736,-53.3711 a 4.0000058,4.0000058 0 0 0 -2.466797,-0.72265 4.0000058,4.0000058 0 0 0 -3.115235,1.6914 4.0000058,4.0000058 0 0 0 0.96875,5.57227 l 77.996098,55.00195 a 4.0004061,4.0004061 0 0 0 4.63671,-0.0137 l 77,-55.00195 a 4.0000058,4.0000058 0 0 0 0.92969,-5.58203 4.0000058,4.0000058 0 0 0 -3.32031,-1.67383 z"
       transform="scale(0.26458333)" />
    <path
       d="m 43.416748,16.610817 v -3.501673 l -2.148769,-0.358127 c -0.159145,-0.59688 -0.397897,-1.153992 -0.676487,-1.631496 L 41.86486,9.3687192 39.397733,6.8618233 37.607092,8.0953524 C 37.08982,7.8168316 36.532708,7.5780793 35.975667,7.418866 L 35.617538,5.309935 h -3.501741 l -0.358128,2.1487682 c -0.596881,0.1591453 -1.114154,0.3978975 -1.631427,0.6764183 l -1.750871,-1.233529 -2.506896,2.4671267 1.273367,1.7508018 c -0.278522,0.517342 -0.517273,1.074384 -0.676487,1.671264 l -2.148768,0.318359 v 3.501673 l 2.148768,0.358128 c 0.159145,0.59688 0.397897,1.114222 0.676487,1.631495 l -1.273367,1.79064 2.467128,2.467127 1.790639,-1.273368 c 0.517273,0.278521 1.074384,0.517274 1.671264,0.676487 l 0.358128,2.10893 h 3.501673 l 0.358128,-2.148766 c 0.557111,-0.159146 1.114153,-0.397899 1.631495,-0.67642 l 1.790641,1.273299 2.467057,-2.467059 -1.273298,-1.79064 c 0.278521,-0.517342 0.517273,-1.034615 0.676419,-1.631495 z m -9.550081,1.910016 c -2.029392,0 -3.660886,-1.631427 -3.660886,-3.660819 0,-2.029391 1.671263,-3.660886 3.660886,-3.660886 1.989623,0 3.660887,1.631495 3.660887,3.660886 0,2.029392 -1.631495,3.660819 -3.660887,3.660819 z"
       id="path2"
       style="fill:#808080;fill-opacity:1;stroke-width:0.264583" />
  </g>
</svg>
