<?xml version="1.0" encoding="UTF-8" standalone="no"?>
<svg
   xmlns:dc="http://purl.org/dc/elements/1.1/"
   xmlns:cc="http://creativecommons.org/ns#"
   xmlns:rdf="http://www.w3.org/1999/02/22-rdf-syntax-ns#"
   xmlns:svg="http://www.w3.org/2000/svg"
   xmlns="http://www.w3.org/2000/svg"
   xmlns:sodipodi="http://sodipodi.sourceforge.net/DTD/sodipodi-0.dtd"
   xmlns:inkscape="http://www.inkscape.org/namespaces/inkscape"
   width="256"
   height="256"
   viewBox="0 0 67.733332 67.733335"
   version="1.1"
   id="svg8"
   inkscape:version="1.0.1 (3bc2e813f5, 2020-09-07)"
   sodipodi:docname="c#-ref.svg"
   inkscape:export-filename="C:\Users\keath\Workspace\KMX\elite-streamdeck-icons\ship-lights.png"
   inkscape:export-xdpi="96"
   inkscape:export-ydpi="96">
  <defs
     id="defs2" />
  <sodipodi:namedview
     id="base"
     pagecolor="#000000"
     bordercolor="#666666"
     borderopacity="1.0"
     inkscape:pageopacity="0"
     inkscape:pageshadow="2"
     inkscape:zoom="5.6"
     inkscape:cx="103.35273"
     inkscape:cy="98.178571"
     inkscape:document-units="px"
     inkscape:current-layer="layer2"
     showgrid="true"
     units="px"
     inkscape:snap-grids="true"
     objecttolerance="10000"
     guidetolerance="10000"
     inkscape:window-width="2780"
     inkscape:window-height="1895"
     inkscape:window-x="4681"
     inkscape:window-y="172"
     inkscape:window-maximized="0"
     inkscape:document-rotation="0"
     showguides="true"
     inkscape:guide-bbox="true">
    <inkscape:grid
       type="xygrid"
       id="grid4623" />
    <sodipodi:guide
       position="-3.96875,62.441667"
       orientation="0,256"
       id="guide3351" />
    <sodipodi:guide
       position="62.441667,42.597917"
       orientation="-1,0"
       id="guide3353"
       inkscape:label=""
       inkscape:locked="false"
       inkscape:color="rgb(0,0,255)" />
    <sodipodi:guide
       position="-2.6458333,22.754167"
       orientation="0,-256"
       id="guide3355" />
    <sodipodi:guide
       position="5.2916667,70.379167"
       orientation="-256,0"
       id="guide3357" />
    <sodipodi:guide
       position="0,67.733334"
       orientation="0,256"
       id="guide3359" />
    <sodipodi:guide
       position="67.733334,67.733334"
       orientation="256,0"
       id="guide3361" />
    <sodipodi:guide
       position="67.733334,0"
       orientation="0,-256"
       id="guide3363" />
    <sodipodi:guide
       position="0,0"
       orientation="-256,0"
       id="guide3365" />
    <sodipodi:guide
       position="0,67.733334"
       orientation="0,256"
       id="guide3367" />
    <sodipodi:guide
       position="67.733334,67.733334"
       orientation="256,0"
       id="guide3369" />
    <sodipodi:guide
       position="67.733334,0"
       orientation="0,-256"
       id="guide3371" />
    <sodipodi:guide
       position="0,0"
       orientation="-256,0"
       id="guide3373" />
    <sodipodi:guide
       position="0,67.733334"
       orientation="0,256"
       id="guide3375" />
    <sodipodi:guide
       position="67.733334,67.733334"
       orientation="256,0"
       id="guide3377" />
    <sodipodi:guide
       position="67.733334,0"
       orientation="0,-256"
       id="guide3379" />
    <sodipodi:guide
       position="0,0"
       orientation="-256,0"
       id="guide3381" />
    <sodipodi:guide
       position="33.866667,46.83125"
       orientation="1,0"
       id="guide895" />
    <sodipodi:guide
       position="41.010417,42.597917"
       orientation="0,-1"
       id="guide897" />
  </sodipodi:namedview>
  <metadata
     id="metadata5">
    <rdf:RDF>
      <cc:Work
         rdf:about="">
        <dc:format>image/svg+xml</dc:format>
        <dc:type
           rdf:resource="http://purl.org/dc/dcmitype/StillImage" />
        <dc:title></dc:title>
      </cc:Work>
    </rdf:RDF>
  </metadata>
  <g
     inkscape:groupmode="layer"
     id="layer2"
     inkscape:label="Icon">
    <path
       id="path870"
       style="color:#000000;font-style:normal;font-variant:normal;font-weight:normal;font-stretch:normal;font-size:medium;line-height:normal;font-family:sans-serif;font-variant-ligatures:normal;font-variant-position:normal;font-variant-caps:normal;font-variant-numeric:normal;font-variant-alternates:normal;font-variant-east-asian:normal;font-feature-settings:normal;font-variation-settings:normal;text-indent:0;text-align:start;text-decoration:none;text-decoration-line:none;text-decoration-style:solid;text-decoration-color:#000000;letter-spacing:normal;word-spacing:normal;text-transform:none;writing-mode:lr-tb;direction:ltr;text-orientation:mixed;dominant-baseline:auto;baseline-shift:baseline;text-anchor:start;white-space:normal;shape-padding:0;shape-margin:0;inline-size:0;clip-rule:nonzero;display:inline;overflow:visible;visibility:visible;opacity:1;isolation:auto;mix-blend-mode:normal;color-interpolation:sRGB;color-interpolation-filters:linearRGB;solid-color:#000000;solid-opacity:1;vector-effect:none;fill:#808080;fill-opacity:1;fill-rule:nonzero;stroke:none;stroke-width:6;stroke-linecap:square;stroke-linejoin:miter;stroke-miterlimit:4;stroke-dasharray:none;stroke-dashoffset:0;stroke-opacity:1;paint-order:markers stroke fill;color-rendering:auto;image-rendering:auto;shape-rendering:auto;text-rendering:auto;enable-background:accumulate;stop-color:#000000;stop-opacity:1"
       d="m 32,21.998047 v 3.003906 19.496094 H 19.998047 v 5.005859 H 32 v 15 H 19.998047 V 69.5 H 32 v 15 H 19.998047 v 4.998047 H 32 V 104.49805 H 19.998047 v 5.00586 H 32 v 15 H 19.998047 V 129.5 H 32 v 15 H 19.998047 v 4.99805 H 32 v 18.49804 h 176 v -2.27343 l 29,-19.79688 V 98.960938 L 226.08984,93.375 237,85.925781 V 38.960938 l -29,-14.84961 v -2.113281 z m 176,5.322265 26.79883,13.714844 v 43.03711 L 223.2793,91.935547 208,84.109375 Z M 38.001953,28 H 201.99805 V 162.00391 H 38.001953 V 149.49805 H 49.998047 V 144.5 H 38.001953 v -15 h 11.996094 v -4.99609 H 38.001953 v -15 h 11.996094 v -5.00586 H 38.001953 V 89.498047 H 49.998047 V 84.5 H 38.001953 v -15 H 49.998047 V 64.503906 H 38.001953 v -15 H 49.998047 V 44.498047 H 38.001953 Z M 208,87.320312 234.79883,101.03516 v 43.03711 L 208,162.36523 Z"
       transform="scale(0.26458333)" />
    <path
       id="path6"
       style="fill:#808080;fill-opacity:1;stroke-width:0.264583;stroke-miterlimit:4;stroke-dasharray:none"
       d="m 33.23614,10.217103 c -0.419745,0 -0.839482,0.09204 -1.157878,0.275905 L 21.02355,16.874997 c -0.251777,0.145337 -0.484515,0.375166 -0.675041,0.644339 -0.02473,0.03493 -0.04894,0.06996 -0.07234,0.105989 -0.02421,0.03729 -0.04753,0.0754 -0.06982,0.113979 -4.3e-4,6.89e-4 -7.75e-4,0.0015 -0.0013,0.0022 -0.0051,0.0087 -0.0094,0.01774 -0.0143,0.0265 -0.01657,0.0296 -0.03339,0.05903 -0.04879,0.08917 -0.01893,0.03706 -0.03686,0.07463 -0.05426,0.112297 -6.02e-4,0.0013 -0.0011,0.0023 -0.0017,0.0038 -0.137925,0.299724 -0.220387,0.616797 -0.220387,0.907631 v 12.7644 c 0,0.290808 0.08249,0.607171 0.220387,0.906785 l 5.304036,-3.062383 c -0.680767,-1.258582 -1.067449,-2.697933 -1.067449,-4.226479 0,-4.914919 3.998586,-8.913503 8.913503,-8.913503 3.084717,0 5.966655,1.614812 7.584867,4.231107 l 2.499971,-1.443455 2.802372,-1.617999 C 45.932877,17.250273 45.700001,17.02043 45.448307,16.875064 L 34.394015,10.493008 C 34.075621,10.309146 33.655882,10.217103 33.23614,10.217103 Z m 13.149656,7.756468 -12.625186,7.289195 12.625606,7.289615 c 0.137861,-0.299595 0.219968,-0.616416 0.219968,-0.907205 v -12.7644 c 0,-0.290853 -0.08245,-0.607549 -0.220388,-0.907205 z M 33.23614,20.806224 c -2.457504,0 -4.456963,1.999459 -4.456963,4.456962 0,0.717532 0.171465,1.395051 0.474002,1.996107 l 7.704736,-4.448129 c -0.821603,-1.242821 -2.224005,-2.00494 -3.721775,-2.00494 z m 8.535396,0.756636 h 1.121704 l -0.393668,1.579727 h 1.203719 l 0.398297,-1.579727 h 1.121704 l -0.398296,1.579727 h 1.167551 v 1.094367 h -1.44682 l -0.357077,1.423687 h 1.291201 v 1.098575 h -1.565844 l -0.416383,1.620942 h -1.103621 l 0.40755,-1.620942 h -1.208767 l -0.40755,1.620942 h -1.121705 l 0.412174,-1.620942 h -1.236106 v -1.098575 h 1.51075 l 0.352452,-1.423687 h -1.341253 v -1.094367 h 1.616316 z m 0.448764,2.664841 -0.36633,1.44682 h 1.231479 l 0.361706,-1.44682 z m -8.98416,1.337888 -3.720093,2.147939 c 0.798149,1.207586 2.16734,2.006199 3.720093,2.006199 1.497933,0 2.900516,-0.761899 3.722194,-2.004937 z m -7.582766,4.37789 -4.882175,2.818775 -0.423111,0.244361 c 0.190548,0.269178 0.423696,0.498582 0.675462,0.643919 l 11.054712,6.38241 c 0.636792,0.367724 1.678963,0.367724 2.315753,0 l 11.054294,-6.38241 c 0.25186,-0.145421 0.484923,-0.375086 0.675461,-0.64434 l -5.302341,-3.061031 c -1.618242,2.616424 -4.500481,4.231526 -7.585289,4.231526 -3.199232,0 -6.010112,-1.694884 -7.582766,-4.23321 z" />
  </g>
</svg>
