<?xml version="1.0" encoding="UTF-8" standalone="no"?>
<svg
   xmlns:dc="http://purl.org/dc/elements/1.1/"
   xmlns:cc="http://creativecommons.org/ns#"
   xmlns:rdf="http://www.w3.org/1999/02/22-rdf-syntax-ns#"
   xmlns:svg="http://www.w3.org/2000/svg"
   xmlns="http://www.w3.org/2000/svg"
   xmlns:sodipodi="http://sodipodi.sourceforge.net/DTD/sodipodi-0.dtd"
   xmlns:inkscape="http://www.inkscape.org/namespaces/inkscape"
   width="256"
   height="256"
   viewBox="0 0 67.733332 67.733335"
   version="1.1"
   id="svg8"
   inkscape:version="1.0.1 (3bc2e813f5, 2020-09-07)"
   sodipodi:docname="c++-ref.svg"
   inkscape:export-filename="C:\Users\keath\Workspace\KMX\elite-streamdeck-icons\ship-lights.png"
   inkscape:export-xdpi="96"
   inkscape:export-ydpi="96">
  <defs
     id="defs2" />
  <sodipodi:namedview
     id="base"
     pagecolor="#000000"
     bordercolor="#666666"
     borderopacity="1.0"
     inkscape:pageopacity="0"
     inkscape:pageshadow="2"
     inkscape:zoom="5.6"
     inkscape:cx="111.90634"
     inkscape:cy="121.54987"
     inkscape:document-units="px"
     inkscape:current-layer="layer2"
     showgrid="true"
     units="px"
     inkscape:snap-grids="true"
     objecttolerance="10000"
     guidetolerance="10000"
     inkscape:window-width="2780"
     inkscape:window-height="1895"
     inkscape:window-x="4681"
     inkscape:window-y="172"
     inkscape:window-maximized="0"
     inkscape:document-rotation="0"
     showguides="true"
     inkscape:guide-bbox="true">
    <inkscape:grid
       type="xygrid"
       id="grid4623" />
    <sodipodi:guide
       position="-3.96875,62.441667"
       orientation="0,256"
       id="guide3351" />
    <sodipodi:guide
       position="62.441667,42.597917"
       orientation="-1,0"
       id="guide3353"
       inkscape:label=""
       inkscape:locked="false"
       inkscape:color="rgb(0,0,255)" />
    <sodipodi:guide
       position="-2.6458333,22.754167"
       orientation="0,-256"
       id="guide3355" />
    <sodipodi:guide
       position="5.2916667,70.379167"
       orientation="-256,0"
       id="guide3357" />
    <sodipodi:guide
       position="0,67.733334"
       orientation="0,256"
       id="guide3359" />
    <sodipodi:guide
       position="67.733334,67.733334"
       orientation="256,0"
       id="guide3361" />
    <sodipodi:guide
       position="67.733334,0"
       orientation="0,-256"
       id="guide3363" />
    <sodipodi:guide
       position="0,0"
       orientation="-256,0"
       id="guide3365" />
    <sodipodi:guide
       position="0,67.733334"
       orientation="0,256"
       id="guide3367" />
    <sodipodi:guide
       position="67.733334,67.733334"
       orientation="256,0"
       id="guide3369" />
    <sodipodi:guide
       position="67.733334,0"
       orientation="0,-256"
       id="guide3371" />
    <sodipodi:guide
       position="0,0"
       orientation="-256,0"
       id="guide3373" />
    <sodipodi:guide
       position="0,67.733334"
       orientation="0,256"
       id="guide3375" />
    <sodipodi:guide
       position="67.733334,67.733334"
       orientation="256,0"
       id="guide3377" />
    <sodipodi:guide
       position="67.733334,0"
       orientation="0,-256"
       id="guide3379" />
    <sodipodi:guide
       position="0,0"
       orientation="-256,0"
       id="guide3381" />
    <sodipodi:guide
       position="33.866667,46.83125"
       orientation="1,0"
       id="guide895" />
    <sodipodi:guide
       position="41.010417,42.597917"
       orientation="0,-1"
       id="guide897" />
  </sodipodi:namedview>
  <metadata
     id="metadata5">
    <rdf:RDF>
      <cc:Work
         rdf:about="">
        <dc:format>image/svg+xml</dc:format>
        <dc:type
           rdf:resource="http://purl.org/dc/dcmitype/StillImage" />
        <dc:title />
      </cc:Work>
    </rdf:RDF>
  </metadata>
  <g
     inkscape:groupmode="layer"
     id="layer2"
     inkscape:label="Icon">
    <path
       id="path870"
       style="color:#000000;font-style:normal;font-variant:normal;font-weight:normal;font-stretch:normal;font-size:medium;line-height:normal;font-family:sans-serif;font-variant-ligatures:normal;font-variant-position:normal;font-variant-caps:normal;font-variant-numeric:normal;font-variant-alternates:normal;font-variant-east-asian:normal;font-feature-settings:normal;font-variation-settings:normal;text-indent:0;text-align:start;text-decoration:none;text-decoration-line:none;text-decoration-style:solid;text-decoration-color:#000000;letter-spacing:normal;word-spacing:normal;text-transform:none;writing-mode:lr-tb;direction:ltr;text-orientation:mixed;dominant-baseline:auto;baseline-shift:baseline;text-anchor:start;white-space:normal;shape-padding:0;shape-margin:0;inline-size:0;clip-rule:nonzero;display:inline;overflow:visible;visibility:visible;opacity:1;isolation:auto;mix-blend-mode:normal;color-interpolation:sRGB;color-interpolation-filters:linearRGB;solid-color:#000000;solid-opacity:1;vector-effect:none;fill:#808080;fill-opacity:1;fill-rule:nonzero;stroke:none;stroke-width:1.5875;stroke-linecap:square;stroke-linejoin:miter;stroke-miterlimit:4;stroke-dasharray:none;stroke-dashoffset:0;stroke-opacity:1;paint-order:markers stroke fill;color-rendering:auto;image-rendering:auto;shape-rendering:auto;text-rendering:auto;enable-background:accumulate;stop-color:#000000;stop-opacity:1"
       d="M 8.4666666,5.8203176 V 6.615101 11.773443 H 5.2911499 v 1.324466 H 8.4666666 V 17.06666 H 5.2911499 v 1.321883 h 3.1755167 v 3.96875 H 5.2911499 v 1.3224 h 3.1755167 v 3.968751 H 5.2911499 v 1.324467 H 8.4666666 V 32.94166 H 5.2911499 v 1.321882 h 3.1755167 v 3.96875 H 5.2911499 v 1.322401 h 3.1755167 v 4.894273 H 55.033333 V 43.847454 L 62.706249,38.60953 V 26.183416 L 59.819603,24.70547 62.706249,22.734531 V 10.308416 L 55.033333,6.3794565 V 5.8203176 Z M 55.033333,7.2285002 62.123857,10.857219 V 22.244122 L 59.075981,24.324615 55.033333,22.25394 Z M 10.054683,7.4083343 H 53.445317 V 42.863535 H 10.054683 v -3.308842 h 3.173967 v -1.322401 h -3.173967 v -3.96875 H 13.22865 V 32.94166 h -3.173967 v -3.968749 h 3.173967 v -1.324467 h -3.173967 v -3.968751 h 3.173967 v -1.3224 h -3.173967 v -3.96875 H 13.22865 V 17.06666 h -3.173967 v -3.968751 h 3.173967 v -1.324466 h -3.173967 z m 44.97865,15.6951667 7.090524,3.62872 v 11.386901 l -7.090524,4.840012 z" />
    <path
       id="path853"
       style="fill:#808080;fill-opacity:1;stroke-width:0.264583;stroke-miterlimit:4;stroke-dasharray:none"
       d="m 33.457426,9.20034 c -0.444216,0 -0.888497,0.097376 -1.225457,0.2919594 L 20.532951,16.246497 c -0.266456,0.153813 -0.512997,0.397086 -0.714634,0.681955 -0.02617,0.03696 -0.05177,0.07408 -0.07653,0.112227 -0.02562,0.03945 -0.05037,0.07956 -0.07395,0.120395 -4.61e-4,7.71e-4 -8.31e-4,0.0017 -0.0013,0.0026 -0.0053,0.0092 -0.0098,0.01869 -0.01506,0.02794 -0.01753,0.03131 -0.03531,0.06271 -0.05159,0.0946 -0.02004,0.03923 -0.03878,0.07881 -0.05719,0.118676 -6.38e-4,0.0013 -0.0015,0.003 -0.0021,0.0044 -0.145969,0.3172 -0.233051,0.652361 -0.233051,0.960154 v 13.508823 c 0,0.307766 0.08711,0.642641 0.233051,0.959725 l 5.613465,-3.240793 c -0.720481,-1.331958 -1.13,-2.855883 -1.13,-4.473559 0,-5.201503 4.231927,-9.432999 9.433431,-9.432999 3.264586,0 6.31481,1.70901 8.027379,4.477858 l 2.645615,-1.52779 2.965602,-1.712198 C 46.89446,16.643609 46.648274,16.400358 46.381903,16.246515 L 34.682418,9.4923243 C 34.345457,9.2977405 33.901611,9.200365 33.457393,9.200365 Z m 13.916447,8.208835 -13.361337,7.714352 13.361337,7.714352 c 0.145897,-0.317063 0.233051,-0.652419 0.233051,-0.960154 V 18.369331 c 0,-0.307815 -0.08707,-0.643027 -0.233051,-0.960156 z m -13.916447,2.997852 c -2.600798,0 -4.71693,2.115703 -4.71693,4.7165 0,0.759373 0.181622,1.47684 0.501791,2.112943 l 8.153796,-4.7079 C 36.526574,21.213282 35.04253,20.407027 33.457426,20.407027 Z m 6.261864,1.93493 h 1.479576 v 1.841624 h 1.536765 v 1.147198 0.605848 H 41.198866 V 27.77825 H 39.71929 v -1.841623 h -1.536764 v -1.753046 h 1.536764 z m 4.726818,0 h 1.478716 v 1.841624 h 1.536766 v 1.147198 0.605848 h -1.536766 v 1.841623 h -1.478716 v -1.841623 h -1.536765 v -1.753046 h 1.536765 z m -10.988682,3.101909 -3.936938,2.272896 c 0.844689,1.278003 2.293646,2.123267 3.936938,2.123267 1.585276,0 3.069497,-0.806453 3.939088,-2.121977 z m -8.0248,4.633082 -5.167126,2.983233 -0.447613,0.258421 c 0.201661,0.28487 0.448617,0.527714 0.715064,0.681526 l 11.699018,6.754625 c 0.673921,0.389168 1.776562,0.389168 2.450482,0 l 11.699447,-6.754625 c 0.266545,-0.153903 0.512986,-0.396571 0.714634,-0.681526 l -5.611726,-3.239934 c -1.7126,2.768987 -4.762697,4.47829 -8.02738,4.47829 -3.385776,0 -6.360446,-1.793673 -8.0248,-4.48001 z" />
  </g>
</svg>
