<?xml version="1.0" encoding="UTF-8" standalone="no"?>
<svg
   xmlns:dc="http://purl.org/dc/elements/1.1/"
   xmlns:cc="http://creativecommons.org/ns#"
   xmlns:rdf="http://www.w3.org/1999/02/22-rdf-syntax-ns#"
   xmlns:svg="http://www.w3.org/2000/svg"
   xmlns="http://www.w3.org/2000/svg"
   xmlns:sodipodi="http://sodipodi.sourceforge.net/DTD/sodipodi-0.dtd"
   xmlns:inkscape="http://www.inkscape.org/namespaces/inkscape"
   width="256"
   height="256"
   viewBox="0 0 67.733332 67.733335"
   version="1.1"
   id="svg8"
   inkscape:version="1.0.1 (3bc2e813f5, 2020-09-07)"
   sodipodi:docname="c++.svg"
   inkscape:export-filename="C:\Users\keath\Workspace\KMX\elite-streamdeck-icons\ship-lights.png"
   inkscape:export-xdpi="96"
   inkscape:export-ydpi="96">
  <defs
     id="defs2" />
  <sodipodi:namedview
     id="base"
     pagecolor="#000000"
     bordercolor="#666666"
     borderopacity="1.0"
     inkscape:pageopacity="0"
     inkscape:pageshadow="2"
     inkscape:zoom="7.9195959"
     inkscape:cx="135.39239"
     inkscape:cy="96.169787"
     inkscape:document-units="px"
     inkscape:current-layer="layer2"
     showgrid="true"
     units="px"
     inkscape:snap-grids="true"
     objecttolerance="10000"
     guidetolerance="10000"
     inkscape:window-width="3840"
     inkscape:window-height="2066"
     inkscape:window-x="-11"
     inkscape:window-y="-11"
     inkscape:window-maximized="1"
     inkscape:document-rotation="0"
     showguides="true"
     inkscape:guide-bbox="true">
    <inkscape:grid
       type="xygrid"
       id="grid4623" />
    <sodipodi:guide
       position="-3.96875,62.441667"
       orientation="0,256"
       id="guide3351" />
    <sodipodi:guide
       position="62.441667,42.597917"
       orientation="-1,0"
       id="guide3353"
       inkscape:label=""
       inkscape:locked="false"
       inkscape:color="rgb(0,0,255)" />
    <sodipodi:guide
       position="-2.6458333,22.754167"
       orientation="0,-256"
       id="guide3355" />
    <sodipodi:guide
       position="5.2916667,70.379167"
       orientation="-256,0"
       id="guide3357" />
    <sodipodi:guide
       position="0,67.733334"
       orientation="0,256"
       id="guide3359" />
    <sodipodi:guide
       position="67.733334,67.733334"
       orientation="256,0"
       id="guide3361" />
    <sodipodi:guide
       position="67.733334,0"
       orientation="0,-256"
       id="guide3363" />
    <sodipodi:guide
       position="0,0"
       orientation="-256,0"
       id="guide3365" />
    <sodipodi:guide
       position="0,67.733334"
       orientation="0,256"
       id="guide3367" />
    <sodipodi:guide
       position="67.733334,67.733334"
       orientation="256,0"
       id="guide3369" />
    <sodipodi:guide
       position="67.733334,0"
       orientation="0,-256"
       id="guide3371" />
    <sodipodi:guide
       position="0,0"
       orientation="-256,0"
       id="guide3373" />
    <sodipodi:guide
       position="0,67.733334"
       orientation="0,256"
       id="guide3375" />
    <sodipodi:guide
       position="67.733334,67.733334"
       orientation="256,0"
       id="guide3377" />
    <sodipodi:guide
       position="67.733334,0"
       orientation="0,-256"
       id="guide3379" />
    <sodipodi:guide
       position="0,0"
       orientation="-256,0"
       id="guide3381" />
    <sodipodi:guide
       position="33.866667,46.83125"
       orientation="1,0"
       id="guide895" />
    <sodipodi:guide
       position="41.010417,42.597917"
       orientation="0,-1"
       id="guide897" />
  </sodipodi:namedview>
  <metadata
     id="metadata5">
    <rdf:RDF>
      <cc:Work
         rdf:about="">
        <dc:format>image/svg+xml</dc:format>
        <dc:type
           rdf:resource="http://purl.org/dc/dcmitype/StillImage" />
        <dc:title />
      </cc:Work>
    </rdf:RDF>
  </metadata>
  <g
     inkscape:groupmode="layer"
     id="layer2"
     inkscape:label="Icon">
    <path
       id="path853"
       style="fill:#808080;fill-opacity:1;stroke-width:0.999999;stroke-miterlimit:4;stroke-dasharray:none"
       d="m 128.53711,23.164062 c -2.01777,0 -4.03583,0.442312 -5.56641,1.326172 L 69.830078,55.169922 c -1.210329,0.698664 -2.330197,1.80369 -3.246094,3.097656 -0.118904,0.167925 -0.235177,0.336535 -0.347656,0.509766 -0.116372,0.179187 -0.228788,0.361391 -0.335937,0.546875 -0.0021,0.0035 -0.0038,0.0079 -0.0059,0.01172 -0.02419,0.0418 -0.0447,0.08489 -0.06836,0.126953 -0.07963,0.142223 -0.16041,0.284837 -0.234375,0.429687 -0.09101,0.178167 -0.176163,0.358012 -0.259766,0.539063 -0.0029,0.006 -0.0067,0.01311 -0.0098,0.01953 -0.663039,1.440824 -1.058594,2.963232 -1.058594,4.361328 v 61.36133 c 0,1.39797 0.395691,2.91908 1.058594,4.35937 L 90.820312,115.8125 C 87.547668,109.76233 85.6875,102.84018 85.6875,95.492188 c 0,-23.626867 19.22274,-42.847657 42.84961,-42.847657 14.82878,0 28.68386,7.762861 36.46289,20.339844 l 12.01758,-6.939453 13.4707,-7.777344 c -0.91595,-1.293929 -2.0342,-2.398855 -3.24414,-3.097656 L 134.10156,24.490234 c -1.53058,-0.88386 -3.54667,-1.326171 -5.56445,-1.326172 z M 191.75,60.451172 131.05859,95.492188 191.75,130.5332 c 0.66271,-1.4402 1.05859,-2.96349 1.05859,-4.36132 V 64.8125 c 0,-1.398187 -0.3955,-2.920829 -1.05859,-4.361328 z m -63.21289,13.617187 c -11.81364,0 -21.42578,9.610186 -21.42578,21.423829 0,3.449311 0.82498,6.708272 2.27929,9.597652 l 37.03711,-21.384762 c -3.94958,-5.974454 -10.69058,-9.636719 -17.89062,-9.636719 z m 28.44336,8.789063 h 6.7207 v 8.365234 h 6.98047 v 5.210938 2.751953 h -6.98047 v 8.365233 h -6.7207 V 99.185547 H 150 v -7.962891 h 6.98047 z m 21.4707,0 h 6.7168 v 8.365234 h 6.98047 v 5.210938 2.751953 h -6.98047 v 8.365233 h -6.7168 v -8.365233 h -6.98047 v -7.962891 h 6.98047 z M 128.53711,96.947266 110.6543,107.27148 c 3.83684,5.80509 10.41846,9.64454 17.88281,9.64454 7.20082,0 13.94262,-3.66316 17.89258,-9.63868 z m -36.451172,21.044924 -23.470704,13.55078 -2.033203,1.17383 c 0.916003,1.29397 2.037759,2.39704 3.248047,3.0957 l 53.140622,30.68164 c 3.06116,1.76772 8.0697,1.76772 11.13086,0 l 53.14258,-30.68164 c 1.21073,-0.69907 2.33014,-1.80135 3.24609,-3.0957 L 165,118 c -7.77917,12.57761 -21.63367,20.3418 -36.46289,20.3418 -15.37926,0 -28.891145,-8.14743 -36.451172,-20.34961 z"
       transform="scale(0.26458333)" />
  </g>
</svg>
