<?xml version="1.0" encoding="UTF-8" standalone="no"?>
<svg
   xmlns:dc="http://purl.org/dc/elements/1.1/"
   xmlns:cc="http://creativecommons.org/ns#"
   xmlns:rdf="http://www.w3.org/1999/02/22-rdf-syntax-ns#"
   xmlns:svg="http://www.w3.org/2000/svg"
   xmlns="http://www.w3.org/2000/svg"
   xmlns:sodipodi="http://sodipodi.sourceforge.net/DTD/sodipodi-0.dtd"
   xmlns:inkscape="http://www.inkscape.org/namespaces/inkscape"
   width="256"
   height="256"
   viewBox="0 0 67.733332 67.733335"
   version="1.1"
   id="svg8"
   inkscape:version="1.0.1 (3bc2e813f5, 2020-09-07)"
   sodipodi:docname="c-ref.svg"
   inkscape:export-filename="C:\Users\keath\Workspace\KMX\elite-streamdeck-icons\ship-lights.png"
   inkscape:export-xdpi="96"
   inkscape:export-ydpi="96">
  <defs
     id="defs2" />
  <sodipodi:namedview
     id="base"
     pagecolor="#000000"
     bordercolor="#666666"
     borderopacity="1.0"
     inkscape:pageopacity="0"
     inkscape:pageshadow="2"
     inkscape:zoom="5.6"
     inkscape:cx="111.90634"
     inkscape:cy="121.54987"
     inkscape:document-units="px"
     inkscape:current-layer="layer2"
     showgrid="true"
     units="px"
     inkscape:snap-grids="true"
     objecttolerance="10000"
     guidetolerance="10000"
     inkscape:window-width="2780"
     inkscape:window-height="1895"
     inkscape:window-x="4681"
     inkscape:window-y="172"
     inkscape:window-maximized="0"
     inkscape:document-rotation="0"
     showguides="true"
     inkscape:guide-bbox="true">
    <inkscape:grid
       type="xygrid"
       id="grid4623" />
    <sodipodi:guide
       position="-3.96875,62.441667"
       orientation="0,256"
       id="guide3351" />
    <sodipodi:guide
       position="62.441667,42.597917"
       orientation="-1,0"
       id="guide3353"
       inkscape:label=""
       inkscape:locked="false"
       inkscape:color="rgb(0,0,255)" />
    <sodipodi:guide
       position="-2.6458333,22.754167"
       orientation="0,-256"
       id="guide3355" />
    <sodipodi:guide
       position="5.2916667,70.379167"
       orientation="-256,0"
       id="guide3357" />
    <sodipodi:guide
       position="0,67.733334"
       orientation="0,256"
       id="guide3359" />
    <sodipodi:guide
       position="67.733334,67.733334"
       orientation="256,0"
       id="guide3361" />
    <sodipodi:guide
       position="67.733334,0"
       orientation="0,-256"
       id="guide3363" />
    <sodipodi:guide
       position="0,0"
       orientation="-256,0"
       id="guide3365" />
    <sodipodi:guide
       position="0,67.733334"
       orientation="0,256"
       id="guide3367" />
    <sodipodi:guide
       position="67.733334,67.733334"
       orientation="256,0"
       id="guide3369" />
    <sodipodi:guide
       position="67.733334,0"
       orientation="0,-256"
       id="guide3371" />
    <sodipodi:guide
       position="0,0"
       orientation="-256,0"
       id="guide3373" />
    <sodipodi:guide
       position="0,67.733334"
       orientation="0,256"
       id="guide3375" />
    <sodipodi:guide
       position="67.733334,67.733334"
       orientation="256,0"
       id="guide3377" />
    <sodipodi:guide
       position="67.733334,0"
       orientation="0,-256"
       id="guide3379" />
    <sodipodi:guide
       position="0,0"
       orientation="-256,0"
       id="guide3381" />
    <sodipodi:guide
       position="33.866667,46.83125"
       orientation="1,0"
       id="guide895" />
    <sodipodi:guide
       position="41.010417,42.597917"
       orientation="0,-1"
       id="guide897" />
  </sodipodi:namedview>
  <metadata
     id="metadata5">
    <rdf:RDF>
      <cc:Work
         rdf:about="">
        <dc:format>image/svg+xml</dc:format>
        <dc:type
           rdf:resource="http://purl.org/dc/dcmitype/StillImage" />
        <dc:title />
      </cc:Work>
    </rdf:RDF>
  </metadata>
  <g
     inkscape:groupmode="layer"
     id="layer2"
     inkscape:label="Icon">
    <path
       id="path6"
       style="fill:#808080;fill-opacity:1;stroke-width:0.264583;stroke-miterlimit:4;stroke-dasharray:none"
       d="m 33.246871,10.904931 c -0.401808,0 -0.803616,0.08803 -1.108406,0.264031 l -10.582131,6.109462 c -0.241019,0.139128 -0.463967,0.358946 -0.646352,0.616616 -0.02367,0.03343 -0.04688,0.0673 -0.06928,0.101782 -0.02319,0.03569 -0.0455,0.07203 -0.06683,0.108976 -4.03e-4,6.61e-4 -6.97e-4,0.0014 -0.0012,0.002 -0.0048,0.0083 -0.0091,0.01694 -0.01372,0.02532 -0.01587,0.02833 -0.03166,0.0566 -0.0464,0.08544 -0.01812,0.03549 -0.03532,0.07146 -0.05195,0.107511 -5.67e-4,0.0013 -0.0013,0.0023 -0.0018,0.0036 -0.132033,0.286919 -0.210928,0.590154 -0.210928,0.868562 v 12.219087 c 0,0.278383 0.07892,0.581419 0.21093,0.868229 l 5.077358,-2.931456 c -0.65168,-1.204805 -1.02196,-2.583013 -1.02196,-4.046247 0,-4.704907 3.827722,-8.532627 8.532628,-8.532627 2.952911,0 5.711934,1.545815 7.261002,4.050318 l 2.393278,-1.381776 2.682623,-1.548893 C 45.401414,17.637298 45.178398,17.417502 44.937458,17.278348 L 34.355276,11.168962 c -0.30479,-0.176006 -0.706598,-0.264031 -1.108405,-0.264031 z m 12.588011,7.42504 -12.085765,6.977855 12.085929,6.977854 c 0.131968,-0.286792 0.210767,-0.589866 0.210767,-0.868229 V 19.198363 c 0,-0.278427 -0.07888,-0.58154 -0.210931,-0.868392 z m -12.588011,2.711703 c -2.352496,0 -4.266314,1.913819 -4.266314,4.266317 0,0.686871 0.164111,1.335741 0.453722,1.911114 l 7.375533,-4.258308 c -0.786495,-1.189716 -2.129171,-1.919123 -3.562941,-1.919123 z m 1.67e-4,4.555997 -3.561145,2.05604 c 0.764047,1.155989 2.074576,1.920593 3.560982,1.920593 1.433927,0 2.776697,-0.729523 3.563268,-1.91945 z m -7.25855,4.19083 -4.673796,2.698306 -0.404869,0.233806 c 0.182406,0.257674 0.405506,0.477486 0.646515,0.616614 l 10.582132,6.109627 c 0.609581,0.352012 1.60723,0.352012 2.216811,0 l 10.582132,-6.109627 c 0.241098,-0.139209 0.464119,-0.35903 0.646515,-0.616776 l -5.075892,-2.93048 c -1.549095,2.504629 -4.308167,4.050646 -7.261165,4.050646 -3.06253,0 -5.752932,-1.622248 -7.258386,-4.052116 z m -5.21722,2.716605 c 6.97e-4,0.0015 0.0014,0.0028 0.0022,0.0042 v 1.69e-4 c 0.0014,0.0022 0.0026,0.0044 0.0042,0.0066 l -0.0039,-0.0068 v -1.66e-4 z" />
    <path
       id="path870"
       style="color:#000000;font-style:normal;font-variant:normal;font-weight:normal;font-stretch:normal;font-size:medium;line-height:normal;font-family:sans-serif;font-variant-ligatures:normal;font-variant-position:normal;font-variant-caps:normal;font-variant-numeric:normal;font-variant-alternates:normal;font-variant-east-asian:normal;font-feature-settings:normal;font-variation-settings:normal;text-indent:0;text-align:start;text-decoration:none;text-decoration-line:none;text-decoration-style:solid;text-decoration-color:#000000;letter-spacing:normal;word-spacing:normal;text-transform:none;writing-mode:lr-tb;direction:ltr;text-orientation:mixed;dominant-baseline:auto;baseline-shift:baseline;text-anchor:start;white-space:normal;shape-padding:0;shape-margin:0;inline-size:0;clip-rule:nonzero;display:inline;overflow:visible;visibility:visible;opacity:1;isolation:auto;mix-blend-mode:normal;color-interpolation:sRGB;color-interpolation-filters:linearRGB;solid-color:#000000;solid-opacity:1;vector-effect:none;fill:#808080;fill-opacity:1;fill-rule:nonzero;stroke:none;stroke-width:1.5875;stroke-linecap:square;stroke-linejoin:miter;stroke-miterlimit:4;stroke-dasharray:none;stroke-dashoffset:0;stroke-opacity:1;paint-order:markers stroke fill;color-rendering:auto;image-rendering:auto;shape-rendering:auto;text-rendering:auto;enable-background:accumulate;stop-color:#000000;stop-opacity:1"
       d="M 8.4666666,5.8203176 V 6.615101 11.773443 H 5.2911499 v 1.324466 H 8.4666666 V 17.06666 H 5.2911499 v 1.321883 h 3.1755167 v 3.96875 H 5.2911499 v 1.3224 h 3.1755167 v 3.968751 H 5.2911499 v 1.324467 H 8.4666666 V 32.94166 H 5.2911499 v 1.321882 h 3.1755167 v 3.96875 H 5.2911499 v 1.322401 h 3.1755167 v 4.894273 H 55.033333 V 43.847454 L 62.706249,38.60953 V 26.183416 L 59.819603,24.70547 62.706249,22.734531 V 10.308416 L 55.033333,6.3794565 V 5.8203176 Z M 55.033333,7.2285002 62.123857,10.857219 V 22.244122 L 59.075981,24.324615 55.033333,22.25394 Z M 10.054683,7.4083343 H 53.445317 V 42.863535 H 10.054683 v -3.308842 h 3.173967 v -1.322401 h -3.173967 v -3.96875 H 13.22865 V 32.94166 h -3.173967 v -3.968749 h 3.173967 v -1.324467 h -3.173967 v -3.968751 h 3.173967 v -1.3224 h -3.173967 v -3.96875 H 13.22865 V 17.06666 h -3.173967 v -3.968751 h 3.173967 v -1.324466 h -3.173967 z m 44.97865,15.6951667 7.090524,3.62872 v 11.386901 l -7.090524,4.840012 z" />
  </g>
</svg>
