<?xml version="1.0" encoding="UTF-8" standalone="no"?>
<svg
   xmlns:dc="http://purl.org/dc/elements/1.1/"
   xmlns:cc="http://creativecommons.org/ns#"
   xmlns:rdf="http://www.w3.org/1999/02/22-rdf-syntax-ns#"
   xmlns:svg="http://www.w3.org/2000/svg"
   xmlns="http://www.w3.org/2000/svg"
   xmlns:sodipodi="http://sodipodi.sourceforge.net/DTD/sodipodi-0.dtd"
   xmlns:inkscape="http://www.inkscape.org/namespaces/inkscape"
   width="256"
   height="256"
   viewBox="0 0 67.733332 67.733335"
   version="1.1"
   id="svg8"
   inkscape:version="1.0.1 (3bc2e813f5, 2020-09-07)"
   sodipodi:docname="camera.svg"
   inkscape:export-filename="C:\Users\keath\Workspace\KMX\elite-streamdeck-icons\ship-lights.png"
   inkscape:export-xdpi="96"
   inkscape:export-ydpi="96">
  <defs
     id="defs2">
    <inkscape:perspective
       sodipodi:type="inkscape:persp3d"
       inkscape:vp_x="0 : 33.866667 : 1"
       inkscape:vp_y="0 : 1000 : 0"
       inkscape:vp_z="67.733332 : 33.866667 : 1"
       inkscape:persp3d-origin="33.866666 : 22.577778 : 1"
       id="perspective868" />
  </defs>
  <sodipodi:namedview
     id="base"
     pagecolor="#000000"
     bordercolor="#666666"
     borderopacity="1.0"
     inkscape:pageopacity="0"
     inkscape:pageshadow="2"
     inkscape:zoom="5.6"
     inkscape:cx="121.56895"
     inkscape:cy="127.08077"
     inkscape:document-units="px"
     inkscape:current-layer="layer2"
     showgrid="true"
     units="px"
     inkscape:snap-grids="true"
     objecttolerance="10000"
     guidetolerance="10000"
     inkscape:window-width="3840"
     inkscape:window-height="2066"
     inkscape:window-x="-11"
     inkscape:window-y="-11"
     inkscape:window-maximized="1"
     inkscape:document-rotation="0"
     showguides="true"
     inkscape:guide-bbox="true"
     inkscape:snap-global="false">
    <inkscape:grid
       type="xygrid"
       id="grid4623" />
    <sodipodi:guide
       position="-3.96875,62.441667"
       orientation="0,256"
       id="guide3351" />
    <sodipodi:guide
       position="62.441667,42.597917"
       orientation="-1,0"
       id="guide3353"
       inkscape:label=""
       inkscape:locked="false"
       inkscape:color="rgb(0,0,255)" />
    <sodipodi:guide
       position="-2.6458333,22.754167"
       orientation="0,-256"
       id="guide3355" />
    <sodipodi:guide
       position="5.2916667,70.379167"
       orientation="-256,0"
       id="guide3357" />
    <sodipodi:guide
       position="0,67.733334"
       orientation="0,256"
       id="guide3359" />
    <sodipodi:guide
       position="67.733334,67.733334"
       orientation="256,0"
       id="guide3361" />
    <sodipodi:guide
       position="67.733334,0"
       orientation="0,-256"
       id="guide3363" />
    <sodipodi:guide
       position="0,0"
       orientation="-256,0"
       id="guide3365" />
    <sodipodi:guide
       position="0,67.733334"
       orientation="0,256"
       id="guide3367" />
    <sodipodi:guide
       position="67.733334,67.733334"
       orientation="256,0"
       id="guide3369" />
    <sodipodi:guide
       position="67.733334,0"
       orientation="0,-256"
       id="guide3371" />
    <sodipodi:guide
       position="0,0"
       orientation="-256,0"
       id="guide3373" />
    <sodipodi:guide
       position="0,67.733334"
       orientation="0,256"
       id="guide3375" />
    <sodipodi:guide
       position="67.733334,67.733334"
       orientation="256,0"
       id="guide3377" />
    <sodipodi:guide
       position="67.733334,0"
       orientation="0,-256"
       id="guide3379" />
    <sodipodi:guide
       position="0,0"
       orientation="-256,0"
       id="guide3381" />
    <sodipodi:guide
       position="33.866667,46.83125"
       orientation="1,0"
       id="guide895" />
    <sodipodi:guide
       position="41.010417,42.597917"
       orientation="0,-1"
       id="guide897" />
  </sodipodi:namedview>
  <metadata
     id="metadata5">
    <rdf:RDF>
      <cc:Work
         rdf:about="">
        <dc:format>image/svg+xml</dc:format>
        <dc:type
           rdf:resource="http://purl.org/dc/dcmitype/StillImage" />
        <dc:title></dc:title>
      </cc:Work>
    </rdf:RDF>
  </metadata>
  <g
     inkscape:groupmode="layer"
     id="layer2"
     inkscape:label="Icon">
    <path
       id="rect1077"
       style="fill:#808080;fill-opacity:1;stroke:none;stroke-width:2.11667;stroke-linecap:round;stroke-linejoin:round;stroke-miterlimit:4;stroke-dasharray:none;stroke-opacity:1;paint-order:markers stroke fill"
       d="m 26.458849,11.782744 a 1.0584408,1.0584408 0 0 0 -1.058333,1.058333 v 2.910417 a 1.0584408,1.0584408 0 0 0 0.02481,0.227376 H 12.71912 V 38.468454 H 55.052454 V 15.97887 H 42.043429 a 1.0584408,1.0584408 0 0 0 0.02479,-0.227376 V 12.841077 A 1.0584408,1.0584408 0 0 0 41.009887,11.782744 Z M 15.875,13.230201 a 0.79374999,0.79374999 0 0 0 -0.792717,0.792717 0.79374999,0.79374999 0 0 0 0.792717,0.792716 h 5.29115 a 0.79374999,0.79374999 0 0 0 0.794783,-0.792716 0.79374999,0.79374999 0 0 0 -0.794783,-0.792717 z m 17.919837,4.090706 a 9.8273731,9.8273731 0 0 1 0.0341,0 9.8273731,9.8273731 0 0 1 2.185397,0.24598 h 16.392282 a 1.0584407,1.0584407 0 0 1 1.058849,1.058333 v 17.197401 a 1.0584407,1.0584407 0 0 1 -1.058849,1.058849 h -17.2222 a 9.8273731,9.8273731 0 0 1 -1.355474,0.09405 9.8273731,9.8273731 0 0 1 -1.355471,-0.09405 H 15.36547 A 1.0584407,1.0584407 0 0 1 14.307137,35.822621 V 18.62522 a 1.0584407,1.0584407 0 0 1 1.058333,-1.058333 h 16.278077 a 9.8273731,9.8273731 0 0 1 2.15129,-0.24598 z m 0.0341,1.322917 a 8.5044565,8.5044565 0 0 0 -8.50439,8.50439 8.5044565,8.5044565 0 0 0 8.50439,8.504391 8.5044565,8.5044565 0 0 0 8.504391,-8.504391 8.5044565,8.5044565 0 0 0 -8.504391,-8.50439 z M 16.42432,19.684071 v 15.079698 h 11.193631 a 9.8273731,9.8273731 0 0 1 -3.616315,-7.615555 9.8273731,9.8273731 0 0 1 3.434933,-7.464143 z m 23.796479,0 a 9.8273731,9.8273731 0 0 1 3.43545,7.464143 9.8273731,9.8273731 0 0 1 -3.616317,7.615555 H 51.347769 V 19.684071 Z m 7.66155,1.107942 a 2.3887214,2.3887214 0 0 1 5.29e-4,0 2.3887214,2.3887214 0 0 1 0.0083,0 2.3887214,2.3887214 0 0 1 2.389002,2.389002 2.3887214,2.3887214 0 0 1 -2.389002,2.388484 2.3887214,2.3887214 0 0 1 -2.388483,-2.388484 2.3887214,2.3887214 0 0 1 2.379699,-2.389002 z m -14.053407,0.497644 a 5.8586229,5.8586229 0 0 1 5.858558,5.858557 5.8586229,5.8586229 0 0 1 -5.858558,5.858557 5.8586229,5.8586229 0 0 1 -5.858558,-5.858557 5.8586229,5.8586229 0 0 1 5.858558,-5.858557 z" />
  </g>
</svg>
