<?xml version="1.0" encoding="UTF-8" standalone="no"?>
<svg
   xmlns:dc="http://purl.org/dc/elements/1.1/"
   xmlns:cc="http://creativecommons.org/ns#"
   xmlns:rdf="http://www.w3.org/1999/02/22-rdf-syntax-ns#"
   xmlns:svg="http://www.w3.org/2000/svg"
   xmlns="http://www.w3.org/2000/svg"
   xmlns:sodipodi="http://sodipodi.sourceforge.net/DTD/sodipodi-0.dtd"
   xmlns:inkscape="http://www.inkscape.org/namespaces/inkscape"
   width="256"
   height="256"
   viewBox="0 0 67.733332 67.733335"
   version="1.1"
   id="svg8"
   inkscape:version="1.0.1 (3bc2e813f5, 2020-09-07)"
   sodipodi:docname="clean-build.svg"
   inkscape:export-filename="C:\Users\keath\Workspace\KMX\elite-streamdeck-icons\ship-lights.png"
   inkscape:export-xdpi="96"
   inkscape:export-ydpi="96">
  <defs
     id="defs2" />
  <sodipodi:namedview
     id="base"
     pagecolor="#000000"
     bordercolor="#666666"
     borderopacity="1.0"
     inkscape:pageopacity="0"
     inkscape:pageshadow="2"
     inkscape:zoom="1.4"
     inkscape:cx="54.146389"
     inkscape:cy="315.47496"
     inkscape:document-units="px"
     inkscape:current-layer="layer2"
     showgrid="true"
     units="px"
     inkscape:snap-grids="true"
     objecttolerance="10000"
     guidetolerance="10000"
     inkscape:window-width="3840"
     inkscape:window-height="2066"
     inkscape:window-x="-11"
     inkscape:window-y="-11"
     inkscape:window-maximized="1"
     inkscape:document-rotation="0"
     showguides="true"
     inkscape:guide-bbox="true">
    <inkscape:grid
       type="xygrid"
       id="grid4623" />
    <sodipodi:guide
       position="-3.96875,62.441667"
       orientation="0,256"
       id="guide3351" />
    <sodipodi:guide
       position="62.441667,42.597917"
       orientation="-1,0"
       id="guide3353"
       inkscape:label=""
       inkscape:locked="false"
       inkscape:color="rgb(0,0,255)" />
    <sodipodi:guide
       position="-2.6458333,22.754167"
       orientation="0,-256"
       id="guide3355" />
    <sodipodi:guide
       position="5.2916667,70.379167"
       orientation="-256,0"
       id="guide3357" />
    <sodipodi:guide
       position="0,67.733334"
       orientation="0,256"
       id="guide3359" />
    <sodipodi:guide
       position="67.733334,67.733334"
       orientation="256,0"
       id="guide3361" />
    <sodipodi:guide
       position="67.733334,0"
       orientation="0,-256"
       id="guide3363" />
    <sodipodi:guide
       position="0,0"
       orientation="-256,0"
       id="guide3365" />
    <sodipodi:guide
       position="0,67.733334"
       orientation="0,256"
       id="guide3367" />
    <sodipodi:guide
       position="67.733334,67.733334"
       orientation="256,0"
       id="guide3369" />
    <sodipodi:guide
       position="67.733334,0"
       orientation="0,-256"
       id="guide3371" />
    <sodipodi:guide
       position="0,0"
       orientation="-256,0"
       id="guide3373" />
    <sodipodi:guide
       position="0,67.733334"
       orientation="0,256"
       id="guide3375" />
    <sodipodi:guide
       position="67.733334,67.733334"
       orientation="256,0"
       id="guide3377" />
    <sodipodi:guide
       position="67.733334,0"
       orientation="0,-256"
       id="guide3379" />
    <sodipodi:guide
       position="0,0"
       orientation="-256,0"
       id="guide3381" />
    <sodipodi:guide
       position="33.866667,46.83125"
       orientation="1,0"
       id="guide895" />
    <sodipodi:guide
       position="41.010417,42.597917"
       orientation="0,-1"
       id="guide897" />
  </sodipodi:namedview>
  <metadata
     id="metadata5">
    <rdf:RDF>
      <cc:Work
         rdf:about="">
        <dc:format>image/svg+xml</dc:format>
        <dc:type
           rdf:resource="http://purl.org/dc/dcmitype/StillImage" />
        <dc:title></dc:title>
      </cc:Work>
    </rdf:RDF>
  </metadata>
  <g
     inkscape:groupmode="layer"
     id="layer2"
     inkscape:label="Icon">
    <path
       id="path855"
       style="color:#000000;font-style:normal;font-variant:normal;font-weight:normal;font-stretch:normal;font-size:medium;line-height:normal;font-family:sans-serif;font-variant-ligatures:normal;font-variant-position:normal;font-variant-caps:normal;font-variant-numeric:normal;font-variant-alternates:normal;font-variant-east-asian:normal;font-feature-settings:normal;font-variation-settings:normal;text-indent:0;text-align:start;text-decoration:none;text-decoration-line:none;text-decoration-style:solid;text-decoration-color:#000000;letter-spacing:normal;word-spacing:normal;text-transform:none;writing-mode:lr-tb;direction:ltr;text-orientation:mixed;dominant-baseline:auto;baseline-shift:baseline;text-anchor:start;white-space:normal;shape-padding:0;shape-margin:0;inline-size:0;clip-rule:nonzero;display:inline;overflow:visible;visibility:visible;opacity:1;isolation:auto;mix-blend-mode:normal;color-interpolation:sRGB;color-interpolation-filters:linearRGB;solid-color:#000000;solid-opacity:1;vector-effect:none;fill:#808080;fill-opacity:1;fill-rule:nonzero;stroke:none;stroke-width:8.00001;stroke-linecap:butt;stroke-linejoin:round;stroke-miterlimit:4;stroke-dasharray:none;stroke-dashoffset:0;stroke-opacity:1;color-rendering:auto;image-rendering:auto;shape-rendering:auto;text-rendering:auto;enable-background:accumulate;stop-color:#000000;stop-opacity:1"
       d="m 127.92773,18.001953 a 4.0003996,4.0003996 0 0 0 -0.10351,0.002 4.0003996,4.0003996 0 0 0 -1.82227,0.53125 L 107.34766,29.296875 48.003906,63.535156 a 4.0004059,4.0004059 0 0 0 -0.144531,0.08789 4.0004059,4.0004059 0 0 0 -0.275391,0.191406 4.0004059,4.0004059 0 0 0 -0.257812,0.214844 4.0004059,4.0004059 0 0 0 -0.002,0 4.0003996,4.0003996 0 0 0 -0.121094,0.115234 4.0004059,4.0004059 0 0 0 -0.230469,0.244141 4.0003996,4.0003996 0 0 0 -0.107422,0.130859 4.0004059,4.0004059 0 0 0 -0.101562,0.132813 4.0003996,4.0003996 0 0 0 -0.185547,0.28125 4.0004059,4.0004059 0 0 0 -0.08398,0.144531 4.0003996,4.0003996 0 0 0 -0.148438,0.302734 4.0004059,4.0004059 0 0 0 -0.06445,0.154297 4.0003996,4.0003996 0 0 0 -0.248047,0.976563 4.0004059,4.0004059 0 0 0 -0.01758,0.166015 4.0003996,4.0003996 0 0 0 0,0.002 4.0004059,4.0004059 0 0 0 -0.0098,0.166015 4.0003996,4.0003996 0 0 0 0,0.002 4.0004059,4.0004059 0 0 0 -0.0039,0.166016 4.0003996,4.0003996 0 0 0 0.0059,0.169922 4.0004059,4.0004059 0 0 0 0.0098,0.166015 4.0003996,4.0003996 0 0 0 0.01953,0.167969 4.0003996,4.0003996 0 0 0 0.05664,0.332031 4.0004059,4.0004059 0 0 0 0.03906,0.16211 4.0003996,4.0003996 0 0 0 0.04688,0.162109 4.0003996,4.0003996 0 0 0 0.111328,0.31836 4.0003996,4.0003996 0 0 0 0.216796,0.455078 4.0003996,4.0003996 0 0 0 0.175782,0.285156 4.0003996,4.0003996 0 0 0 0.199218,0.271484 4.0003996,4.0003996 0 0 0 0.222657,0.253906 4.0003996,4.0003996 0 0 0 0.117187,0.119141 4.0003996,4.0003996 0 0 0 0.251953,0.222656 4.0003996,4.0003996 0 0 0 0.220703,0.167969 l 77.996098,55.003902 a 4.0003996,4.0003996 0 0 0 0.58007,0.33985 4.0004059,4.0004059 0 0 0 0.3086,0.13281 4.0004059,4.0004059 0 0 0 0.31836,0.10547 4.0003996,4.0003996 0 0 0 0.49414,0.10742 4.0004059,4.0004059 0 0 0 0.33398,0.0371 4.0003996,4.0003996 0 0 0 0.16797,0.008 4.0004059,4.0004059 0 0 0 0.66992,-0.0391 4.0003996,4.0003996 0 0 0 1.42383,-0.48828 4.0004059,4.0004059 0 0 0 0.2832,-0.17969 4.0003996,4.0003996 0 0 0 0.0566,-0.0391 l 77,-55.001954 a 4.0003996,4.0003996 0 0 0 0.51172,-0.435547 4.0004059,4.0004059 0 0 0 0.22657,-0.248047 4.0003996,4.0003996 0 0 0 0.20507,-0.265624 4.0004059,4.0004059 0 0 0 0,-0.002 4.0003996,4.0003996 0 0 0 0.0937,-0.138672 4.0004059,4.0004059 0 0 0 0.16993,-0.289062 4.0004059,4.0004059 0 0 0 0,-0.002 4.0003996,4.0003996 0 0 0 0.0762,-0.148438 4.0004059,4.0004059 0 0 0 0.13281,-0.308593 4.0004059,4.0004059 0 0 0 0,-0.002 4.0004059,4.0004059 0 0 0 0.10547,-0.318359 4.0003996,4.0003996 0 0 0 0.043,-0.162109 4.0004059,4.0004059 0 0 0 0,-0.002 4.0003996,4.0003996 0 0 0 0.0351,-0.16211 4.0004059,4.0004059 0 0 0 0,-0.002 4.0003996,4.0003996 0 0 0 0.0293,-0.164062 4.0004059,4.0004059 0 0 0 0,-0.002 4.0003996,4.0003996 0 0 0 0.0371,-0.332031 4.0004059,4.0004059 0 0 0 0,-0.002 4.0003996,4.0003996 0 0 0 0.008,-0.166016 4.0004059,4.0004059 0 0 0 0,-0.002 4.0003996,4.0003996 0 0 0 0,-0.166015 4.0004059,4.0004059 0 0 0 0,-0.002 4.0003996,4.0003996 0 0 0 -0.006,-0.166016 4.0004059,4.0004059 0 0 0 0,-0.002 4.0003996,4.0003996 0 0 0 -0.0137,-0.166016 4.0004059,4.0004059 0 0 0 0,-0.002 4.0003996,4.0003996 0 0 0 -0.002,-0.01758 4.0004059,4.0004059 0 0 0 -0.0801,-0.478516 4.0003996,4.0003996 0 0 0 -0.041,-0.162109 4.0004059,4.0004059 0 0 0 0,-0.002 4.0003996,4.0003996 0 0 0 -0.10352,-0.318359 4.0004059,4.0004059 0 0 0 0,-0.002 4.0003996,4.0003996 0 0 0 -0.0176,-0.04297 4.0004059,4.0004059 0 0 0 -0.0898,-0.220704 4.0004059,4.0004059 0 0 0 -0.0215,-0.04687 4.0003996,4.0003996 0 0 0 -0.0742,-0.150391 4.0004059,4.0004059 0 0 0 -0.16796,-0.291016 4.0004059,4.0004059 0 0 0 -0.19141,-0.277343 4.0003996,4.0003996 0 0 0 -0.21289,-0.257813 4.0004059,4.0004059 0 0 0 -0.002,-0.002 4.0003996,4.0003996 0 0 0 -0.008,-0.0078 4.0004059,4.0004059 0 0 0 -0.10547,-0.115234 4.0003996,4.0003996 0 0 0 -0.11914,-0.117187 4.0004059,4.0004059 0 0 0 -0.002,0 4.0003996,4.0003996 0 0 0 -0.11133,-0.101563 4.0004059,4.0004059 0 0 0 -0.0137,-0.01172 4.0003996,4.0003996 0 0 0 -0.26172,-0.207031 4.0004059,4.0004059 0 0 0 -0.002,-0.002 4.0003996,4.0003996 0 0 0 -0.27735,-0.185547 4.0004059,4.0004059 0 0 0 -0.002,0 4.0003996,4.0003996 0 0 0 -0.0586,-0.03516 l -50.9336,-29.767578 c -1.11495,2.434425 -2.25972,4.859238 -3.4082,7.28125 l 44.97461,26.28125 -69.66406,49.753909 -70.562502,-49.753909 49.923832,-28.802735 20.63867,-11.908203 9.05859,5.292969 c 1.12624,-2.43229 2.25267,-4.864585 3.37891,-7.296875 l -10.40625,-6.080078 a 4.0003996,4.0003996 0 0 0 -2.08985,-0.541016 z M 49.9375,84.962891 a 4.0000056,4.0000056 0 0 0 -0.0957,0.002 4.0000056,4.0000056 0 0 0 -3.115235,1.691406 4.0000056,4.0000056 0 0 0 0.96875,5.580078 l 77.996098,54.996092 a 4.0004059,4.0004059 0 0 0 4.63671,-0.0156 l 77,-54.994144 a 4.0000056,4.0000056 0 0 0 0.92969,-5.582031 4.0000056,4.0000056 0 0 0 -5.58008,-0.929687 L 127.98633,139.06055 52.308594,85.697266 A 4.0000056,4.0000056 0 0 0 49.9375,84.962891 Z m 155,21.035159 a 4.0000056,4.0000056 0 0 0 -2.25977,0.74414 l -74.6914,53.35547 -75.677736,-53.3711 a 4.0000056,4.0000056 0 0 0 -2.466797,-0.72265 4.0000056,4.0000056 0 0 0 -3.115235,1.6914 4.0000056,4.0000056 0 0 0 0.96875,5.57227 l 77.996098,55.00195 a 4.0004059,4.0004059 0 0 0 4.63671,-0.0137 l 77,-55.00195 a 4.0000056,4.0000056 0 0 0 0.92969,-5.58203 4.0000056,4.0000056 0 0 0 -3.32031,-1.67383 z"
       transform="scale(0.26458333)" />
    <path
       id="path858"
       style="fill:#808080;fill-opacity:1;stroke:none;stroke-width:2.11667;stroke-linecap:square;stroke-linejoin:round;stroke-miterlimit:4;stroke-dasharray:none;stroke-opacity:1;paint-order:markers stroke fill"
       d="M 39.521815,3.6185765 34.387844,14.68218 c -1.044809,-0.257936 -2.076322,-0.272444 -2.865238,0.0588 -2.298079,0.964886 -3.483407,4.169141 -5.034588,7.511905 l 0.655469,0.304165 2.892956,-6.234262 0.655985,0.304404 -0.278969,0.601175 c 0.306696,0.142427 0.613577,0.284512 0.920315,0.42685 l 0.278889,-0.600999 0.655985,0.304405 -0.278891,0.601005 c 0.306081,0.141957 0.612158,0.283971 0.918255,0.425893 l 0.278808,-0.600828 0.656159,0.304484 -0.278811,0.600832 c 0.306094,0.141962 0.611861,0.284571 0.917927,0.426599 l 0.279055,-0.601361 0.655985,0.304404 -0.279289,0.601864 c 0.305853,0.142035 0.611642,0.284149 0.917412,0.426359 l 0.279535,-0.602392 0.656672,0.304723 -0.279687,0.602723 c 0.144931,0.06747 0.290002,0.134614 0.434868,0.202225 0.162124,0.07358 0.325823,0.144676 0.487037,0.220751 l 0.277859,-0.598781 0.65358,0.303288 -2.892957,6.234262 0.65736,0.305042 c 1.551181,-3.342763 3.34168,-6.32007 2.594785,-8.697947 C 38.661553,17.285241 37.951128,16.5002 37.041667,15.875 L 42.160874,4.8432095 Z m -9.416244,13.5744535 -0.612317,1.31953 7.917179,3.673899 0.612316,-1.31953 z m 0.04046,1.720381 c -0.138615,-0.06841 -0.28998,-0.116901 -0.430126,-0.181848 l -1.916439,4.129888 0.920234,0.427027 1.919708,-4.136932 -0.389329,-0.180665 c -0.03356,-0.02093 -0.06835,-0.03989 -0.104063,-0.05743 z m 1.149378,0.542506 -1.919708,4.13693 0.918174,0.426071 1.919705,-4.136927 z m 1.57433,0.730554 -1.919707,4.136932 0.918172,0.42607 1.919706,-4.136928 z m 1.574158,0.730475 -1.919708,4.136931 0.917657,0.425832 1.919707,-4.136928 z m 1.574329,0.730554 -1.919707,4.136931 0.920062,0.426947 1.919706,-4.136928 z" />
  </g>
</svg>
