<?xml version="1.0" encoding="UTF-8" standalone="no"?>
<svg
   xmlns:dc="http://purl.org/dc/elements/1.1/"
   xmlns:cc="http://creativecommons.org/ns#"
   xmlns:rdf="http://www.w3.org/1999/02/22-rdf-syntax-ns#"
   xmlns:svg="http://www.w3.org/2000/svg"
   xmlns="http://www.w3.org/2000/svg"
   xmlns:sodipodi="http://sodipodi.sourceforge.net/DTD/sodipodi-0.dtd"
   xmlns:inkscape="http://www.inkscape.org/namespaces/inkscape"
   width="256"
   height="256"
   viewBox="0 0 67.733332 67.733335"
   version="1.1"
   id="svg8"
   inkscape:version="1.0.1 (3bc2e813f5, 2020-09-07)"
   sodipodi:docname="cmd-ref.svg"
   inkscape:export-filename="C:\Users\keath\Workspace\KMX\elite-streamdeck-icons\ship-lights.png"
   inkscape:export-xdpi="96"
   inkscape:export-ydpi="96">
  <defs
     id="defs2" />
  <sodipodi:namedview
     id="base"
     pagecolor="#000000"
     bordercolor="#666666"
     borderopacity="1.0"
     inkscape:pageopacity="0"
     inkscape:pageshadow="2"
     inkscape:zoom="5.6"
     inkscape:cx="113.27671"
     inkscape:cy="121.54987"
     inkscape:document-units="px"
     inkscape:current-layer="layer2"
     showgrid="true"
     units="px"
     inkscape:snap-grids="true"
     objecttolerance="10000"
     guidetolerance="10000"
     inkscape:window-width="2780"
     inkscape:window-height="1895"
     inkscape:window-x="4681"
     inkscape:window-y="149"
     inkscape:window-maximized="0"
     inkscape:document-rotation="0"
     showguides="true"
     inkscape:guide-bbox="true">
    <inkscape:grid
       type="xygrid"
       id="grid4623" />
    <sodipodi:guide
       position="-3.96875,62.441667"
       orientation="0,256"
       id="guide3351" />
    <sodipodi:guide
       position="62.441667,42.597917"
       orientation="-1,0"
       id="guide3353"
       inkscape:label=""
       inkscape:locked="false"
       inkscape:color="rgb(0,0,255)" />
    <sodipodi:guide
       position="-2.6458333,22.754167"
       orientation="0,-256"
       id="guide3355" />
    <sodipodi:guide
       position="5.2916667,70.379167"
       orientation="-256,0"
       id="guide3357" />
    <sodipodi:guide
       position="0,67.733334"
       orientation="0,256"
       id="guide3359" />
    <sodipodi:guide
       position="67.733334,67.733334"
       orientation="256,0"
       id="guide3361" />
    <sodipodi:guide
       position="67.733334,0"
       orientation="0,-256"
       id="guide3363" />
    <sodipodi:guide
       position="0,0"
       orientation="-256,0"
       id="guide3365" />
    <sodipodi:guide
       position="0,67.733334"
       orientation="0,256"
       id="guide3367" />
    <sodipodi:guide
       position="67.733334,67.733334"
       orientation="256,0"
       id="guide3369" />
    <sodipodi:guide
       position="67.733334,0"
       orientation="0,-256"
       id="guide3371" />
    <sodipodi:guide
       position="0,0"
       orientation="-256,0"
       id="guide3373" />
    <sodipodi:guide
       position="0,67.733334"
       orientation="0,256"
       id="guide3375" />
    <sodipodi:guide
       position="67.733334,67.733334"
       orientation="256,0"
       id="guide3377" />
    <sodipodi:guide
       position="67.733334,0"
       orientation="0,-256"
       id="guide3379" />
    <sodipodi:guide
       position="0,0"
       orientation="-256,0"
       id="guide3381" />
    <sodipodi:guide
       position="33.866667,46.83125"
       orientation="1,0"
       id="guide895" />
    <sodipodi:guide
       position="41.010417,42.597917"
       orientation="0,-1"
       id="guide897" />
  </sodipodi:namedview>
  <metadata
     id="metadata5">
    <rdf:RDF>
      <cc:Work
         rdf:about="">
        <dc:format>image/svg+xml</dc:format>
        <dc:type
           rdf:resource="http://purl.org/dc/dcmitype/StillImage" />
        <dc:title />
      </cc:Work>
    </rdf:RDF>
  </metadata>
  <g
     inkscape:groupmode="layer"
     id="layer2"
     inkscape:label="Icon">
    <path
       id="path859"
       style="font-style:normal;font-variant:normal;font-weight:bold;font-stretch:normal;font-size:10.0497px;line-height:1.25;font-family:sans-serif;-inkscape-font-specification:'sans-serif, Bold';font-variant-ligatures:normal;font-variant-caps:normal;font-variant-numeric:normal;font-variant-east-asian:normal;fill:#808080;fill-opacity:1;stroke:none;stroke-width:0.264583"
       d="m 39.498512,19.269657 v 3.313344 c -0.252655,-0.152522 -0.499593,-0.277201 -0.741104,-0.374259 -0.237796,-0.101679 -0.544726,-0.152254 -0.919996,-0.152254 -0.360409,0 -0.720585,0.09697 -1.080994,0.291092 -0.360409,0.189497 -0.666697,0.457549 -0.919354,0.804191 -0.267519,0.365127 -0.479639,0.804259 -0.63569,1.317286 -0.152338,0.508408 -0.228721,1.092997 -0.228721,1.753929 0,1.238663 0.228511,2.22291 0.685522,2.953165 0.457012,0.730259 1.066805,1.095954 1.828489,1.095954 0.393849,0 0.741065,-0.08379 1.042022,-0.250176 0.30096,-0.166388 0.624282,-0.424757 0.969826,-0.776021 v 0.810897 h 2.006102 V 19.269657 Z m 4.269034,1.559418 v 1.990019 l 5.211386,2.647991 -5.211386,2.648663 v 1.989347 l 7.446205,-3.847233 v -1.580881 z m -23.942862,1.227413 c -0.475587,0 -0.934645,0.07619 -1.376796,0.228715 -0.442149,0.152522 -0.832323,0.392867 -1.170439,0.721022 -0.349258,0.346638 -0.622126,0.783686 -0.819049,1.31058 -0.193208,0.526896 -0.290054,1.153045 -0.290054,1.87868 0,0.68866 0.09138,1.289189 0.273444,1.802216 0.182063,0.51303 0.438532,0.938309 0.769216,1.275707 0.334401,0.337397 0.725967,0.586752 1.175549,0.748521 0.453298,0.161766 0.953278,0.2428 1.499463,0.2428 0.416141,0 0.794747,-0.05541 1.136576,-0.16634 0.345548,-0.1063 0.676371,-0.251762 0.992191,-0.436636 v -2.128188 h -0.284304 c -0.08175,0.09706 -0.17045,0.196121 -0.267055,0.2978 -0.09661,0.101679 -0.208447,0.198654 -0.334776,0.291093 -0.133759,0.09706 -0.30292,0.182936 -0.507275,0.256882 -0.200638,0.06933 -0.427116,0.103963 -0.679772,0.103963 -0.542472,0 -0.961999,-0.194616 -1.259242,-0.582855 -0.293529,-0.388239 -0.440833,-0.956218 -0.440833,-1.704963 0,-0.725635 0.143235,-1.299129 0.429331,-1.719721 0.289812,-0.425214 0.70248,-0.637852 1.237519,-0.637852 0.241512,0 0.452991,0.03463 0.635053,0.103963 0.182063,0.0647 0.34919,0.147827 0.501524,0.249507 0.15977,0.106299 0.29347,0.215045 0.40122,0.325969 0.111466,0.11092 0.206278,0.207895 0.284306,0.291092 h 0.284304 v -2.128188 c -0.312108,-0.184875 -0.648396,-0.335175 -1.008801,-0.450722 -0.360409,-0.115541 -0.75401,-0.173045 -1.1813,-0.173045 z m 7.563125,0 c -0.382701,0 -0.731953,0.09489 -1.047774,0.284384 -0.315821,0.189497 -0.646642,0.452709 -0.992187,0.790106 v -0.85986 h -2.00674 v 7.785687 h 2.00674 v -5.518661 c 0.148621,-0.11092 0.315748,-0.214825 0.501523,-0.311886 0.185778,-0.101679 0.377435,-0.152253 0.574358,-0.152253 0.245227,0 0.434211,0.03881 0.56797,0.11737 0.137471,0.07394 0.239781,0.194458 0.306665,0.360846 0.06688,0.166388 0.107807,0.383867 0.122667,0.651937 0.01485,0.263446 0.02238,0.584158 0.02238,0.963152 v 3.889488 h 2.0176 v -5.518661 c 0.230364,-0.16638 0.425448,-0.284135 0.585219,-0.353468 0.159769,-0.07394 0.322827,-0.110674 0.490025,-0.110674 0.248941,0 0.442631,0.03881 0.580106,0.117371 0.137473,0.07394 0.237749,0.194458 0.300917,0.360846 0.06688,0.166388 0.105767,0.381112 0.116919,0.644558 0.01485,0.263448 0.02238,0.586913 0.02238,0.970531 v 3.889488 h 2.0176 v -5.067938 c 0,-0.947489 -0.176659,-1.672697 -0.529635,-2.176479 -0.349261,-0.503784 -0.862209,-0.755899 -1.538438,-0.755899 -0.364121,0 -0.735231,0.119836 -1.114215,0.360175 -0.378986,0.240338 -0.769158,0.570728 -1.170436,0.99132 -0.178347,-0.4437 -0.425926,-0.778261 -0.741747,-1.004735 -0.315821,-0.231093 -0.679428,-0.34676 -1.091854,-0.34676 z m 11.235431,1.823011 c 0.130046,0 0.273277,0.01663 0.429331,0.04896 0.156054,0.03234 0.304751,0.08501 0.445941,0.15896 v 3.820405 c -0.15605,0.138662 -0.33614,0.25157 -0.540495,0.339383 -0.204356,0.0832 -0.398046,0.124756 -0.580108,0.124756 -0.468156,0 -0.807875,-0.171078 -1.019659,-0.513098 -0.211786,-0.346642 -0.317528,-0.900767 -0.317528,-1.663379 0,-0.725636 0.131667,-1.292204 0.395472,-1.698929 0.263803,-0.411346 0.659442,-0.617058 1.187046,-0.617058 z" />
    <path
       id="path870"
       style="color:#000000;font-style:normal;font-variant:normal;font-weight:normal;font-stretch:normal;font-size:medium;line-height:normal;font-family:sans-serif;font-variant-ligatures:normal;font-variant-position:normal;font-variant-caps:normal;font-variant-numeric:normal;font-variant-alternates:normal;font-variant-east-asian:normal;font-feature-settings:normal;font-variation-settings:normal;text-indent:0;text-align:start;text-decoration:none;text-decoration-line:none;text-decoration-style:solid;text-decoration-color:#000000;letter-spacing:normal;word-spacing:normal;text-transform:none;writing-mode:lr-tb;direction:ltr;text-orientation:mixed;dominant-baseline:auto;baseline-shift:baseline;text-anchor:start;white-space:normal;shape-padding:0;shape-margin:0;inline-size:0;clip-rule:nonzero;display:inline;overflow:visible;visibility:visible;opacity:1;isolation:auto;mix-blend-mode:normal;color-interpolation:sRGB;color-interpolation-filters:linearRGB;solid-color:#000000;solid-opacity:1;vector-effect:none;fill:#808080;fill-opacity:1;fill-rule:nonzero;stroke:none;stroke-width:1.5875;stroke-linecap:square;stroke-linejoin:miter;stroke-miterlimit:4;stroke-dasharray:none;stroke-dashoffset:0;stroke-opacity:1;paint-order:markers stroke fill;color-rendering:auto;image-rendering:auto;shape-rendering:auto;text-rendering:auto;enable-background:accumulate;stop-color:#000000;stop-opacity:1"
       d="M 8.4666666,5.8203176 V 6.615101 11.773443 H 5.2911499 v 1.324466 H 8.4666666 V 17.06666 H 5.2911499 v 1.321883 h 3.1755167 v 3.96875 H 5.2911499 v 1.3224 h 3.1755167 v 3.968751 H 5.2911499 v 1.324467 H 8.4666666 V 32.94166 H 5.2911499 v 1.321882 h 3.1755167 v 3.96875 H 5.2911499 v 1.322401 h 3.1755167 v 4.894273 H 55.033333 V 43.847454 L 62.706249,38.60953 V 26.183416 L 59.819603,24.70547 62.706249,22.734531 V 10.308416 L 55.033333,6.3794565 V 5.8203176 Z M 55.033333,7.2285002 62.123857,10.857219 V 22.244122 L 59.075981,24.324615 55.033333,22.25394 Z M 10.054683,7.4083343 H 53.445317 V 42.863535 H 10.054683 v -3.308842 h 3.173967 v -1.322401 h -3.173967 v -3.96875 H 13.22865 V 32.94166 h -3.173967 v -3.968749 h 3.173967 v -1.324467 h -3.173967 v -3.968751 h 3.173967 v -1.3224 h -3.173967 v -3.96875 H 13.22865 V 17.06666 h -3.173967 v -3.968751 h 3.173967 v -1.324466 h -3.173967 z m 44.97865,15.6951667 7.090524,3.62872 v 11.386901 l -7.090524,4.840012 z" />
  </g>
</svg>
