<?xml version="1.0" encoding="UTF-8" standalone="no"?>
<svg
   xmlns:dc="http://purl.org/dc/elements/1.1/"
   xmlns:cc="http://creativecommons.org/ns#"
   xmlns:rdf="http://www.w3.org/1999/02/22-rdf-syntax-ns#"
   xmlns:svg="http://www.w3.org/2000/svg"
   xmlns="http://www.w3.org/2000/svg"
   xmlns:sodipodi="http://sodipodi.sourceforge.net/DTD/sodipodi-0.dtd"
   xmlns:inkscape="http://www.inkscape.org/namespaces/inkscape"
   width="256"
   height="256"
   viewBox="0 0 67.733332 67.733335"
   version="1.1"
   id="svg8"
   inkscape:version="1.0.1 (3bc2e813f5, 2020-09-07)"
   sodipodi:docname="debug-restart.svg"
   inkscape:export-filename="C:\Users\keath\Workspace\KMX\elite-streamdeck-icons\ship-lights.png"
   inkscape:export-xdpi="96"
   inkscape:export-ydpi="96">
  <defs
     id="defs2" />
  <sodipodi:namedview
     id="base"
     pagecolor="#000000"
     bordercolor="#666666"
     borderopacity="1.0"
     inkscape:pageopacity="0"
     inkscape:pageshadow="2"
     inkscape:zoom="1.979899"
     inkscape:cx="142.97154"
     inkscape:cy="-26.633439"
     inkscape:document-units="px"
     inkscape:current-layer="layer2"
     showgrid="true"
     units="px"
     inkscape:snap-grids="true"
     objecttolerance="10000"
     guidetolerance="10000"
     inkscape:window-width="2705"
     inkscape:window-height="1895"
     inkscape:window-x="4625"
     inkscape:window-y="96"
     inkscape:window-maximized="0"
     inkscape:document-rotation="0"
     showguides="true"
     inkscape:guide-bbox="true">
    <inkscape:grid
       type="xygrid"
       id="grid4623" />
    <sodipodi:guide
       position="-3.96875,62.441667"
       orientation="0,256"
       id="guide3351" />
    <sodipodi:guide
       position="62.441667,42.597917"
       orientation="-1,0"
       id="guide3353"
       inkscape:label=""
       inkscape:locked="false"
       inkscape:color="rgb(0,0,255)" />
    <sodipodi:guide
       position="-2.6458333,22.754167"
       orientation="0,-256"
       id="guide3355" />
    <sodipodi:guide
       position="5.2916667,70.379167"
       orientation="-256,0"
       id="guide3357" />
    <sodipodi:guide
       position="0,67.733334"
       orientation="0,256"
       id="guide3359" />
    <sodipodi:guide
       position="67.733334,67.733334"
       orientation="256,0"
       id="guide3361" />
    <sodipodi:guide
       position="67.733334,0"
       orientation="0,-256"
       id="guide3363" />
    <sodipodi:guide
       position="0,0"
       orientation="-256,0"
       id="guide3365" />
    <sodipodi:guide
       position="0,67.733334"
       orientation="0,256"
       id="guide3367" />
    <sodipodi:guide
       position="67.733334,67.733334"
       orientation="256,0"
       id="guide3369" />
    <sodipodi:guide
       position="67.733334,0"
       orientation="0,-256"
       id="guide3371" />
    <sodipodi:guide
       position="0,0"
       orientation="-256,0"
       id="guide3373" />
    <sodipodi:guide
       position="0,67.733334"
       orientation="0,256"
       id="guide3375" />
    <sodipodi:guide
       position="67.733334,67.733334"
       orientation="256,0"
       id="guide3377" />
    <sodipodi:guide
       position="67.733334,0"
       orientation="0,-256"
       id="guide3379" />
    <sodipodi:guide
       position="0,0"
       orientation="-256,0"
       id="guide3381" />
    <sodipodi:guide
       position="33.866667,46.83125"
       orientation="1,0"
       id="guide895" />
    <sodipodi:guide
       position="41.010417,42.597917"
       orientation="0,-1"
       id="guide897" />
  </sodipodi:namedview>
  <metadata
     id="metadata5">
    <rdf:RDF>
      <cc:Work
         rdf:about="">
        <dc:format>image/svg+xml</dc:format>
        <dc:type
           rdf:resource="http://purl.org/dc/dcmitype/StillImage" />
        <dc:title></dc:title>
      </cc:Work>
    </rdf:RDF>
  </metadata>
  <g
     inkscape:groupmode="layer"
     id="layer2"
     inkscape:label="Icon">
    <path
       id="path906"
       style="color:#000000;font-style:normal;font-variant:normal;font-weight:normal;font-stretch:normal;font-size:medium;line-height:normal;font-family:sans-serif;font-variant-ligatures:normal;font-variant-position:normal;font-variant-caps:normal;font-variant-numeric:normal;font-variant-alternates:normal;font-variant-east-asian:normal;font-feature-settings:normal;font-variation-settings:normal;text-indent:0;text-align:start;text-decoration:none;text-decoration-line:none;text-decoration-style:solid;text-decoration-color:#000000;letter-spacing:normal;word-spacing:normal;text-transform:none;writing-mode:lr-tb;direction:ltr;text-orientation:mixed;dominant-baseline:auto;baseline-shift:baseline;text-anchor:start;white-space:normal;shape-padding:0;shape-margin:0;inline-size:0;clip-rule:nonzero;display:inline;overflow:visible;visibility:visible;isolation:auto;mix-blend-mode:normal;color-interpolation:sRGB;color-interpolation-filters:linearRGB;solid-color:#000000;solid-opacity:1;vector-effect:none;fill:#808080;fill-opacity:1;fill-rule:nonzero;stroke:none;stroke-width:0.999999;stroke-linecap:square;stroke-linejoin:miter;stroke-miterlimit:4;stroke-dasharray:none;stroke-dashoffset:0;stroke-opacity:1;paint-order:markers stroke fill;color-rendering:auto;image-rendering:auto;shape-rendering:auto;text-rendering:auto;enable-background:accumulate;stop-color:#000000"
       d="m 89.916016,25.882812 -4.238282,4.244141 22.990236,22.990235 c -3.54728,4.159317 -6.35136,9.525318 -8.01953,15.757812 l -0.16992,0.626953 h 52.97265 L 153.28125,68.875 c -1.54867,-5.786033 -4.07426,-10.827534 -7.26563,-14.849609 l 23.9043,-23.898438 -4.24414,-4.244141 -23.81836,23.81836 c -4.3565,-3.717351 -9.47778,-5.843467 -14.89258,-5.84375 -0.0166,-1.9e-5 -0.0344,-1.9e-5 -0.0508,0 -5.02307,0.01172 -9.79327,1.851887 -13.93164,5.091797 z m -24.626954,45.457032 -4.990234,3.330078 10.644531,15.958984 17.589844,4.400391 c -0.115956,1.534322 -0.189566,3.075198 -0.189453,4.623047 -2.3e-5,2.844986 0.204511,5.633346 0.578125,8.353516 H 60.792969 V 114 h 29.263672 c 1.020449,4.18129 2.470871,8.13569 4.298828,11.77344 l -18.628907,4.65234 -10.613281,21.23633 5.365235,2.67969 9.382812,-18.76368 17.634766,-4.4082 c 6.588266,9.85421 16.229396,16.47989 27.249996,17.54492 l 0.54883,0.0527 V 77.503906 H 92.560547 l -0.125,0.316406 c -1.418052,3.575075 -2.467236,7.341466 -3.152344,11.208985 l -14.632812,-3.65625 z m 125.013668,0 -9.36132,14.033203 -14.63477,3.65625 c -0.68546,-3.867504 -1.73393,-7.634039 -3.15234,-11.208985 l -0.125,-0.316406 h -32.73242 v 0.5 70.763674 l 0.54882,-0.0527 c 1.93994,-0.18747 3.83437,-0.55681 5.67969,-1.07617 -3.93072,-10.51813 -3.96634,-22.53922 0.52149,-32.90625 7.26616,-18.060463 27.82453,-29.212711 46.93164,-26.046873 1.62143,-3.013191 2.86551,-6.709103 4.34765,-9.980469 0.44784,-1.062992 0.89592,-2.124508 1.34375,-3.1875 0.89834,1.180616 1.79532,2.362122 2.69336,3.542969 l 2.92774,-4.390625 z m -15.10156,38.605466 c -9.01076,0.54047 -16.88963,7.51638 -19.17383,16.14453 -0.91389,2.8813 -1.07882,5.86366 -0.66406,8.76368 0.95983,-1.17063 1.87282,-2.39787 2.73242,-3.6836 l 17.63477,4.4082 8.72851,17.45508 c 1.89172,-0.6517 3.70542,-1.54693 5.37891,-2.65234 l -9.97461,-19.95508 -18.62695,-4.65234 c 1.82796,-3.63775 3.27838,-7.59215 4.29883,-11.77344 h 7.96679 c 0.56619,-1.35138 1.13303,-2.70331 1.69922,-4.05469 z"
       transform="scale(0.26458333)" />
    <path
       id="path956"
       style="color:#000000;font-style:normal;font-variant:normal;font-weight:normal;font-stretch:normal;font-size:medium;line-height:normal;font-family:sans-serif;font-variant-ligatures:normal;font-variant-position:normal;font-variant-caps:normal;font-variant-numeric:normal;font-variant-alternates:normal;font-variant-east-asian:normal;font-feature-settings:normal;font-variation-settings:normal;text-indent:0;text-align:start;text-decoration:none;text-decoration-line:none;text-decoration-style:solid;text-decoration-color:#000000;letter-spacing:normal;word-spacing:normal;text-transform:none;writing-mode:lr-tb;direction:ltr;text-orientation:mixed;dominant-baseline:auto;baseline-shift:baseline;text-anchor:start;white-space:normal;shape-padding:0;shape-margin:0;inline-size:0;clip-rule:nonzero;display:inline;overflow:visible;visibility:visible;isolation:auto;mix-blend-mode:normal;color-interpolation:sRGB;color-interpolation-filters:linearRGB;solid-color:#000000;solid-opacity:1;vector-effect:none;fill:#808080;fill-opacity:1;fill-rule:nonzero;stroke:#808080;stroke-width:0.529167;stroke-linecap:square;stroke-linejoin:miter;stroke-miterlimit:4;stroke-dasharray:none;stroke-dashoffset:0;stroke-opacity:1;paint-order:markers stroke fill;color-rendering:auto;image-rendering:auto;shape-rendering:auto;text-rendering:auto;enable-background:accumulate;stop-color:#000000"
       d="m 56.48135,31.75 c -0.04683,-0.141122 -0.09823,-0.282728 -0.151709,-0.422777 l -0.454778,-1.188903 -2.374212,0.907262 0.451839,1.189888 c 1.28195,3.357169 0.0116,7.130611 -3.040368,9.027682 -3.051988,1.897086 -6.998173,1.364834 -9.441225,-1.270674 -2.442992,-2.635445 -2.672469,-6.610096 -0.54984,-9.509757 1.808826,-2.470982 4.873635,-3.489096 7.752026,-2.806392 l -0.825656,1.964715 7.007379,-0.88947 -4.273296,-5.622466 -0.912394,2.172989 c -3.968294,-1.115836 -8.303477,0.26358 -10.803298,3.678519 -2.833243,3.870407 -2.522935,9.226807 0.737918,12.744543 3.2609,3.517812 8.577217,4.230723 12.650949,1.698529 3.946415,-2.453018 5.678444,-7.298569 4.226684,-11.673694 z" />
  </g>
</svg>
