<?xml version="1.0" encoding="UTF-8" standalone="no"?>
<svg
   xmlns:dc="http://purl.org/dc/elements/1.1/"
   xmlns:cc="http://creativecommons.org/ns#"
   xmlns:rdf="http://www.w3.org/1999/02/22-rdf-syntax-ns#"
   xmlns:svg="http://www.w3.org/2000/svg"
   xmlns="http://www.w3.org/2000/svg"
   xmlns:sodipodi="http://sodipodi.sourceforge.net/DTD/sodipodi-0.dtd"
   xmlns:inkscape="http://www.inkscape.org/namespaces/inkscape"
   width="256"
   height="256"
   viewBox="0 0 67.733332 67.733335"
   version="1.1"
   id="svg8"
   inkscape:version="1.0.1 (3bc2e813f5, 2020-09-07)"
   sodipodi:docname="debug-step-over.svg"
   inkscape:export-filename="C:\Users\keath\Workspace\KMX\elite-streamdeck-icons\ship-lights.png"
   inkscape:export-xdpi="96"
   inkscape:export-ydpi="96">
  <defs
     id="defs2" />
  <sodipodi:namedview
     id="base"
     pagecolor="#000000"
     bordercolor="#666666"
     borderopacity="1.0"
     inkscape:pageopacity="0"
     inkscape:pageshadow="2"
     inkscape:zoom="5.6"
     inkscape:cx="111.90634"
     inkscape:cy="121.54987"
     inkscape:document-units="px"
     inkscape:current-layer="layer2"
     showgrid="true"
     units="px"
     inkscape:snap-grids="true"
     objecttolerance="10000"
     guidetolerance="10000"
     inkscape:window-width="3840"
     inkscape:window-height="2066"
     inkscape:window-x="-11"
     inkscape:window-y="-11"
     inkscape:window-maximized="1"
     inkscape:document-rotation="0"
     showguides="true"
     inkscape:guide-bbox="true"
     inkscape:snap-global="false">
    <inkscape:grid
       type="xygrid"
       id="grid4623" />
    <sodipodi:guide
       position="-3.96875,62.441667"
       orientation="0,256"
       id="guide3351" />
    <sodipodi:guide
       position="62.441667,42.597917"
       orientation="-1,0"
       id="guide3353"
       inkscape:label=""
       inkscape:locked="false"
       inkscape:color="rgb(0,0,255)" />
    <sodipodi:guide
       position="-2.6458333,22.754167"
       orientation="0,-256"
       id="guide3355" />
    <sodipodi:guide
       position="5.2916667,70.379167"
       orientation="-256,0"
       id="guide3357" />
    <sodipodi:guide
       position="0,67.733334"
       orientation="0,256"
       id="guide3359" />
    <sodipodi:guide
       position="67.733334,67.733334"
       orientation="256,0"
       id="guide3361" />
    <sodipodi:guide
       position="67.733334,0"
       orientation="0,-256"
       id="guide3363" />
    <sodipodi:guide
       position="0,0"
       orientation="-256,0"
       id="guide3365" />
    <sodipodi:guide
       position="0,67.733334"
       orientation="0,256"
       id="guide3367" />
    <sodipodi:guide
       position="67.733334,67.733334"
       orientation="256,0"
       id="guide3369" />
    <sodipodi:guide
       position="67.733334,0"
       orientation="0,-256"
       id="guide3371" />
    <sodipodi:guide
       position="0,0"
       orientation="-256,0"
       id="guide3373" />
    <sodipodi:guide
       position="0,67.733334"
       orientation="0,256"
       id="guide3375" />
    <sodipodi:guide
       position="67.733334,67.733334"
       orientation="256,0"
       id="guide3377" />
    <sodipodi:guide
       position="67.733334,0"
       orientation="0,-256"
       id="guide3379" />
    <sodipodi:guide
       position="0,0"
       orientation="-256,0"
       id="guide3381" />
    <sodipodi:guide
       position="33.866667,46.83125"
       orientation="1,0"
       id="guide895" />
    <sodipodi:guide
       position="41.010417,42.597917"
       orientation="0,-1"
       id="guide897" />
  </sodipodi:namedview>
  <metadata
     id="metadata5">
    <rdf:RDF>
      <cc:Work
         rdf:about="">
        <dc:format>image/svg+xml</dc:format>
        <dc:type
           rdf:resource="http://purl.org/dc/dcmitype/StillImage" />
        <dc:title></dc:title>
      </cc:Work>
    </rdf:RDF>
  </metadata>
  <g
     inkscape:groupmode="layer"
     id="layer2"
     inkscape:label="Icon">
    <path
       id="path862"
       style="color:#000000;font-style:normal;font-variant:normal;font-weight:normal;font-stretch:normal;font-size:medium;line-height:normal;font-family:sans-serif;font-variant-ligatures:normal;font-variant-position:normal;font-variant-caps:normal;font-variant-numeric:normal;font-variant-alternates:normal;font-variant-east-asian:normal;font-feature-settings:normal;font-variation-settings:normal;text-indent:0;text-align:start;text-decoration:none;text-decoration-line:none;text-decoration-style:solid;text-decoration-color:#000000;letter-spacing:normal;word-spacing:normal;text-transform:none;writing-mode:lr-tb;direction:ltr;text-orientation:mixed;dominant-baseline:auto;baseline-shift:baseline;text-anchor:start;white-space:normal;shape-padding:0;shape-margin:0;inline-size:0;clip-rule:nonzero;display:inline;overflow:visible;visibility:visible;opacity:1;isolation:auto;mix-blend-mode:normal;color-interpolation:sRGB;color-interpolation-filters:linearRGB;solid-color:#000000;solid-opacity:1;vector-effect:none;fill:#808080;fill-opacity:1;fill-rule:nonzero;stroke:none;stroke-width:20;stroke-linecap:butt;stroke-linejoin:miter;stroke-miterlimit:4;stroke-dasharray:none;stroke-dashoffset:0;stroke-opacity:1;color-rendering:auto;image-rendering:auto;shape-rendering:auto;text-rendering:auto;enable-background:accumulate;stop-color:#000000;stop-opacity:1"
       d="m 85.716797,73.087891 c -24.06905,10.299408 -45.6644,30.564239 -60.164063,60.341799 l 25.09961,12.22851 c 9.698153,-19.91683 22.158139,-33.53653 35.833984,-41.91797 1.62877,-3.26369 3.257449,-6.527564 4.886719,-9.791011 -2.423014,-0.515263 -6.386745,-0.07769 -9.412109,-0.220703 V 78.298828 h 7.285156 c -1.324428,-1.633258 -2.336552,-3.48494 -3.529297,-5.210937 z m 80.220703,1.359375 c -0.8802,1.304493 -1.77446,2.595161 -2.70898,3.851562 h 7.30859 v 15.429688 h -9.51563 c 2.3189,4.629212 4.63396,9.259594 6.95313,13.888674 2.96814,2.10945 5.86507,4.43089 8.6582,7.00195 l -16.07812,15.54297 70.01953,20.04297 -0.0312,-0.13867 -17.62109,-70.527348 -16.23243,15.69336 C 187.34384,86.4398 176.94395,79.461922 165.9375,74.447266 Z m -15.33203,15.464843 c -0.18248,-0.03337 -0.28604,0.103421 -0.30078,0.664063 -1.63785,3.45908 1.61832,2.915348 1.07617,-0.310547 -0.33023,-0.117375 -0.59291,-0.320141 -0.77539,-0.353516 z"
       transform="scale(0.26458333)" />
    <path
       id="path906"
       style="color:#000000;font-style:normal;font-variant:normal;font-weight:normal;font-stretch:normal;font-size:medium;line-height:normal;font-family:sans-serif;font-variant-ligatures:normal;font-variant-position:normal;font-variant-caps:normal;font-variant-numeric:normal;font-variant-alternates:normal;font-variant-east-asian:normal;font-feature-settings:normal;font-variation-settings:normal;text-indent:0;text-align:start;text-decoration:none;text-decoration-line:none;text-decoration-style:solid;text-decoration-color:#000000;letter-spacing:normal;word-spacing:normal;text-transform:none;writing-mode:lr-tb;direction:ltr;text-orientation:mixed;dominant-baseline:auto;baseline-shift:baseline;text-anchor:start;white-space:normal;shape-padding:0;shape-margin:0;inline-size:0;clip-rule:nonzero;display:inline;overflow:visible;visibility:visible;isolation:auto;mix-blend-mode:normal;color-interpolation:sRGB;color-interpolation-filters:linearRGB;solid-color:#000000;solid-opacity:1;vector-effect:none;fill:#808080;fill-opacity:1;fill-rule:nonzero;stroke:none;stroke-width:0.264583;stroke-linecap:square;stroke-linejoin:miter;stroke-miterlimit:4;stroke-dasharray:none;stroke-dashoffset:0;stroke-opacity:1;paint-order:markers stroke fill;color-rendering:auto;image-rendering:auto;shape-rendering:auto;text-rendering:auto;enable-background:accumulate;stop-color:#000000"
       d="m 27.676963,9.8895012 -0.640759,0.6416458 3.475753,3.475753 c -0.536292,0.628822 -0.960224,1.440075 -1.212425,2.382328 l -0.02569,0.09479 h 8.008615 l -0.02569,-0.09479 c -0.234134,-0.874755 -0.615963,-1.636949 -1.098445,-2.245022 l 3.613944,-3.613059 -0.641645,-0.6416458 -3.600953,3.6009528 c -0.658633,-0.562004 -1.432887,-0.883438 -2.251518,-0.883481 -0.0025,-3e-6 -0.0052,-3e-6 -0.0077,0 -0.759407,0.0018 -1.480585,0.279976 -2.106239,0.769798 z m -3.723199,6.8723718 -0.754443,0.503454 1.609282,2.412742 2.659301,0.665268 c -0.01753,0.231965 -0.02866,0.464921 -0.02864,0.698931 -3e-6,0.430117 0.03092,0.851671 0.0874,1.262917 h -4.252638 v 0.906217 h 4.424197 c 0.154275,0.632144 0.373555,1.229986 0.649912,1.779955 l -2.81639,0.70336 -1.604557,3.21059 0.811137,0.405126 1.41853,-2.836765 2.666092,-0.666449 c 0.996041,1.489798 2.453625,2.491495 4.119762,2.65251 l 0.08297,0.008 V 17.69378 h -4.948912 l -0.0189,0.04784 c -0.214385,0.540494 -0.373005,1.109912 -0.476582,1.694618 l -2.212246,-0.552766 z m 18.900055,0 -1.415282,2.121595 -2.212539,0.552765 C 39.122366,18.85153 38.963854,18.28209 38.749412,17.741616 l -0.0189,-0.04784 h -4.948615 v 0.07559 10.698328 l 0.08297,-0.008 c 1.666135,-0.161015 3.123721,-1.162711 4.119762,-2.65251 l 2.666091,0.666449 1.418531,2.836766 0.811137,-0.405126 -1.604852,-3.210591 -2.816097,-0.703361 c 0.276358,-0.549968 0.495638,-1.14781 0.649913,-1.779954 h 4.423902 V 22.30515 h -4.252342 c 0.05648,-0.411246 0.08741,-0.8328 0.0874,-1.262917 3e-6,-0.233911 -0.01111,-0.466768 -0.02864,-0.698636 l 2.659006,-0.665568 1.609282,-2.412741 z" />
  </g>
</svg>
