<?xml version="1.0" encoding="UTF-8" standalone="no"?>
<svg
   xmlns:dc="http://purl.org/dc/elements/1.1/"
   xmlns:cc="http://creativecommons.org/ns#"
   xmlns:rdf="http://www.w3.org/1999/02/22-rdf-syntax-ns#"
   xmlns:svg="http://www.w3.org/2000/svg"
   xmlns="http://www.w3.org/2000/svg"
   xmlns:sodipodi="http://sodipodi.sourceforge.net/DTD/sodipodi-0.dtd"
   xmlns:inkscape="http://www.inkscape.org/namespaces/inkscape"
   width="256"
   height="256"
   viewBox="0 0 67.733332 67.733335"
   version="1.1"
   id="svg8"
   inkscape:version="1.0.1 (3bc2e813f5, 2020-09-07)"
   sodipodi:docname="debug-run-to.svg"
   inkscape:export-filename="C:\Users\keath\Workspace\KMX\elite-streamdeck-icons\ship-lights.png"
   inkscape:export-xdpi="96"
   inkscape:export-ydpi="96">
  <defs
     id="defs2" />
  <sodipodi:namedview
     id="base"
     pagecolor="#000000"
     bordercolor="#666666"
     borderopacity="1.0"
     inkscape:pageopacity="0"
     inkscape:pageshadow="2"
     inkscape:zoom="5.6"
     inkscape:cx="111.90634"
     inkscape:cy="142.97844"
     inkscape:document-units="px"
     inkscape:current-layer="layer2"
     showgrid="true"
     units="px"
     inkscape:snap-grids="true"
     objecttolerance="10000"
     guidetolerance="10000"
     inkscape:window-width="3840"
     inkscape:window-height="2066"
     inkscape:window-x="-11"
     inkscape:window-y="-11"
     inkscape:window-maximized="1"
     inkscape:document-rotation="0"
     showguides="true"
     inkscape:guide-bbox="true"
     inkscape:snap-global="true">
    <inkscape:grid
       type="xygrid"
       id="grid4623" />
    <sodipodi:guide
       position="-3.96875,62.441667"
       orientation="0,256"
       id="guide3351" />
    <sodipodi:guide
       position="62.441667,42.597917"
       orientation="-1,0"
       id="guide3353"
       inkscape:label=""
       inkscape:locked="false"
       inkscape:color="rgb(0,0,255)" />
    <sodipodi:guide
       position="-2.6458333,22.754167"
       orientation="0,-256"
       id="guide3355" />
    <sodipodi:guide
       position="5.2916667,70.379167"
       orientation="-256,0"
       id="guide3357" />
    <sodipodi:guide
       position="0,67.733334"
       orientation="0,256"
       id="guide3359" />
    <sodipodi:guide
       position="67.733334,67.733334"
       orientation="256,0"
       id="guide3361" />
    <sodipodi:guide
       position="67.733334,0"
       orientation="0,-256"
       id="guide3363" />
    <sodipodi:guide
       position="0,0"
       orientation="-256,0"
       id="guide3365" />
    <sodipodi:guide
       position="0,67.733334"
       orientation="0,256"
       id="guide3367" />
    <sodipodi:guide
       position="67.733334,67.733334"
       orientation="256,0"
       id="guide3369" />
    <sodipodi:guide
       position="67.733334,0"
       orientation="0,-256"
       id="guide3371" />
    <sodipodi:guide
       position="0,0"
       orientation="-256,0"
       id="guide3373" />
    <sodipodi:guide
       position="0,67.733334"
       orientation="0,256"
       id="guide3375" />
    <sodipodi:guide
       position="67.733334,67.733334"
       orientation="256,0"
       id="guide3377" />
    <sodipodi:guide
       position="67.733334,0"
       orientation="0,-256"
       id="guide3379" />
    <sodipodi:guide
       position="0,0"
       orientation="-256,0"
       id="guide3381" />
    <sodipodi:guide
       position="33.866667,46.83125"
       orientation="1,0"
       id="guide895" />
    <sodipodi:guide
       position="41.010417,42.597917"
       orientation="0,-1"
       id="guide897" />
  </sodipodi:namedview>
  <metadata
     id="metadata5">
    <rdf:RDF>
      <cc:Work
         rdf:about="">
        <dc:format>image/svg+xml</dc:format>
        <dc:type
           rdf:resource="http://purl.org/dc/dcmitype/StillImage" />
        <dc:title></dc:title>
      </cc:Work>
    </rdf:RDF>
  </metadata>
  <g
     inkscape:groupmode="layer"
     id="layer2"
     inkscape:label="Icon">
    <path
       id="rect892"
       style="fill:#808080;stroke-width:0;stroke-linecap:square;stroke-miterlimit:4;stroke-dasharray:none;paint-order:markers stroke fill"
       d="m 135,52.59375 v 25.103516 h -16.11719 c 2.90049,1.937433 5.80106,3.874516 8.70508,5.80664 -2.42242,3.721028 -5.03328,7.335119 -7.33984,11.121094 -1.23272,1.979426 3.39108,0.490962 4.77148,0.949219 V 110 H 135 v 28.04102 l 62.75195,-42.722661 z m 65.7793,13.552734 v 60.298826 h 10.96289 V 66.146484 Z M 31.742188,77.697266 V 110 H 47.037109 V 96.707031 c -0.161544,-2.372666 3.865566,-0.556121 5.5,-1.132812 -1.459041,-1.847671 -2.531126,-3.961747 -3.921875,-5.857422 -2.49216,-2.056048 -3.094549,-6.044534 -0.61914,-8.353516 1.532669,-1.300837 3.173457,-2.901175 5.089844,-3.666015 z m 25.871093,0 c 2.412149,1.057717 3.719379,3.819755 4.976563,6.0625 0.723061,1.534099 1.483975,-2.141027 2.857422,-2.330078 1.816806,-0.397487 1.859829,-2.266774 2.46875,-3.732422 z m 45.660159,0 c 0.38981,0.862628 0.88195,1.765594 0.95117,2.609375 1.86009,0.514265 4.15814,1.707014 4.75391,3.90625 1.56835,-1.69359 2.92306,-4.224033 4.44726,-6.515625 z"
       transform="scale(0.26458333)" />
    <path
       id="path906"
       style="color:#000000;font-style:normal;font-variant:normal;font-weight:normal;font-stretch:normal;font-size:medium;line-height:normal;font-family:sans-serif;font-variant-ligatures:normal;font-variant-position:normal;font-variant-caps:normal;font-variant-numeric:normal;font-variant-alternates:normal;font-variant-east-asian:normal;font-feature-settings:normal;font-variation-settings:normal;text-indent:0;text-align:start;text-decoration:none;text-decoration-line:none;text-decoration-style:solid;text-decoration-color:#000000;letter-spacing:normal;word-spacing:normal;text-transform:none;writing-mode:lr-tb;direction:ltr;text-orientation:mixed;dominant-baseline:auto;baseline-shift:baseline;text-anchor:start;white-space:normal;shape-padding:0;shape-margin:0;inline-size:0;clip-rule:nonzero;display:inline;overflow:visible;visibility:visible;isolation:auto;mix-blend-mode:normal;color-interpolation:sRGB;color-interpolation-filters:linearRGB;solid-color:#000000;solid-opacity:1;vector-effect:none;fill:#808080;fill-opacity:1;fill-rule:nonzero;stroke:none;stroke-width:0.264583;stroke-linecap:square;stroke-linejoin:miter;stroke-miterlimit:4;stroke-dasharray:none;stroke-dashoffset:0;stroke-opacity:1;paint-order:markers stroke fill;color-rendering:auto;image-rendering:auto;shape-rendering:auto;text-rendering:auto;enable-background:accumulate;stop-color:#000000"
       d="m 17.827696,16.177804 -0.552092,0.552856 2.994783,2.994784 c -0.462081,0.541806 -0.82735,1.2408 -1.044651,2.052665 l -0.02213,0.08167 h 6.900395 l -0.02214,-0.08167 C 25.880126,21.024401 25.551134,20.367678 25.135417,19.84375 l 3.113852,-3.11309 -0.552855,-0.552856 -3.102659,3.102659 c -0.567492,-0.484235 -1.234606,-0.761189 -1.939956,-0.761226 -0.0022,-3e-6 -0.0045,-3e-6 -0.0066,0 -0.654321,0.0015 -1.275704,0.241233 -1.814781,0.663274 z m -3.207989,5.921384 -0.650044,0.433787 1.386592,2.07887 2.291311,0.57321 c -0.0151,0.199866 -0.02469,0.400586 -0.02468,0.602214 -2e-6,0.370598 0.02664,0.733818 0.07531,1.088156 H 14.03403 v 0.780816 h 3.811984 c 0.132927,0.544669 0.321863,1.059783 0.559978,1.533648 l -2.426662,0.60603 -1.382521,2.766314 0.698893,0.349065 1.222236,-2.444218 2.297162,-0.574227 c 0.85821,1.283643 2.114096,2.146726 3.549676,2.28546 l 0.07149,0.0069 v -9.283067 h -4.264088 l -0.01628,0.04122 c -0.184719,0.465702 -0.321389,0.956324 -0.410633,1.46012 l -1.906119,-0.476275 z m 16.284695,0 -1.219438,1.828012 -1.906371,0.476274 c -0.08929,-0.503792 -0.225869,-0.994434 -0.410637,-1.460118 l -0.01628,-0.04122 h -4.263834 v 0.06513 9.21791 l 0.07149,-0.0069 c 1.435578,-0.138734 2.691465,-1.001817 3.549676,-2.28546 l 2.297161,0.574227 1.222237,2.444219 0.698893,-0.349065 -1.382775,-2.766315 -2.42641,-0.606031 c 0.238116,-0.473864 0.427053,-0.988978 0.559979,-1.533647 h 3.81173 v -0.780816 h -3.66391 c 0.04866,-0.354338 0.07531,-0.717558 0.07531,-1.088156 2e-6,-0.201543 -0.0096,-0.402178 -0.02468,-0.60196 l 2.291057,-0.573468 1.386592,-2.07887 z" />
  </g>
</svg>
