<?xml version="1.0" encoding="UTF-8" standalone="no"?>
<svg
   xmlns:dc="http://purl.org/dc/elements/1.1/"
   xmlns:cc="http://creativecommons.org/ns#"
   xmlns:rdf="http://www.w3.org/1999/02/22-rdf-syntax-ns#"
   xmlns:svg="http://www.w3.org/2000/svg"
   xmlns="http://www.w3.org/2000/svg"
   xmlns:sodipodi="http://sodipodi.sourceforge.net/DTD/sodipodi-0.dtd"
   xmlns:inkscape="http://www.inkscape.org/namespaces/inkscape"
   width="256"
   height="256"
   viewBox="0 0 67.733332 67.733335"
   version="1.1"
   id="svg8"
   inkscape:version="1.0.1 (3bc2e813f5, 2020-09-07)"
   sodipodi:docname="debug-step-into.svg"
   inkscape:export-filename="C:\Users\keath\Workspace\KMX\elite-streamdeck-icons\ship-lights.png"
   inkscape:export-xdpi="96"
   inkscape:export-ydpi="96">
  <defs
     id="defs2" />
  <sodipodi:namedview
     id="base"
     pagecolor="#000000"
     bordercolor="#666666"
     borderopacity="1.0"
     inkscape:pageopacity="0"
     inkscape:pageshadow="2"
     inkscape:zoom="3.959798"
     inkscape:cx="120.90431"
     inkscape:cy="127.55248"
     inkscape:document-units="px"
     inkscape:current-layer="layer2"
     showgrid="true"
     units="px"
     inkscape:snap-grids="true"
     objecttolerance="10000"
     guidetolerance="10000"
     inkscape:window-width="3840"
     inkscape:window-height="2066"
     inkscape:window-x="-11"
     inkscape:window-y="-11"
     inkscape:window-maximized="1"
     inkscape:document-rotation="0"
     showguides="true"
     inkscape:guide-bbox="true"
     inkscape:snap-global="true">
    <inkscape:grid
       type="xygrid"
       id="grid4623" />
    <sodipodi:guide
       position="-3.96875,62.441667"
       orientation="0,256"
       id="guide3351" />
    <sodipodi:guide
       position="62.441667,42.597917"
       orientation="-1,0"
       id="guide3353"
       inkscape:label=""
       inkscape:locked="false"
       inkscape:color="rgb(0,0,255)" />
    <sodipodi:guide
       position="-2.6458333,22.754167"
       orientation="0,-256"
       id="guide3355" />
    <sodipodi:guide
       position="5.2916667,70.379167"
       orientation="-256,0"
       id="guide3357" />
    <sodipodi:guide
       position="0,67.733334"
       orientation="0,256"
       id="guide3359" />
    <sodipodi:guide
       position="67.733334,67.733334"
       orientation="256,0"
       id="guide3361" />
    <sodipodi:guide
       position="67.733334,0"
       orientation="0,-256"
       id="guide3363" />
    <sodipodi:guide
       position="0,0"
       orientation="-256,0"
       id="guide3365" />
    <sodipodi:guide
       position="0,67.733334"
       orientation="0,256"
       id="guide3367" />
    <sodipodi:guide
       position="67.733334,67.733334"
       orientation="256,0"
       id="guide3369" />
    <sodipodi:guide
       position="67.733334,0"
       orientation="0,-256"
       id="guide3371" />
    <sodipodi:guide
       position="0,0"
       orientation="-256,0"
       id="guide3373" />
    <sodipodi:guide
       position="0,67.733334"
       orientation="0,256"
       id="guide3375" />
    <sodipodi:guide
       position="67.733334,67.733334"
       orientation="256,0"
       id="guide3377" />
    <sodipodi:guide
       position="67.733334,0"
       orientation="0,-256"
       id="guide3379" />
    <sodipodi:guide
       position="0,0"
       orientation="-256,0"
       id="guide3381" />
    <sodipodi:guide
       position="33.866667,46.83125"
       orientation="1,0"
       id="guide895" />
    <sodipodi:guide
       position="41.010417,42.597917"
       orientation="0,-1"
       id="guide897" />
  </sodipodi:namedview>
  <metadata
     id="metadata5">
    <rdf:RDF>
      <cc:Work
         rdf:about="">
        <dc:format>image/svg+xml</dc:format>
        <dc:type
           rdf:resource="http://purl.org/dc/dcmitype/StillImage" />
        <dc:title></dc:title>
      </cc:Work>
    </rdf:RDF>
  </metadata>
  <g
     inkscape:groupmode="layer"
     id="layer2"
     inkscape:label="Icon">
    <path
       id="path906"
       style="color:#000000;font-style:normal;font-variant:normal;font-weight:normal;font-stretch:normal;font-size:medium;line-height:normal;font-family:sans-serif;font-variant-ligatures:normal;font-variant-position:normal;font-variant-caps:normal;font-variant-numeric:normal;font-variant-alternates:normal;font-variant-east-asian:normal;font-feature-settings:normal;font-variation-settings:normal;text-indent:0;text-align:start;text-decoration:none;text-decoration-line:none;text-decoration-style:solid;text-decoration-color:#000000;letter-spacing:normal;word-spacing:normal;text-transform:none;writing-mode:lr-tb;direction:ltr;text-orientation:mixed;dominant-baseline:auto;baseline-shift:baseline;text-anchor:start;white-space:normal;shape-padding:0;shape-margin:0;inline-size:0;clip-rule:nonzero;display:inline;overflow:visible;visibility:visible;isolation:auto;mix-blend-mode:normal;color-interpolation:sRGB;color-interpolation-filters:linearRGB;solid-color:#000000;solid-opacity:1;vector-effect:none;fill:#808080;fill-opacity:1;fill-rule:nonzero;stroke:none;stroke-width:0.264583;stroke-linecap:square;stroke-linejoin:miter;stroke-miterlimit:4;stroke-dasharray:none;stroke-dashoffset:0;stroke-opacity:1;paint-order:markers stroke fill;color-rendering:auto;image-rendering:auto;shape-rendering:auto;text-rendering:auto;enable-background:accumulate;stop-color:#000000"
       d="m 26.705028,7.3443303 -0.609665,0.6105084 3.307084,3.3070853 c -0.510268,0.598306 -0.913628,1.370192 -1.153589,2.26672 l -0.02444,0.09019 h 7.619979 l -0.02445,-0.09019 C 35.597178,12.696338 35.233879,11.971131 34.77481,11.392567 L 38.213379,7.9548387 37.602872,7.3443303 34.176663,10.770539 C 33.549992,10.235808 32.81331,9.9299717 32.034405,9.9299317 c -0.0024,-4e-6 -0.005,-4e-6 -0.0073,0 -0.722555,0.0017 -1.408737,0.2663893 -2.00403,0.7324413 z m -3.542522,6.5388757 -0.717832,0.479023 1.531188,2.295657 2.530252,0.632986 c -0.01667,0.220708 -0.02726,0.442359 -0.02725,0.665014 -2e-6,0.409244 0.02942,0.810341 0.08316,1.20163 h -4.04627 v 0.862241 h 4.209502 c 0.146789,0.601468 0.355428,1.170299 0.618374,1.693579 l -2.679718,0.669228 -1.526692,3.05479 0.771775,0.385466 1.349691,-2.699105 2.536714,-0.634109 c 0.947706,1.417504 2.334558,2.37059 3.919842,2.523792 l 0.07894,0.0076 v -10.25112 h -4.708754 l -0.01798,0.04552 c -0.203982,0.514266 -0.354904,1.056051 -0.453455,1.612383 L 24.509101,15.90184 Z m 17.982888,0 -1.346603,2.01864 -2.10517,0.52594 c -0.0986,-0.556328 -0.249423,-1.098135 -0.453459,-1.612381 l -0.01798,-0.04552 h -4.708473 v 0.07192 10.179169 l 0.07895,-0.0076 c 1.585282,-0.153201 2.972135,-1.106288 3.919842,-2.523791 l 2.536712,0.634108 1.349694,2.699106 0.771775,-0.385466 -1.526973,-3.054791 -2.67944,-0.669229 c 0.262947,-0.523279 0.471587,-1.09211 0.618374,-1.693578 h 4.209224 v -0.862241 h -4.045989 c 0.05374,-0.391289 0.08316,-0.792386 0.08316,-1.20163 2e-6,-0.222561 -0.0106,-0.444118 -0.02725,-0.664734 l 2.529972,-0.63327 1.531188,-2.295658 z" />
    <path
       style="font-variation-settings:normal;opacity:1;vector-effect:none;fill:none;fill-opacity:1;stroke:#808080;stroke-width:0;stroke-linecap:butt;stroke-linejoin:round;stroke-miterlimit:4;stroke-dasharray:none;stroke-dashoffset:0;stroke-opacity:1;stop-color:#000000;stop-opacity:1"
       d="m 17.197917,17.197917 h 33.072916 v 15.875"
       id="path961" />
    <path
       id="rect963"
       style="fill:#808080;stroke-width:0;stroke-linecap:square;stroke-linejoin:round;stroke-miterlimit:4;stroke-dasharray:none;paint-order:markers stroke fill"
       d="m 10.583334,13.935584 v 7.576798 h 10.343555 v -3.943428 h 1.753898 c -0.616782,-0.955644 -1.309976,-1.862403 -1.860868,-2.859257 -0.113686,-0.271325 -0.113978,-0.532934 -0.03772,-0.774113 z m 14.500924,0 c 0.126083,0.194739 0.259393,0.384118 0.409277,0.561206 0.0456,-0.183843 0.11098,-0.377734 0.196887,-0.561206 z m 13.501502,0 c 0.10047,0.16782 0.179205,0.348437 0.227893,0.53175 0.137285,-0.172707 0.266695,-0.351103 0.39274,-0.53175 z m 5.313886,0.235644 c -0.757182,1.1333 -1.514015,2.266482 -2.271178,3.399793 h 1.75183 v 4.036963 h -2.347661 c 0.227002,0.453299 0.453991,0.906617 0.68058,1.360123 1.352661,1.083029 1.943034,2.817394 1.943034,5.363498 V 31.75 H 37.090242 L 48.033761,42.167969 58.976763,31.75 h -6.566008 v -8.34316 c 0,-4.522615 -3.627424,-8.283026 -8.511109,-9.235612 z"
       sodipodi:nodetypes="ccccccccccccccccccccccscccccsc" />
  </g>
</svg>
