<?xml version="1.0" encoding="UTF-8" standalone="no"?>
<svg
   xmlns:dc="http://purl.org/dc/elements/1.1/"
   xmlns:cc="http://creativecommons.org/ns#"
   xmlns:rdf="http://www.w3.org/1999/02/22-rdf-syntax-ns#"
   xmlns:svg="http://www.w3.org/2000/svg"
   xmlns="http://www.w3.org/2000/svg"
   xmlns:sodipodi="http://sodipodi.sourceforge.net/DTD/sodipodi-0.dtd"
   xmlns:inkscape="http://www.inkscape.org/namespaces/inkscape"
   width="256"
   height="256"
   viewBox="0 0 67.733332 67.733335"
   version="1.1"
   id="svg8"
   inkscape:version="1.0.1 (3bc2e813f5, 2020-09-07)"
   sodipodi:docname="github.svg"
   inkscape:export-filename="C:\Users\keath\Workspace\KMX\elite-streamdeck-icons\ship-lights.png"
   inkscape:export-xdpi="96"
   inkscape:export-ydpi="96">
  <defs
     id="defs2" />
  <sodipodi:namedview
     id="base"
     pagecolor="#000000"
     bordercolor="#666666"
     borderopacity="1.0"
     inkscape:pageopacity="0"
     inkscape:pageshadow="2"
     inkscape:zoom="5.6"
     inkscape:cx="111.90634"
     inkscape:cy="121.54987"
     inkscape:document-units="px"
     inkscape:current-layer="layer2"
     showgrid="true"
     units="px"
     inkscape:snap-grids="true"
     objecttolerance="10000"
     guidetolerance="10000"
     inkscape:window-width="3840"
     inkscape:window-height="2066"
     inkscape:window-x="-11"
     inkscape:window-y="-11"
     inkscape:window-maximized="1"
     inkscape:document-rotation="0"
     showguides="true"
     inkscape:guide-bbox="true">
    <inkscape:grid
       type="xygrid"
       id="grid4623" />
    <sodipodi:guide
       position="-3.96875,62.441667"
       orientation="0,256"
       id="guide3351" />
    <sodipodi:guide
       position="62.441667,42.597917"
       orientation="-1,0"
       id="guide3353"
       inkscape:label=""
       inkscape:locked="false"
       inkscape:color="rgb(0,0,255)" />
    <sodipodi:guide
       position="-2.6458333,22.754167"
       orientation="0,-256"
       id="guide3355" />
    <sodipodi:guide
       position="5.2916667,70.379167"
       orientation="-256,0"
       id="guide3357" />
    <sodipodi:guide
       position="0,67.733334"
       orientation="0,256"
       id="guide3359" />
    <sodipodi:guide
       position="67.733334,67.733334"
       orientation="256,0"
       id="guide3361" />
    <sodipodi:guide
       position="67.733334,0"
       orientation="0,-256"
       id="guide3363" />
    <sodipodi:guide
       position="0,0"
       orientation="-256,0"
       id="guide3365" />
    <sodipodi:guide
       position="0,67.733334"
       orientation="0,256"
       id="guide3367" />
    <sodipodi:guide
       position="67.733334,67.733334"
       orientation="256,0"
       id="guide3369" />
    <sodipodi:guide
       position="67.733334,0"
       orientation="0,-256"
       id="guide3371" />
    <sodipodi:guide
       position="0,0"
       orientation="-256,0"
       id="guide3373" />
    <sodipodi:guide
       position="0,67.733334"
       orientation="0,256"
       id="guide3375" />
    <sodipodi:guide
       position="67.733334,67.733334"
       orientation="256,0"
       id="guide3377" />
    <sodipodi:guide
       position="67.733334,0"
       orientation="0,-256"
       id="guide3379" />
    <sodipodi:guide
       position="0,0"
       orientation="-256,0"
       id="guide3381" />
    <sodipodi:guide
       position="33.866667,46.83125"
       orientation="1,0"
       id="guide895" />
    <sodipodi:guide
       position="41.010417,42.597917"
       orientation="0,-1"
       id="guide897" />
  </sodipodi:namedview>
  <metadata
     id="metadata5">
    <rdf:RDF>
      <cc:Work
         rdf:about="">
        <dc:format>image/svg+xml</dc:format>
        <dc:type
           rdf:resource="http://purl.org/dc/dcmitype/StillImage" />
        <dc:title></dc:title>
      </cc:Work>
    </rdf:RDF>
  </metadata>
  <g
     inkscape:groupmode="layer"
     id="layer2"
     inkscape:label="Icon">
    <path
       fill-rule="evenodd"
       clip-rule="evenodd"
       fill="#181616"
       d="m 33.895249,5.6810969 c -11.124648,0 -20.104792,8.9801351 -20.104792,20.1047891 0,8.846108 5.763377,16.351894 13.805294,19.032534 1.072251,0.134041 1.340318,-0.402071 1.340318,-0.938222 v -3.484831 c -5.629342,1.206287 -6.83563,-2.680641 -6.83563,-2.680641 -0.938222,-2.27854 -2.278545,-2.948702 -2.278545,-2.948702 -1.876443,-1.206287 0.134041,-1.206287 0.134041,-1.206287 2.010478,0.134041 3.082731,2.010479 3.082731,2.010479 1.742419,3.082737 4.69112,2.14451 5.897407,1.608383 0.13404,-1.340318 0.670161,-2.144509 1.340319,-2.68064 -4.423056,-0.536126 -9.11417,-2.27854 -9.11417,-9.918361 0,-2.144515 0.804191,-4.020958 2.010479,-5.361281 -0.26808,-0.536127 -0.938226,-2.546605 0.134041,-5.361276 0,0 1.742413,-0.536126 5.495306,2.01048 1.608384,-0.402071 3.350802,-0.670162 5.093215,-0.670162 1.742415,0 3.484833,0.268081 5.093216,0.670162 3.886924,-2.546606 5.495307,-2.01048 5.495307,-2.01048 1.072257,2.814671 0.40207,4.825149 0.13404,5.361276 1.340322,1.340323 2.010479,3.216766 2.010479,5.361281 0,7.773852 -4.691115,9.382235 -9.114168,9.918361 0.670156,0.670161 1.340318,1.87645 1.340318,3.752898 v 5.495305 c 0,0.536133 0.40212,1.206289 1.340318,0.938228 C 48.236689,42.003749 53.866031,34.497959 53.866031,25.651851 54.000071,14.661232 45.019927,5.6810969 33.895274,5.6810969 Z"
       id="path2"
       style="fill:#808080;fill-opacity:1;stroke-width:0.264583" />
  </g>
</svg>
