<?xml version="1.0" encoding="UTF-8" standalone="no"?>
<svg
   xmlns:dc="http://purl.org/dc/elements/1.1/"
   xmlns:cc="http://creativecommons.org/ns#"
   xmlns:rdf="http://www.w3.org/1999/02/22-rdf-syntax-ns#"
   xmlns:svg="http://www.w3.org/2000/svg"
   xmlns="http://www.w3.org/2000/svg"
   xmlns:sodipodi="http://sodipodi.sourceforge.net/DTD/sodipodi-0.dtd"
   xmlns:inkscape="http://www.inkscape.org/namespaces/inkscape"
   width="256"
   height="256"
   viewBox="0 0 67.733332 67.733335"
   version="1.1"
   id="svg8"
   inkscape:version="1.0.1 (3bc2e813f5, 2020-09-07)"
   sodipodi:docname="github-ref.svg"
   inkscape:export-filename="C:\Users\keath\Workspace\KMX\elite-streamdeck-icons\ship-lights.png"
   inkscape:export-xdpi="96"
   inkscape:export-ydpi="96">
  <defs
     id="defs2" />
  <sodipodi:namedview
     id="base"
     pagecolor="#000000"
     bordercolor="#666666"
     borderopacity="1.0"
     inkscape:pageopacity="0"
     inkscape:pageshadow="2"
     inkscape:zoom="5.6"
     inkscape:cx="103.35273"
     inkscape:cy="98.178571"
     inkscape:document-units="px"
     inkscape:current-layer="layer2"
     showgrid="true"
     units="px"
     inkscape:snap-grids="true"
     objecttolerance="10000"
     guidetolerance="10000"
     inkscape:window-width="2780"
     inkscape:window-height="1895"
     inkscape:window-x="4681"
     inkscape:window-y="172"
     inkscape:window-maximized="0"
     inkscape:document-rotation="0"
     showguides="true"
     inkscape:guide-bbox="true">
    <inkscape:grid
       type="xygrid"
       id="grid4623" />
    <sodipodi:guide
       position="-3.96875,62.441667"
       orientation="0,256"
       id="guide3351" />
    <sodipodi:guide
       position="62.441667,42.597917"
       orientation="-1,0"
       id="guide3353"
       inkscape:label=""
       inkscape:locked="false"
       inkscape:color="rgb(0,0,255)" />
    <sodipodi:guide
       position="-2.6458333,22.754167"
       orientation="0,-256"
       id="guide3355" />
    <sodipodi:guide
       position="5.2916667,70.379167"
       orientation="-256,0"
       id="guide3357" />
    <sodipodi:guide
       position="0,67.733334"
       orientation="0,256"
       id="guide3359" />
    <sodipodi:guide
       position="67.733334,67.733334"
       orientation="256,0"
       id="guide3361" />
    <sodipodi:guide
       position="67.733334,0"
       orientation="0,-256"
       id="guide3363" />
    <sodipodi:guide
       position="0,0"
       orientation="-256,0"
       id="guide3365" />
    <sodipodi:guide
       position="0,67.733334"
       orientation="0,256"
       id="guide3367" />
    <sodipodi:guide
       position="67.733334,67.733334"
       orientation="256,0"
       id="guide3369" />
    <sodipodi:guide
       position="67.733334,0"
       orientation="0,-256"
       id="guide3371" />
    <sodipodi:guide
       position="0,0"
       orientation="-256,0"
       id="guide3373" />
    <sodipodi:guide
       position="0,67.733334"
       orientation="0,256"
       id="guide3375" />
    <sodipodi:guide
       position="67.733334,67.733334"
       orientation="256,0"
       id="guide3377" />
    <sodipodi:guide
       position="67.733334,0"
       orientation="0,-256"
       id="guide3379" />
    <sodipodi:guide
       position="0,0"
       orientation="-256,0"
       id="guide3381" />
    <sodipodi:guide
       position="33.866667,46.83125"
       orientation="1,0"
       id="guide895" />
    <sodipodi:guide
       position="41.010417,42.597917"
       orientation="0,-1"
       id="guide897" />
  </sodipodi:namedview>
  <metadata
     id="metadata5">
    <rdf:RDF>
      <cc:Work
         rdf:about="">
        <dc:format>image/svg+xml</dc:format>
        <dc:type
           rdf:resource="http://purl.org/dc/dcmitype/StillImage" />
        <dc:title></dc:title>
      </cc:Work>
    </rdf:RDF>
  </metadata>
  <g
     inkscape:groupmode="layer"
     id="layer2"
     inkscape:label="Icon">
    <path
       id="path870"
       style="color:#000000;font-style:normal;font-variant:normal;font-weight:normal;font-stretch:normal;font-size:medium;line-height:normal;font-family:sans-serif;font-variant-ligatures:normal;font-variant-position:normal;font-variant-caps:normal;font-variant-numeric:normal;font-variant-alternates:normal;font-variant-east-asian:normal;font-feature-settings:normal;font-variation-settings:normal;text-indent:0;text-align:start;text-decoration:none;text-decoration-line:none;text-decoration-style:solid;text-decoration-color:#000000;letter-spacing:normal;word-spacing:normal;text-transform:none;writing-mode:lr-tb;direction:ltr;text-orientation:mixed;dominant-baseline:auto;baseline-shift:baseline;text-anchor:start;white-space:normal;shape-padding:0;shape-margin:0;inline-size:0;clip-rule:nonzero;display:inline;overflow:visible;visibility:visible;opacity:1;isolation:auto;mix-blend-mode:normal;color-interpolation:sRGB;color-interpolation-filters:linearRGB;solid-color:#000000;solid-opacity:1;vector-effect:none;fill:#808080;fill-opacity:1;fill-rule:nonzero;stroke:none;stroke-width:6;stroke-linecap:square;stroke-linejoin:miter;stroke-miterlimit:4;stroke-dasharray:none;stroke-dashoffset:0;stroke-opacity:1;paint-order:markers stroke fill;color-rendering:auto;image-rendering:auto;shape-rendering:auto;text-rendering:auto;enable-background:accumulate;stop-color:#000000;stop-opacity:1"
       d="m 32,21.998047 v 3.003906 19.496094 H 19.998047 v 5.005859 H 32 v 15 H 19.998047 V 69.5 H 32 v 15 H 19.998047 v 4.998047 H 32 V 104.49805 H 19.998047 v 5.00586 H 32 v 15 H 19.998047 V 129.5 H 32 v 15 H 19.998047 v 4.99805 H 32 v 18.49804 h 176 v -2.27343 l 29,-19.79688 V 98.960938 L 226.08984,93.375 237,85.925781 V 38.960938 l -29,-14.84961 v -2.113281 z m 176,5.322265 26.79883,13.714844 v 43.03711 L 223.2793,91.935547 208,84.109375 Z M 38.001953,28 H 201.99805 V 162.00391 H 38.001953 V 149.49805 H 49.998047 V 144.5 H 38.001953 v -15 h 11.996094 v -4.99609 H 38.001953 v -15 h 11.996094 v -5.00586 H 38.001953 V 89.498047 H 49.998047 V 84.5 H 38.001953 v -15 H 49.998047 V 64.503906 H 38.001953 v -15 H 49.998047 V 44.498047 H 38.001953 Z M 208,87.320312 234.79883,101.03516 v 43.03711 L 208,162.36523 Z"
       transform="scale(0.26458333)" />
    <path
       fill-rule="evenodd"
       clip-rule="evenodd"
       fill="#181616"
       d="m 33.136209,11.185591 c -7.938818,0 -14.347266,6.408441 -14.347266,14.347264 0,6.312796 4.112885,11.669108 9.851792,13.582076 0.765184,0.09565 0.956483,-0.286928 0.956483,-0.669538 v -2.486859 c -4.017235,0.860835 -4.878071,-1.912971 -4.878071,-1.912971 -0.669538,-1.626021 -1.626025,-2.104265 -1.626025,-2.104265 -1.339075,-0.860834 0.09566,-0.860834 0.09566,-0.860834 1.434726,0.09565 2.199912,1.434725 2.199912,1.434725 1.243432,2.199916 3.347696,1.530374 4.208532,1.147782 0.09565,-0.956483 0.478243,-1.530376 0.956484,-1.912971 -3.1564,-0.382592 -6.504092,-1.626021 -6.504092,-7.077982 0,-1.530377 0.57389,-2.869453 1.434726,-3.825939 -0.191308,-0.382594 -0.669541,-1.817319 0.09566,-3.825937 0,0 1.243428,-0.382592 3.921583,1.434727 1.147782,-0.286927 2.391214,-0.478243 3.634642,-0.478243 1.243429,0 2.486861,0.191309 3.634642,0.478243 2.773802,-1.817319 3.921583,-1.434727 3.921583,-1.434727 0.76519,2.008618 0.286929,3.443343 0.09566,3.825937 0.956486,0.956486 1.434727,2.295562 1.434727,3.825939 0,5.547609 -3.347694,6.69539 -6.504091,7.077982 0.478239,0.478242 0.956483,1.339081 0.956483,2.678159 v 3.921583 c 0,0.382598 0.286963,0.860836 0.956484,0.669542 5.738905,-1.912971 9.756139,-7.269284 9.756139,-13.58208 0.09564,-7.843172 -6.312809,-14.251613 -14.251629,-14.251613 z"
       id="path2"
       style="fill:#808080;fill-opacity:1;stroke-width:0.264583" />
  </g>
</svg>
