<?xml version="1.0" encoding="UTF-8" standalone="no"?>
<svg
   xmlns:dc="http://purl.org/dc/elements/1.1/"
   xmlns:cc="http://creativecommons.org/ns#"
   xmlns:rdf="http://www.w3.org/1999/02/22-rdf-syntax-ns#"
   xmlns:svg="http://www.w3.org/2000/svg"
   xmlns="http://www.w3.org/2000/svg"
   xmlns:sodipodi="http://sodipodi.sourceforge.net/DTD/sodipodi-0.dtd"
   xmlns:inkscape="http://www.inkscape.org/namespaces/inkscape"
   width="256"
   height="256"
   viewBox="0 0 67.733332 67.733335"
   version="1.1"
   id="svg8"
   inkscape:version="1.0.1 (3bc2e813f5, 2020-09-07)"
   sodipodi:docname="headset.svg"
   inkscape:export-filename="C:\Users\keath\Workspace\KMX\elite-streamdeck-icons\ship-lights.png"
   inkscape:export-xdpi="96"
   inkscape:export-ydpi="96">
  <defs
     id="defs2" />
  <sodipodi:namedview
     id="base"
     pagecolor="#000000"
     bordercolor="#666666"
     borderopacity="1.0"
     inkscape:pageopacity="0"
     inkscape:pageshadow="2"
     inkscape:zoom="5.6"
     inkscape:cx="91.379882"
     inkscape:cy="139.05987"
     inkscape:document-units="px"
     inkscape:current-layer="layer2"
     showgrid="true"
     units="px"
     inkscape:snap-grids="true"
     objecttolerance="10000"
     guidetolerance="10000"
     inkscape:window-width="3840"
     inkscape:window-height="2066"
     inkscape:window-x="-11"
     inkscape:window-y="-11"
     inkscape:window-maximized="1"
     inkscape:document-rotation="0"
     showguides="true"
     inkscape:guide-bbox="true">
    <inkscape:grid
       type="xygrid"
       id="grid4623" />
    <sodipodi:guide
       position="-3.96875,62.441667"
       orientation="0,256"
       id="guide3351" />
    <sodipodi:guide
       position="62.441667,42.597917"
       orientation="-1,0"
       id="guide3353"
       inkscape:label=""
       inkscape:locked="false"
       inkscape:color="rgb(0,0,255)" />
    <sodipodi:guide
       position="-2.6458333,22.754167"
       orientation="0,-256"
       id="guide3355" />
    <sodipodi:guide
       position="5.2916667,70.379167"
       orientation="-256,0"
       id="guide3357" />
    <sodipodi:guide
       position="0,67.733334"
       orientation="0,256"
       id="guide3359" />
    <sodipodi:guide
       position="67.733334,67.733334"
       orientation="256,0"
       id="guide3361" />
    <sodipodi:guide
       position="67.733334,0"
       orientation="0,-256"
       id="guide3363" />
    <sodipodi:guide
       position="0,0"
       orientation="-256,0"
       id="guide3365" />
    <sodipodi:guide
       position="0,67.733334"
       orientation="0,256"
       id="guide3367" />
    <sodipodi:guide
       position="67.733334,67.733334"
       orientation="256,0"
       id="guide3369" />
    <sodipodi:guide
       position="67.733334,0"
       orientation="0,-256"
       id="guide3371" />
    <sodipodi:guide
       position="0,0"
       orientation="-256,0"
       id="guide3373" />
    <sodipodi:guide
       position="0,67.733334"
       orientation="0,256"
       id="guide3375" />
    <sodipodi:guide
       position="67.733334,67.733334"
       orientation="256,0"
       id="guide3377" />
    <sodipodi:guide
       position="67.733334,0"
       orientation="0,-256"
       id="guide3379" />
    <sodipodi:guide
       position="0,0"
       orientation="-256,0"
       id="guide3381" />
    <sodipodi:guide
       position="33.866667,46.83125"
       orientation="1,0"
       id="guide895" />
    <sodipodi:guide
       position="41.010417,42.597917"
       orientation="0,-1"
       id="guide897" />
  </sodipodi:namedview>
  <metadata
     id="metadata5">
    <rdf:RDF>
      <cc:Work
         rdf:about="">
        <dc:format>image/svg+xml</dc:format>
        <dc:type
           rdf:resource="http://purl.org/dc/dcmitype/StillImage" />
        <dc:title></dc:title>
      </cc:Work>
    </rdf:RDF>
  </metadata>
  <g
     inkscape:groupmode="layer"
     id="layer2"
     inkscape:label="Icon">
    <path
       id="path913"
       style="color:#000000;font-style:normal;font-variant:normal;font-weight:normal;font-stretch:normal;font-size:medium;line-height:normal;font-family:sans-serif;font-variant-ligatures:normal;font-variant-position:normal;font-variant-caps:normal;font-variant-numeric:normal;font-variant-alternates:normal;font-variant-east-asian:normal;font-feature-settings:normal;font-variation-settings:normal;text-indent:0;text-align:start;text-decoration:none;text-decoration-line:none;text-decoration-style:solid;text-decoration-color:#000000;letter-spacing:normal;word-spacing:normal;text-transform:none;writing-mode:lr-tb;direction:ltr;text-orientation:mixed;dominant-baseline:auto;baseline-shift:baseline;text-anchor:start;white-space:normal;shape-padding:0;shape-margin:0;inline-size:0;clip-rule:nonzero;display:inline;overflow:visible;visibility:visible;opacity:1;isolation:auto;mix-blend-mode:normal;color-interpolation:sRGB;color-interpolation-filters:linearRGB;solid-color:#000000;solid-opacity:1;vector-effect:none;fill:#808080;fill-opacity:1;fill-rule:nonzero;stroke:none;stroke-width:7.99997;stroke-linecap:round;stroke-linejoin:round;stroke-miterlimit:4;stroke-dasharray:none;stroke-dashoffset:0;stroke-opacity:1;paint-order:markers stroke fill;color-rendering:auto;image-rendering:auto;shape-rendering:auto;text-rendering:auto;enable-background:accumulate;stop-color:#000000;stop-opacity:1"
       d="M 33.889436,5.6669352 C 25.3721,5.6503462 18.154546,11.97255 17.042363,20.409529 c -1.006771,0.417607 -1.892689,1.087509 -2.549352,1.968051 a 0.67572466,0.71389369 0 0 0 -0.144916,0.441724 v 5.685204 a 0.67572466,0.71389369 0 0 0 0.144916,0.441723 c 1.166714,1.564448 3.056412,2.464485 5.061757,2.464511 a 0.67572466,0.71389369 0 0 0 0.675723,-0.713764 V 25.661904 20.62697 a 0.67572466,0.71389369 0 0 0 -0.674354,-0.713901 c -0.0089,-1.7e-5 -0.01783,-1.7e-5 -0.02669,0 a 0.67572466,0.71389369 0 0 0 -0.0013,0 h -1.4e-4 c -0.08826,3.73e-4 -0.176221,0.0032 -0.263967,0.007 1.2946,-7.009579 7.412442,-12.1487143 14.621082,-12.1346726 7.188276,0.014004 13.272044,5.1474056 14.562928,12.1316626 -0.06444,-0.0022 -0.129072,-0.0037 -0.193771,-0.004 h -1.56e-4 a 0.65961554,0.71389375 0 0 0 -6.53e-4,0 c -0.0086,-1.9e-5 -0.01736,-1.9e-5 -0.02599,0 a 0.65961554,0.71389375 0 0 0 -0.658206,0.7139 v 5.034934 5.035075 a 0.65961554,0.71389375 0 0 0 0.659439,0.713763 c 0.20122,-4e-6 0.401173,-0.0099 0.599357,-0.02874 -0.161644,4.859855 -3.049011,9.03873 -7.101647,10.377494 h -2.492664 a 3.5936919,2.2449008 0 0 0 -3.457161,-1.632108 3.5936919,2.2449008 0 0 0 -3.593722,2.244883 3.5936919,2.2449008 0 0 0 3.593722,2.244881 3.5936919,2.2449008 0 0 0 3.408583,-1.533719 h 2.635972 a 0.66201005,0.66201005 0 0 0 0.02723,0 h 0.01244 v -5.88e-4 a 0.66201005,0.66201005 0 0 0 0.173239,-0.03052 c 4.798473,-1.526373 8.063053,-6.410319 8.123992,-11.943368 1.198085,-0.385509 2.259187,-1.128978 3.011882,-2.162913 a 0.65961554,0.71389375 0 0 0 0.141492,-0.441685 V 22.819172 A 0.65961554,0.71389375 0 0 0 53.169976,22.377447 C 52.526356,21.493538 51.657124,20.821974 50.669535,20.404721 49.55926,11.998681 42.38337,5.6834625 33.889783,5.6669169 Z M 21.559493,21.268208 a 0.52960805,0.52960805 0 0 0 -0.529712,0.529576 v 7.944179 a 0.52960805,0.52960805 0 0 0 0.529712,0.529577 0.52960805,0.52960805 0 0 0 0.529576,-0.529577 v -7.944179 a 0.52960805,0.52960805 0 0 0 -0.529576,-0.529576 z m 24.701212,0 a 0.52960805,0.52960805 0 0 0 -0.529571,0.529576 v 7.944179 a 0.52960805,0.52960805 0 0 0 0.529571,0.529577 0.52960805,0.52960805 0 0 0 0.529578,-0.529577 v -7.944179 a 0.52960805,0.52960805 0 0 0 -0.529578,-0.529576 z" />
  </g>
</svg>
