<?xml version="1.0" encoding="UTF-8" standalone="no"?>
<svg
   xmlns:dc="http://purl.org/dc/elements/1.1/"
   xmlns:cc="http://creativecommons.org/ns#"
   xmlns:rdf="http://www.w3.org/1999/02/22-rdf-syntax-ns#"
   xmlns:svg="http://www.w3.org/2000/svg"
   xmlns="http://www.w3.org/2000/svg"
   xmlns:sodipodi="http://sodipodi.sourceforge.net/DTD/sodipodi-0.dtd"
   xmlns:inkscape="http://www.inkscape.org/namespaces/inkscape"
   width="256"
   height="256"
   viewBox="0 0 67.733332 67.733335"
   version="1.1"
   id="svg8"
   inkscape:version="1.0.1 (3bc2e813f5, 2020-09-07)"
   sodipodi:docname="java.svg"
   inkscape:export-filename="C:\Users\keath\Workspace\KMX\elite-streamdeck-icons\ship-lights.png"
   inkscape:export-xdpi="96"
   inkscape:export-ydpi="96">
  <defs
     id="defs2" />
  <sodipodi:namedview
     id="base"
     pagecolor="#000000"
     bordercolor="#666666"
     borderopacity="1.0"
     inkscape:pageopacity="0"
     inkscape:pageshadow="2"
     inkscape:zoom="3.959798"
     inkscape:cx="117.09201"
     inkscape:cy="127.12833"
     inkscape:document-units="px"
     inkscape:current-layer="layer2"
     showgrid="true"
     units="px"
     inkscape:snap-grids="true"
     objecttolerance="10000"
     guidetolerance="10000"
     inkscape:window-width="3840"
     inkscape:window-height="2066"
     inkscape:window-x="3829"
     inkscape:window-y="-11"
     inkscape:window-maximized="1"
     inkscape:document-rotation="0"
     showguides="true"
     inkscape:guide-bbox="true">
    <inkscape:grid
       type="xygrid"
       id="grid4623" />
    <sodipodi:guide
       position="-3.96875,62.441667"
       orientation="0,256"
       id="guide3351" />
    <sodipodi:guide
       position="62.441667,42.597917"
       orientation="-1,0"
       id="guide3353"
       inkscape:label=""
       inkscape:locked="false"
       inkscape:color="rgb(0,0,255)" />
    <sodipodi:guide
       position="-2.6458333,22.754167"
       orientation="0,-256"
       id="guide3355" />
    <sodipodi:guide
       position="5.2916667,70.379167"
       orientation="-256,0"
       id="guide3357" />
    <sodipodi:guide
       position="0,67.733334"
       orientation="0,256"
       id="guide3359" />
    <sodipodi:guide
       position="67.733334,67.733334"
       orientation="256,0"
       id="guide3361" />
    <sodipodi:guide
       position="67.733334,0"
       orientation="0,-256"
       id="guide3363" />
    <sodipodi:guide
       position="0,0"
       orientation="-256,0"
       id="guide3365" />
    <sodipodi:guide
       position="0,67.733334"
       orientation="0,256"
       id="guide3367" />
    <sodipodi:guide
       position="67.733334,67.733334"
       orientation="256,0"
       id="guide3369" />
    <sodipodi:guide
       position="67.733334,0"
       orientation="0,-256"
       id="guide3371" />
    <sodipodi:guide
       position="0,0"
       orientation="-256,0"
       id="guide3373" />
    <sodipodi:guide
       position="0,67.733334"
       orientation="0,256"
       id="guide3375" />
    <sodipodi:guide
       position="67.733334,67.733334"
       orientation="256,0"
       id="guide3377" />
    <sodipodi:guide
       position="67.733334,0"
       orientation="0,-256"
       id="guide3379" />
    <sodipodi:guide
       position="0,0"
       orientation="-256,0"
       id="guide3381" />
    <sodipodi:guide
       position="33.866667,46.83125"
       orientation="1,0"
       id="guide895" />
    <sodipodi:guide
       position="41.010417,42.597917"
       orientation="0,-1"
       id="guide897" />
  </sodipodi:namedview>
  <metadata
     id="metadata5">
    <rdf:RDF>
      <cc:Work
         rdf:about="">
        <dc:format>image/svg+xml</dc:format>
        <dc:type
           rdf:resource="http://purl.org/dc/dcmitype/StillImage" />
        <dc:title />
      </cc:Work>
    </rdf:RDF>
  </metadata>
  <g
     inkscape:groupmode="layer"
     id="layer2"
     inkscape:label="Icon">
    <path
       id="path22"
       style="fill:#808080;fill-opacity:1;fill-rule:evenodd;stroke:none;stroke-width:0.507241"
       d="m 37.439453,5.2363281 c 0.419267,1.9574859 -0.141933,4.0596143 -1.491552,5.5403689 -1.47036,1.535433 -3.278302,2.696582 -4.810362,4.171359 -1.345953,1.248539 -2.996602,2.69032 -2.987148,4.684756 0.129469,1.619232 1.331967,2.872935 2.251953,4.119141 0.990154,1.137562 1.946139,2.340087 3.104636,3.30534 0.400668,0.113275 1.548577,1.061967 1.034745,0.152828 -0.405063,-1.35006 -1.516153,-2.401022 -2.096311,-3.618468 -0.717292,-1.333124 -1.688364,-2.994053 -0.841898,-4.492044 1.629668,-2.611645 4.224205,-4.407501 6.228704,-6.699551 1.575145,-1.917583 1.86646,-4.7217253 0.985153,-7.0015984 -0.287581,-0.6645929 -1.01725,-0.9389869 -1.538076,-1.3867408 0.05338,0.4082031 0.106771,0.8164062 0.160156,1.2246093 z m 5.138672,7.4101559 c -2.631432,0.73667 -5.270425,1.824155 -7.299243,3.706239 -1.460349,1.288126 -2.2686,3.42957 -1.527371,5.305511 0.432578,1.450505 1.726251,2.436606 2.21138,3.849578 0.155148,0.902163 -0.607807,1.588199 -1.033203,2.277344 0.84367,0.260074 -0.134292,0.732909 -0.162159,0.249705 -0.20879,0.640905 -0.739133,0.731515 -1.309608,0.692145 -2.44957,0.06281 -4.94348,0.219788 -7.360265,-0.264115 1.392557,-0.79076 3.071573,-0.835305 4.429495,-1.708958 0.115864,-0.207324 -1.072184,-0.306659 -1.480583,-0.422074 -2.057907,0.03676 -4.075564,0.680972 -5.948631,1.499731 -0.647132,0.261398 -1.527489,0.927136 -1.023718,1.697707 0.953783,0.880779 2.388007,0.787673 3.59167,1.006249 0.959008,0.103719 1.920996,0.17926 2.884892,0.214454 -1.257319,0.168129 -2.880882,0.410807 -3.40625,1.757812 -0.35697,1.127012 0.898387,1.796381 1.81836,1.976563 0.881299,0.22424 1.78513,0.347759 2.689453,0.429687 -1.187543,0.316325 -2.806903,0.432074 -3.34375,1.744141 -0.280479,0.777089 0.47365,1.644597 1.177656,1.749218 0.169451,0.09837 0.652713,0.439019 1.099333,0.4829 2.596946,0.644168 5.34333,0.638872 7.973525,0.207708 1.614232,-0.388299 3.34281,-0.590459 4.731908,-1.576545 -1.141016,-0.402534 -2.198039,-0.98948 -3.252803,-1.563028 -1.261277,0.222697 -2.553037,0.459904 -3.850632,0.480833 -1.703,0.01566 -3.440968,0.162083 -5.120971,-0.164264 -0.580113,-0.139651 0.412641,-0.809381 0.468326,-1.161003 0.31658,-0.403792 1.03032,-0.01905 1.514306,-0.10738 3.268682,0.168967 6.601356,-0.06873 9.715225,-1.127076 0.340087,-0.224548 1.59075,-0.497318 1.311575,-0.689086 -0.947667,-0.254763 -1.922626,-0.518698 -2.644401,-1.223683 -0.670229,-0.242535 -1.403463,0.155613 -2.103236,0.154142 -2.904688,0.307975 -5.781453,0.644355 -8.696119,0.289772 -0.212303,-0.08407 -1.191786,-0.112945 -0.765098,-0.481023 0.434988,-0.343556 0.630602,-1.208474 1.245172,-1.160766 3.868727,0.0904 7.737137,-0.320151 11.549749,-0.932984 1.274954,-0.556155 2.355744,-1.461701 3.498047,-2.240235 -0.516304,0.042 -1.649015,0.187442 -0.571425,-0.03805 1.068808,-0.304302 2.773355,0.06555 2.807753,1.416958 -0.0092,1.687579 -1.504252,2.826754 -2.714843,3.775391 -0.988538,0.657803 -1.993526,1.2838 -2.865235,2.099609 1.263733,-0.01938 2.527003,-0.187153 3.669536,-0.759297 1.929286,-0.821623 4.06001,-2.116405 4.525777,-4.322734 0.378481,-1.995734 -1.509236,-3.732863 -3.406039,-3.820682 -1.187291,-0.08901 -2.477736,0.262122 -3.207639,1.265313 -0.343046,0.431709 -0.746356,0.752999 -1.323227,0.735389 -1.805115,0.260524 -3.616273,0.481664 -5.434189,0.630527 1.436915,-0.894429 3.015269,-2.110358 3.287932,-3.896101 0.119458,-1.799801 -1.284837,-3.12735 -2.010121,-4.616073 -0.557434,-1.25331 0.619994,-2.352042 1.437039,-3.145295 1.507664,-1.414073 3.277389,-2.36489 4.92083,-3.567412 0.349501,-0.351524 1.495253,-1.026262 0.377113,-0.782043 -0.358431,0.0251 -0.716862,0.05019 -1.075293,0.07528 z m 3.125,26.59961 c 0.285376,0.467529 -0.593608,0.544609 -0.889085,0.701426 -3.22397,0.849904 -6.597457,0.907999 -9.882399,1.08373 -4.097677,0.123871 -8.282158,0.236638 -12.282377,-0.792804 -0.612696,-0.184944 0.501792,-0.448197 0.752748,-0.553387 1.091765,-0.345015 2.278158,-0.320037 3.283284,-0.927223 1.0601,-0.290031 -0.376757,-0.357543 -0.773745,-0.517723 -1.56948,-0.297471 -3.188574,0.125091 -4.699585,0.547945 -1.007822,0.357647 -2.405638,0.880798 -2.466101,2.130287 0.151063,1.116158 1.503943,1.329369 2.399085,1.574829 3.977925,0.759378 8.056083,0.733772 12.091659,0.716629 3.797515,-0.10843 7.675966,-0.251495 11.314679,-1.444034 0.972552,-0.397055 2.142075,-0.787678 2.655743,-1.773581 0.303196,-1.000187 -0.847171,-1.501643 -1.543421,-1.89226 -0.831656,-0.62493 -0.759596,-0.287753 -0.307313,0.454215 0.11561,0.23065 0.231219,0.4613 0.346828,0.691951 z M 48.25,40.550781 c -1.748638,1.357925 -3.976817,1.958872 -6.045815,2.337284 -5.769021,0.959722 -11.596858,0.642803 -17.403404,0.12756 -0.305086,0.145975 -1.819977,0.01871 -1.237114,0.365231 1.313757,1.084789 3.071874,1.208886 4.684354,1.486951 4.748634,0.679039 9.597725,0.459817 14.326859,-0.266935 2.105716,-0.424979 4.398674,-0.939881 5.948751,-2.536541 0.570585,-0.556038 0.572182,-1.398018 0.779103,-2.117065 -0.350911,0.201171 -0.701823,0.402343 -1.052734,0.603515 z" />
  </g>
</svg>
