<?xml version="1.0" encoding="UTF-8" standalone="no"?>
<svg
   xmlns:dc="http://purl.org/dc/elements/1.1/"
   xmlns:cc="http://creativecommons.org/ns#"
   xmlns:rdf="http://www.w3.org/1999/02/22-rdf-syntax-ns#"
   xmlns:svg="http://www.w3.org/2000/svg"
   xmlns="http://www.w3.org/2000/svg"
   xmlns:sodipodi="http://sodipodi.sourceforge.net/DTD/sodipodi-0.dtd"
   xmlns:inkscape="http://www.inkscape.org/namespaces/inkscape"
   width="256"
   height="256"
   viewBox="0 0 67.733332 67.733335"
   version="1.1"
   id="svg8"
   inkscape:version="1.0.1 (3bc2e813f5, 2020-09-07)"
   sodipodi:docname="java-profile.svg"
   inkscape:export-filename="C:\Users\keath\Workspace\KMX\elite-streamdeck-icons\ship-lights.png"
   inkscape:export-xdpi="96"
   inkscape:export-ydpi="96">
  <defs
     id="defs2" />
  <sodipodi:namedview
     id="base"
     pagecolor="#000000"
     bordercolor="#666666"
     borderopacity="1.0"
     inkscape:pageopacity="0"
     inkscape:pageshadow="2"
     inkscape:zoom="3.959798"
     inkscape:cx="117.09201"
     inkscape:cy="123.34026"
     inkscape:document-units="px"
     inkscape:current-layer="layer2"
     showgrid="true"
     units="px"
     inkscape:snap-grids="true"
     objecttolerance="10000"
     guidetolerance="10000"
     inkscape:window-width="3840"
     inkscape:window-height="2066"
     inkscape:window-x="3829"
     inkscape:window-y="-11"
     inkscape:window-maximized="1"
     inkscape:document-rotation="0"
     showguides="true"
     inkscape:guide-bbox="true">
    <inkscape:grid
       type="xygrid"
       id="grid4623" />
    <sodipodi:guide
       position="-3.96875,62.441667"
       orientation="0,256"
       id="guide3351" />
    <sodipodi:guide
       position="62.441667,42.597917"
       orientation="-1,0"
       id="guide3353"
       inkscape:label=""
       inkscape:locked="false"
       inkscape:color="rgb(0,0,255)" />
    <sodipodi:guide
       position="-2.6458333,22.754167"
       orientation="0,-256"
       id="guide3355" />
    <sodipodi:guide
       position="5.2916667,70.379167"
       orientation="-256,0"
       id="guide3357" />
    <sodipodi:guide
       position="0,67.733334"
       orientation="0,256"
       id="guide3359" />
    <sodipodi:guide
       position="67.733334,67.733334"
       orientation="256,0"
       id="guide3361" />
    <sodipodi:guide
       position="67.733334,0"
       orientation="0,-256"
       id="guide3363" />
    <sodipodi:guide
       position="0,0"
       orientation="-256,0"
       id="guide3365" />
    <sodipodi:guide
       position="0,67.733334"
       orientation="0,256"
       id="guide3367" />
    <sodipodi:guide
       position="67.733334,67.733334"
       orientation="256,0"
       id="guide3369" />
    <sodipodi:guide
       position="67.733334,0"
       orientation="0,-256"
       id="guide3371" />
    <sodipodi:guide
       position="0,0"
       orientation="-256,0"
       id="guide3373" />
    <sodipodi:guide
       position="0,67.733334"
       orientation="0,256"
       id="guide3375" />
    <sodipodi:guide
       position="67.733334,67.733334"
       orientation="256,0"
       id="guide3377" />
    <sodipodi:guide
       position="67.733334,0"
       orientation="0,-256"
       id="guide3379" />
    <sodipodi:guide
       position="0,0"
       orientation="-256,0"
       id="guide3381" />
    <sodipodi:guide
       position="33.866667,46.83125"
       orientation="1,0"
       id="guide895" />
    <sodipodi:guide
       position="41.010417,42.597917"
       orientation="0,-1"
       id="guide897" />
  </sodipodi:namedview>
  <metadata
     id="metadata5">
    <rdf:RDF>
      <cc:Work
         rdf:about="">
        <dc:format>image/svg+xml</dc:format>
        <dc:type
           rdf:resource="http://purl.org/dc/dcmitype/StillImage" />
        <dc:title></dc:title>
      </cc:Work>
    </rdf:RDF>
  </metadata>
  <g
     inkscape:groupmode="layer"
     id="layer2"
     inkscape:label="Icon">
    <path
       id="path22"
       style="fill:#808080;fill-opacity:1;fill-rule:evenodd;stroke:none;stroke-width:1.91713"
       d="m 116.81445,17.759766 c 0.20175,1.542814 0.4037,3.086091 0.60547,4.628906 1.58463,7.398372 -0.53579,15.342897 -5.63672,20.939453 -5.55726,5.803211 -12.391175,10.191665 -18.181638,15.765625 -5.087066,4.718888 -11.326747,10.169005 -11.291015,17.707031 0.489332,6.119932 5.034606,10.85829 8.511719,15.56836 3.742314,4.299447 7.355803,8.843989 11.734374,12.492189 1.51434,0.42812 5.8522,4.01424 3.91016,0.57812 -1.53095,-5.10259 -5.72915,-9.074407 -7.921878,-13.675778 C 95.833897,86.725093 92.16404,80.446855 95.363281,74.785156 101.52266,64.914372 111.32824,58.12771 118.9043,49.464844 c 5.9533,-7.247558 7.05358,-17.846048 3.72265,-26.462891 -1.08692,-2.511847 -3.84402,-3.549889 -5.8125,-5.242187 z m 25.29688,32.158203 c -0.28346,0.01601 -0.67682,0.07798 -1.20508,0.193359 -1.3547,0.09487 -2.70975,0.190328 -4.06445,0.285156 -9.94557,2.784265 -19.91992,6.894425 -27.58789,14.007813 -5.51943,4.868508 -8.57494,12.96061 -5.77344,20.050781 1.63494,5.482224 6.52582,9.210415 8.35937,14.550781 0.58639,3.409751 -2.29845,6.002781 -3.90625,8.607421 3.18868,0.98296 -0.50795,2.76964 -0.61328,0.94336 -0.78913,2.42232 -2.79309,2.76403 -4.94922,2.61524 -9.258214,0.23739 -18.68405,0.83087 -27.818356,-0.99805 5.263208,-2.9887 11.609884,-3.15699 16.742188,-6.45899 0.437911,-0.78358 -4.052148,-1.15949 -5.595703,-1.5957 -7.777916,0.13894 -15.405067,2.5754 -22.484375,5.66992 -2.445853,0.98796 -5.773157,3.50362 -3.869141,6.41602 3.604849,3.32893 9.026895,2.97662 13.576172,3.80273 3.624597,0.39201 7.259272,0.67753 10.902344,0.81055 -4.752072,0.63545 -10.887404,1.55349 -12.873047,6.64453 -1.349178,4.25957 3.395983,6.7897 6.873047,7.4707 3.330894,0.84753 6.746149,1.3134 10.164062,1.62305 -4.488351,1.19556 -10.609644,1.6328 -12.638672,6.5918 -1.060078,2.93703 1.790362,6.21591 4.451172,6.61133 0.640445,0.37179 2.468238,1.66032 4.15625,1.82617 9.815229,2.43465 20.193869,2.4128 30.134769,0.7832 6.10103,-1.46759 12.63463,-2.23009 17.88476,-5.95703 -4.3125,-1.52139 -8.30646,-3.74046 -12.29297,-5.9082 -4.76703,0.84169 -9.65039,1.73925 -14.55468,1.81836 -6.436539,0.0592 -13.005855,0.61234 -19.355472,-0.6211 -2.192554,-0.52781 1.561021,-3.0597 1.771484,-4.38867 1.196523,-1.52614 3.893418,-0.0724 5.722656,-0.40625 12.354072,0.63862 24.949792,-0.25972 36.718752,-4.25977 1.28537,-0.84868 6.01218,-1.87872 4.95703,-2.60351 -3.58173,-0.96289 -7.26617,-1.96049 -9.99414,-4.625 C 122.41607,122.5013 119.64481,124.00556 117,124 c -10.97835,1.164 -21.851127,2.43586 -32.867188,1.0957 -0.802405,-0.31774 -4.505257,-0.4272 -2.892578,-1.81836 1.64405,-1.29848 2.384247,-4.56703 4.707032,-4.38672 14.621964,0.34167 29.242474,-1.21112 43.652344,-3.52734 4.81872,-2.102 8.90334,-5.5243 13.2207,-8.4668 -1.95138,0.15874 -6.23293,0.70968 -2.16015,-0.14257 1.11403,-0.31718 2.41226,-0.43265 3.70898,-0.33789 0.89837,-1.99213 1.93993,-3.92075 3.11133,-5.77149 -4.25665,-0.12835 -8.72511,1.23584 -11.32031,4.80274 -1.29656,1.63165 -2.8197,2.84585 -5,2.77929 -6.82249,0.98466 -13.6682,1.82018 -20.53907,2.38282 5.43086,-3.38052 11.39525,-7.97535 12.42579,-14.724614 0.45149,-6.802398 -4.85448,-11.820596 -7.59571,-17.447266 -2.10684,-4.73692 2.3436,-8.888597 5.43164,-11.886719 5.69826,-5.344528 12.38623,-8.93941 18.59766,-13.484375 1.15583,-1.16252 4.61505,-3.26051 2.63086,-3.148437 z m -1.58008,76.777341 c -3.58022,2.37127 -7.19418,4.66593 -10.34766,7.61719 3.73372,-0.0573 7.46214,-0.46897 10.97657,-1.67383 -0.3432,-1.96274 -0.55376,-3.94873 -0.62891,-5.94336 z M 69.375,146.75195 c -4.4913,0.0498 -9.003929,1.24863 -13.287109,2.44727 -3.809091,1.35174 -9.091791,3.3283 -9.320313,8.05078 0.570947,4.21855 5.683193,5.0254 9.066406,5.95312 15.034678,2.8701 30.448602,2.77183 45.701176,2.70704 14.35281,-0.40982 29.01105,-0.9498 42.76367,-5.45704 2.78362,-1.13644 5.99282,-2.2612 8.23047,-4.35742 -1.33187,-1.51121 -2.57077,-3.10477 -3.70703,-4.77148 0.38177,1.41805 -2.50212,1.71071 -3.5293,2.25586 -12.18508,3.21223 -24.93603,3.43347 -37.35156,4.09765 -15.487287,0.46818 -31.302941,0.89276 -46.421879,-2.99804 -2.315701,-0.699 1.897208,-1.69423 2.845703,-2.0918 4.126356,-1.30399 8.609302,-1.20903 12.408204,-3.50391 4.006677,-1.09618 -1.423402,-1.35162 -2.923829,-1.95703 -1.482973,-0.28107 -2.977509,-0.39159 -4.474609,-0.375 z m 85.23438,11.57227 c -5.90505,3.44247 -12.74589,5.19402 -19.18165,6.37109 -21.80417,3.6273 -43.829386,2.4298 -65.775386,0.48242 -1.153081,0.55172 -6.878728,0.0692 -4.675782,1.37891 4.965381,4.09999 11.608713,4.57014 17.703126,5.62109 17.947592,2.56645 36.276502,1.73702 54.150392,-1.00976 7.74411,-1.56293 16.1487,-3.45896 21.99414,-9.11914 -1.47598,-1.15536 -2.88626,-2.39774 -4.21484,-3.72461 z"
       transform="scale(0.26458333)" />
    <path
       id="path849"
       style="fill:#808080;fill-opacity:1;stroke-width:1.5875;stroke-linecap:round;stroke-linejoin:round;paint-order:markers stroke fill"
       d="m 49.975826,21.152626 c -6.434376,0 -11.661044,5.226358 -11.661044,11.660734 0,6.434377 5.226667,11.660735 11.661044,11.660735 6.434376,-2e-6 11.660734,-5.226358 11.660734,-11.660735 0,-6.434375 -5.226358,-11.660733 -11.660734,-11.660734 z m 0,0.949123 c 5.921432,0 10.711303,4.790179 10.711303,10.711611 0,5.921432 -4.789871,10.711612 -10.711303,10.711612 -5.921432,0 -10.711612,-4.790179 -10.711612,-10.711612 0,-5.921432 4.79018,-10.711611 10.711612,-10.711611 z m -7.914914,6.493084 a 1.0545804,1.0545804 0 0 0 -1.049535,1.054477 1.0545804,1.0545804 0 0 0 1.054787,1.054478 1.0545804,1.0545804 0 0 0 1.054477,-1.054478 1.0545804,1.0545804 0 0 0 -1.054477,-1.054477 1.0545804,1.0545804 0 0 0 -0.0052,0 z m 3.16374,0 a 1.0545804,1.0545804 0 0 0 -1.049533,1.054477 1.0545804,1.0545804 0 0 0 1.054786,1.054478 1.0545804,1.0545804 0 0 0 1.054477,-1.054478 1.0545804,1.0545804 0 0 0 -1.054477,-1.054477 1.0545804,1.0545804 0 0 0 -0.0052,0 z m 3.163742,0 a 1.0545804,1.0545804 0 0 0 -1.049533,1.054477 1.0545804,1.0545804 0 0 0 1.054784,1.054478 1.0545804,1.0545804 0 0 0 1.054479,-1.054478 1.0545804,1.0545804 0 0 0 -1.054479,-1.054477 1.0545804,1.0545804 0 0 0 -0.0052,0 z m 3.163741,0 a 1.0545804,1.0545804 0 0 0 -1.049533,1.054477 1.0545804,1.0545804 0 0 0 1.054785,1.054478 1.0545804,1.0545804 0 0 0 1.054478,-1.054478 1.0545804,1.0545804 0 0 0 -1.054478,-1.054477 1.0545804,1.0545804 0 0 0 -0.0052,0 z m 3.163741,0 a 1.0545804,1.0545804 0 0 0 -1.049533,1.054477 1.0545804,1.0545804 0 0 0 1.054785,1.054478 1.0545804,1.0545804 0 0 0 1.054478,-1.054478 1.0545804,1.0545804 0 0 0 -1.054478,-1.054477 1.0545804,1.0545804 0 0 0 -0.0052,0 z m 3.163741,0 a 1.0545804,1.0545804 0 0 0 -1.049533,1.054477 1.0545804,1.0545804 0 0 0 1.054785,1.054478 1.0545804,1.0545804 0 0 0 1.054478,-1.054478 1.0545804,1.0545804 0 0 0 -1.054478,-1.054477 1.0545804,1.0545804 0 0 0 -0.0052,0 z m -15.818705,3.163741 a 1.0545804,1.0545804 0 0 0 -1.049535,1.054477 1.0545804,1.0545804 0 0 0 1.054787,1.054479 1.0545804,1.0545804 0 0 0 1.054477,-1.054479 1.0545804,1.0545804 0 0 0 -1.054477,-1.054477 1.0545804,1.0545804 0 0 0 -0.0052,0 z m 3.16374,0 a 1.0545804,1.0545804 0 0 0 -1.049533,1.054477 1.0545804,1.0545804 0 0 0 1.054786,1.054479 1.0545804,1.0545804 0 0 0 1.054477,-1.054479 1.0545804,1.0545804 0 0 0 -1.054477,-1.054477 1.0545804,1.0545804 0 0 0 -0.0052,0 z m 3.163742,0 a 1.0545804,1.0545804 0 0 0 -1.049533,1.054477 1.0545804,1.0545804 0 0 0 1.054784,1.054479 1.0545804,1.0545804 0 0 0 1.054479,-1.054479 1.0545804,1.0545804 0 0 0 -1.054479,-1.054477 1.0545804,1.0545804 0 0 0 -0.0052,0 z m 3.163741,0 a 1.0545804,1.0545804 0 0 0 -1.049533,1.054477 1.0545804,1.0545804 0 0 0 1.054785,1.054479 1.0545804,1.0545804 0 0 0 1.054478,-1.054479 1.0545804,1.0545804 0 0 0 -1.054478,-1.054477 1.0545804,1.0545804 0 0 0 -0.0052,0 z m 3.163741,0 a 1.0545804,1.0545804 0 0 0 -1.049533,1.054477 1.0545804,1.0545804 0 0 0 1.054785,1.054479 1.0545804,1.0545804 0 0 0 1.054478,-1.054479 1.0545804,1.0545804 0 0 0 -1.054478,-1.054477 1.0545804,1.0545804 0 0 0 -0.0052,0 z m 3.163741,0 a 1.0545804,1.0545804 0 0 0 -1.049533,1.054477 1.0545804,1.0545804 0 0 0 1.054785,1.054479 1.0545804,1.0545804 0 0 0 1.054478,-1.054479 1.0545804,1.0545804 0 0 0 -1.054478,-1.054477 1.0545804,1.0545804 0 0 0 -0.0052,0 z m -15.818705,3.163741 a 1.0545804,1.0545804 0 0 0 -1.049535,1.054478 1.0545804,1.0545804 0 0 0 1.054787,1.054478 1.0545804,1.0545804 0 0 0 1.054477,-1.054478 1.0545804,1.0545804 0 0 0 -1.054477,-1.054478 1.0545804,1.0545804 0 0 0 -0.0052,0 z m 3.16374,0 a 1.0545804,1.0545804 0 0 0 -1.049533,1.054478 1.0545804,1.0545804 0 0 0 1.054786,1.054478 1.0545804,1.0545804 0 0 0 1.054477,-1.054478 1.0545804,1.0545804 0 0 0 -1.054477,-1.054478 1.0545804,1.0545804 0 0 0 -0.0052,0 z m 3.163742,0 a 1.0545804,1.0545804 0 0 0 -1.049533,1.054478 1.0545804,1.0545804 0 0 0 1.054784,1.054478 1.0545804,1.0545804 0 0 0 1.054479,-1.054478 1.0545804,1.0545804 0 0 0 -1.054479,-1.054478 1.0545804,1.0545804 0 0 0 -0.0052,0 z m 3.163741,0 a 1.0545804,1.0545804 0 0 0 -1.049533,1.054478 1.0545804,1.0545804 0 0 0 1.054785,1.054478 1.0545804,1.0545804 0 0 0 1.054478,-1.054478 1.0545804,1.0545804 0 0 0 -1.054478,-1.054478 1.0545804,1.0545804 0 0 0 -0.0052,0 z m 3.163741,0 a 1.0545804,1.0545804 0 0 0 -1.049533,1.054478 1.0545804,1.0545804 0 0 0 1.054785,1.054478 1.0545804,1.0545804 0 0 0 1.054478,-1.054478 1.0545804,1.0545804 0 0 0 -1.054478,-1.054478 1.0545804,1.0545804 0 0 0 -0.0052,0 z m 3.163741,0 a 1.0545804,1.0545804 0 0 0 -1.049533,1.054478 1.0545804,1.0545804 0 0 0 1.054785,1.054478 1.0545804,1.0545804 0 0 0 1.054478,-1.054478 1.0545804,1.0545804 0 0 0 -1.054478,-1.054478 1.0545804,1.0545804 0 0 0 -0.0052,0 z" />
  </g>
</svg>
