<?xml version="1.0" encoding="UTF-8" standalone="no"?>
<svg
   xmlns:dc="http://purl.org/dc/elements/1.1/"
   xmlns:cc="http://creativecommons.org/ns#"
   xmlns:rdf="http://www.w3.org/1999/02/22-rdf-syntax-ns#"
   xmlns:svg="http://www.w3.org/2000/svg"
   xmlns="http://www.w3.org/2000/svg"
   xmlns:sodipodi="http://sodipodi.sourceforge.net/DTD/sodipodi-0.dtd"
   xmlns:inkscape="http://www.inkscape.org/namespaces/inkscape"
   width="256"
   height="256"
   viewBox="0 0 67.733332 67.733335"
   version="1.1"
   id="svg8"
   inkscape:version="1.0.1 (3bc2e813f5, 2020-09-07)"
   sodipodi:docname="linux-app.svg"
   inkscape:export-filename="C:\Users\keath\Workspace\KMX\elite-streamdeck-icons\ship-lights.png"
   inkscape:export-xdpi="96"
   inkscape:export-ydpi="96">
  <defs
     id="defs2" />
  <sodipodi:namedview
     id="base"
     pagecolor="#000000"
     bordercolor="#666666"
     borderopacity="1.0"
     inkscape:pageopacity="0"
     inkscape:pageshadow="2"
     inkscape:zoom="5.6"
     inkscape:cx="111.90634"
     inkscape:cy="121.54987"
     inkscape:document-units="px"
     inkscape:current-layer="layer2"
     showgrid="true"
     units="px"
     inkscape:snap-grids="true"
     objecttolerance="10000"
     guidetolerance="10000"
     inkscape:window-width="3840"
     inkscape:window-height="2066"
     inkscape:window-x="3829"
     inkscape:window-y="-11"
     inkscape:window-maximized="1"
     inkscape:document-rotation="0"
     showguides="true"
     inkscape:guide-bbox="true">
    <inkscape:grid
       type="xygrid"
       id="grid4623" />
    <sodipodi:guide
       position="-3.96875,62.441667"
       orientation="0,256"
       id="guide3351" />
    <sodipodi:guide
       position="62.441667,42.597917"
       orientation="-1,0"
       id="guide3353"
       inkscape:label=""
       inkscape:locked="false"
       inkscape:color="rgb(0,0,255)" />
    <sodipodi:guide
       position="-2.6458333,22.754167"
       orientation="0,-256"
       id="guide3355" />
    <sodipodi:guide
       position="5.2916667,70.379167"
       orientation="-256,0"
       id="guide3357" />
    <sodipodi:guide
       position="0,67.733334"
       orientation="0,256"
       id="guide3359" />
    <sodipodi:guide
       position="67.733334,67.733334"
       orientation="256,0"
       id="guide3361" />
    <sodipodi:guide
       position="67.733334,0"
       orientation="0,-256"
       id="guide3363" />
    <sodipodi:guide
       position="0,0"
       orientation="-256,0"
       id="guide3365" />
    <sodipodi:guide
       position="0,67.733334"
       orientation="0,256"
       id="guide3367" />
    <sodipodi:guide
       position="67.733334,67.733334"
       orientation="256,0"
       id="guide3369" />
    <sodipodi:guide
       position="67.733334,0"
       orientation="0,-256"
       id="guide3371" />
    <sodipodi:guide
       position="0,0"
       orientation="-256,0"
       id="guide3373" />
    <sodipodi:guide
       position="0,67.733334"
       orientation="0,256"
       id="guide3375" />
    <sodipodi:guide
       position="67.733334,67.733334"
       orientation="256,0"
       id="guide3377" />
    <sodipodi:guide
       position="67.733334,0"
       orientation="0,-256"
       id="guide3379" />
    <sodipodi:guide
       position="0,0"
       orientation="-256,0"
       id="guide3381" />
    <sodipodi:guide
       position="33.866667,46.83125"
       orientation="1,0"
       id="guide895" />
    <sodipodi:guide
       position="41.010417,42.597917"
       orientation="0,-1"
       id="guide897" />
  </sodipodi:namedview>
  <metadata
     id="metadata5">
    <rdf:RDF>
      <cc:Work
         rdf:about="">
        <dc:format>image/svg+xml</dc:format>
        <dc:type
           rdf:resource="http://purl.org/dc/dcmitype/StillImage" />
        <dc:title />
      </cc:Work>
    </rdf:RDF>
  </metadata>
  <g
     inkscape:groupmode="layer"
     id="layer2"
     inkscape:label="Icon">
    <path
       id="path863"
       style="color:#000000;font-style:normal;font-variant:normal;font-weight:normal;font-stretch:normal;font-size:medium;line-height:normal;font-family:sans-serif;font-variant-ligatures:normal;font-variant-position:normal;font-variant-caps:normal;font-variant-numeric:normal;font-variant-alternates:normal;font-variant-east-asian:normal;font-feature-settings:normal;font-variation-settings:normal;text-indent:0;text-align:start;text-decoration:none;text-decoration-line:none;text-decoration-style:solid;text-decoration-color:#000000;letter-spacing:normal;word-spacing:normal;text-transform:none;writing-mode:lr-tb;direction:ltr;text-orientation:mixed;dominant-baseline:auto;baseline-shift:baseline;text-anchor:start;white-space:normal;shape-padding:0;shape-margin:0;inline-size:0;clip-rule:nonzero;display:inline;overflow:visible;visibility:visible;opacity:1;isolation:auto;mix-blend-mode:normal;color-interpolation:sRGB;color-interpolation-filters:linearRGB;solid-color:#000000;solid-opacity:1;vector-effect:none;fill:#808080;fill-opacity:1;fill-rule:nonzero;stroke:none;stroke-width:6;stroke-linecap:square;stroke-linejoin:miter;stroke-miterlimit:4;stroke-dasharray:none;stroke-dashoffset:0;stroke-opacity:1;paint-order:markers stroke fill;color-rendering:auto;image-rendering:auto;shape-rendering:auto;text-rendering:auto;enable-background:accumulate;stop-color:#000000;stop-opacity:1"
       d="M 21.998047,21.998047 V 25.001953 167.99609 H 233.00195 V 21.998047 Z M 28,28 H 227 V 47 H 28 Z m 0,25.001953 H 227 V 162.00391 H 28 Z"
       transform="scale(0.26458333)" />
    <path
       id="path914"
       style="color:#000000;font-style:normal;font-variant:normal;font-weight:normal;font-stretch:normal;font-size:medium;line-height:normal;font-family:sans-serif;font-variant-ligatures:normal;font-variant-position:normal;font-variant-caps:normal;font-variant-numeric:normal;font-variant-alternates:normal;font-variant-east-asian:normal;font-feature-settings:normal;font-variation-settings:normal;text-indent:0;text-align:start;text-decoration:none;text-decoration-line:none;text-decoration-style:solid;text-decoration-color:#000000;letter-spacing:normal;word-spacing:normal;text-transform:none;writing-mode:lr-tb;direction:ltr;text-orientation:mixed;dominant-baseline:auto;baseline-shift:baseline;text-anchor:start;white-space:normal;shape-padding:0;shape-margin:0;inline-size:0;clip-rule:nonzero;display:inline;overflow:visible;visibility:visible;isolation:auto;mix-blend-mode:normal;color-interpolation:sRGB;color-interpolation-filters:linearRGB;solid-color:#000000;solid-opacity:1;vector-effect:none;fill:#808080;fill-opacity:1;fill-rule:nonzero;stroke:none;stroke-width:2.11666;stroke-linecap:butt;stroke-linejoin:miter;stroke-miterlimit:4;stroke-dasharray:none;stroke-dashoffset:0;stroke-opacity:1;color-rendering:auto;image-rendering:auto;shape-rendering:auto;text-rendering:auto;enable-background:accumulate;stop-color:#000000"
       d="m 34.235191,15.681474 c -0.169959,-3.36e-4 -0.347101,0.0067 -0.531052,0.02139 -1.165339,0.0938 -1.979678,0.476342 -2.532414,1.028633 -0.552738,0.552289 -0.840243,1.267055 -0.981703,2.011024 -0.282848,1.487543 0.0057,3.121437 -0.02657,3.895758 -0.08297,1.170128 -0.313398,2.069116 -1.114898,3.208737 -0.961289,1.144016 -2.312408,2.987689 -2.957877,4.927149 -0.297729,0.894684 -0.440959,1.811263 -0.321598,2.689419 -0.02769,0.02654 -0.05606,0.05324 -0.08178,0.0804 l -3.53e-4,3.53e-4 h -3.54e-4 c -0.293037,0.313224 -0.50293,0.678103 -0.717385,0.905445 -0.186277,0.185396 -0.472977,0.266987 -0.816419,0.38992 -0.328919,0.118088 -0.709227,0.309018 -0.956513,0.726011 h -0.01139 l -0.02553,0.049 -0.0083,0.01622 -3.54e-4,7.35e-4 c -3e-4,5.3e-4 -4.24e-4,0.0011 -6.67e-4,0.0017 l -0.0017,0.0035 c -10e-7,0 6.53e-4,-7.34e-4 6.67e-4,-7.34e-4 -10e-4,0.0019 -10e-4,0.0041 -0.0021,0.0059 3.89e-4,-0.0014 0.0014,-0.0052 0.0014,-0.0052 l -0.0107,0.02001 v 0.01104 c -0.103653,0.209967 -0.141821,0.431843 -0.141821,0.649063 0,0.212215 0.03108,0.420944 0.06108,0.61697 0.06237,0.407478 0.11357,0.785922 0.04589,0.996542 -0.271224,0.743431 -0.317332,1.285372 -0.105934,1.697363 v 3.53e-4 c 0.213262,0.414943 0.646097,0.590534 1.099025,0.685295 0.903213,0.18835 2.074863,0.147389 2.971679,0.622838 l 0.0017,7.35e-4 0.105244,0.05555 0.0038,-0.0076 c 0.98705,0.492201 1.985229,0.675032 2.80467,0.487918 0.593731,-0.135297 1.084217,-0.491156 1.354716,-1.026561 0.646985,-0.0201 1.321241,-0.269132 2.382657,-0.327464 h 0.0017 0.0014 c 0.693983,-0.05599 1.620748,0.246622 2.696319,0.207037 0.02826,0.09379 0.05618,0.187813 0.102137,0.27605 l 0.0045,0.0086 7.35e-4,7.34e-4 c 0.442727,0.877493 1.27774,1.289846 2.1525,1.22083 0.844538,-0.06659 1.720964,-0.553857 2.442009,-1.371967 l 0.0086,0.0069 0.07522,-0.0911 0.0017,-0.0021 c 0.653281,-0.792241 1.76712,-1.13394 2.543802,-1.602126 0.390225,-0.235324 0.737212,-0.552344 0.764314,-1.02173 0.02551,-0.448205 -0.229201,-0.92152 -0.753616,-1.517242 l 0.0038,-0.0076 -0.05763,-0.05797 c -0.14674,-0.165706 -0.243526,-0.537329 -0.337471,-0.946162 v -3.53e-4 c -0.09342,-0.407335 -0.200038,-0.878161 -0.568664,-1.195298 l -3.53e-4,-3.53e-4 -0.0031,-0.0027 -7.35e-4,-0.0011 -0.0011,-7.35e-4 c -0.072,-0.06284 -0.146433,-0.115964 -0.221187,-0.160454 v -3.06e-4 c -0.04167,-0.02469 -0.08437,-0.04095 -0.126636,-0.06073 0.433965,-1.379745 0.248124,-2.750279 -0.217736,-3.981331 -0.584923,-1.547153 -1.600251,-2.88499 -2.373955,-3.799495 -0.862658,-1.088225 -1.67832,-2.088224 -1.662167,-3.567602 0.01279,-1.160164 0.0809,-2.831916 -0.380258,-4.232883 -0.230808,-0.700499 -0.596136,-1.336097 -1.172868,-1.796051 -0.576689,-0.459919 -1.361076,-0.738654 -2.405776,-0.74016 z m -7.35e-4,0.241544 h 3.53e-4 c 1.002366,0.0014 1.724832,0.264352 2.255675,0.68771 0.530842,0.423358 0.873393,1.012806 1.093848,1.682525 0.44091,1.33944 0.381043,2.988068 0.368183,4.154555 -0.01714,1.569647 0.853361,2.634009 1.714616,3.720465 l 0.0011,0.0014 0.0014,0.0017 c 0.766193,0.905365 1.765633,2.226744 2.334693,3.731852 0.463925,1.225951 0.641348,2.571204 0.18599,3.921637 l -0.03727,0.110765 0.10904,0.04106 c 0.0632,0.02381 0.126646,0.05424 0.189438,0.09144 0.06186,0.03683 0.123853,0.08096 0.184264,0.13354 l 7.34e-4,7.34e-4 0.0038,0.0031 c 0.298101,0.253788 0.400946,0.661568 0.494476,1.069348 0.08589,0.373769 0.163964,0.731182 0.344026,0.980324 l -0.0062,0.01242 0.05521,0.06177 c 0.549332,0.609741 0.766555,1.046029 0.746024,1.40682 -0.02064,0.357282 -0.284411,0.609429 -0.647681,0.828495 -0.704044,0.4244 -1.796354,0.772636 -2.516197,1.572797 l -0.05107,-0.04244 -7.34e-4,-3.54e-4 -0.154589,0.185644 7.35e-4,7.34e-4 0.0065,0.0052 0.02415,0.02036 c -0.686165,0.775511 -1.509754,1.224035 -2.27431,1.284323 -0.792027,0.06249 -1.520409,-0.293375 -1.921652,-1.09592 l -0.0031,-0.0065 -7.34e-4,-7.35e-4 c -0.05066,-0.09777 -0.0881,-0.201183 -0.114215,-0.30952 l -0.02381,-0.09765 -0.100413,0.0055 c -1.058849,0.05884 -1.992403,-0.272703 -2.791901,-0.208418 H 33.7041 c -1.13003,0.06257 -1.837043,0.330124 -2.437177,0.332986 l -0.07729,3.53e-4 -0.03174,0.07039 c -0.22902,0.503197 -0.670552,0.828696 -1.228422,0.955824 -0.743542,0.16978 -1.690426,0.0043 -2.637314,-0.466181 l 0.01967,-0.03692 3.54e-4,-7.34e-4 -0.213939,-0.112488 -3.54e-4,3.53e-4 -0.03036,0.05763 c -0.956302,-0.459402 -2.100773,-0.43103 -2.921916,-0.602266 -0.424969,-0.08891 -0.768712,-0.238087 -0.93374,-0.559003 v -3.53e-4 c -0.165118,-0.321987 -0.143219,-0.790435 0.119392,-1.508614 l 0.0011,-0.0021 6.68e-4,-0.0024 c 0.0997,-0.3103 0.02485,-0.701123 -0.03727,-1.106962 -0.02982,-0.194859 -0.05831,-0.391996 -0.05831,-0.580394 0,-0.19979 0.03127,-0.387988 0.121117,-0.560728 0.0119,-0.01532 0.01129,-0.01952 0.0076,-0.01449 -2.47e-4,3.54e-4 -4.24e-4,1.59e-4 -6.68e-4,7.35e-4 l -0.0035,0.0021 c 0.0015,-0.0019 0.0043,-0.0055 0.0048,-0.0062 l -6.67e-4,0.0035 c -3.54e-4,5.3e-4 0.0011,-0.0021 6.67e-4,-0.0014 0.206589,-0.395234 0.538696,-0.555251 0.867488,-0.673307 0.33277,-0.119114 0.661042,-0.201729 0.906824,-0.447201 l 0.0011,-0.0011 0.0011,-0.0011 c 0.247193,-0.261409 0.451986,-0.621422 0.719456,-0.907514 0.03605,-0.03807 0.07306,-0.07492 0.111456,-0.109385 l 0.04865,-0.04348 -0.01001,-0.06453 c -0.12821,-0.847301 0.01068,-1.750681 0.30745,-2.64249 0.628944,-1.889916 1.96769,-3.72388 2.91854,-4.854686 l 0.0035,-0.0041 0.0027,-0.0041 c 0.825419,-1.172983 1.075236,-2.139202 1.159754,-3.334669 l 3.53e-4,-0.0017 v -0.0017 c 0.03547,-0.844402 -0.248666,-2.435858 0.02243,-3.861595 0.135549,-0.712869 0.406459,-1.377182 0.915105,-1.885423 0.50865,-0.508234 1.258596,-0.868244 2.380934,-0.958584 0.177914,-0.01428 0.348123,-0.02103 0.511038,-0.02071 z m 0.543819,3.463738 c -0.237139,0.0024 -0.437538,0.0734 -0.641473,0.228087 -0.2036,0.154989 -0.348222,0.345453 -0.465143,0.610416 -0.116922,0.26466 -0.166883,0.525249 -0.16356,0.829185 v 0.02312 c 5.31e-4,0.0274 0.0044,0.05237 0.0059,0.07902 0.176628,0.03217 0.349504,0.08613 0.513798,0.157694 0.04571,0.02895 0.09356,0.05363 0.140442,0.08005 -0.0017,-0.03451 -0.0033,-0.06894 -0.0024,-0.105589 0,-0.0067 1.48e-4,-0.01233 0.0011,-0.01898 0.0057,-0.16798 0.0346,-0.30943 0.09351,-0.452032 0.05919,-0.142603 0.130243,-0.244987 0.226017,-0.325049 0.09127,-0.07614 0.179366,-0.111158 0.28088,-0.111456 0.0051,0 0.01004,-3e-4 0.01518,0 0.108158,0.0037 0.198135,0.04356 0.288471,0.131469 0.09,0.08792 0.152574,0.193789 0.201518,0.340922 0.04683,0.140185 0.06785,0.277069 0.06452,0.437195 0,0.0079 -0.0021,0.01337 -0.0021,0.02001 -0.0054,0.167074 -0.03465,0.307488 -0.09386,0.450997 -0.0121,0.02953 -0.03119,0.05677 -0.05245,0.08281 0.201957,0.07942 0.401535,0.163938 0.594542,0.262248 0.04847,-0.07553 0.0939,-0.156053 0.133884,-0.247755 0.115715,-0.264961 0.16805,-0.524342 0.165629,-0.829185 -0.0021,-0.0079 -0.0021,-0.01457 -0.0021,-0.02243 -0.0057,-0.296987 -0.06229,-0.547451 -0.180122,-0.803651 -0.120293,-0.262847 -0.269603,-0.450641 -0.476557,-0.601099 -0.203934,-0.147738 -0.40254,-0.21601 -0.63457,-0.21601 z m -3.169056,0.251896 c -0.01299,0 -0.02604,4.42e-4 -0.03934,0.0011 -0.170397,0.0088 -0.311848,0.0788 -0.452031,0.218079 -0.140488,0.138976 -0.237014,0.30825 -0.309521,0.542094 -0.07221,0.233843 -0.09801,0.459713 -0.08351,0.722561 v 0.0021 c 0.01571,0.262847 0.06809,0.485707 0.165975,0.708068 0.06588,0.149789 0.139816,0.269536 0.228086,0.369907 0.10225,-0.08919 0.204891,-0.178645 0.308486,-0.266733 -0.04603,-0.05385 -0.0852,-0.118711 -0.120081,-0.201171 -0.04774,-0.11239 -0.0747,-0.223644 -0.08799,-0.357485 0,-0.0054 -0.0011,-0.01009 -0.0011,-0.01553 -0.01209,-0.138069 -0.0049,-0.258245 0.02415,-0.380604 0.029,-0.122662 0.06941,-0.215186 0.130434,-0.289508 0.06132,-0.07462 0.125984,-0.112744 0.203932,-0.119392 0.0072,-6e-4 0.01445,-6.67e-4 0.02139,-6.67e-4 0.06949,-6.01e-4 0.132289,0.02575 0.198757,0.08316 0.07342,0.06344 0.129237,0.146016 0.179087,0.262938 0.04683,0.11239 0.07504,0.223473 0.08834,0.356104 0,0.0054 1.25e-4,0.0101 0.0011,0.01552 0.0057,0.05949 0.006,0.114746 0.0038,0.168735 0.161793,-0.09811 0.331253,-0.180612 0.512072,-0.239473 0.0018,-0.06476 0.0016,-0.130464 -0.0027,-0.199446 v -0.0021 c -0.01457,-0.262843 -0.06678,-0.48575 -0.164968,-0.708414 -0.09789,-0.222665 -0.214873,-0.380568 -0.36956,-0.504136 -0.142603,-0.1139 -0.280395,-0.165334 -0.43478,-0.16563 z m 1.500677,1.888528 3.54e-4,3.53e-4 c -0.187617,6.01e-4 -0.355361,0.03361 -0.505516,0.08558 -0.436567,0.150155 -0.726285,0.463353 -0.907861,0.63526 l -3.53e-4,3.53e-4 c 0,3.01e-4 -3.54e-4,3.9e-4 -3.54e-4,6.68e-4 -0.03565,0.03384 -0.08171,0.06473 -0.19289,0.146307 -0.112088,0.08188 -0.280036,0.205197 -0.521734,0.38647 -0.21481,0.161032 -0.284465,0.370657 -0.210144,0.616282 0.07402,0.245627 0.310711,0.528953 0.743955,0.773975 l 7.35e-4,6.68e-4 h 0.0011 c 0.268888,0.158011 0.452328,0.371222 0.663209,0.540714 0.105442,0.08459 0.216354,0.159943 0.349894,0.217043 0.133538,0.0571 0.289641,0.09584 0.484813,0.107315 0.458019,0.02659 0.795222,-0.110828 1.092814,-0.281226 0.298196,-0.170095 0.550462,-0.378085 0.840227,-0.472046 l 7.35e-4,-3.53e-4 7.34e-4,-3.53e-4 c 0.593945,-0.185504 1.017491,-0.559423 1.150095,-0.914416 0.06647,-0.177649 0.06432,-0.346129 -0.01484,-0.501722 -0.07947,-0.155594 -0.241799,-0.303539 -0.517939,-0.416835 l -3.53e-4,-3.53e-4 -0.0011,-3.53e-4 c -0.574375,-0.2459 -0.82376,-0.263563 -1.144311,-0.472028 -0.521768,-0.335356 -0.952923,-0.452852 -1.31124,-0.451342 z m -0.316421,0.405104 c 0.04832,-6.68e-4 0.09662,0.0012 0.14389,0.01139 0.380495,0.08359 0.09584,0.602305 -0.197032,0.573839 -0.415908,0.182938 -0.484202,-0.554706 -0.09109,-0.581776 0.04768,3.36e-4 0.09592,-0.0028 0.144237,-0.0035 z m 0.908549,0.0055 c 0.268274,-0.01026 0.649066,0.1299 0.463764,0.456863 -0.226326,0.437998 -1.033329,-0.148468 -0.569699,-0.443406 0.03175,-0.0075 0.06761,-0.01199 0.105935,-0.01346 z m 2.013441,0.959274 c 0.07153,0.01247 0.1345,0.06119 0.19289,0.104209 -0.196015,0.564818 -0.734369,0.904271 -1.247746,1.150094 -0.906975,0.627884 -2.205917,0.612504 -3.05622,-0.108005 -0.286108,-0.209389 -0.781687,-0.653756 -0.37819,-0.989984 0.261395,0.129113 0.458014,0.349916 0.669421,0.539678 0.680893,0.74602 1.846587,0.611179 2.614196,0.07902 0.419348,-0.198418 0.714779,-0.591241 1.131115,-0.773976 0.02593,-0.0054 0.05069,-0.0052 0.07453,-0.0011 z m 0.49689,1.213585 c -0.05885,0.06358 -0.122307,0.121699 -0.190802,0.170806 -0.754051,0.380905 -1.465117,0.875557 -2.273962,1.141813 -0.907575,0.388747 -1.79885,-0.263443 -2.450981,-0.836777 -0.09511,-0.04334 -0.187675,-0.09957 -0.27605,-0.164595 -0.22205,1.84982 -1.385476,4.050589 -1.959956,5.352612 -0.419648,0.998516 -0.669489,2.06588 -0.699096,3.112464 -1.103052,-1.470766 -0.297289,-3.354751 0.133539,-4.171116 0.480979,-0.893076 0.555884,-1.138589 0.439265,-1.052787 -0.43385,0.707572 -1.113866,1.835209 -1.378526,2.994453 -0.13807,0.603944 -0.162944,1.215682 0.01622,1.781559 0.178858,0.565543 0.560894,1.086288 1.244296,1.511375 v 3.54e-4 c 0.929935,0.570409 1.562765,1.141231 1.93649,1.646983 0.373727,0.506056 0.491011,0.949024 0.374395,1.262929 -0.05861,0.157132 -0.176393,0.279322 -0.344373,0.355759 -0.13505,0.061 -0.302236,0.09317 -0.498616,0.09282 0.0997,0.125655 0.200247,0.252882 0.298134,0.38095 0.153176,0.200611 0.302062,0.403893 0.431673,0.609036 1.914856,1.306984 4.16982,0.804835 5.794638,-0.354379 0.161333,-0.55473 0.320849,-1.078432 0.344717,-1.465481 v -7.35e-4 c 0.03867,-0.770112 0.07975,-1.454939 0.22084,-2.021722 0.141392,-0.567418 0.395705,-1.029677 0.861276,-1.284667 0.07493,-0.04079 0.149279,-0.07339 0.223601,-0.09938 0.0051,-0.04774 0.01189,-0.09525 0.02036,-0.141476 0.133539,-0.885221 0.923917,-0.928295 1.915788,-0.49206 0.956524,0.43264 1.31544,0.810569 1.153199,1.32297 0.0061,0 0.01184,2.7e-5 0.0176,-3.53e-4 0.06285,-0.0016 0.127675,-0.0018 0.193235,7.34e-4 0.1988,-0.646545 -0.214905,-1.12023 -1.333669,-1.664928 -0.07523,-0.03568 -0.149752,-0.06882 -0.222564,-0.09903 0.149279,-0.606966 0.119927,-1.221867 -0.01932,-1.806747 -0.305173,-1.282802 -1.144251,-2.419176 -1.782938,-2.984447 -0.118131,-0.0048 -0.106646,0.09837 0.131123,0.329189 0.589141,0.542008 1.877112,2.487997 1.180114,4.294995 -0.199098,-0.05104 -0.385284,-0.07555 -0.554171,-0.07039 C 38.89133,30.288524 38.274545,29.066112 37.964263,28.49087 37.4368,27.510562 36.647996,25.604916 36.212381,24.110645 Z m 2.238439,9.337396 c -0.01661,0.0081 -0.03346,0.01682 -0.05038,0.02588 -0.36016,0.197286 -0.56323,0.547758 -0.69254,1.065897 -0.128974,0.518143 -0.172192,1.189661 -0.210833,1.958232 v 0.0017 c -0.03687,0.599715 -0.311857,1.338169 -0.503101,2.056919 -0.191244,0.719022 -0.285891,1.400246 -0.05866,1.832283 l 0.0011,0.0021 3.53e-4,0.0014 c 0.366172,0.734461 0.987009,1.03298 1.706334,0.976182 0.719324,-0.05681 1.536192,-0.494613 2.206331,-1.291914 0.771287,-0.934467 1.979503,-1.292041 2.661123,-1.70323 0.341097,-0.205444 0.52552,-0.394792 0.540023,-0.649753 h 3.53e-4 c 0.0148,-0.255294 -0.156803,-0.654766 -0.689781,-1.246022 l -3.53e-4,-7.35e-4 v -2.9e-4 c -0.277394,-0.312172 -0.351251,-0.749682 -0.44373,-1.151839 -0.09245,-0.401823 -0.199216,-0.760957 -0.423394,-0.950992 l -0.0011,-7.35e-4 -7.35e-4,-7.34e-4 c -0.291851,-0.254992 -0.57703,-0.274921 -0.917522,-0.266734 -0.07345,0.0018 -0.149091,0.0059 -0.226707,0.009 -0.387922,0.446237 -1.306573,0.993056 -1.944082,0.825044 C 38.82103,34.7929 38.491591,34.113571 38.450775,33.447995 Z m -11.709701,0.05003 c -0.307259,0.0021 -0.510993,0.146512 -0.714625,0.364041 -0.241395,0.25771 -0.44793,0.620884 -0.722561,0.910619 l -0.0014,0.0017 -0.0021,0.0014 c -0.296987,0.297923 -0.673143,0.387476 -0.990674,0.501376 -0.317229,0.113599 -0.572737,0.233739 -0.747061,0.569699 l -0.0011,0.0024 c -0.136257,0.252605 -0.106576,0.615325 -0.04555,1.013794 0.06103,0.398804 0.15463,0.823633 0.02864,1.211861 l -0.0011,0.0031 -0.0014,0.0031 c -0.254388,0.693973 -0.251454,1.100816 -0.131814,1.334357 0.119641,0.233239 0.380477,0.358983 0.780186,0.442371 0.799719,0.167073 2.046069,0.11166 3.093832,0.666659 3e-4,0 7.34e-4,3.54e-4 0.0011,3.54e-4 0.946854,0.495259 1.89507,0.654642 2.594181,0.494819 0.699715,-0.159823 1.155402,-0.59998 1.217035,-1.407855 v -0.0021 l 3.54e-4,-0.0017 c 0.04744,-0.47373 -0.317112,-1.092735 -0.788122,-1.709096 -0.471011,-0.61663 -1.026697,-1.221298 -1.289846,-1.77086 l -7.34e-4,-7.34e-4 -3.53e-4,-7.35e-4 -0.989295,-1.802952 c -0.342608,-0.464666 -0.698061,-0.749956 -1.105926,-0.811588 -0.06043,-0.0094 -0.117373,-0.01381 -0.171151,-0.01415 -0.0037,3.53e-4 -0.0071,3.53e-4 -0.0107,0 z" />
  </g>
</svg>
