<?xml version="1.0" encoding="UTF-8" standalone="no"?>
<svg
   xmlns:dc="http://purl.org/dc/elements/1.1/"
   xmlns:cc="http://creativecommons.org/ns#"
   xmlns:rdf="http://www.w3.org/1999/02/22-rdf-syntax-ns#"
   xmlns:svg="http://www.w3.org/2000/svg"
   xmlns="http://www.w3.org/2000/svg"
   xmlns:sodipodi="http://sodipodi.sourceforge.net/DTD/sodipodi-0.dtd"
   xmlns:inkscape="http://www.inkscape.org/namespaces/inkscape"
   width="256"
   height="256"
   viewBox="0 0 67.733332 67.733335"
   version="1.1"
   id="svg8"
   inkscape:version="1.0.1 (3bc2e813f5, 2020-09-07)"
   sodipodi:docname="linux-ref.svg"
   inkscape:export-filename="C:\Users\keath\Workspace\KMX\elite-streamdeck-icons\ship-lights.png"
   inkscape:export-xdpi="96"
   inkscape:export-ydpi="96">
  <defs
     id="defs2" />
  <sodipodi:namedview
     id="base"
     pagecolor="#000000"
     bordercolor="#666666"
     borderopacity="1.0"
     inkscape:pageopacity="0"
     inkscape:pageshadow="2"
     inkscape:zoom="5.6"
     inkscape:cx="103.35273"
     inkscape:cy="98.178571"
     inkscape:document-units="px"
     inkscape:current-layer="layer2"
     showgrid="true"
     units="px"
     inkscape:snap-grids="true"
     objecttolerance="10000"
     guidetolerance="10000"
     inkscape:window-width="2780"
     inkscape:window-height="1895"
     inkscape:window-x="4681"
     inkscape:window-y="172"
     inkscape:window-maximized="0"
     inkscape:document-rotation="0"
     showguides="true"
     inkscape:guide-bbox="true">
    <inkscape:grid
       type="xygrid"
       id="grid4623" />
    <sodipodi:guide
       position="-3.96875,62.441667"
       orientation="0,256"
       id="guide3351" />
    <sodipodi:guide
       position="62.441667,42.597917"
       orientation="-1,0"
       id="guide3353"
       inkscape:label=""
       inkscape:locked="false"
       inkscape:color="rgb(0,0,255)" />
    <sodipodi:guide
       position="-2.6458333,22.754167"
       orientation="0,-256"
       id="guide3355" />
    <sodipodi:guide
       position="5.2916667,70.379167"
       orientation="-256,0"
       id="guide3357" />
    <sodipodi:guide
       position="0,67.733334"
       orientation="0,256"
       id="guide3359" />
    <sodipodi:guide
       position="67.733334,67.733334"
       orientation="256,0"
       id="guide3361" />
    <sodipodi:guide
       position="67.733334,0"
       orientation="0,-256"
       id="guide3363" />
    <sodipodi:guide
       position="0,0"
       orientation="-256,0"
       id="guide3365" />
    <sodipodi:guide
       position="0,67.733334"
       orientation="0,256"
       id="guide3367" />
    <sodipodi:guide
       position="67.733334,67.733334"
       orientation="256,0"
       id="guide3369" />
    <sodipodi:guide
       position="67.733334,0"
       orientation="0,-256"
       id="guide3371" />
    <sodipodi:guide
       position="0,0"
       orientation="-256,0"
       id="guide3373" />
    <sodipodi:guide
       position="0,67.733334"
       orientation="0,256"
       id="guide3375" />
    <sodipodi:guide
       position="67.733334,67.733334"
       orientation="256,0"
       id="guide3377" />
    <sodipodi:guide
       position="67.733334,0"
       orientation="0,-256"
       id="guide3379" />
    <sodipodi:guide
       position="0,0"
       orientation="-256,0"
       id="guide3381" />
    <sodipodi:guide
       position="33.866667,46.83125"
       orientation="1,0"
       id="guide895" />
    <sodipodi:guide
       position="41.010417,42.597917"
       orientation="0,-1"
       id="guide897" />
  </sodipodi:namedview>
  <metadata
     id="metadata5">
    <rdf:RDF>
      <cc:Work
         rdf:about="">
        <dc:format>image/svg+xml</dc:format>
        <dc:type
           rdf:resource="http://purl.org/dc/dcmitype/StillImage" />
        <dc:title></dc:title>
      </cc:Work>
    </rdf:RDF>
  </metadata>
  <g
     inkscape:groupmode="layer"
     id="layer2"
     inkscape:label="Icon">
    <path
       id="path870"
       style="color:#000000;font-style:normal;font-variant:normal;font-weight:normal;font-stretch:normal;font-size:medium;line-height:normal;font-family:sans-serif;font-variant-ligatures:normal;font-variant-position:normal;font-variant-caps:normal;font-variant-numeric:normal;font-variant-alternates:normal;font-variant-east-asian:normal;font-feature-settings:normal;font-variation-settings:normal;text-indent:0;text-align:start;text-decoration:none;text-decoration-line:none;text-decoration-style:solid;text-decoration-color:#000000;letter-spacing:normal;word-spacing:normal;text-transform:none;writing-mode:lr-tb;direction:ltr;text-orientation:mixed;dominant-baseline:auto;baseline-shift:baseline;text-anchor:start;white-space:normal;shape-padding:0;shape-margin:0;inline-size:0;clip-rule:nonzero;display:inline;overflow:visible;visibility:visible;opacity:1;isolation:auto;mix-blend-mode:normal;color-interpolation:sRGB;color-interpolation-filters:linearRGB;solid-color:#000000;solid-opacity:1;vector-effect:none;fill:#808080;fill-opacity:1;fill-rule:nonzero;stroke:none;stroke-width:6;stroke-linecap:square;stroke-linejoin:miter;stroke-miterlimit:4;stroke-dasharray:none;stroke-dashoffset:0;stroke-opacity:1;paint-order:markers stroke fill;color-rendering:auto;image-rendering:auto;shape-rendering:auto;text-rendering:auto;enable-background:accumulate;stop-color:#000000;stop-opacity:1"
       d="m 32,21.998047 v 3.003906 19.496094 H 19.998047 v 5.005859 H 32 v 15 H 19.998047 V 69.5 H 32 v 15 H 19.998047 v 4.998047 H 32 V 104.49805 H 19.998047 v 5.00586 H 32 v 15 H 19.998047 V 129.5 H 32 v 15 H 19.998047 v 4.99805 H 32 v 18.49804 h 176 v -2.27343 l 29,-19.79688 V 98.960938 L 226.08984,93.375 237,85.925781 V 38.960938 l -29,-14.84961 v -2.113281 z m 176,5.322265 26.79883,13.714844 v 43.03711 L 223.2793,91.935547 208,84.109375 Z M 38.001953,28 H 201.99805 V 162.00391 H 38.001953 V 149.49805 H 49.998047 V 144.5 H 38.001953 v -15 h 11.996094 v -4.99609 H 38.001953 v -15 h 11.996094 v -5.00586 H 38.001953 V 89.498047 H 49.998047 V 84.5 H 38.001953 v -15 H 49.998047 V 64.503906 H 38.001953 v -15 H 49.998047 V 44.498047 H 38.001953 Z M 208,87.320312 234.79883,101.03516 v 43.03711 L 208,162.36523 Z"
       transform="scale(0.26458333)" />
    <path
       id="path914"
       style="color:#000000;font-style:normal;font-variant:normal;font-weight:normal;font-stretch:normal;font-size:medium;line-height:normal;font-family:sans-serif;font-variant-ligatures:normal;font-variant-position:normal;font-variant-caps:normal;font-variant-numeric:normal;font-variant-alternates:normal;font-variant-east-asian:normal;font-feature-settings:normal;font-variation-settings:normal;text-indent:0;text-align:start;text-decoration:none;text-decoration-line:none;text-decoration-style:solid;text-decoration-color:#000000;letter-spacing:normal;word-spacing:normal;text-transform:none;writing-mode:lr-tb;direction:ltr;text-orientation:mixed;dominant-baseline:auto;baseline-shift:baseline;text-anchor:start;white-space:normal;shape-padding:0;shape-margin:0;inline-size:0;clip-rule:nonzero;display:inline;overflow:visible;visibility:visible;isolation:auto;mix-blend-mode:normal;color-interpolation:sRGB;color-interpolation-filters:linearRGB;solid-color:#000000;solid-opacity:1;vector-effect:none;fill:#808080;fill-opacity:1;fill-rule:nonzero;stroke:none;stroke-width:2.11666;stroke-linecap:butt;stroke-linejoin:miter;stroke-miterlimit:4;stroke-dasharray:none;stroke-dashoffset:0;stroke-opacity:1;color-rendering:auto;image-rendering:auto;shape-rendering:auto;text-rendering:auto;enable-background:accumulate;stop-color:#000000"
       d="m 33.791533,11.154031 c -0.184371,-3.65e-4 -0.376533,0.0072 -0.576082,0.02321 -1.26415,0.101761 -2.147536,0.516731 -2.747141,1.115851 -0.599604,0.59912 -0.911489,1.374492 -1.064942,2.181543 -0.306832,1.613673 0.0062,3.386108 -0.02882,4.226084 -0.09,1.269345 -0.339973,2.244559 -1.209433,3.480811 -1.042798,1.241019 -2.508481,3.241019 -3.208681,5.344929 -0.322974,0.970546 -0.478348,1.964844 -0.348866,2.917459 -0.03004,0.0288 -0.06082,0.05776 -0.08872,0.08722 l -3.83e-4,3.83e-4 h -3.84e-4 c -0.317884,0.339782 -0.545575,0.7356 -0.778214,0.982219 -0.202071,0.201115 -0.51308,0.289625 -0.885643,0.422982 -0.35681,0.1281 -0.769364,0.335219 -1.037618,0.787571 h -0.01235 l -0.0277,0.05315 -0.0089,0.01759 -3.84e-4,7.96e-4 c -3.26e-4,5.75e-4 -4.6e-4,0.0011 -7.46e-4,0.0018 l -0.0018,0.0038 c 0,0 7.1e-4,-7.96e-4 7.46e-4,-7.96e-4 -0.0011,0.0021 -0.0011,0.0045 -0.0023,0.0064 4.22e-4,-0.0015 0.0015,-0.0056 0.0015,-0.0056 l -0.01161,0.0217 v 0.01199 c -0.112442,0.22777 -0.153846,0.46846 -0.153846,0.704098 0,0.230209 0.03371,0.456636 0.06626,0.669285 0.06766,0.442028 0.123199,0.852561 0.04978,1.08104 -0.294222,0.806467 -0.344239,1.39436 -0.114916,1.841284 v 3.84e-4 c 0.231346,0.450126 0.70088,0.640605 1.192213,0.743401 0.979798,0.204322 2.250794,0.159886 3.223652,0.67565 l 0.0018,7.97e-4 0.114172,0.06027 0.0041,-0.0083 c 1.070742,0.533936 2.153558,0.73227 3.042481,0.52929 0.644074,-0.146769 1.17615,-0.532802 1.469584,-1.113605 0.701845,-0.02181 1.433272,-0.291952 2.584687,-0.35523 h 0.0018 0.0015 c 0.752828,-0.06074 1.758174,0.267534 2.924944,0.224591 0.03067,0.101738 0.06094,0.203739 0.110803,0.299458 l 0.0048,0.0094 7.96e-4,7.97e-4 c 0.480268,0.951896 1.386082,1.399213 2.335014,1.324347 0.916149,-0.07224 1.866888,-0.600821 2.649071,-1.488299 l 0.0094,0.0074 0.0816,-0.09881 0.0018,-0.0023 c 0.708673,-0.859417 1.916957,-1.230089 2.759496,-1.737973 0.423312,-0.255278 0.79972,-0.599178 0.829121,-1.108365 0.02767,-0.486208 -0.248636,-0.999657 -0.817517,-1.64589 l 0.0041,-0.0083 -0.06251,-0.06289 c -0.159038,-0.179732 -0.26403,-0.582865 -0.365941,-1.026365 v -3.82e-4 c -0.101337,-0.441874 -0.216998,-0.952622 -0.616881,-1.29665 l -3.84e-4,-3.82e-4 -0.0034,-0.003 -7.96e-4,-0.0011 -0.0011,-7.96e-4 c -0.07811,-0.06817 -0.158849,-0.125798 -0.239942,-0.17406 v -3.82e-4 c -0.04521,-0.02678 -0.09153,-0.04443 -0.137373,-0.06588 0.470781,-1.496738 0.269182,-2.983482 -0.236178,-4.318917 -0.634492,-1.678338 -1.735912,-3.129612 -2.575221,-4.12166 -0.935803,-1.180497 -1.820626,-2.265288 -1.803103,-3.870104 0.01388,-1.258535 0.08777,-3.072038 -0.412501,-4.591796 -0.250378,-0.759895 -0.646683,-1.449386 -1.272317,-1.948341 -0.625588,-0.498916 -1.476484,-0.801284 -2.609766,-0.802918 z m -7.98e-4,0.262025 h 3.84e-4 c 1.087358,0.0016 1.871083,0.286766 2.446937,0.746021 0.575852,0.459255 0.947448,1.098683 1.186596,1.825189 0.478295,1.453013 0.413352,3.241431 0.399402,4.506825 -0.0186,1.702741 0.925719,2.857351 1.860001,4.03593 l 0.0011,0.0015 0.0015,0.0018 c 0.831159,0.982132 1.915343,2.415553 2.532655,4.048281 0.503262,1.3299 0.695729,2.789219 0.201761,4.254158 l -0.04043,0.120157 0.118285,0.04454 c 0.06856,0.02583 0.137384,0.05883 0.205501,0.09919 0.06711,0.03996 0.134354,0.08783 0.199887,0.144863 l 7.97e-4,7.96e-4 0.0041,0.0034 c 0.323376,0.275307 0.434942,0.717664 0.536401,1.160021 0.09317,0.405461 0.177868,0.79318 0.373198,1.063446 l -0.0068,0.01348 0.05989,0.067 c 0.595911,0.661443 0.831552,1.134724 0.809281,1.526107 -0.02239,0.387577 -0.308527,0.661103 -0.7026,0.898744 -0.763741,0.460386 -1.948669,0.838149 -2.729549,1.706157 l -0.0554,-0.04604 -7.97e-4,-3.84e-4 -0.167696,0.201384 7.96e-4,7.98e-4 0.0071,0.0056 0.0262,0.02208 c -0.744347,0.841267 -1.637768,1.327822 -2.467152,1.393222 -0.859184,0.06778 -1.649328,-0.31825 -2.084593,-1.188844 l -0.0034,-0.0071 -7.97e-4,-7.97e-4 c -0.05496,-0.10607 -0.09557,-0.218241 -0.1239,-0.335765 l -0.02583,-0.105932 -0.108935,0.006 c -1.14863,0.06383 -2.161341,-0.295826 -3.02863,-0.22609 h -7.97e-4 c -1.225846,0.06788 -1.992808,0.358115 -2.643828,0.36122 l -0.08385,3.83e-4 -0.03444,0.07637 c -0.248438,0.545864 -0.727409,0.898963 -1.332582,1.036869 -0.806588,0.184177 -1.833759,0.0046 -2.860935,-0.505709 l 0.02134,-0.04005 3.82e-4,-7.98e-4 -0.232079,-0.122026 -3.82e-4,3.83e-4 -0.03294,0.06251 C 24.978634,37.77265 23.737121,37.803427 22.846352,37.617672 22.385349,37.521222 22.01246,37.359397 21.833439,37.011271 v -3.83e-4 C 21.654321,36.6616 21.678076,36.153431 21.962954,35.374356 l 0.0011,-0.0023 7.46e-4,-0.0026 c 0.108155,-0.33661 0.02695,-0.760573 -0.04043,-1.200823 -0.03235,-0.211381 -0.06326,-0.425234 -0.06326,-0.629606 0,-0.21673 0.03392,-0.420886 0.131387,-0.608273 0.01292,-0.01662 0.01225,-0.02118 0.0083,-0.01572 -2.68e-4,3.84e-4 -4.59e-4,1.73e-4 -7.46e-4,7.98e-4 l -0.0038,0.0023 c 0.0016,-0.0021 0.0047,-0.006 0.0053,-0.0068 l -7.46e-4,0.0038 c -3.84e-4,5.74e-4 0.0013,-0.0023 7.46e-4,-0.0015 0.224105,-0.428745 0.584372,-0.60233 0.941042,-0.730397 0.360987,-0.129214 0.717093,-0.218834 0.983716,-0.48512 l 0.0011,-0.0011 0.0011,-0.0011 c 0.268151,-0.283575 0.49031,-0.674115 0.780459,-0.984465 0.03911,-0.0413 0.07927,-0.08127 0.120905,-0.118659 l 0.05278,-0.04717 -0.01089,-0.07001 c -0.139084,-0.919152 0.01157,-1.899131 0.333516,-2.866558 0.682272,-2.050165 2.134533,-4.039634 3.166007,-5.266322 l 0.0038,-0.0045 0.003,-0.0045 c 0.895409,-1.272442 1.166408,-2.320587 1.258093,-3.617421 l 3.83e-4,-0.0018 v -0.0018 c 0.03848,-0.916001 -0.269751,-2.642399 0.02433,-4.189026 0.147043,-0.773314 0.440924,-1.493955 0.992699,-2.045289 0.551779,-0.55133 1.365313,-0.941865 2.582816,-1.039865 0.193,-0.01548 0.377641,-0.0228 0.55437,-0.02246 z m 0.58993,3.757434 c -0.257245,0.0026 -0.474636,0.07962 -0.695863,0.247426 -0.220865,0.168131 -0.377749,0.374745 -0.504584,0.662173 -0.126836,0.287101 -0.181034,0.569787 -0.177429,0.899494 v 0.02509 c 5.76e-4,0.02973 0.0048,0.05681 0.0064,0.08572 0.191604,0.03491 0.379138,0.09343 0.557363,0.171064 0.04958,0.0314 0.101497,0.05818 0.152349,0.08684 -0.0018,-0.03744 -0.0036,-0.0748 -0.0026,-0.114538 0,-0.0072 1.61e-4,-0.01338 0.0011,-0.02059 0.0062,-0.182223 0.03753,-0.335667 0.10144,-0.49036 0.06421,-0.154694 0.141286,-0.26576 0.245181,-0.352611 0.09901,-0.08259 0.194575,-0.120583 0.304697,-0.120905 0.0056,0 0.01089,-3.26e-4 0.01647,0 0.117328,0.004 0.214935,0.04725 0.312932,0.142616 0.09764,0.09538 0.16551,0.21022 0.218604,0.369829 0.0508,0.152072 0.07361,0.300562 0.06999,0.474265 0,0.0085 -0.0023,0.01451 -0.0023,0.02171 -0.0058,0.181241 -0.03759,0.33356 -0.101819,0.489237 -0.01312,0.03203 -0.03383,0.06158 -0.0569,0.08984 0.219081,0.08615 0.435581,0.177838 0.644954,0.284484 0.05258,-0.08192 0.101864,-0.169286 0.145236,-0.268763 0.125526,-0.287427 0.182299,-0.568802 0.179674,-0.899493 -0.0023,-0.0085 -0.0023,-0.0158 -0.0023,-0.02433 -0.0062,-0.32217 -0.06758,-0.59387 -0.195396,-0.871794 -0.130493,-0.285135 -0.292463,-0.488852 -0.516965,-0.652067 -0.221226,-0.160265 -0.436672,-0.234325 -0.688377,-0.234325 z M 30.9429,15.446743 c -0.01408,0 -0.02825,4.8e-4 -0.04267,0.0011 -0.184847,0.0095 -0.338291,0.08548 -0.490361,0.23657 -0.152399,0.150761 -0.25711,0.334388 -0.335765,0.588059 -0.0783,0.253671 -0.106287,0.498694 -0.09055,0.783828 v 0.0023 c 0.01704,0.285134 0.07386,0.52689 0.180048,0.768107 0.07146,0.16249 0.15167,0.29239 0.247427,0.401272 0.110917,-0.09674 0.222262,-0.193793 0.334642,-0.28935 -0.04993,-0.05841 -0.09243,-0.128777 -0.130262,-0.218229 -0.05179,-0.12192 -0.08103,-0.242607 -0.09545,-0.387797 0,-0.0058 -0.0011,-0.011 -0.0011,-0.01685 -0.01311,-0.149776 -0.0053,-0.280141 0.0262,-0.412875 0.03146,-0.133063 0.07529,-0.233432 0.141493,-0.314055 0.06652,-0.08095 0.136667,-0.122306 0.221223,-0.129516 0.0079,-6.51e-4 0.01568,-7.46e-4 0.02321,-7.46e-4 0.07538,-6.51e-4 0.143506,0.02794 0.215609,0.09021 0.07964,0.06883 0.140197,0.158397 0.194273,0.285233 0.0508,0.121919 0.08141,0.242421 0.09582,0.386299 0,0.0058 1.35e-4,0.011 0.0011,0.01685 0.0062,0.06454 0.0065,0.124476 0.0041,0.183043 0.175512,-0.106436 0.35934,-0.195926 0.555491,-0.259779 0.0019,-0.07025 0.0017,-0.141526 -0.003,-0.216357 v -0.0023 c -0.0158,-0.28513 -0.07244,-0.526937 -0.178956,-0.768482 -0.106184,-0.241544 -0.233093,-0.412837 -0.400896,-0.546882 -0.154694,-0.123558 -0.30417,-0.179353 -0.471645,-0.179675 z m 1.627922,2.048659 3.84e-4,3.84e-4 c -0.203525,6.51e-4 -0.385493,0.03646 -0.548379,0.09283 -0.473584,0.162887 -0.787867,0.502642 -0.98484,0.689125 l -3.84e-4,3.83e-4 c 0,3.27e-4 -3.83e-4,4.22e-4 -3.83e-4,7.46e-4 -0.03868,0.03672 -0.08864,0.07022 -0.209246,0.158713 -0.121591,0.08881 -0.303781,0.222596 -0.565971,0.419239 -0.233025,0.174686 -0.308587,0.402086 -0.227964,0.668538 0.0803,0.266454 0.337056,0.573803 0.807037,0.839602 l 7.97e-4,7.24e-4 h 0.0011 c 0.291687,0.171409 0.490681,0.402698 0.719443,0.586561 0.114378,0.09177 0.234699,0.173506 0.379562,0.235447 0.144861,0.06195 0.3142,0.103961 0.525921,0.116414 0.496855,0.02884 0.86265,-0.120225 1.185476,-0.305072 0.32348,-0.184518 0.597137,-0.410143 0.911472,-0.512071 l 7.96e-4,-3.83e-4 7.96e-4,-3.84e-4 c 0.644336,-0.201232 1.103796,-0.606856 1.247643,-0.99195 0.0721,-0.192712 0.06977,-0.375477 -0.0161,-0.544263 -0.0862,-0.168787 -0.262301,-0.329276 -0.561855,-0.45218 l -3.83e-4,-3.83e-4 -0.0011,-3.83e-4 C 34.611573,18.230294 34.341042,18.211133 33.99331,17.984992 33.427301,17.621201 32.959589,17.493742 32.57089,17.49538 Z m -0.343251,0.439454 c 0.05242,-7.33e-4 0.10482,0.0014 0.156092,0.01235 0.412757,0.09068 0.103961,0.653376 -0.21374,0.622496 -0.451173,0.198451 -0.525258,-0.601739 -0.09881,-0.631105 0.05173,3.64e-4 0.104052,-0.003 0.156466,-0.0038 z m 0.985586,0.006 c 0.291023,-0.01112 0.704102,0.140913 0.503087,0.495601 -0.245516,0.475136 -1.120945,-0.161057 -0.618003,-0.481003 0.03445,-0.0081 0.07334,-0.01301 0.114916,-0.0146 z m 2.184164,1.040613 c 0.07759,0.01353 0.145904,0.06639 0.209246,0.113048 -0.212636,0.61271 -0.796637,0.980946 -1.353545,1.247612 -0.983878,0.681123 -2.392959,0.664439 -3.315361,-0.117163 -0.310368,-0.227143 -0.847968,-0.709188 -0.410257,-1.073927 0.283559,0.140061 0.496849,0.379587 0.726182,0.585438 0.738627,0.809278 2.003162,0.663002 2.835857,0.08572 0.454906,-0.215242 0.775386,-0.641372 1.227024,-0.839601 0.02812,-0.0058 0.05498,-0.0056 0.08086,-0.0011 z m 0.539022,1.316487 c -0.06382,0.06896 -0.132647,0.132017 -0.20695,0.185288 -0.817989,0.413203 -1.589348,0.949797 -2.466775,1.238629 -0.98453,0.421709 -1.951378,-0.28578 -2.658803,-0.907728 -0.103182,-0.04702 -0.203588,-0.108007 -0.299457,-0.178552 -0.240878,2.006669 -1.502953,4.394045 -2.126144,5.806468 -0.455231,1.083181 -0.726257,2.241049 -0.758375,3.376374 -1.196581,-1.595473 -0.322495,-3.639205 0.144863,-4.524791 0.521763,-0.968801 0.603019,-1.235131 0.476511,-1.142053 -0.470636,0.767567 -1.208312,1.990818 -1.495413,3.248356 -0.149776,0.655154 -0.17676,1.318762 0.01759,1.93262 0.194023,0.613497 0.608453,1.178396 1.349802,1.639527 v 3.83e-4 c 1.008785,0.618775 1.695274,1.237998 2.100688,1.786634 0.405416,0.548964 0.532644,1.029492 0.40614,1.370016 -0.06358,0.170455 -0.19135,0.303005 -0.373573,0.385923 -0.1465,0.06617 -0.327864,0.101062 -0.540894,0.100695 0.108155,0.136308 0.217227,0.274324 0.323414,0.413251 0.166163,0.217621 0.327673,0.43814 0.468275,0.660678 2.077218,1.417804 4.523384,0.873077 6.285973,-0.384429 0.175013,-0.601765 0.348054,-1.169873 0.373946,-1.589741 v -7.96e-4 c 0.04194,-0.835412 0.08651,-1.578306 0.239565,-2.193148 0.153382,-0.61553 0.429258,-1.116984 0.934306,-1.393596 0.08127,-0.04425 0.161936,-0.07962 0.24256,-0.1078 0.0056,-0.05179 0.0129,-0.103331 0.02208,-0.153473 0.144862,-0.960279 1.002258,-1.007006 2.07823,-0.533781 1.03763,0.469322 1.426979,0.879297 1.250981,1.435146 0.0066,0 0.01285,2.8e-5 0.01909,-3.83e-4 0.06817,-0.0017 0.138501,-0.0019 0.20962,7.96e-4 0.215656,-0.701367 -0.233127,-1.215216 -1.446752,-1.8061 -0.0816,-0.03871 -0.162451,-0.07466 -0.241436,-0.107433 0.161935,-0.658437 0.130094,-1.325477 -0.02096,-1.959951 -0.331048,-1.391572 -1.241273,-2.6243 -1.934115,-3.237502 -0.128147,-0.0053 -0.115689,0.106711 0.142241,0.357103 0.639095,0.587965 2.036276,2.698957 1.280177,4.659173 -0.215979,-0.05536 -0.417952,-0.08196 -0.601159,-0.07637 -0.289102,-1.597735 -0.958184,-2.923797 -1.294777,-3.547815 -0.572186,-1.06343 -1.427874,-3.130658 -1.900426,-4.75163 z m 2.42824,10.129127 c -0.01801,0.0088 -0.03629,0.01824 -0.05465,0.02808 -0.390699,0.214014 -0.610987,0.594203 -0.751261,1.156277 -0.13991,0.562076 -0.186792,1.290533 -0.22871,2.124272 v 0.0018 c -0.03999,0.650565 -0.3383,1.451634 -0.545759,2.231328 -0.20746,0.779988 -0.310133,1.518975 -0.06363,1.987646 l 0.0011,0.0023 3.82e-4,0.0015 c 0.397221,0.796738 1.070699,1.120569 1.851017,1.058954 0.780316,-0.06162 1.666447,-0.536551 2.393409,-1.401457 0.836685,-1.013701 2.147347,-1.401594 2.886764,-1.847649 0.370019,-0.222863 0.570079,-0.428267 0.585812,-0.704846 h 3.84e-4 c 0.01607,-0.276906 -0.170088,-0.710249 -0.748258,-1.35164 l -3.83e-4,-7.96e-4 v -3.15e-4 C 43.389926,33.373918 43.309805,32.89931 43.209485,32.463053 43.10919,32.027159 42.993378,31.637574 42.750191,31.431426 l -0.0011,-7.98e-4 -7.97e-4,-7.96e-4 c -0.316598,-0.276613 -0.625958,-0.298232 -0.995319,-0.289351 -0.07968,0.0019 -0.161734,0.0064 -0.245931,0.0097 -0.420815,0.484074 -1.417361,1.077259 -2.108923,0.895001 -0.631852,-0.159246 -0.989224,-0.896176 -1.033501,-1.618188 z m -12.702584,0.05427 c -0.333312,0.0023 -0.554321,0.158935 -0.775219,0.394909 -0.261864,0.27956 -0.485912,0.673529 -0.783828,0.987831 l -0.0015,0.0018 -0.0023,0.0015 c -0.322168,0.323183 -0.73022,0.420329 -1.074675,0.543887 -0.344128,0.123231 -0.6213,0.253558 -0.810406,0.618004 l -0.0011,0.0026 c -0.147811,0.274022 -0.115613,0.667498 -0.04941,1.099755 0.0662,0.432619 0.167741,0.893469 0.03107,1.314616 l -0.0011,0.0034 -0.0015,0.0034 c -0.275928,0.752815 -0.272744,1.194154 -0.14296,1.447497 0.129785,0.253017 0.412739,0.389423 0.84634,0.479881 0.867528,0.18124 2.219558,0.121129 3.356162,0.723186 3.26e-4,0 7.96e-4,3.84e-4 0.0011,3.84e-4 1.027139,0.537253 2.055756,0.710151 2.814146,0.536775 0.759044,-0.173374 1.25337,-0.650852 1.320229,-1.527229 v -0.0023 l 3.84e-4,-0.0018 c 0.05145,-0.513898 -0.344,-1.185389 -0.854947,-1.854012 -0.51095,-0.668915 -1.113753,-1.324854 -1.399215,-1.921013 l -7.96e-4,-7.98e-4 -3.84e-4,-7.96e-4 -1.073179,-1.955828 c -0.371658,-0.504066 -0.757249,-0.813545 -1.199698,-0.880403 -0.06555,-0.0102 -0.127325,-0.01499 -0.185663,-0.01534 -0.004,3.83e-4 -0.0077,3.83e-4 -0.01161,0 z" />
  </g>
</svg>
