<?xml version="1.0" encoding="UTF-8" standalone="no"?>
<svg
   xmlns:dc="http://purl.org/dc/elements/1.1/"
   xmlns:cc="http://creativecommons.org/ns#"
   xmlns:rdf="http://www.w3.org/1999/02/22-rdf-syntax-ns#"
   xmlns:svg="http://www.w3.org/2000/svg"
   xmlns="http://www.w3.org/2000/svg"
   xmlns:sodipodi="http://sodipodi.sourceforge.net/DTD/sodipodi-0.dtd"
   xmlns:inkscape="http://www.inkscape.org/namespaces/inkscape"
   width="256"
   height="256"
   viewBox="0 0 67.733332 67.733335"
   version="1.1"
   id="svg8"
   inkscape:version="1.0.1 (3bc2e813f5, 2020-09-07)"
   sodipodi:docname="monitor-globe.svg"
   inkscape:export-filename="C:\Users\keath\Workspace\KMX\elite-streamdeck-icons\ship-lights.png"
   inkscape:export-xdpi="96"
   inkscape:export-ydpi="96">
  <defs
     id="defs2" />
  <sodipodi:namedview
     id="base"
     pagecolor="#000000"
     bordercolor="#666666"
     borderopacity="1.0"
     inkscape:pageopacity="0"
     inkscape:pageshadow="2"
     inkscape:zoom="7.9195959"
     inkscape:cx="159.97127"
     inkscape:cy="58.363454"
     inkscape:document-units="px"
     inkscape:current-layer="layer2"
     showgrid="true"
     units="px"
     inkscape:snap-grids="true"
     objecttolerance="10000"
     guidetolerance="10000"
     inkscape:window-width="3840"
     inkscape:window-height="2066"
     inkscape:window-x="3829"
     inkscape:window-y="-11"
     inkscape:window-maximized="1"
     inkscape:document-rotation="0"
     showguides="true"
     inkscape:guide-bbox="true">
    <inkscape:grid
       type="xygrid"
       id="grid4623" />
    <sodipodi:guide
       position="-3.96875,62.441667"
       orientation="0,256"
       id="guide3351" />
    <sodipodi:guide
       position="62.441667,42.597917"
       orientation="-1,0"
       id="guide3353"
       inkscape:label=""
       inkscape:locked="false"
       inkscape:color="rgb(0,0,255)" />
    <sodipodi:guide
       position="-2.6458333,22.754167"
       orientation="0,-256"
       id="guide3355" />
    <sodipodi:guide
       position="5.2916667,70.379167"
       orientation="-256,0"
       id="guide3357" />
    <sodipodi:guide
       position="0,67.733334"
       orientation="0,256"
       id="guide3359" />
    <sodipodi:guide
       position="67.733334,67.733334"
       orientation="256,0"
       id="guide3361" />
    <sodipodi:guide
       position="67.733334,0"
       orientation="0,-256"
       id="guide3363" />
    <sodipodi:guide
       position="0,0"
       orientation="-256,0"
       id="guide3365" />
    <sodipodi:guide
       position="0,67.733334"
       orientation="0,256"
       id="guide3367" />
    <sodipodi:guide
       position="67.733334,67.733334"
       orientation="256,0"
       id="guide3369" />
    <sodipodi:guide
       position="67.733334,0"
       orientation="0,-256"
       id="guide3371" />
    <sodipodi:guide
       position="0,0"
       orientation="-256,0"
       id="guide3373" />
    <sodipodi:guide
       position="0,67.733334"
       orientation="0,256"
       id="guide3375" />
    <sodipodi:guide
       position="67.733334,67.733334"
       orientation="256,0"
       id="guide3377" />
    <sodipodi:guide
       position="67.733334,0"
       orientation="0,-256"
       id="guide3379" />
    <sodipodi:guide
       position="0,0"
       orientation="-256,0"
       id="guide3381" />
    <sodipodi:guide
       position="33.866667,46.83125"
       orientation="1,0"
       id="guide895" />
    <sodipodi:guide
       position="41.010417,42.597917"
       orientation="0,-1"
       id="guide897" />
  </sodipodi:namedview>
  <metadata
     id="metadata5">
    <rdf:RDF>
      <cc:Work
         rdf:about="">
        <dc:format>image/svg+xml</dc:format>
        <dc:type
           rdf:resource="http://purl.org/dc/dcmitype/StillImage" />
        <dc:title></dc:title>
      </cc:Work>
    </rdf:RDF>
  </metadata>
  <g
     inkscape:groupmode="layer"
     id="layer2"
     inkscape:label="Icon">
    <path
       id="path876"
       style="color:#000000;font-style:normal;font-variant:normal;font-weight:normal;font-stretch:normal;font-size:medium;line-height:normal;font-family:sans-serif;font-variant-ligatures:normal;font-variant-position:normal;font-variant-caps:normal;font-variant-numeric:normal;font-variant-alternates:normal;font-variant-east-asian:normal;font-feature-settings:normal;font-variation-settings:normal;text-indent:0;text-align:start;text-decoration:none;text-decoration-line:none;text-decoration-style:solid;text-decoration-color:#000000;letter-spacing:normal;word-spacing:normal;text-transform:none;writing-mode:lr-tb;direction:ltr;text-orientation:mixed;dominant-baseline:auto;baseline-shift:baseline;text-anchor:start;white-space:normal;shape-padding:0;shape-margin:0;inline-size:0;clip-rule:nonzero;display:inline;overflow:visible;visibility:visible;isolation:auto;mix-blend-mode:normal;color-interpolation:sRGB;color-interpolation-filters:linearRGB;solid-color:#000000;solid-opacity:1;vector-effect:none;fill:#808080;fill-opacity:1;fill-rule:nonzero;stroke:none;stroke-width:9.99999;stroke-linecap:round;stroke-linejoin:round;stroke-miterlimit:4;stroke-dasharray:none;stroke-dashoffset:0;stroke-opacity:1;paint-order:markers stroke fill;color-rendering:auto;image-rendering:auto;shape-rendering:auto;text-rendering:auto;enable-background:accumulate;stop-color:#000000"
       d="m 25.001953,19.998047 a 5.0004932,5.0004932 0 0 0 -5.003906,5.003906 V 145.00195 A 5.0004932,5.0004932 0 0 0 25.001953,150 H 229.99805 a 5.0004932,5.0004932 0 0 0 5.0039,-4.99805 V 25.001953 a 5.0004932,5.0004932 0 0 0 -5.0039,-5.003906 z M 35,30 h 185 a 4.5127264,4.2353015 0 0 1 4.51562,4.238281 V 135.875 A 4.5127264,4.2353015 0 0 1 220,140.10938 H 35 A 4.5127264,4.2353015 0 0 1 30.484375,135.875 V 34.238281 A 4.5127264,4.2353015 0 0 1 35,30 Z"
       transform="scale(0.26458333)" />
    <path
       style="color:#000000;font-style:normal;font-variant:normal;font-weight:normal;font-stretch:normal;font-size:medium;line-height:normal;font-family:sans-serif;font-variant-ligatures:normal;font-variant-position:normal;font-variant-caps:normal;font-variant-numeric:normal;font-variant-alternates:normal;font-variant-east-asian:normal;font-feature-settings:normal;font-variation-settings:normal;text-indent:0;text-align:start;text-decoration:none;text-decoration-line:none;text-decoration-style:solid;text-decoration-color:#000000;letter-spacing:normal;word-spacing:normal;text-transform:none;writing-mode:lr-tb;direction:ltr;text-orientation:mixed;dominant-baseline:auto;baseline-shift:baseline;text-anchor:start;white-space:normal;shape-padding:0;shape-margin:0;inline-size:0;clip-rule:nonzero;display:inline;overflow:visible;visibility:visible;opacity:1;isolation:auto;mix-blend-mode:normal;color-interpolation:sRGB;color-interpolation-filters:linearRGB;solid-color:#000000;solid-opacity:1;vector-effect:none;fill:#808080;fill-opacity:1;fill-rule:nonzero;stroke:none;stroke-width:2.64583;stroke-linecap:round;stroke-linejoin:miter;stroke-miterlimit:4;stroke-dasharray:none;stroke-dashoffset:0;stroke-opacity:1;color-rendering:auto;image-rendering:auto;shape-rendering:auto;text-rendering:auto;enable-background:accumulate;stop-color:#000000;stop-opacity:1"
       d="m 22.490234,42.333984 a 1.322915,1.322915 0 0 0 -1.324218,1.322266 1.322915,1.322915 0 0 0 1.324218,1.322266 H 43.65625 A 1.322915,1.322915 0 0 0 44.978516,43.65625 1.322915,1.322915 0 0 0 43.65625,42.333984 Z"
       id="path857" />
    <path
       id="path879"
       style="color:#000000;font-style:normal;font-variant:normal;font-weight:normal;font-stretch:normal;font-size:medium;line-height:normal;font-family:sans-serif;font-variant-ligatures:normal;font-variant-position:normal;font-variant-caps:normal;font-variant-numeric:normal;font-variant-alternates:normal;font-variant-east-asian:normal;font-feature-settings:normal;font-variation-settings:normal;text-indent:0;text-align:start;text-decoration:none;text-decoration-line:none;text-decoration-style:solid;text-decoration-color:#000000;letter-spacing:normal;word-spacing:normal;text-transform:none;writing-mode:lr-tb;direction:ltr;text-orientation:mixed;dominant-baseline:auto;baseline-shift:baseline;text-anchor:start;white-space:normal;shape-padding:0;shape-margin:0;inline-size:0;clip-rule:nonzero;display:inline;overflow:visible;visibility:visible;opacity:1;isolation:auto;mix-blend-mode:normal;color-interpolation:sRGB;color-interpolation-filters:linearRGB;solid-color:#000000;solid-opacity:1;vector-effect:none;fill:#808080;fill-opacity:1;fill-rule:nonzero;stroke:none;stroke-width:1.10599;stroke-linecap:butt;stroke-linejoin:round;stroke-miterlimit:4;stroke-dasharray:none;stroke-dashoffset:6.00002;stroke-opacity:1;paint-order:markers fill stroke;color-rendering:auto;image-rendering:auto;shape-rendering:auto;text-rendering:auto;enable-background:accumulate;stop-color:#000000;stop-opacity:1"
       d="m 33.857953,10.101741 c -0.08431,0 -0.168145,0.0026 -0.251775,0.0065 -6.607504,0.133155 -11.941938,5.472868 -12.068712,12.081948 -0.0037,0.07961 -0.0061,0.159576 -0.0061,0.239831 0,0.08026 0.0024,0.1599 0.0061,0.239509 0.12667,6.609146 5.461141,11.947529 12.068712,12.080657 0.08363,0.0038 0.167467,0.0065 0.251775,0.0065 0.08429,0 0.168165,-0.0026 0.251775,-0.0065 6.607573,-0.133128 11.942365,-5.471511 12.069036,-12.080657 0.0037,-0.07961 0.0061,-0.159254 0.0061,-0.239509 0,-0.08025 -0.0024,-0.16022 -0.0061,-0.239831 -0.126775,-6.60908 -5.461531,-11.948793 -12.069036,-12.081948 -0.08361,-0.0038 -0.167485,-0.0065 -0.251775,-0.0065 z m 0,0.691734 c 0.26555,0 0.598962,0.221563 0.95061,0.779855 0.351647,0.558293 0.69033,1.409859 0.973529,2.472878 0.05211,0.195603 0.101663,0.400531 0.150095,0.610069 -0.674824,-0.07252 -1.367111,-0.11233 -2.074234,-0.11233 -0.706663,0 -1.398295,0.03958 -2.072619,0.112007 0.04843,-0.209417 0.09801,-0.414249 0.150095,-0.609746 0.283198,-1.063019 0.62059,-1.914585 0.972237,-2.472878 0.351648,-0.558292 0.684737,-0.779855 0.950287,-0.779855 z m -1.397671,0.208521 c -0.0466,0.06539 -0.09248,0.132243 -0.136862,0.202711 -0.412136,0.654327 -0.762035,1.55807 -1.056484,2.663322 -0.07485,0.280968 -0.145915,0.575166 -0.213041,0.881211 -1.126443,0.166365 -2.193719,0.430795 -3.179459,0.780178 0.233126,-0.492652 0.488888,-0.956617 0.766944,-1.384437 1.041166,-1.601953 2.361186,-2.707303 3.818902,-3.142985 z m 2.795342,0 c 1.457835,0.43562 2.777988,1.540923 3.819227,3.142985 0.277938,0.427641 0.533572,0.891371 0.76662,1.383791 -0.985642,-0.34918 -2.05293,-0.61324 -3.179137,-0.779532 -0.06712,-0.306046 -0.138187,-0.600242 -0.21304,-0.881211 -0.29445,-1.105252 -0.644349,-2.008995 -1.056484,-2.663322 -0.04439,-0.07048 -0.09058,-0.137314 -0.137186,-0.202711 z m -4.987393,0.357649 c -0.828968,0.616616 -1.574067,1.436918 -2.206256,2.409611 -0.416869,0.641402 -0.785031,1.352056 -1.100706,2.11652 -0.629118,0.27128 -1.218289,0.578442 -1.758871,0.918654 -1.008011,0.634385 -1.851327,1.387839 -2.475782,2.227559 1.105668,-3.63131 3.937393,-6.505741 7.541615,-7.672344 z m 7.179122,0 c 3.603953,1.166329 6.435882,4.039982 7.541939,7.67073 C 44.365216,18.191251 43.522543,17.438443 42.515122,16.80443 41.974194,16.464 41.38432,16.15686 40.754638,15.885453 40.438999,15.121139 40.071052,14.410549 39.654255,13.769256 39.022013,12.796481 38.276406,11.976279 37.447353,11.359645 Z m -3.5894,3.874745 c 0.762099,0 1.506258,0.0474 2.227236,0.134602 0.228961,1.161385 0.400377,2.496788 0.50484,3.938658 -0.879407,-0.0485 -1.79108,-0.0765 -2.732076,-0.0765 -0.940996,-1e-6 -1.852346,0.028 -2.731753,0.0765 0.104721,-1.441875 0.276666,-2.77727 0.505808,-3.938658 0.720682,-0.08713 1.464181,-0.134602 2.225945,-0.134602 z m -2.949635,0.235635 c -0.218675,1.162623 -0.380487,2.473832 -0.479016,3.880233 -1.394472,0.09827 -2.679661,0.256422 -3.819871,0.46094 0.180319,-1.216601 0.481808,-2.360089 0.884115,-3.396051 1.034693,-0.42066 2.183644,-0.744651 3.414772,-0.945122 z m 5.899593,0 c 1.231057,0.200482 2.380137,0.524474 3.414773,0.945122 0.402307,1.035962 0.703796,2.17945 0.884116,3.396051 -1.140297,-0.204534 -2.425601,-0.362673 -3.820195,-0.46094 -0.09853,-1.406387 -0.26002,-2.71762 -0.478694,-3.880233 z m -10.192025,1.338924 c -0.330202,0.97868 -0.577934,2.030948 -0.726273,3.138143 -0.199507,0.04173 -0.395521,0.08466 -0.5836,0.129438 -1.103391,0.262712 -2.004004,0.574203 -2.657189,0.941895 -0.08446,0.04755 -0.165507,0.09665 -0.243059,0.147191 0.416084,-1.439761 1.529793,-2.747396 3.163643,-3.775649 0.328319,-0.206625 0.679329,-0.399587 1.046478,-0.581018 z m 14.484458,0 c 0.367102,0.181413 0.717876,0.374417 1.046154,0.581018 1.633852,1.028253 2.74756,2.335888 3.163644,3.775649 -0.07755,-0.05054 -0.158274,-0.09964 -0.242736,-0.147191 -0.653185,-0.367692 -1.553798,-0.679183 -2.657189,-0.941895 -0.188079,-0.04478 -0.384093,-0.08771 -0.5836,-0.129438 -0.148339,-1.107195 -0.396072,-2.159464 -0.726273,-3.138143 z m -7.242391,3.112642 c 0.959015,0 1.886686,0.03014 2.779526,0.08134 0.04333,0.78347 0.06682,1.595034 0.06682,2.427042 0,0.831656 -0.0232,1.642705 -0.0665,2.42575 -0.892938,0.05107 -1.820718,0.08134 -2.779849,0.08134 -0.959092,0 -1.886621,-0.03028 -2.779526,-0.08134 -0.04341,-0.783045 -0.06649,-1.594094 -0.06649,-2.42575 0,-0.832008 0.02337,-1.643573 0.06682,-2.427042 0.892808,-0.0512 1.820227,-0.08134 2.779204,-0.08134 z m -3.474811,0.123951 c -0.04105,0.77125 -0.06294,1.568098 -0.06294,2.384434 0,0.816107 0.02191,1.612204 0.06294,2.383143 -1.425523,-0.103628 -2.730023,-0.270006 -3.865706,-0.482892 -0.06554,-0.618495 -0.101355,-1.25273 -0.101355,-1.900251 0,-0.647501 0.03582,-1.282021 0.101355,-1.900575 1.135686,-0.213038 2.440177,-0.379961 3.865706,-0.483859 z m 6.949622,0 c 1.425537,0.103898 2.730339,0.27082 3.86603,0.483859 0.06553,0.618554 0.101033,1.253074 0.101033,1.900575 0,0.647521 -0.0355,1.281756 -0.101033,1.900251 -1.135688,0.212886 -2.440498,0.379264 -3.86603,0.482892 0.04103,-0.770939 0.06327,-1.567036 0.06327,-2.383143 0,-0.816336 -0.02221,-1.613184 -0.06327,-2.384434 z m -11.524493,0.625563 c -0.05376,0.574732 -0.08263,1.16161 -0.08263,1.758871 0,0.59726 0.02887,1.183816 0.08263,1.758548 -0.116019,-0.02548 -0.231018,-0.05093 -0.342478,-0.07747 -1.06488,-0.253543 -1.918285,-0.55758 -2.477719,-0.872496 -0.559434,-0.314917 -0.766298,-0.610706 -0.766298,-0.808583 0,-0.197878 0.206864,-0.495281 0.766298,-0.810197 0.559434,-0.314917 1.412839,-0.617662 2.477719,-0.871205 0.11146,-0.02654 0.226459,-0.05198 0.342478,-0.07747 z m 16.099365,0 c 0.116037,0.0255 0.231324,0.05093 0.342801,0.07747 1.06488,0.253543 1.919577,0.556288 2.47901,0.871205 0.559435,0.314916 0.764684,0.612319 0.764684,0.810197 0,0.197877 -0.205249,0.493666 -0.764684,0.808583 -0.559433,0.314916 -1.41413,0.618953 -2.47901,0.872496 -0.111477,0.02654 -0.226764,0.05198 -0.342801,0.07747 0.05376,-0.574732 0.08296,-1.161288 0.08296,-1.758548 0,-0.597261 -0.0292,-1.184139 -0.08296,-1.758871 z m -19.501871,3.023231 c 0.07755,0.05054 0.158596,0.09932 0.243059,0.146868 0.653185,0.367691 1.553798,0.679183 2.657189,0.941896 0.188079,0.04478 0.384093,0.08773 0.5836,0.129437 0.148329,1.107265 0.39606,2.159405 0.726273,3.138143 -0.367149,-0.181381 -0.718159,-0.374393 -1.046478,-0.581019 -1.633738,-1.028181 -2.74749,-2.335682 -3.163643,-3.775325 z m 22.904377,0 c -0.416151,1.439643 -1.529907,2.747144 -3.163644,3.775325 -0.328278,0.206601 -0.679052,0.399656 -1.046154,0.581019 0.330213,-0.978738 0.577944,-2.030878 0.726273,-3.138143 0.199507,-0.04171 0.395521,-0.08466 0.5836,-0.129437 1.103391,-0.262713 2.004004,-0.574205 2.657189,-0.941896 0.08446,-0.04755 0.165184,-0.09633 0.242736,-0.146868 z M 26.609431,25.04843 c 1.14021,0.204351 2.425399,0.361962 3.819871,0.459974 0.09853,1.406527 0.260278,2.717871 0.479016,3.880555 -1.230999,-0.200235 -2.37984,-0.524083 -3.414449,-0.944478 -0.402471,-1.035947 -0.704061,-2.179341 -0.884438,-3.396051 z m 14.497369,0 c -0.180378,1.21671 -0.481968,2.360104 -0.884438,3.396051 -1.034642,0.42042 -2.183726,0.744235 -3.414773,0.944478 0.218741,-1.162689 0.380482,-2.474018 0.479016,-3.880555 1.394594,-0.09801 2.679898,-0.255608 3.820195,-0.459974 z m -9.9806,0.502581 c 0.879407,0.04836 1.790757,0.0765 2.731753,0.0765 0.941112,0 1.852892,-0.02813 2.732398,-0.0765 -0.104457,1.441912 -0.27616,2.777245 -0.505162,3.938657 -0.720978,0.0871 -1.465137,0.134279 -2.227236,0.134279 -0.761764,0 -1.505263,-0.04725 -2.225945,-0.134279 -0.229182,-1.16141 -0.401094,-2.496748 -0.505808,-3.938657 z m -8.399907,0.275661 c 0.624481,0.839593 1.467948,1.592759 2.476105,2.227236 0.540469,0.340142 1.129579,0.647307 1.758548,0.918655 0.315785,0.764926 0.683938,1.476067 1.101029,2.11781 0.632514,0.973194 1.378066,1.793472 2.207546,2.409934 -3.605145,-1.166444 -6.43764,-4.041442 -7.543228,-7.673635 z m 22.263321,0.0016 c -1.105986,3.631666 -3.938628,6.506196 -7.543551,7.672344 0.829629,-0.616494 1.575585,-1.436919 2.208192,-2.410256 0.416991,-0.641589 0.785294,-1.352447 1.101029,-2.117166 0.629477,-0.271458 1.219065,-0.578968 1.759838,-0.9193 1.007566,-0.634104 1.85039,-1.386624 2.474492,-2.225622 z m -17.114855,3.501602 c 0.985723,0.349549 2.053049,0.613659 3.17946,0.78018 0.06706,0.305663 0.137942,0.599892 0.212717,0.880564 0.294449,1.105252 0.644348,2.008673 1.056484,2.662999 0.04468,0.07093 0.09091,0.138216 0.137831,0.204003 -1.458098,-0.43582 -2.778477,-1.541649 -3.819871,-3.143954 -0.277934,-0.427632 -0.533577,-0.891464 -0.766621,-1.383792 z m 11.966391,3.31e-4 c -0.233001,0.492196 -0.488434,0.955938 -0.766299,1.383468 -1.041467,1.602415 -2.361979,2.708196 -3.820195,3.143953 0.04692,-0.06579 0.09347,-0.133063 0.138154,-0.204002 0.412135,-0.654327 0.762034,-1.557747 1.056484,-2.663 0.07477,-0.280673 0.145653,-0.5749 0.212718,-0.880564 1.126212,-0.166452 2.193483,-0.430493 3.179138,-0.779855 z m -8.055494,0.873169 c 0.674232,0.07249 1.365738,0.112331 2.072297,0.112331 0.707007,0 1.399192,-0.03975 2.073912,-0.112331 -0.04834,0.20906 -0.09777,0.413901 -0.149773,0.609101 -0.283199,1.063019 -0.621882,1.914585 -0.973529,2.472877 -0.351648,0.558292 -0.68506,0.780824 -0.95061,0.780824 -0.26555,-2e-6 -0.598639,-0.222532 -0.950287,-0.780824 -0.351647,-0.558292 -0.689039,-1.409858 -0.972237,-2.472877 -0.052,-0.19519 -0.101416,-0.400052 -0.149773,-0.609101 z" />
  </g>
</svg>
