<?xml version="1.0" encoding="UTF-8" standalone="no"?>
<svg
   xmlns:dc="http://purl.org/dc/elements/1.1/"
   xmlns:cc="http://creativecommons.org/ns#"
   xmlns:rdf="http://www.w3.org/1999/02/22-rdf-syntax-ns#"
   xmlns:svg="http://www.w3.org/2000/svg"
   xmlns="http://www.w3.org/2000/svg"
   xmlns:sodipodi="http://sodipodi.sourceforge.net/DTD/sodipodi-0.dtd"
   xmlns:inkscape="http://www.inkscape.org/namespaces/inkscape"
   width="256"
   height="256"
   viewBox="0 0 67.733332 67.733335"
   version="1.1"
   id="svg8"
   inkscape:version="1.0.1 (3bc2e813f5, 2020-09-07)"
   sodipodi:docname="monitor-headset.svg"
   inkscape:export-filename="C:\Users\keath\Workspace\KMX\elite-streamdeck-icons\ship-lights.png"
   inkscape:export-xdpi="96"
   inkscape:export-ydpi="96">
  <defs
     id="defs2" />
  <sodipodi:namedview
     id="base"
     pagecolor="#000000"
     bordercolor="#666666"
     borderopacity="1.0"
     inkscape:pageopacity="0"
     inkscape:pageshadow="2"
     inkscape:zoom="7.9195959"
     inkscape:cx="159.97127"
     inkscape:cy="58.363454"
     inkscape:document-units="px"
     inkscape:current-layer="layer2"
     showgrid="true"
     units="px"
     inkscape:snap-grids="true"
     objecttolerance="10000"
     guidetolerance="10000"
     inkscape:window-width="3840"
     inkscape:window-height="2066"
     inkscape:window-x="3829"
     inkscape:window-y="-11"
     inkscape:window-maximized="1"
     inkscape:document-rotation="0"
     showguides="true"
     inkscape:guide-bbox="true">
    <inkscape:grid
       type="xygrid"
       id="grid4623" />
    <sodipodi:guide
       position="-3.96875,62.441667"
       orientation="0,256"
       id="guide3351" />
    <sodipodi:guide
       position="62.441667,42.597917"
       orientation="-1,0"
       id="guide3353"
       inkscape:label=""
       inkscape:locked="false"
       inkscape:color="rgb(0,0,255)" />
    <sodipodi:guide
       position="-2.6458333,22.754167"
       orientation="0,-256"
       id="guide3355" />
    <sodipodi:guide
       position="5.2916667,70.379167"
       orientation="-256,0"
       id="guide3357" />
    <sodipodi:guide
       position="0,67.733334"
       orientation="0,256"
       id="guide3359" />
    <sodipodi:guide
       position="67.733334,67.733334"
       orientation="256,0"
       id="guide3361" />
    <sodipodi:guide
       position="67.733334,0"
       orientation="0,-256"
       id="guide3363" />
    <sodipodi:guide
       position="0,0"
       orientation="-256,0"
       id="guide3365" />
    <sodipodi:guide
       position="0,67.733334"
       orientation="0,256"
       id="guide3367" />
    <sodipodi:guide
       position="67.733334,67.733334"
       orientation="256,0"
       id="guide3369" />
    <sodipodi:guide
       position="67.733334,0"
       orientation="0,-256"
       id="guide3371" />
    <sodipodi:guide
       position="0,0"
       orientation="-256,0"
       id="guide3373" />
    <sodipodi:guide
       position="0,67.733334"
       orientation="0,256"
       id="guide3375" />
    <sodipodi:guide
       position="67.733334,67.733334"
       orientation="256,0"
       id="guide3377" />
    <sodipodi:guide
       position="67.733334,0"
       orientation="0,-256"
       id="guide3379" />
    <sodipodi:guide
       position="0,0"
       orientation="-256,0"
       id="guide3381" />
    <sodipodi:guide
       position="33.866667,46.83125"
       orientation="1,0"
       id="guide895" />
    <sodipodi:guide
       position="41.010417,42.597917"
       orientation="0,-1"
       id="guide897" />
  </sodipodi:namedview>
  <metadata
     id="metadata5">
    <rdf:RDF>
      <cc:Work
         rdf:about="">
        <dc:format>image/svg+xml</dc:format>
        <dc:type
           rdf:resource="http://purl.org/dc/dcmitype/StillImage" />
        <dc:title></dc:title>
      </cc:Work>
    </rdf:RDF>
  </metadata>
  <g
     inkscape:groupmode="layer"
     id="layer2"
     inkscape:label="Icon">
    <path
       id="path876"
       style="color:#000000;font-style:normal;font-variant:normal;font-weight:normal;font-stretch:normal;font-size:medium;line-height:normal;font-family:sans-serif;font-variant-ligatures:normal;font-variant-position:normal;font-variant-caps:normal;font-variant-numeric:normal;font-variant-alternates:normal;font-variant-east-asian:normal;font-feature-settings:normal;font-variation-settings:normal;text-indent:0;text-align:start;text-decoration:none;text-decoration-line:none;text-decoration-style:solid;text-decoration-color:#000000;letter-spacing:normal;word-spacing:normal;text-transform:none;writing-mode:lr-tb;direction:ltr;text-orientation:mixed;dominant-baseline:auto;baseline-shift:baseline;text-anchor:start;white-space:normal;shape-padding:0;shape-margin:0;inline-size:0;clip-rule:nonzero;display:inline;overflow:visible;visibility:visible;isolation:auto;mix-blend-mode:normal;color-interpolation:sRGB;color-interpolation-filters:linearRGB;solid-color:#000000;solid-opacity:1;vector-effect:none;fill:#808080;fill-opacity:1;fill-rule:nonzero;stroke:none;stroke-width:9.99999;stroke-linecap:round;stroke-linejoin:round;stroke-miterlimit:4;stroke-dasharray:none;stroke-dashoffset:0;stroke-opacity:1;paint-order:markers stroke fill;color-rendering:auto;image-rendering:auto;shape-rendering:auto;text-rendering:auto;enable-background:accumulate;stop-color:#000000"
       d="m 25.001953,19.998047 a 5.0004932,5.0004932 0 0 0 -5.003906,5.003906 V 145.00195 A 5.0004932,5.0004932 0 0 0 25.001953,150 H 229.99805 a 5.0004932,5.0004932 0 0 0 5.0039,-4.99805 V 25.001953 a 5.0004932,5.0004932 0 0 0 -5.0039,-5.003906 z M 35,30 h 185 a 4.5127264,4.2353015 0 0 1 4.51562,4.238281 V 135.875 A 4.5127264,4.2353015 0 0 1 220,140.10938 H 35 A 4.5127264,4.2353015 0 0 1 30.484375,135.875 V 34.238281 A 4.5127264,4.2353015 0 0 1 35,30 Z"
       transform="scale(0.26458333)" />
    <path
       style="color:#000000;font-style:normal;font-variant:normal;font-weight:normal;font-stretch:normal;font-size:medium;line-height:normal;font-family:sans-serif;font-variant-ligatures:normal;font-variant-position:normal;font-variant-caps:normal;font-variant-numeric:normal;font-variant-alternates:normal;font-variant-east-asian:normal;font-feature-settings:normal;font-variation-settings:normal;text-indent:0;text-align:start;text-decoration:none;text-decoration-line:none;text-decoration-style:solid;text-decoration-color:#000000;letter-spacing:normal;word-spacing:normal;text-transform:none;writing-mode:lr-tb;direction:ltr;text-orientation:mixed;dominant-baseline:auto;baseline-shift:baseline;text-anchor:start;white-space:normal;shape-padding:0;shape-margin:0;inline-size:0;clip-rule:nonzero;display:inline;overflow:visible;visibility:visible;opacity:1;isolation:auto;mix-blend-mode:normal;color-interpolation:sRGB;color-interpolation-filters:linearRGB;solid-color:#000000;solid-opacity:1;vector-effect:none;fill:#808080;fill-opacity:1;fill-rule:nonzero;stroke:none;stroke-width:2.64583;stroke-linecap:round;stroke-linejoin:miter;stroke-miterlimit:4;stroke-dasharray:none;stroke-dashoffset:0;stroke-opacity:1;color-rendering:auto;image-rendering:auto;shape-rendering:auto;text-rendering:auto;enable-background:accumulate;stop-color:#000000;stop-opacity:1"
       d="m 22.490234,42.333984 a 1.322915,1.322915 0 0 0 -1.324218,1.322266 1.322915,1.322915 0 0 0 1.324218,1.322266 H 43.65625 A 1.322915,1.322915 0 0 0 44.978516,43.65625 1.322915,1.322915 0 0 0 43.65625,42.333984 Z"
       id="path857" />
    <path
       id="path913"
       style="color:#000000;font-style:normal;font-variant:normal;font-weight:normal;font-stretch:normal;font-size:medium;line-height:normal;font-family:sans-serif;font-variant-ligatures:normal;font-variant-position:normal;font-variant-caps:normal;font-variant-numeric:normal;font-variant-alternates:normal;font-variant-east-asian:normal;font-feature-settings:normal;font-variation-settings:normal;text-indent:0;text-align:start;text-decoration:none;text-decoration-line:none;text-decoration-style:solid;text-decoration-color:#000000;letter-spacing:normal;word-spacing:normal;text-transform:none;writing-mode:lr-tb;direction:ltr;text-orientation:mixed;dominant-baseline:auto;baseline-shift:baseline;text-anchor:start;white-space:normal;shape-padding:0;shape-margin:0;inline-size:0;clip-rule:nonzero;display:inline;overflow:visible;visibility:visible;opacity:1;isolation:auto;mix-blend-mode:normal;color-interpolation:sRGB;color-interpolation-filters:linearRGB;solid-color:#000000;solid-opacity:1;vector-effect:none;fill:#808080;fill-opacity:1;fill-rule:nonzero;stroke:none;stroke-width:7.99998;stroke-linecap:round;stroke-linejoin:round;stroke-miterlimit:4;stroke-dasharray:none;stroke-dashoffset:0;stroke-opacity:1;paint-order:markers stroke fill;color-rendering:auto;image-rendering:auto;shape-rendering:auto;text-rendering:auto;enable-background:accumulate;stop-color:#000000;stop-opacity:1"
       d="m 33.911228,9.6542487 c -5.643456,-0.010992 -10.425695,4.1780023 -11.16261,9.7682143 -0.667071,0.2767 -1.254068,0.720567 -1.689161,1.304 a 0.4477247,0.47301491 0 0 0 -0.09602,0.29268 v 3.766928 a 0.4477247,0.47301491 0 0 0 0.09602,0.292679 c 0.773046,1.036578 2.02513,1.632929 3.353841,1.632947 a 0.4477247,0.47301491 0 0 0 0.447723,-0.472929 v -3.336162 -3.33607 a 0.4477247,0.47301491 0 0 0 -0.446816,-0.47302 c -0.0059,-10e-6 -0.01181,-10e-6 -0.01769,0 a 0.4477247,0.47301491 0 0 0 -8.61e-4,0 h -9.3e-5 c -0.05848,2.46e-4 -0.116761,0.0021 -0.174901,0.0047 0.857782,-4.644439 4.911369,-8.04955 9.687704,-8.040246 4.76284,0.0093 8.793851,3.410591 9.64917,8.038251 -0.0427,-0.0015 -0.08552,-0.0024 -0.128391,-0.0026 h -1.02e-4 a 0.43705106,0.47301496 0 0 0 -3.5e-4,0 c -0.0057,-1.3e-5 -0.0115,-1.3e-5 -0.01722,0 a 0.43705106,0.47301496 0 0 0 -0.436118,0.47302 v 3.336069 3.336162 a 0.43705106,0.47301496 0 0 0 0.436935,0.472928 c 0.133325,-2e-6 0.26581,-0.0065 0.397124,-0.01904 -0.107102,3.220065 -2.020228,5.988922 -4.705441,6.875968 H 37.45237 a 2.3811247,1.4874366 0 0 0 -2.290661,-1.081411 2.3811247,1.4874366 0 0 0 -2.381145,1.487426 2.3811247,1.4874366 0 0 0 2.381145,1.487424 2.3811247,1.4874366 0 0 0 2.258475,-1.01622 h 1.746554 a 0.43863762,0.43863762 0 0 0 0.01805,0 h 0.0083 v -3.51e-4 a 0.43863762,0.43863762 0 0 0 0.114786,-0.02022 c 3.179394,-1.011351 5.342453,-4.247378 5.382831,-7.913491 0.793834,-0.255432 1.496902,-0.748044 1.995628,-1.433112 a 0.43705106,0.47301496 0 0 0 0.09375,-0.292655 v -3.766952 a 0.43705106,0.47301496 0 0 0 -0.09377,-0.29268 C 46.259763,20.14071 45.683822,19.695743 45.029461,19.419278 44.29381,13.849566 39.539177,9.6651994 33.911457,9.6542366 Z m -8.16963,10.3371623 a 0.35091011,0.35091011 0 0 0 -0.35098,0.350889 v 5.26369 a 0.35091011,0.35091011 0 0 0 0.35098,0.350889 0.35091011,0.35091011 0 0 0 0.350889,-0.350889 V 20.3423 a 0.35091011,0.35091011 0 0 0 -0.350889,-0.350889 z m 16.366641,0 A 0.35091011,0.35091011 0 0 0 41.757354,20.3423 v 5.26369 a 0.35091011,0.35091011 0 0 0 0.350885,0.350889 0.35091011,0.35091011 0 0 0 0.350889,-0.350889 V 20.3423 a 0.35091011,0.35091011 0 0 0 -0.350889,-0.350889 z" />
  </g>
</svg>
