<?xml version="1.0" encoding="UTF-8" standalone="no"?>
<svg
   xmlns:dc="http://purl.org/dc/elements/1.1/"
   xmlns:cc="http://creativecommons.org/ns#"
   xmlns:rdf="http://www.w3.org/1999/02/22-rdf-syntax-ns#"
   xmlns:svg="http://www.w3.org/2000/svg"
   xmlns="http://www.w3.org/2000/svg"
   xmlns:sodipodi="http://sodipodi.sourceforge.net/DTD/sodipodi-0.dtd"
   xmlns:inkscape="http://www.inkscape.org/namespaces/inkscape"
   width="256"
   height="256"
   viewBox="0 0 67.733332 67.733335"
   version="1.1"
   id="svg8"
   inkscape:version="1.0.1 (3bc2e813f5, 2020-09-07)"
   sodipodi:docname="monitor-linux.svg"
   inkscape:export-filename="C:\Users\keath\Workspace\KMX\elite-streamdeck-icons\ship-lights.png"
   inkscape:export-xdpi="96"
   inkscape:export-ydpi="96">
  <defs
     id="defs2" />
  <sodipodi:namedview
     id="base"
     pagecolor="#000000"
     bordercolor="#666666"
     borderopacity="1.0"
     inkscape:pageopacity="0"
     inkscape:pageshadow="2"
     inkscape:zoom="7.9195959"
     inkscape:cx="159.97127"
     inkscape:cy="53.312691"
     inkscape:document-units="px"
     inkscape:current-layer="layer2"
     showgrid="true"
     units="px"
     inkscape:snap-grids="true"
     objecttolerance="10000"
     guidetolerance="10000"
     inkscape:window-width="3840"
     inkscape:window-height="2066"
     inkscape:window-x="3829"
     inkscape:window-y="-11"
     inkscape:window-maximized="1"
     inkscape:document-rotation="0"
     showguides="true"
     inkscape:guide-bbox="true">
    <inkscape:grid
       type="xygrid"
       id="grid4623" />
    <sodipodi:guide
       position="-3.96875,62.441667"
       orientation="0,256"
       id="guide3351" />
    <sodipodi:guide
       position="62.441667,42.597917"
       orientation="-1,0"
       id="guide3353"
       inkscape:label=""
       inkscape:locked="false"
       inkscape:color="rgb(0,0,255)" />
    <sodipodi:guide
       position="-2.6458333,22.754167"
       orientation="0,-256"
       id="guide3355" />
    <sodipodi:guide
       position="5.2916667,70.379167"
       orientation="-256,0"
       id="guide3357" />
    <sodipodi:guide
       position="0,67.733334"
       orientation="0,256"
       id="guide3359" />
    <sodipodi:guide
       position="67.733334,67.733334"
       orientation="256,0"
       id="guide3361" />
    <sodipodi:guide
       position="67.733334,0"
       orientation="0,-256"
       id="guide3363" />
    <sodipodi:guide
       position="0,0"
       orientation="-256,0"
       id="guide3365" />
    <sodipodi:guide
       position="0,67.733334"
       orientation="0,256"
       id="guide3367" />
    <sodipodi:guide
       position="67.733334,67.733334"
       orientation="256,0"
       id="guide3369" />
    <sodipodi:guide
       position="67.733334,0"
       orientation="0,-256"
       id="guide3371" />
    <sodipodi:guide
       position="0,0"
       orientation="-256,0"
       id="guide3373" />
    <sodipodi:guide
       position="0,67.733334"
       orientation="0,256"
       id="guide3375" />
    <sodipodi:guide
       position="67.733334,67.733334"
       orientation="256,0"
       id="guide3377" />
    <sodipodi:guide
       position="67.733334,0"
       orientation="0,-256"
       id="guide3379" />
    <sodipodi:guide
       position="0,0"
       orientation="-256,0"
       id="guide3381" />
    <sodipodi:guide
       position="33.866667,46.83125"
       orientation="1,0"
       id="guide895" />
    <sodipodi:guide
       position="41.010417,42.597917"
       orientation="0,-1"
       id="guide897" />
  </sodipodi:namedview>
  <metadata
     id="metadata5">
    <rdf:RDF>
      <cc:Work
         rdf:about="">
        <dc:format>image/svg+xml</dc:format>
        <dc:type
           rdf:resource="http://purl.org/dc/dcmitype/StillImage" />
        <dc:title></dc:title>
      </cc:Work>
    </rdf:RDF>
  </metadata>
  <g
     inkscape:groupmode="layer"
     id="layer2"
     inkscape:label="Icon">
    <path
       id="path876"
       style="color:#000000;font-style:normal;font-variant:normal;font-weight:normal;font-stretch:normal;font-size:medium;line-height:normal;font-family:sans-serif;font-variant-ligatures:normal;font-variant-position:normal;font-variant-caps:normal;font-variant-numeric:normal;font-variant-alternates:normal;font-variant-east-asian:normal;font-feature-settings:normal;font-variation-settings:normal;text-indent:0;text-align:start;text-decoration:none;text-decoration-line:none;text-decoration-style:solid;text-decoration-color:#000000;letter-spacing:normal;word-spacing:normal;text-transform:none;writing-mode:lr-tb;direction:ltr;text-orientation:mixed;dominant-baseline:auto;baseline-shift:baseline;text-anchor:start;white-space:normal;shape-padding:0;shape-margin:0;inline-size:0;clip-rule:nonzero;display:inline;overflow:visible;visibility:visible;isolation:auto;mix-blend-mode:normal;color-interpolation:sRGB;color-interpolation-filters:linearRGB;solid-color:#000000;solid-opacity:1;vector-effect:none;fill:#808080;fill-opacity:1;fill-rule:nonzero;stroke:none;stroke-width:9.99999;stroke-linecap:round;stroke-linejoin:round;stroke-miterlimit:4;stroke-dasharray:none;stroke-dashoffset:0;stroke-opacity:1;paint-order:markers stroke fill;color-rendering:auto;image-rendering:auto;shape-rendering:auto;text-rendering:auto;enable-background:accumulate;stop-color:#000000"
       d="m 25.001953,19.998047 a 5.0004932,5.0004932 0 0 0 -5.003906,5.003906 V 145.00195 A 5.0004932,5.0004932 0 0 0 25.001953,150 H 229.99805 a 5.0004932,5.0004932 0 0 0 5.0039,-4.99805 V 25.001953 a 5.0004932,5.0004932 0 0 0 -5.0039,-5.003906 z M 35,30 h 185 a 4.5127264,4.2353015 0 0 1 4.51562,4.238281 V 135.875 A 4.5127264,4.2353015 0 0 1 220,140.10938 H 35 A 4.5127264,4.2353015 0 0 1 30.484375,135.875 V 34.238281 A 4.5127264,4.2353015 0 0 1 35,30 Z"
       transform="scale(0.26458333)" />
    <path
       style="color:#000000;font-style:normal;font-variant:normal;font-weight:normal;font-stretch:normal;font-size:medium;line-height:normal;font-family:sans-serif;font-variant-ligatures:normal;font-variant-position:normal;font-variant-caps:normal;font-variant-numeric:normal;font-variant-alternates:normal;font-variant-east-asian:normal;font-feature-settings:normal;font-variation-settings:normal;text-indent:0;text-align:start;text-decoration:none;text-decoration-line:none;text-decoration-style:solid;text-decoration-color:#000000;letter-spacing:normal;word-spacing:normal;text-transform:none;writing-mode:lr-tb;direction:ltr;text-orientation:mixed;dominant-baseline:auto;baseline-shift:baseline;text-anchor:start;white-space:normal;shape-padding:0;shape-margin:0;inline-size:0;clip-rule:nonzero;display:inline;overflow:visible;visibility:visible;opacity:1;isolation:auto;mix-blend-mode:normal;color-interpolation:sRGB;color-interpolation-filters:linearRGB;solid-color:#000000;solid-opacity:1;vector-effect:none;fill:#808080;fill-opacity:1;fill-rule:nonzero;stroke:none;stroke-width:2.64583;stroke-linecap:round;stroke-linejoin:miter;stroke-miterlimit:4;stroke-dasharray:none;stroke-dashoffset:0;stroke-opacity:1;color-rendering:auto;image-rendering:auto;shape-rendering:auto;text-rendering:auto;enable-background:accumulate;stop-color:#000000;stop-opacity:1"
       d="m 22.490234,42.333984 a 1.322915,1.322915 0 0 0 -1.324218,1.322266 1.322915,1.322915 0 0 0 1.324218,1.322266 H 43.65625 A 1.322915,1.322915 0 0 0 44.978516,43.65625 1.322915,1.322915 0 0 0 43.65625,42.333984 Z"
       id="path857" />
    <path
       id="path914"
       style="color:#000000;font-style:normal;font-variant:normal;font-weight:normal;font-stretch:normal;font-size:medium;line-height:normal;font-family:sans-serif;font-variant-ligatures:normal;font-variant-position:normal;font-variant-caps:normal;font-variant-numeric:normal;font-variant-alternates:normal;font-variant-east-asian:normal;font-feature-settings:normal;font-variation-settings:normal;text-indent:0;text-align:start;text-decoration:none;text-decoration-line:none;text-decoration-style:solid;text-decoration-color:#000000;letter-spacing:normal;word-spacing:normal;text-transform:none;writing-mode:lr-tb;direction:ltr;text-orientation:mixed;dominant-baseline:auto;baseline-shift:baseline;text-anchor:start;white-space:normal;shape-padding:0;shape-margin:0;inline-size:0;clip-rule:nonzero;display:inline;overflow:visible;visibility:visible;isolation:auto;mix-blend-mode:normal;color-interpolation:sRGB;color-interpolation-filters:linearRGB;solid-color:#000000;solid-opacity:1;vector-effect:none;fill:#808080;fill-opacity:1;fill-rule:nonzero;stroke:none;stroke-width:2.11666;stroke-linecap:butt;stroke-linejoin:miter;stroke-miterlimit:4;stroke-dasharray:none;stroke-dashoffset:0;stroke-opacity:1;color-rendering:auto;image-rendering:auto;shape-rendering:auto;text-rendering:auto;enable-background:accumulate;stop-color:#000000"
       d="m 34.341623,9.9975717 c -0.164455,-3.247e-4 -0.335859,0.00647 -0.513853,0.020698 -1.127596,0.09077 -1.915561,0.460916 -2.450395,0.995319 -0.534837,0.534404 -0.813031,1.22602 -0.949909,1.945894 -0.273687,1.439366 0.0056,3.020342 -0.02571,3.769584 -0.08029,1.132232 -0.303248,2.002104 -1.078789,3.104816 -0.930155,1.106965 -2.237516,2.890925 -2.86208,4.767573 -0.288086,0.865706 -0.426677,1.7526 -0.311182,2.602315 -0.0268,0.02568 -0.05425,0.05152 -0.07913,0.07779 l -3.41e-4,3.41e-4 h -3.43e-4 c -0.283545,0.303081 -0.486641,0.656142 -0.69415,0.87612 -0.180245,0.179392 -0.457658,0.25834 -0.789977,0.377293 -0.318267,0.114263 -0.686258,0.299008 -0.925534,0.702497 h -0.01101 l -0.0247,0.04741 -0.008,0.0157 -3.42e-4,7.11e-4 c -2.91e-4,5.13e-4 -4.1e-4,0.001 -6.46e-4,0.0016 l -0.0016,0.0034 c -10e-7,0 6.32e-4,-7.1e-4 6.46e-4,-7.1e-4 -9.7e-4,0.0019 -9.7e-4,0.0039 -0.002,0.0057 3.76e-4,-0.0013 0.0013,-0.005 0.0013,-0.005 l -0.01031,0.01936 v 0.01064 c -0.100298,0.203167 -0.137227,0.417857 -0.137227,0.628041 0,0.205342 0.03008,0.407311 0.0591,0.596989 0.06035,0.394281 0.109891,0.760468 0.04441,0.964266 -0.262441,0.719353 -0.307055,1.243743 -0.102503,1.64239 v 3.43e-4 c 0.206355,0.401503 0.625171,0.571407 1.06343,0.663099 0.873961,0.18225 2.007663,0.142616 2.875435,0.602666 l 0.0016,7.11e-4 0.101834,0.05376 0.0037,-0.0073 c 0.955081,0.476261 1.920933,0.653171 2.713833,0.472117 0.574502,-0.130916 1.049103,-0.475249 1.310841,-0.993314 0.626032,-0.01945 1.278451,-0.260416 2.30549,-0.316858 h 0.0016 0.0013 c 0.671507,-0.05417 1.568257,0.238634 2.608993,0.200331 0.02734,0.09076 0.05436,0.181731 0.09883,0.26711 l 0.0043,0.0083 7.11e-4,7.11e-4 c 0.428389,0.849072 1.236358,1.24807 2.082787,1.181291 0.817186,-0.06444 1.665227,-0.535921 2.362919,-1.327535 l 0.0083,0.0067 0.07279,-0.08814 0.0016,-0.002 c 0.632123,-0.766582 1.709888,-1.097214 2.461415,-1.550238 0.377588,-0.227702 0.713336,-0.534455 0.73956,-0.988639 0.02468,-0.433687 -0.221777,-0.891674 -0.729208,-1.468102 l 0.0037,-0.0073 -0.05575,-0.05609 c -0.141967,-0.160331 -0.235619,-0.519919 -0.32652,-0.915512 v -3.41e-4 c -0.09039,-0.394142 -0.193559,-0.84972 -0.550247,-1.156586 l -3.41e-4,-3.41e-4 -0.0031,-0.0026 -7.11e-4,-10e-4 -10e-4,-7.1e-4 c -0.06967,-0.06081 -0.141691,-0.112209 -0.214024,-0.155258 v -3.41e-4 c -0.04032,-0.02389 -0.08164,-0.03963 -0.122534,-0.05876 0.41991,-1.335059 0.240087,-2.661206 -0.210685,-3.852388 -0.565979,-1.497043 -1.548424,-2.791553 -2.29707,-3.676439 -0.834718,-1.05298 -1.623963,-2.020592 -1.608333,-3.452057 0.01237,-1.12259 0.07828,-2.740198 -0.367942,-4.095792 C 37.581716,11.773868 37.22822,11.158856 36.670167,10.713798 36.112155,10.268774 35.353172,9.9990645 34.342306,9.9976079 Z m -7.11e-4,0.2337223 h 3.41e-4 c 0.969903,0.0014 1.66897,0.255791 2.182621,0.665438 0.513648,0.409647 0.845106,0.980004 1.05842,1.628034 0.42663,1.296058 0.368702,2.891292 0.356259,4.019999 -0.01658,1.518812 0.825723,2.548702 1.659085,3.59997 l 10e-4,0.0013 0.0013,0.0016 c 0.741378,0.876043 1.708448,2.154625 2.259078,3.610987 0.448901,1.186246 0.620577,2.487929 0.179967,3.794626 l -0.03605,0.107176 0.105508,0.03973 c 0.06115,0.02305 0.122544,0.05249 0.183303,0.08849 0.05986,0.03564 0.119841,0.07834 0.178295,0.129214 l 7.11e-4,7.11e-4 0.0037,0.0031 c 0.288446,0.245568 0.38796,0.640142 0.47846,1.034715 0.08311,0.361664 0.158655,0.707502 0.332886,0.948574 l -0.006,0.01202 0.05342,0.05977 c 0.531541,0.589994 0.74173,1.012151 0.721863,1.361257 -0.01997,0.345712 -0.2752,0.589691 -0.626705,0.801663 -0.681241,0.410654 -1.738174,0.747612 -2.434704,1.521858 l -0.04941,-0.04107 -7.11e-4,-3.42e-4 -0.149581,0.179631 7.11e-4,7.11e-4 0.0064,0.005 0.02337,0.0197 c -0.663941,0.750393 -1.460856,1.184391 -2.20065,1.242727 -0.766376,0.06046 -1.471168,-0.283874 -1.859416,-1.060427 l -0.0031,-0.0064 -7.11e-4,-7.1e-4 c -0.04902,-0.09461 -0.08525,-0.194668 -0.110516,-0.299496 l -0.02305,-0.09449 -0.09716,0.0054 c -1.024555,0.05694 -1.927873,-0.263871 -2.701479,-0.201669 h -7.11e-4 c -1.09343,0.06054 -1.777545,0.319433 -2.358243,0.322202 l -0.07478,3.42e-4 -0.03071,0.06812 c -0.221603,0.4869 -0.648834,0.801857 -1.188637,0.924867 -0.71946,0.164282 -1.635677,0.0042 -2.551898,-0.451082 l 0.01903,-0.03572 3.42e-4,-7.11e-4 -0.20701,-0.108842 -3.42e-4,3.41e-4 -0.02937,0.05577 c -0.92533,-0.444524 -2.032734,-0.417071 -2.827284,-0.582761 -0.411205,-0.08604 -0.743815,-0.230376 -0.903498,-0.540898 v -3.42e-4 c -0.15977,-0.311559 -0.138581,-0.764834 0.115525,-1.459754 l 0.001,-0.002 6.47e-4,-0.0023 c 0.09647,-0.300251 0.02404,-0.678416 -0.03607,-1.071111 -0.02886,-0.188548 -0.05642,-0.3793 -0.05642,-0.561597 0,-0.193319 0.03026,-0.375422 0.117193,-0.542567 0.01152,-0.01482 0.01097,-0.01889 0.0073,-0.01402 -2.38e-4,3.41e-4 -4.1e-4,1.53e-4 -6.46e-4,7.11e-4 l -0.0034,0.002 c 0.0014,-0.0018 0.0042,-0.0054 0.0046,-0.006 l -6.47e-4,0.0034 c -3.41e-4,5.13e-4 0.0011,-0.002 6.47e-4,-0.0013 0.199898,-0.382433 0.521248,-0.537267 0.839391,-0.6515 0.321993,-0.115256 0.639634,-0.195196 0.877455,-0.432718 l 0.001,-0.001 0.001,-0.001 c 0.239185,-0.252943 0.437346,-0.601297 0.696154,-0.878123 0.03488,-0.03684 0.07069,-0.07249 0.107844,-0.105837 l 0.04708,-0.04206 -0.0097,-0.06245 c -0.124058,-0.819858 0.01031,-1.69398 0.297493,-2.556906 0.608574,-1.828707 1.903962,-3.603273 2.824016,-4.697455 l 0.0034,-0.0041 0.0026,-0.0041 c 0.798686,-1.134993 1.040412,-2.069919 1.122192,-3.226669 l 3.43e-4,-0.0016 v -0.0016 c 0.03432,-0.817054 -0.240613,-2.356966 0.02171,-3.736529 0.131159,-0.689781 0.393294,-1.332578 0.885467,-1.824358 0.492176,-0.491775 1.217833,-0.840124 2.303821,-0.927539 0.172153,-0.01381 0.336849,-0.02035 0.494488,-0.02003 z m 0.526206,3.351559 c -0.229458,0.0023 -0.423367,0.07102 -0.620697,0.2207 -0.197006,0.149969 -0.336945,0.334265 -0.450079,0.590646 -0.113135,0.256089 -0.161478,0.508238 -0.158262,0.80233 v 0.02237 c 5.12e-4,0.02651 0.0043,0.05068 0.0057,0.07646 0.170907,0.03113 0.338184,0.08334 0.497157,0.152587 0.04424,0.02801 0.09054,0.05189 0.135893,0.07746 -0.0016,-0.0334 -0.0032,-0.06671 -0.0023,-0.102173 0,-0.0065 1.43e-4,-0.01193 0.001,-0.01836 0.0056,-0.16254 0.03348,-0.299409 0.09048,-0.437392 0.05727,-0.137984 0.126025,-0.237052 0.218697,-0.314522 0.08832,-0.07367 0.173556,-0.107559 0.271783,-0.107844 0.0049,0 0.0098,-2.91e-4 0.01469,0 0.104653,0.0035 0.191719,0.04214 0.279129,0.127211 0.08709,0.08507 0.147632,0.187512 0.194991,0.32988 0.04531,0.135645 0.06566,0.268095 0.06243,0.423035 0,0.0076 -0.002,0.01293 -0.002,0.01936 -0.0053,0.161664 -0.03353,0.297531 -0.09082,0.436391 -0.0117,0.02857 -0.03017,0.05493 -0.05075,0.08014 0.195416,0.07685 0.38853,0.158628 0.575286,0.253754 0.0469,-0.07308 0.09087,-0.150999 0.129548,-0.239731 0.111967,-0.256379 0.162608,-0.507361 0.160266,-0.80233 -0.0021,-0.0076 -0.0021,-0.01409 -0.002,-0.02171 -0.0056,-0.287367 -0.06027,-0.529719 -0.17429,-0.777622 -0.116396,-0.254334 -0.260871,-0.436046 -0.461122,-0.581631 -0.197329,-0.142953 -0.389503,-0.209013 -0.614019,-0.209013 z m -3.066419,0.243737 c -0.01257,0 -0.0252,4.28e-4 -0.03806,0.001 -0.164878,0.0084 -0.301748,0.07624 -0.437391,0.211016 -0.135938,0.134476 -0.229338,0.298267 -0.299497,0.524536 -0.06987,0.22627 -0.09483,0.444826 -0.08079,0.69916 v 0.002 c 0.01519,0.254334 0.06588,0.469975 0.160599,0.685136 0.06375,0.144937 0.135288,0.260806 0.2207,0.357926 0.09894,-0.0863 0.198255,-0.172859 0.298494,-0.258093 -0.04453,-0.0521 -0.08244,-0.114868 -0.116191,-0.194657 -0.04619,-0.108755 -0.07228,-0.216401 -0.08514,-0.345907 0,-0.0053 -0.001,-0.0098 -0.001,-0.01503 -0.01169,-0.133598 -0.0047,-0.24988 0.02337,-0.368277 0.02806,-0.118689 0.06716,-0.208217 0.126209,-0.280131 0.05934,-0.07221 0.121905,-0.109094 0.197328,-0.115525 0.007,-5.82e-4 0.01399,-6.46e-4 0.0207,-6.46e-4 0.06724,-5.82e-4 0.128004,0.02492 0.192319,0.08047 0.07103,0.06139 0.125052,0.141288 0.173287,0.254422 0.04531,0.108755 0.07261,0.216236 0.08548,0.344572 0,0.0053 1.21e-4,0.0098 0.001,0.01503 0.0056,0.05756 0.0058,0.111029 0.0037,0.16327 0.156553,-0.09493 0.320524,-0.174763 0.495487,-0.231717 0.0018,-0.06266 0.0015,-0.12624 -0.0026,-0.192988 v -0.002 c -0.01409,-0.25433 -0.06462,-0.470017 -0.159625,-0.685471 -0.09471,-0.215452 -0.207915,-0.368242 -0.357591,-0.487808 -0.137984,-0.11021 -0.271313,-0.159979 -0.420698,-0.160266 z m 1.452075,1.827365 3.41e-4,3.41e-4 c -0.18154,5.81e-4 -0.343851,0.03252 -0.489143,0.0828 -0.422428,0.145293 -0.702762,0.448346 -0.878457,0.614686 l -3.43e-4,3.42e-4 c 0,2.91e-4 -3.42e-4,3.76e-4 -3.42e-4,6.46e-4 -0.0345,0.03274 -0.07906,0.06263 -0.186643,0.141569 -0.108459,0.07923 -0.270966,0.198551 -0.504836,0.373953 -0.207853,0.155816 -0.275252,0.358652 -0.203339,0.596322 0.07163,0.237672 0.300648,0.511822 0.719861,0.748908 l 7.11e-4,6.46e-4 h 10e-4 c 0.260178,0.152894 0.437678,0.3592 0.64173,0.523201 0.102031,0.08186 0.209346,0.154764 0.338561,0.210015 0.129213,0.05526 0.280261,0.09273 0.469111,0.10384 0.443184,0.02573 0.769467,-0.107241 1.057421,-0.272118 0.288538,-0.164586 0.532634,-0.36584 0.813015,-0.456757 l 7.11e-4,-3.42e-4 7.11e-4,-3.42e-4 c 0.574708,-0.179495 0.984536,-0.541304 1.112845,-0.8848 0.06431,-0.171896 0.06224,-0.334919 -0.01436,-0.485472 -0.07689,-0.150555 -0.233968,-0.293709 -0.501165,-0.403336 l -3.41e-4,-3.41e-4 -0.001,-3.43e-4 c -0.555766,-0.237929 -0.797074,-0.25502 -1.107244,-0.456733 -0.50487,-0.324495 -0.922059,-0.438186 -1.268772,-0.436725 z m -0.306175,0.391983 c 0.04675,-6.46e-4 0.0935,0.0012 0.139232,0.01101 0.368171,0.08088 0.09273,0.582797 -0.190652,0.555254 -0.402438,0.177014 -0.46852,-0.53674 -0.08814,-0.562934 0.04613,3.25e-4 0.09281,-0.0027 0.139564,-0.0034 z m 0.879125,0.0054 c 0.259586,-0.0099 0.628044,0.125693 0.448743,0.442066 -0.218995,0.423812 -0.999861,-0.143659 -0.551247,-0.429045 0.03072,-0.0072 0.06542,-0.01161 0.102503,-0.01302 z m 1.94823,0.928206 c 0.06921,0.01206 0.130145,0.05921 0.186645,0.100835 -0.189668,0.546525 -0.710586,0.874984 -1.207336,1.112845 -0.8776,0.607548 -2.134473,0.592666 -2.957238,-0.10451 -0.276842,-0.202608 -0.75637,-0.632583 -0.36594,-0.957922 0.252928,0.124933 0.443179,0.338584 0.647739,0.5222 0.658841,0.721858 1.786782,0.591385 2.52953,0.07646 0.405767,-0.191992 0.69163,-0.572092 1.094481,-0.748909 0.02508,-0.0053 0.04904,-0.005 0.07212,-0.001 z m 0.480799,1.174281 c -0.05695,0.06151 -0.118346,0.117756 -0.184623,0.165273 -0.72963,0.368568 -1.417666,0.847199 -2.200315,1.104833 -0.878181,0.376156 -1.74059,-0.254911 -2.371601,-0.809677 -0.09204,-0.04194 -0.181596,-0.09634 -0.267109,-0.159264 -0.214858,1.789909 -1.340605,3.919402 -1.896477,5.179256 -0.406058,0.966176 -0.647808,1.998972 -0.676456,3.01166 -1.067327,-1.423131 -0.287659,-3.246099 0.129215,-4.036026 0.465401,-0.864151 0.537881,-1.101712 0.425039,-1.018689 -0.419799,0.684655 -1.077793,1.775771 -1.33388,2.897471 -0.133599,0.584384 -0.157667,1.176309 0.0157,1.72386 0.173064,0.547225 0.542728,1.051105 1.203996,1.462425 v 3.42e-4 c 0.899817,0.551934 1.512152,1.10427 1.873772,1.593642 0.361624,0.489666 0.475109,0.918287 0.36227,1.222026 -0.05672,0.152043 -0.17068,0.270276 -0.333219,0.344238 -0.130677,0.05902 -0.292449,0.09015 -0.482468,0.08981 0.09647,0.121584 0.193762,0.244691 0.288479,0.368611 0.148215,0.194114 0.292278,0.390812 0.417692,0.589311 1.852838,1.264655 4.034771,0.778769 5.606965,-0.342902 0.156108,-0.536763 0.310458,-1.043503 0.333552,-1.418018 v -7.11e-4 c 0.03741,-0.745169 0.07717,-1.407817 0.213688,-1.956244 0.136814,-0.54904 0.38289,-0.996328 0.833383,-1.24306 0.07249,-0.03946 0.144444,-0.07102 0.216358,-0.09616 0.0049,-0.04619 0.01151,-0.09217 0.0197,-0.136893 0.129213,-0.856551 0.893993,-0.898231 1.853741,-0.476124 0.925544,0.418628 1.272836,0.784318 1.115849,1.280122 0.0059,0 0.01145,2.7e-5 0.01702,-3.41e-4 0.06081,-0.0015 0.123541,-0.0018 0.186977,7.11e-4 0.192361,-0.625606 -0.207944,-1.083949 -1.290474,-1.611006 -0.07279,-0.03453 -0.144903,-0.06659 -0.215356,-0.09582 0.144443,-0.587308 0.116042,-1.182295 -0.0187,-1.748232 -0.295289,-1.241256 -1.107192,-2.340825 -1.725193,-2.887789 -0.114306,-0.0046 -0.103193,0.09519 0.126876,0.318527 0.57006,0.524455 1.816317,2.407418 1.141893,4.155893 -0.19265,-0.04938 -0.372806,-0.07311 -0.536223,-0.06812 -0.257873,-1.425147 -0.854681,-2.607969 -1.154915,-3.16458 -0.51038,-0.948559 -1.273636,-2.792487 -1.695142,-4.238361 z m 2.165941,9.034983 c -0.01607,0.0079 -0.03238,0.01628 -0.04874,0.02504 -0.348495,0.190897 -0.544988,0.530018 -0.67011,1.031377 -0.124797,0.501361 -0.166616,1.151131 -0.204006,1.894809 v 0.0016 c -0.03567,0.580292 -0.301756,1.294829 -0.486806,1.990301 -0.18505,0.695735 -0.276631,1.354897 -0.05676,1.772941 l 10e-4,0.002 3.42e-4,0.0013 c 0.354313,0.710674 0.955042,0.999525 1.651071,0.944566 0.696026,-0.05497 1.486439,-0.478594 2.134873,-1.250073 0.746307,-0.904202 1.915392,-1.250194 2.574938,-1.648067 0.330049,-0.19879 0.508498,-0.382005 0.522533,-0.628708 h 3.41e-4 c 0.01432,-0.247026 -0.151725,-0.63356 -0.667441,-1.205667 l -3.42e-4,-7.11e-4 v -2.81e-4 c -0.268436,-0.302042 -0.339902,-0.725383 -0.429386,-1.114514 -0.08946,-0.38881 -0.192763,-0.736312 -0.40968,-0.920193 l -10e-4,-7.11e-4 -7.11e-4,-7.11e-4 c -0.282399,-0.246733 -0.558342,-0.266016 -0.887805,-0.258094 -0.07107,0.0018 -0.144264,0.0057 -0.219366,0.0087 -0.375358,0.431785 -1.264256,0.960895 -1.881118,0.798324 -0.563599,-0.142044 -0.882368,-0.799372 -0.921863,-1.443392 z m -11.330455,0.04841 c -0.297308,0.0021 -0.494443,0.141767 -0.69148,0.352252 -0.233577,0.249364 -0.433424,0.600775 -0.69916,0.881126 l -0.0013,0.0016 -0.002,0.0013 c -0.287367,0.288272 -0.651341,0.374925 -0.958589,0.485137 -0.306954,0.10992 -0.554186,0.226169 -0.722865,0.551247 l -0.001,0.0023 c -0.131845,0.244423 -0.103128,0.595395 -0.04407,0.980959 0.05906,0.385888 0.149622,0.796957 0.02771,1.172612 l -0.001,0.0031 -0.0013,0.0031 c -0.24615,0.671497 -0.243311,1.065163 -0.127545,1.29114 0.115766,0.225686 0.368155,0.347357 0.754918,0.428044 0.773818,0.161663 1.979803,0.108041 2.993631,0.645068 2.91e-4,0 7.11e-4,3.43e-4 0.001,3.43e-4 0.916188,0.479219 1.833694,0.633439 2.510163,0.478793 0.677053,-0.154647 1.117981,-0.580548 1.177619,-1.362259 v -0.002 l 3.41e-4,-0.0016 c 0.0459,-0.458387 -0.30684,-1.057343 -0.762596,-1.653743 -0.455757,-0.596658 -0.993444,-1.181744 -1.248071,-1.713506 l -7.11e-4,-7.11e-4 -3.41e-4,-7.1e-4 -0.957254,-1.744561 c -0.331513,-0.449615 -0.675452,-0.725666 -1.070108,-0.785302 -0.05847,-0.0091 -0.113572,-0.01337 -0.165609,-0.01369 -0.0035,3.41e-4 -0.0068,3.41e-4 -0.01031,0 z" />
  </g>
</svg>
