<?xml version="1.0" encoding="UTF-8" standalone="no"?>
<svg
   xmlns:dc="http://purl.org/dc/elements/1.1/"
   xmlns:cc="http://creativecommons.org/ns#"
   xmlns:rdf="http://www.w3.org/1999/02/22-rdf-syntax-ns#"
   xmlns:svg="http://www.w3.org/2000/svg"
   xmlns="http://www.w3.org/2000/svg"
   xmlns:sodipodi="http://sodipodi.sourceforge.net/DTD/sodipodi-0.dtd"
   xmlns:inkscape="http://www.inkscape.org/namespaces/inkscape"
   width="256"
   height="256"
   viewBox="0 0 67.733332 67.733335"
   version="1.1"
   id="svg8"
   inkscape:version="1.0.1 (3bc2e813f5, 2020-09-07)"
   sodipodi:docname="nodejs.svg"
   inkscape:export-filename="C:\Users\keath\Workspace\KMX\elite-streamdeck-icons\ship-lights.png"
   inkscape:export-xdpi="96"
   inkscape:export-ydpi="96">
  <defs
     id="defs2">
    <clipPath
       clipPathUnits="userSpaceOnUse"
       id="clipPath1014">
      <rect
         style="opacity:0.07;fill:#800080;stroke-width:0.286404"
         id="rect1016"
         width="81.64286"
         height="88.824394"
         x="56.50745"
         y="100.64066"
         ry="3.1166456" />
    </clipPath>
  </defs>
  <sodipodi:namedview
     id="base"
     pagecolor="#000000"
     bordercolor="#666666"
     borderopacity="1.0"
     inkscape:pageopacity="0"
     inkscape:pageshadow="2"
     inkscape:zoom="3.959798"
     inkscape:cx="117.09201"
     inkscape:cy="127.12833"
     inkscape:document-units="px"
     inkscape:current-layer="layer2"
     showgrid="true"
     units="px"
     inkscape:snap-grids="true"
     objecttolerance="10000"
     guidetolerance="10000"
     inkscape:window-width="3840"
     inkscape:window-height="2066"
     inkscape:window-x="3829"
     inkscape:window-y="-11"
     inkscape:window-maximized="1"
     inkscape:document-rotation="0"
     showguides="true"
     inkscape:guide-bbox="true">
    <inkscape:grid
       type="xygrid"
       id="grid4623" />
    <sodipodi:guide
       position="-3.96875,62.441667"
       orientation="0,256"
       id="guide3351" />
    <sodipodi:guide
       position="62.441667,42.597917"
       orientation="-1,0"
       id="guide3353"
       inkscape:label=""
       inkscape:locked="false"
       inkscape:color="rgb(0,0,255)" />
    <sodipodi:guide
       position="-2.6458333,22.754167"
       orientation="0,-256"
       id="guide3355" />
    <sodipodi:guide
       position="5.2916667,70.379167"
       orientation="-256,0"
       id="guide3357" />
    <sodipodi:guide
       position="0,67.733334"
       orientation="0,256"
       id="guide3359" />
    <sodipodi:guide
       position="67.733334,67.733334"
       orientation="256,0"
       id="guide3361" />
    <sodipodi:guide
       position="67.733334,0"
       orientation="0,-256"
       id="guide3363" />
    <sodipodi:guide
       position="0,0"
       orientation="-256,0"
       id="guide3365" />
    <sodipodi:guide
       position="0,67.733334"
       orientation="0,256"
       id="guide3367" />
    <sodipodi:guide
       position="67.733334,67.733334"
       orientation="256,0"
       id="guide3369" />
    <sodipodi:guide
       position="67.733334,0"
       orientation="0,-256"
       id="guide3371" />
    <sodipodi:guide
       position="0,0"
       orientation="-256,0"
       id="guide3373" />
    <sodipodi:guide
       position="0,67.733334"
       orientation="0,256"
       id="guide3375" />
    <sodipodi:guide
       position="67.733334,67.733334"
       orientation="256,0"
       id="guide3377" />
    <sodipodi:guide
       position="67.733334,0"
       orientation="0,-256"
       id="guide3379" />
    <sodipodi:guide
       position="0,0"
       orientation="-256,0"
       id="guide3381" />
    <sodipodi:guide
       position="33.866667,46.83125"
       orientation="1,0"
       id="guide895" />
    <sodipodi:guide
       position="41.010417,42.597917"
       orientation="0,-1"
       id="guide897" />
  </sodipodi:namedview>
  <metadata
     id="metadata5">
    <rdf:RDF>
      <cc:Work
         rdf:about="">
        <dc:format>image/svg+xml</dc:format>
        <dc:type
           rdf:resource="http://purl.org/dc/dcmitype/StillImage" />
        <dc:title></dc:title>
      </cc:Work>
    </rdf:RDF>
  </metadata>
  <g
     inkscape:groupmode="layer"
     id="layer2"
     inkscape:label="Icon">
    <path
       style="fill:#808080;fill-opacity:1;stroke:none;stroke-width:0.999999"
       d="m 26.859235,40.76708 v 0.243337 c 1.797602,1.145868 4.627565,3.371174 6.820101,3.516566 1.610048,0.106703 3.218077,-1.182003 4.546734,-1.916633 3.119816,-1.72513 6.225362,-3.474471 9.346063,-5.198019 1.328783,-0.733779 3.201154,-1.394922 3.99519,-2.728645 0.814875,-1.368764 0.425246,-3.465953 0.425246,-4.988384 v -9.733431 c 0,-1.480698 0.320292,-3.361197 -0.319408,-4.745047 -0.492437,-1.065081 -1.591862,-1.540316 -2.58545,-2.086605 -1.815536,-0.998528 -3.628293,-2.004965 -5.43082,-3.024786 C 41.685755,8.9902252 39.685066,7.9241708 37.720877,6.7972834 36.414449,6.0478092 35.131513,5.1710217 33.553038,5.2449346 c -1.55031,0.072601 -3.115144,1.3407682 -4.420435,2.0634751 -3.076877,1.7034729 -6.170677,3.3851673 -9.219767,5.1345073 -1.362504,0.781594 -3.209488,1.397842 -3.869395,2.895574 -0.501025,1.136865 -0.298444,2.566828 -0.298444,3.771705 v 7.300074 5.231719 c 0,1.010939 -0.0922,2.127363 0.446212,3.041697 0.61242,1.040017 1.803285,1.536057 2.837541,2.102543 2.640642,1.446266 7.567533,3.872202 9.551045,0.08748 0.728361,-1.389934 0.552808,-2.996802 0.552808,-4.501712 v -8.030081 -4.866715 c 0,-0.472072 0.177701,-1.385311 -0.202457,-1.751653 -0.261564,-0.251853 -0.724699,-0.194425 -1.060525,-0.195034 -2.12863,-0.0042 -1.515578,1.935736 -1.515578,3.528369 v 9.003424 c 0,1.463543 0.182121,3.051796 -0.02387,4.501712 -0.202961,1.42899 -1.752891,1.917973 -3.007285,1.47498 C 22.11573,35.610797 21.024641,34.826769 19.912837,34.215266 19.438715,33.954531 18.795351,33.705721 18.527095,33.218441 18.042236,32.33793 18.39726,30.55878 18.39726,29.573635 v -9.125091 c 0,-1.053522 -0.400744,-3.065423 0.148906,-3.992532 0.58337,-0.98405 2.640768,-1.678166 3.640039,-2.230781 2.782979,-1.538977 5.546762,-3.110926 8.335678,-4.6393188 0.895328,-0.4906864 2.253791,-1.6265779 3.283753,-1.7139353 0.981336,-0.083338 2.573577,1.2349287 3.410049,1.6969018 2.870505,1.5853333 5.731411,3.1870913 8.588275,4.7948103 0.908463,0.511249 3.059573,1.208893 3.460191,2.196714 0.334563,0.825395 0.07616,2.155834 0.07616,3.036466 v 6.691733 5.110052 c 0,0.583641 0.187553,1.537518 -0.202456,2.028326 -0.703227,0.88489 -2.461803,1.486538 -3.46019,2.037936 l -7.956784,4.380775 c -1.01329,0.559672 -2.60389,1.93087 -3.788944,1.992311 -1.373746,0.07129 -2.738903,-1.738634 -4.041542,-2.075654 -0.832305,-0.215352 -2.242549,0.711636 -3.031156,1.004733 m 10.73534,-23.671827 c -1.209053,0.124344 -2.390067,0.160237 -3.536348,0.610165 -2.856359,1.121169 -4.296663,5.240479 -1.387386,7.172079 2.372258,1.575112 5.655631,1.106204 8.333784,1.763454 1.069493,0.262437 2.367332,0.942196 1.876159,2.202675 -0.905178,2.322884 -6.405085,2.223846 -8.19094,1.016049 -0.931702,-0.630118 -0.779512,-1.646897 -1.463796,-2.28103 -0.361213,-0.334708 -1.990459,-0.353202 -2.391834,-0.06996 -0.325219,0.229466 -0.20814,0.761885 -0.176439,1.091605 0.1119,1.163509 0.715227,2.141597 1.632403,2.894113 2.252275,1.847771 6.23231,1.839619 8.967043,1.309634 1.334087,-0.258545 2.710485,-0.776484 3.639282,-1.772215 1.389785,-1.489945 1.539196,-4.422141 -0.107985,-5.798205 -1.996269,-1.667701 -5.478941,-1.571949 -7.951732,-1.977103 -1.07947,-0.176784 -3.061215,-0.484725 -2.710738,-1.956298 0.554702,-2.328602 5.742273,-2.086239 7.255577,-0.925406 0.705502,0.540936 0.787469,1.692035 1.445482,2.120306 0.417669,0.271928 1.769691,0.274483 2.195315,0.01837 0.889645,-0.535095 -0.206245,-2.592864 -0.614693,-3.159837 -1.364778,-1.894855 -4.559237,-2.490298 -6.813154,-2.258399 z"
       id="path911" />
    <path
       style="fill:#000000;stroke-width:1"
       id="path909"
       d="" />
  </g>
</svg>
