<?xml version="1.0" encoding="UTF-8" standalone="no"?>
<svg
   xmlns:dc="http://purl.org/dc/elements/1.1/"
   xmlns:cc="http://creativecommons.org/ns#"
   xmlns:rdf="http://www.w3.org/1999/02/22-rdf-syntax-ns#"
   xmlns:svg="http://www.w3.org/2000/svg"
   xmlns="http://www.w3.org/2000/svg"
   xmlns:sodipodi="http://sodipodi.sourceforge.net/DTD/sodipodi-0.dtd"
   xmlns:inkscape="http://www.inkscape.org/namespaces/inkscape"
   width="256"
   height="256"
   viewBox="0 0 67.733332 67.733335"
   version="1.1"
   id="svg8"
   inkscape:version="1.0.1 (3bc2e813f5, 2020-09-07)"
   sodipodi:docname="php.svg"
   inkscape:export-filename="C:\Users\keath\Workspace\KMX\elite-streamdeck-icons\ship-lights.png"
   inkscape:export-xdpi="96"
   inkscape:export-ydpi="96">
  <defs
     id="defs2">
    <clipPath
       clipPathUnits="userSpaceOnUse"
       id="clipPath1014">
      <rect
         style="opacity:0.07;fill:#800080;stroke-width:0.286404"
         id="rect1016"
         width="81.64286"
         height="88.824394"
         x="56.50745"
         y="100.64066"
         ry="3.1166456" />
    </clipPath>
    <clipPath
       clipPathUnits="userSpaceOnUse"
       id="clipPath3444">
      <path
         d="M 11.52,162 C 11.52,81.677 135.307,16.561 288,16.561 v 0 c 152.693,0 276.481,65.116 276.481,145.439 v 0 c 0,80.322 -123.788,145.439 -276.481,145.439 v 0 C 135.307,307.439 11.52,242.322 11.52,162"
         id="path3446" />
    </clipPath>
    <radialGradient
       cx="0"
       cy="0"
       fx="0"
       fy="0"
       gradientTransform="matrix(363.05789,0,0,-363.05789,177.52002,256.30713)"
       gradientUnits="userSpaceOnUse"
       id="radialGradient3452"
       r="1"
       spreadMethod="pad">
      <stop
         id="stop3454"
         offset="0"
         style="stop-opacity:1;stop-color:#aeb2d5" />
      <stop
         id="stop3456"
         offset="0.3"
         style="stop-opacity:1;stop-color:#aeb2d5" />
      <stop
         id="stop3458"
         offset="0.75"
         style="stop-opacity:1;stop-color:#484c89" />
      <stop
         id="stop3460"
         offset="1"
         style="stop-opacity:1;stop-color:#484c89" />
    </radialGradient>
    <clipPath
       clipPathUnits="userSpaceOnUse"
       id="clipPath3468">
      <path
         d="M 0,324 H 576 V 0 H 0 Z"
         id="path3470" />
    </clipPath>
    <clipPath
       clipPathUnits="userSpaceOnUse"
       id="clipPath3480">
      <path
         d="M 0,324 H 576 V 0 H 0 Z"
         id="path3482" />
    </clipPath>
  </defs>
  <sodipodi:namedview
     id="base"
     pagecolor="#000000"
     bordercolor="#666666"
     borderopacity="1.0"
     inkscape:pageopacity="0"
     inkscape:pageshadow="2"
     inkscape:zoom="3.959798"
     inkscape:cx="117.09201"
     inkscape:cy="86.722228"
     inkscape:document-units="px"
     inkscape:current-layer="layer2"
     showgrid="true"
     units="px"
     inkscape:snap-grids="true"
     objecttolerance="10000"
     guidetolerance="10000"
     inkscape:window-width="3840"
     inkscape:window-height="2066"
     inkscape:window-x="3829"
     inkscape:window-y="-11"
     inkscape:window-maximized="1"
     inkscape:document-rotation="0"
     showguides="true"
     inkscape:guide-bbox="true">
    <inkscape:grid
       type="xygrid"
       id="grid4623" />
    <sodipodi:guide
       position="-3.96875,62.441667"
       orientation="0,256"
       id="guide3351" />
    <sodipodi:guide
       position="62.441667,42.597917"
       orientation="-1,0"
       id="guide3353"
       inkscape:label=""
       inkscape:locked="false"
       inkscape:color="rgb(0,0,255)" />
    <sodipodi:guide
       position="-2.6458333,22.754167"
       orientation="0,-256"
       id="guide3355" />
    <sodipodi:guide
       position="5.2916667,70.379167"
       orientation="-256,0"
       id="guide3357" />
    <sodipodi:guide
       position="0,67.733334"
       orientation="0,256"
       id="guide3359" />
    <sodipodi:guide
       position="67.733334,67.733334"
       orientation="256,0"
       id="guide3361" />
    <sodipodi:guide
       position="67.733334,0"
       orientation="0,-256"
       id="guide3363" />
    <sodipodi:guide
       position="0,0"
       orientation="-256,0"
       id="guide3365" />
    <sodipodi:guide
       position="0,67.733334"
       orientation="0,256"
       id="guide3367" />
    <sodipodi:guide
       position="67.733334,67.733334"
       orientation="256,0"
       id="guide3369" />
    <sodipodi:guide
       position="67.733334,0"
       orientation="0,-256"
       id="guide3371" />
    <sodipodi:guide
       position="0,0"
       orientation="-256,0"
       id="guide3373" />
    <sodipodi:guide
       position="0,67.733334"
       orientation="0,256"
       id="guide3375" />
    <sodipodi:guide
       position="67.733334,67.733334"
       orientation="256,0"
       id="guide3377" />
    <sodipodi:guide
       position="67.733334,0"
       orientation="0,-256"
       id="guide3379" />
    <sodipodi:guide
       position="0,0"
       orientation="-256,0"
       id="guide3381" />
    <sodipodi:guide
       position="33.866667,46.83125"
       orientation="1,0"
       id="guide895" />
    <sodipodi:guide
       position="41.010417,42.597917"
       orientation="0,-1"
       id="guide897" />
  </sodipodi:namedview>
  <metadata
     id="metadata5">
    <rdf:RDF>
      <cc:Work
         rdf:about="">
        <dc:format>image/svg+xml</dc:format>
        <dc:type
           rdf:resource="http://purl.org/dc/dcmitype/StillImage" />
        <dc:title></dc:title>
      </cc:Work>
    </rdf:RDF>
  </metadata>
  <g
     inkscape:groupmode="layer"
     id="layer2"
     inkscape:label="Icon">
    <path
       style="fill:#000000;stroke-width:1"
       id="path909"
       d="" />
    <path
       id="path3474"
       style="fill:#808080;fill-opacity:1;fill-rule:nonzero;stroke:none;stroke-width:0.330729"
       d="m 33.860139,11.997103 c -14.377796,0 -26.0336274,5.906923 -26.0336274,13.193271 0,7.286445 11.6558314,13.193424 26.0336274,13.193424 14.377796,0 26.033629,-5.906979 26.033629,-13.193424 0,-7.286348 -11.655833,-13.193271 -26.033629,-13.193271 z m 0.535723,2.655802 c 0.215842,0.0071 0.42689,0.17147 0.448759,0.393333 -0.183485,1.141033 -0.433366,2.273814 -0.643971,3.411388 0.418497,0.0011 0.836987,0.0027 1.255482,1.57e-4 1.382266,0.0064 2.836013,-0.05625 4.119509,0.543225 0.631901,0.283493 1.150202,0.811699 1.374599,1.472128 0.156627,0.366371 0.132878,0.7741 0.261814,1.145091 0.04763,0.332577 0.134265,-0.05318 0.207001,-0.18281 0.167613,-0.703312 0.281301,-1.423499 0.428242,-2.133247 0.07175,-0.29149 0.04645,-0.722864 0.402059,-0.827851 1.045291,-0.02901 2.093595,-0.0123 3.140082,-0.01501 1.097373,0.01038 2.195213,-0.01715 3.29227,0.0081 1.079895,0.03461 2.176658,0.241642 3.099661,0.841938 1.020583,0.632267 1.669392,1.768571 1.782937,2.954514 0.125657,1.221217 -0.09279,2.474478 -0.583952,3.597261 -0.747368,1.658702 -2.185146,3.030996 -3.931954,3.581643 -1.707764,0.506363 -3.494911,0.32615 -5.253423,0.362559 -0.190116,0.981573 -0.380986,1.963046 -0.571397,2.944563 -0.07333,0.29334 -0.04578,0.728817 -0.402979,0.835967 -1.020723,0.03118 -2.044437,0.01062 -3.066284,0.01623 -0.265428,0.05568 -0.58246,-0.115794 -0.594057,-0.406807 0.190653,-1.094492 0.40905,-2.188178 0.630957,-3.2765 0.0014,-0.197666 -0.236382,-0.223876 -0.370367,-0.135347 -1.015762,0.04321 -2.039539,0.01047 -3.058476,0.02174 -0.268646,0.05429 -0.59666,-0.09264 -0.622534,-0.392108 0.317798,-1.802902 0.690423,-3.599273 1.033475,-5.398876 0.08402,-0.61413 0.317198,-1.218675 0.252627,-1.845557 0.01132,-0.343371 -0.369053,-0.472616 -0.651165,-0.496988 -0.926192,-0.09466 -1.860695,-0.02753 -2.790384,-0.04931 -0.473016,2.433867 -0.945477,4.867932 -1.418235,7.301848 -0.07986,0.29793 -0.04007,0.738324 -0.396549,0.860924 -0.998179,0.0399 -1.999928,0.01096 -2.999528,0.02006 -0.261192,0.04934 -0.588645,-0.06 -0.642592,-0.351382 0.01986,-0.362861 0.12236,-0.722905 0.18082,-1.083388 0.12276,-0.740119 0.342123,-1.468689 0.359037,-2.222202 -0.398525,0.446378 -0.666462,0.991568 -1.082776,1.424818 -0.742187,0.843676 -1.715659,1.525657 -2.808144,1.866687 -1.710887,0.509859 -3.50211,0.329272 -5.264295,0.365621 -0.190246,0.981584 -0.38143,1.963042 -0.572009,2.944562 -0.07285,0.291021 -0.04544,0.721815 -0.395017,0.834283 -1.0176,0.0349 -2.038047,0.0095 -3.056791,0.01822 -0.275572,0.05831 -0.610464,-0.113903 -0.612124,-0.422118 0.891745,-4.666425 1.806817,-9.330088 2.711075,-13.994788 0.04545,-0.268982 0.07421,-0.645157 0.40007,-0.716849 1.376291,-0.01849 2.753884,-0.0079 4.130686,-0.01102 1.420228,0.02605 2.882458,-0.124052 4.256387,0.324741 1.060869,0.32298 2.013924,1.051535 2.499633,2.061439 0.264185,0.47317 0.319726,1.018056 0.496375,1.522041 0.05457,0.192874 0.108377,-0.259955 0.1626,-0.34097 0.43601,-2.157518 0.843257,-4.322376 1.268189,-6.482724 0.07999,-0.29683 0.03964,-0.733625 0.391496,-0.860464 1.034888,-0.0459 2.074335,-0.0072 3.110838,-0.0219 0.03049,-0.0057 0.06149,-0.0079 0.09232,-0.0069 z m -3.196884,0.282331 c -0.946089,4.864999 -1.890728,9.730238 -2.836622,14.595276 1.135358,0 2.27067,0 3.406029,0 0.530383,-2.727191 1.059758,-5.454638 1.589715,-8.181911 h 1.368627 c 0.731835,0.03437 1.505547,-0.102805 2.197093,0.20149 0.412508,0.176513 0.421567,0.69724 0.379094,1.077723 -0.408634,2.306336 -0.885508,4.601066 -1.321777,6.902698 1.009786,0 2.019599,0 3.029384,0 0.138819,-0.04392 0.431215,0.09885 0.444471,-0.09768 0.435549,-2.276732 0.897307,-4.548791 1.317031,-6.828134 0.178662,-0.912491 0.152132,-1.964036 -0.460395,-2.716892 -0.637693,-0.730929 -1.638475,-0.979176 -2.565774,-1.083082 -1.288444,-0.12639 -2.586,-0.05308 -3.878519,-0.07166 0.245984,-1.265937 0.491598,-2.531942 0.737825,-3.797831 h -3.277112 z m 0.362865,0.329027 c 0.01162,8.32e-4 0.02438,0.003 0.03827,0.0066 0.865696,-3.53e-4 1.731313,-9.78e-4 2.597009,-0.0012 -0.197254,1.020723 -0.388622,2.042686 -0.597578,3.061077 -0.102272,0.234603 -0.104553,0.581941 0.161834,0.708429 0.870435,0.06396 1.751081,0.0076 2.625487,0.02832 1.09747,0.03754 2.280871,0.04261 3.233936,0.665558 0.73447,0.441689 0.972146,1.371262 0.904712,2.177495 -0.370195,2.44114 -0.920489,4.851106 -1.358216,7.280873 -0.926066,0.0052 -1.852059,0.0057 -2.778135,0.0042 0.293096,-1.516516 0.58697,-3.032977 0.880367,-4.549435 0.105208,-0.807184 0.406307,-1.592348 0.367611,-2.414808 0.03135,-0.488638 -0.320856,-0.94334 -0.783297,-1.079102 -1.238755,-0.242689 -2.508926,-0.09622 -3.769506,-0.136878 -0.531142,2.724982 -1.059049,5.450592 -1.584356,8.176705 -0.909478,0.0047 -1.819043,0.0049 -2.728529,0.0036 0.87557,-4.511856 1.749178,-9.02422 2.623956,-13.536231 0.0617,-0.123838 -0.0079,-0.407484 0.166428,-0.395017 z m 14.01607,3.467578 c -1.070372,9.78e-4 -2.140817,0.0039 -3.211123,6.12e-4 h -0.128916 c -0.94609,4.865 -1.890881,9.730239 -2.836776,14.595276 h 3.430373 c 0.214442,-1.100839 0.427817,-2.201909 0.641826,-3.302833 0.058,-0.150841 0.02296,-0.41452 0.139482,-0.494384 1.437866,-0.02969 2.885627,0.08234 4.314415,-0.123099 1.271971,-0.155334 2.481636,-0.745082 3.385819,-1.653102 1.362648,-1.273146 2.052232,-3.161814 2.012291,-5.008758 -0.01674,-0.983914 -0.349186,-1.987251 -1.05935,-2.689638 -0.89404,-0.932721 -2.22661,-1.257921 -3.477071,-1.31305 -1.070183,-0.01097 -2.140597,-0.01197 -3.21097,-0.01102 z m -24.29004,3.06e-4 c -1.067993,7.87e-4 -2.135994,0.0031 -3.203928,3.06e-4 h -0.129069 c -0.94627,4.865003 -1.891164,9.730236 -2.837235,14.595276 h 3.430986 c 0.233271,-1.197787 0.465481,-2.395713 0.698323,-3.593585 -0.03463,-0.262843 0.195651,-0.204314 0.378328,-0.203632 1.487699,-0.02879 2.994987,0.0984 4.463389,-0.200878 1.282277,-0.239312 2.437138,-0.966574 3.292423,-1.939719 0.961406,-1.049911 1.501558,-2.435759 1.630901,-3.844069 0.141772,-1.220013 -0.115175,-2.563039 -1.000863,-3.464516 -0.903334,-0.946968 -2.250619,-1.289099 -3.519482,-1.339843 -1.067831,-0.0094 -2.135783,-0.01013 -3.203773,-0.0093 z m 21.312713,0.329334 c 0.01162,8.31e-4 0.02438,0.003 0.03827,0.0066 1.600381,-9.78e-4 3.200764,-0.0019 4.801145,-0.0029 1.252724,-0.01402 2.574951,-0.01791 3.71255,0.582115 0.794762,0.392135 1.401329,1.12086 1.656929,1.96789 0.269549,0.885892 0.212372,1.842388 0.02481,2.738787 -0.435412,2.049462 -1.959719,3.885263 -3.984011,4.51223 -1.809943,0.496433 -3.704126,0.282481 -5.555811,0.331631 -0.246838,1.26279 -0.489169,2.52644 -0.730322,3.790329 -0.918154,0.0063 -1.836234,0.0083 -2.754403,0.0046 0.874329,-4.512135 1.749679,-9.024022 2.624415,-13.536079 0.06172,-0.123834 -0.0079,-0.407635 0.166428,-0.39517 z m -18.66717,0.0025 c 0.624386,0.0069 1.249594,0.04338 1.858419,0.186485 1.039443,0.232864 2.040835,0.852028 2.520761,1.830859 0.507326,1.026494 0.465698,2.23258 0.226599,3.325801 -0.444627,2.031797 -1.97089,3.834406 -3.97467,4.460326 -1.809569,0.495625 -3.702482,0.279354 -5.553514,0.331018 -0.244138,1.263451 -0.488797,2.526665 -0.73262,3.790176 -0.917192,0.0052 -1.834444,0.0057 -2.751646,0.0041 0.899065,-4.64127 1.798834,-9.28238 2.698978,-13.923441 1.694743,-0.0012 3.389497,-0.0032 5.08424,-0.0052 0.207329,-0.0014 0.415325,-0.0025 0.623453,-1.53e-4 z m -1.343364,1.898227 c -0.659304,0.0032 -1.318533,0.0048 -1.977843,0.0034 l -1.066394,5.486606 c -0.07946,0.259317 -0.166457,0.623421 0.105798,0.803049 0.421732,0.07788 0.859168,0.03265 1.287481,0.04103 1.136229,0.006 2.367657,-0.009 3.34402,-0.671223 0.93205,-0.659934 1.332509,-1.816183 1.478252,-2.905521 0.120291,-0.739472 0.08732,-1.623637 -0.509695,-2.160346 -0.747043,-0.595228 -1.755684,-0.576097 -2.661619,-0.596966 z m 24.283457,0 c -0.659497,0.0032 -1.318951,0.0048 -1.978456,0.0034 -0.359446,1.84992 -0.718888,3.699919 -1.078335,5.54984 -0.08788,0.236195 -0.131477,0.566484 0.110238,0.729403 0.285067,0.08396 0.600688,0.04124 0.898282,0.05436 1.108154,-0.01173 2.212005,0.05521 3.247102,-0.400682 0.95317,-0.391125 1.540222,-1.338251 1.794726,-2.299981 0.180642,-0.754565 0.355127,-1.566779 0.118812,-2.32907 -0.14427,-0.515783 -0.577659,-0.89534 -1.075428,-1.061342 -0.668659,-0.23927 -1.330449,-0.22782 -2.036941,-0.245924 z m -25.987544,0.337296 h 0.927525 c 0.962702,0.02661 1.978942,-0.103835 2.884698,0.299478 0.526255,0.192793 0.767866,0.768451 0.781614,1.293452 -0.0017,1.020607 -0.227297,2.080422 -0.824943,2.924812 -0.389306,0.559939 -1.093905,0.876965 -1.703168,1.007447 -1.041741,0.211429 -2.111226,0.11864 -3.166415,0.137184 0.366879,-1.887441 0.73381,-3.774932 1.100689,-5.662373 z m 24.283458,0 h 0.921248 c 0.966464,0.02695 1.986758,-0.104327 2.895721,0.301774 0.566534,0.210345 0.789709,0.851382 0.77993,1.410273 -0.0301,0.925457 -0.219277,1.84541 -0.717004,2.64187 -0.384062,0.653786 -1.114802,1.025615 -1.818151,1.171885 -1.006271,0.207347 -2.113007,0.120024 -3.163047,0.136571 z m 1.63335,0.272837 c -0.42614,2.9e-4 -0.852782,0.01015 -1.278141,0.0013 h -0.12907 c -0.331942,1.70505 -0.662375,3.410386 -0.994126,5.115473 0.222519,-5.8e-5 0.445029,3.06e-4 0.667548,4.63e-4 1.023243,-0.0078 2.127558,0.05 3.041327,-0.490709 0.763719,-0.461207 1.113111,-1.359703 1.272629,-2.198624 0.09741,-0.582377 0.223716,-1.237646 -0.07671,-1.782477 -0.259418,-0.41095 -0.784638,-0.507378 -1.228076,-0.589005 -0.423521,-0.04737 -0.849245,-0.05678 -1.275384,-0.0565 z m -24.296012,4.63e-4 c -0.421955,2.58e-4 -0.844304,0.0092 -1.265586,8.89e-4 h -0.12907 c -0.324352,1.666283 -0.647451,3.332917 -0.971467,4.999265 -0.08928,0.223281 0.275446,0.07264 0.404204,0.116515 1.0726,-0.01166 2.220819,0.07991 3.200712,-0.441256 0.802053,-0.434501 1.177204,-1.349228 1.34612,-2.201839 0.09963,-0.595737 0.237009,-1.263688 -0.06537,-1.823969 -0.264259,-0.421065 -0.803203,-0.516192 -1.256247,-0.597732 -0.4197,-0.04366 -0.841334,-0.05216 -1.263289,-0.0519 z" />
  </g>
</svg>
