<?xml version="1.0" encoding="UTF-8" standalone="no"?>
<svg
   xmlns:dc="http://purl.org/dc/elements/1.1/"
   xmlns:cc="http://creativecommons.org/ns#"
   xmlns:rdf="http://www.w3.org/1999/02/22-rdf-syntax-ns#"
   xmlns:svg="http://www.w3.org/2000/svg"
   xmlns="http://www.w3.org/2000/svg"
   xmlns:sodipodi="http://sodipodi.sourceforge.net/DTD/sodipodi-0.dtd"
   xmlns:inkscape="http://www.inkscape.org/namespaces/inkscape"
   width="256"
   height="256"
   viewBox="0 0 67.733332 67.733335"
   version="1.1"
   id="svg8"
   inkscape:version="1.0.1 (3bc2e813f5, 2020-09-07)"
   sodipodi:docname="php=ref.svg"
   inkscape:export-filename="C:\Users\keath\Workspace\KMX\elite-streamdeck-icons\ship-lights.png"
   inkscape:export-xdpi="96"
   inkscape:export-ydpi="96">
  <defs
     id="defs2" />
  <sodipodi:namedview
     id="base"
     pagecolor="#000000"
     bordercolor="#666666"
     borderopacity="1.0"
     inkscape:pageopacity="0"
     inkscape:pageshadow="2"
     inkscape:zoom="5.6"
     inkscape:cx="111.90634"
     inkscape:cy="121.54987"
     inkscape:document-units="px"
     inkscape:current-layer="layer2"
     showgrid="true"
     units="px"
     inkscape:snap-grids="true"
     objecttolerance="10000"
     guidetolerance="10000"
     inkscape:window-width="2780"
     inkscape:window-height="1895"
     inkscape:window-x="4681"
     inkscape:window-y="172"
     inkscape:window-maximized="0"
     inkscape:document-rotation="0"
     showguides="true"
     inkscape:guide-bbox="true">
    <inkscape:grid
       type="xygrid"
       id="grid4623" />
    <sodipodi:guide
       position="-3.96875,62.441667"
       orientation="0,256"
       id="guide3351" />
    <sodipodi:guide
       position="62.441667,42.597917"
       orientation="-1,0"
       id="guide3353"
       inkscape:label=""
       inkscape:locked="false"
       inkscape:color="rgb(0,0,255)" />
    <sodipodi:guide
       position="-2.6458333,22.754167"
       orientation="0,-256"
       id="guide3355" />
    <sodipodi:guide
       position="5.2916667,70.379167"
       orientation="-256,0"
       id="guide3357" />
    <sodipodi:guide
       position="0,67.733334"
       orientation="0,256"
       id="guide3359" />
    <sodipodi:guide
       position="67.733334,67.733334"
       orientation="256,0"
       id="guide3361" />
    <sodipodi:guide
       position="67.733334,0"
       orientation="0,-256"
       id="guide3363" />
    <sodipodi:guide
       position="0,0"
       orientation="-256,0"
       id="guide3365" />
    <sodipodi:guide
       position="0,67.733334"
       orientation="0,256"
       id="guide3367" />
    <sodipodi:guide
       position="67.733334,67.733334"
       orientation="256,0"
       id="guide3369" />
    <sodipodi:guide
       position="67.733334,0"
       orientation="0,-256"
       id="guide3371" />
    <sodipodi:guide
       position="0,0"
       orientation="-256,0"
       id="guide3373" />
    <sodipodi:guide
       position="0,67.733334"
       orientation="0,256"
       id="guide3375" />
    <sodipodi:guide
       position="67.733334,67.733334"
       orientation="256,0"
       id="guide3377" />
    <sodipodi:guide
       position="67.733334,0"
       orientation="0,-256"
       id="guide3379" />
    <sodipodi:guide
       position="0,0"
       orientation="-256,0"
       id="guide3381" />
    <sodipodi:guide
       position="33.866667,46.83125"
       orientation="1,0"
       id="guide895" />
    <sodipodi:guide
       position="41.010417,42.597917"
       orientation="0,-1"
       id="guide897" />
  </sodipodi:namedview>
  <metadata
     id="metadata5">
    <rdf:RDF>
      <cc:Work
         rdf:about="">
        <dc:format>image/svg+xml</dc:format>
        <dc:type
           rdf:resource="http://purl.org/dc/dcmitype/StillImage" />
        <dc:title />
      </cc:Work>
    </rdf:RDF>
  </metadata>
  <g
     inkscape:groupmode="layer"
     id="layer2"
     inkscape:label="Icon">
    <path
       id="path3474"
       style="fill:#808080;fill-opacity:1;fill-rule:nonzero;stroke:none;stroke-width:0.330729"
       d="m 33.101278,16.512853 c -9.611874,0 -17.404055,3.948909 -17.404055,8.819993 0,4.87115 7.792181,8.820096 17.404055,8.820096 9.611876,0 17.404057,-3.948946 17.404057,-8.820096 0,-4.871084 -7.792181,-8.819993 -17.404057,-8.819993 z m 0.358143,1.775462 c 0.144295,0.0047 0.285385,0.114632 0.300006,0.262952 -0.122664,0.762806 -0.289715,1.520095 -0.430509,2.280588 0.279773,7.36e-4 0.559545,0.0018 0.839317,1.05e-4 0.924075,0.0043 1.895938,-0.0376 2.753984,0.363158 0.422438,0.189522 0.768935,0.542639 0.918948,0.98415 0.104709,0.244928 0.08883,0.517503 0.17503,0.765519 0.03184,0.222335 0.08976,-0.03555 0.138384,-0.122212 0.112053,-0.47018 0.188057,-0.951641 0.286289,-1.426123 0.04797,-0.194868 0.03105,-0.483251 0.268786,-0.553437 0.698799,-0.01939 1.399615,-0.0082 2.099213,-0.01003 0.733618,0.0069 1.467549,-0.01147 2.200956,0.0054 0.721934,0.02314 1.455145,0.161543 2.072191,0.562854 0.682283,0.422684 1.116027,1.182329 1.191933,1.975158 0.08401,0.81641 -0.06203,1.654243 -0.390384,2.404848 -0.499632,1.108879 -1.460818,2.026288 -2.628598,2.394408 -1.141678,0.338515 -2.336425,0.218038 -3.51203,0.242379 -0.127096,0.656203 -0.254696,1.312339 -0.381992,1.968505 -0.04902,0.196104 -0.0306,0.48723 -0.2694,0.558863 -0.682376,0.02084 -1.36675,0.0071 -2.049878,0.01085 -0.177444,0.03722 -0.389388,-0.07741 -0.397141,-0.271959 0.127456,-0.731693 0.27346,-1.462846 0.421809,-2.190413 8.69e-4,-0.132144 -0.158026,-0.149667 -0.247598,-0.09048 -0.67906,0.02889 -1.363476,0.007 -2.044658,0.01453 -0.179597,0.03629 -0.398882,-0.06193 -0.416179,-0.262133 0.212455,-1.20528 0.461564,-2.406194 0.690901,-3.609268 0.05617,-0.41056 0.212055,-0.814711 0.168887,-1.233796 0.0076,-0.229551 -0.246721,-0.315954 -0.435319,-0.332247 -0.619179,-0.06328 -1.243914,-0.01841 -1.865433,-0.03297 -0.316221,1.627094 -0.632072,3.25432 -0.948121,4.881447 -0.05339,0.199172 -0.02679,0.493586 -0.265102,0.575546 -0.667305,0.02667 -1.336996,0.0073 -2.005251,0.01341 -0.174613,0.03298 -0.393522,-0.04011 -0.429587,-0.234907 0.01328,-0.24258 0.0818,-0.483278 0.120882,-0.724269 0.08207,-0.494785 0.228717,-0.981851 0.240025,-1.485591 -0.266423,0.298414 -0.445545,0.662885 -0.72386,0.952523 -0.496169,0.564016 -1.146956,1.019935 -1.877307,1.247921 -1.143765,0.340852 -2.341238,0.220126 -3.519297,0.244426 -0.127184,0.656211 -0.254995,1.312337 -0.382401,1.968505 -0.0487,0.194554 -0.03038,0.482549 -0.264078,0.557736 -0.680288,0.02333 -1.362479,0.0064 -2.043532,0.01218 -0.184226,0.03898 -0.408109,-0.07615 -0.409218,-0.282195 0.596151,-3.119609 1.207897,-6.237371 1.812413,-9.355826 0.03039,-0.17982 0.04961,-0.431301 0.267456,-0.479229 0.920081,-0.01236 1.841032,-0.0053 2.761455,-0.0074 0.949454,0.01741 1.926987,-0.08293 2.845489,0.217096 0.709214,0.21592 1.346352,0.702975 1.67106,1.378118 0.176613,0.316324 0.213744,0.680593 0.331837,1.017518 0.03648,0.12894 0.07245,-0.173786 0.108702,-0.227946 0.291482,-1.442349 0.563736,-2.889604 0.847812,-4.333844 0.05348,-0.198438 0.0265,-0.490445 0.261724,-0.57524 0.691846,-0.03068 1.386739,-0.0048 2.079664,-0.01464 0.02038,-0.0038 0.04111,-0.0053 0.06172,-0.0046 z m -2.137187,0.188745 c -0.632482,3.252359 -1.263994,6.504879 -1.896345,9.757265 0.759012,0 1.517993,0 2.277006,0 0.354572,-1.823188 0.708471,-3.646546 1.062759,-5.469789 h 0.914957 c 0.489248,0.02298 1.006492,-0.06873 1.468807,0.134701 0.275769,0.118003 0.281826,0.46612 0.253431,0.720481 -0.27318,1.541837 -0.591981,3.075915 -0.883636,4.614607 0.675063,0 1.350146,0 2.02521,0 0.0928,-0.02936 0.288277,0.06608 0.297138,-0.0653 0.291175,-1.522045 0.599871,-3.040967 0.880466,-4.564758 0.119438,-0.610021 0.101702,-1.313002 -0.307785,-1.816303 -0.426313,-0.488642 -1.095357,-0.6546 -1.715276,-0.724064 -0.861354,-0.08449 -1.728799,-0.03549 -2.592877,-0.04791 0.164446,-0.846307 0.328645,-1.692659 0.493253,-2.538934 H 31.40852 Z m 0.242583,0.219962 c 0.0078,5.48e-4 0.0163,0.002 0.02558,0.0044 0.578737,-2.3e-4 1.157421,-6.55e-4 1.736158,-8.02e-4 -0.131869,0.682376 -0.259802,1.36558 -0.399494,2.046397 -0.06837,0.156838 -0.0699,0.389041 0.10819,0.473601 0.581904,0.04276 1.170636,0.0051 1.755196,0.01893 0.733683,0.0251 1.524813,0.02849 2.161957,0.444941 0.49101,0.295278 0.649901,0.916719 0.604821,1.455703 -0.247485,1.631956 -0.615368,3.243072 -0.907998,4.867425 -0.619096,0.0035 -1.238143,0.0038 -1.857245,0.0028 0.195942,-1.013825 0.392403,-2.027613 0.588544,-3.041398 0.07034,-0.539621 0.271626,-1.06452 0.245757,-1.614353 0.02096,-0.326665 -0.214498,-0.630644 -0.52365,-0.721403 -0.828136,-0.162243 -1.677274,-0.06433 -2.519999,-0.09151 -0.35508,1.82171 -0.707998,3.643841 -1.059177,5.466308 -0.608006,0.0031 -1.216071,0.0033 -1.824082,0.0024 0.585338,-3.016275 1.169364,-6.03289 1.754172,-9.049269 0.04125,-0.08279 -0.0053,-0.272412 0.111261,-0.264078 z m 9.370053,2.318152 c -0.715568,6.55e-4 -1.431185,0.0026 -2.146708,4.07e-4 h -0.08618 c -0.632482,3.25236 -1.264097,6.50488 -1.896447,9.757265 h 2.29328 c 0.143359,-0.735936 0.286004,-1.472025 0.429075,-2.208017 0.03877,-0.100841 0.01536,-0.277116 0.09324,-0.330507 0.961247,-0.01985 1.929107,0.05505 2.884282,-0.08229 0.850342,-0.103845 1.659029,-0.498104 2.263496,-1.105136 0.910959,-0.851126 1.371963,-2.113742 1.345262,-3.348465 -0.0112,-0.657768 -0.23344,-1.328521 -0.708201,-1.798083 -0.597684,-0.623544 -1.488537,-0.840948 -2.324498,-0.877803 -0.715442,-0.0073 -1.431037,-0.008 -2.146604,-0.0074 z m -16.238429,2.12e-4 c -0.713977,5.31e-4 -1.42796,0.0021 -2.141897,2.13e-4 h -0.08629 c -0.632602,3.252347 -1.264285,6.504862 -1.896754,9.757249 h 2.29369 c 0.155947,-0.800747 0.311184,-1.601587 0.466844,-2.402391 -0.02315,-0.175716 0.130797,-0.136588 0.252921,-0.136132 0.99456,-0.01925 2.002215,0.06578 2.983874,-0.134292 0.857231,-0.159985 1.629281,-0.646176 2.201058,-1.296745 0.642721,-0.701888 1.003825,-1.628359 1.090293,-2.569845 0.09478,-0.815606 -0.077,-1.713448 -0.669099,-2.316105 -0.603899,-0.63307 -1.504588,-0.861792 -2.352851,-0.895715 -0.713869,-0.0063 -1.427818,-0.0068 -2.141793,-0.0062 z m 14.24802,0.220167 c 0.0078,5.49e-4 0.01629,0.002 0.02558,0.0044 1.069891,-6.53e-4 2.139782,-0.0013 3.209672,-0.0019 0.837475,-0.0094 1.721412,-0.01197 2.481923,0.389157 0.531314,0.262151 0.936819,0.749319 1.107693,1.315578 0.180199,0.592238 0.141974,1.231677 0.01659,1.830939 -0.291084,1.370111 -1.310117,2.597384 -2.663399,3.016526 -1.209988,0.331876 -2.476291,0.188845 -3.714183,0.221702 -0.165017,0.844203 -0.327021,1.688981 -0.488238,2.533919 -0.613805,0.0042 -1.227561,0.0055 -1.841379,0.0031 0.584508,-3.016462 1.169699,-6.032758 1.75448,-9.049167 0.04126,-0.08279 -0.0053,-0.272513 0.111261,-0.26418 z m -12.479416,0.0017 c 0.417415,0.0046 0.835381,0.029 1.242394,0.124669 0.69489,0.155675 1.364343,0.569599 1.685184,1.22397 0.339159,0.686234 0.31133,1.492529 0.151487,2.223371 -0.297243,1.358301 -1.317584,2.563385 -2.657155,2.981827 -1.209737,0.331336 -2.475191,0.186754 -3.712647,0.221293 -0.163212,0.844645 -0.326772,1.689131 -0.489773,2.533816 -0.613163,0.0035 -1.226366,0.0038 -1.839536,0.0027 0.601045,-3.102792 1.20256,-6.205476 1.804327,-9.308128 1.132973,-8.02e-4 2.265953,-0.0021 3.398926,-0.0035 0.138604,-9.35e-4 0.277654,-0.0017 0.416793,-1.01e-4 z m -0.898069,1.269004 c -0.440759,0.0021 -0.881468,0.0032 -1.322232,0.0023 l -0.712908,3.667919 c -0.05312,0.173359 -0.11128,0.416771 0.07073,0.536856 0.281937,0.05206 0.574372,0.02183 0.860709,0.02743 0.759594,0.004 1.582831,-0.006 2.235551,-0.448728 0.623096,-0.44118 0.890812,-1.214158 0.988245,-1.942405 0.08042,-0.494353 0.05837,-1.085437 -0.340743,-1.444239 -0.499415,-0.397923 -1.173713,-0.385134 -1.779351,-0.399085 z m 16.234028,0 c -0.440889,0.0021 -0.881748,0.0032 -1.322642,0.0023 -0.240296,1.236713 -0.480593,2.473478 -0.720891,3.710191 -0.05875,0.157902 -0.08789,0.378707 0.0737,0.487622 0.190574,0.05613 0.401574,0.02757 0.600521,0.03634 0.740826,-0.0078 1.478776,0.03691 2.170761,-0.267865 0.637215,-0.261476 1.029672,-0.89465 1.199813,-1.537588 0.120763,-0.504443 0.23741,-1.047426 0.07943,-1.557035 -0.09645,-0.344812 -0.386176,-0.598554 -0.718947,-0.70953 -0.447013,-0.159958 -0.889434,-0.152302 -1.36174,-0.164406 z m -17.373248,0.225457 h 0.620071 c 0.643588,0.01779 1.322967,-0.06942 1.928485,0.200207 0.351813,0.128887 0.513335,0.513727 0.522526,0.864702 -0.0011,0.682298 -0.151953,1.390808 -0.551493,1.955301 -0.260259,0.374332 -0.731299,0.586271 -1.138605,0.673501 -0.696427,0.141345 -1.411402,0.07931 -2.116819,0.09171 0.245267,-1.261796 0.490568,-2.523625 0.735835,-3.785421 z m 16.234029,0 h 0.615874 c 0.646103,0.01802 1.328192,-0.06974 1.935854,0.201742 0.378741,0.140621 0.527939,0.569168 0.521401,0.942799 -0.02012,0.618689 -0.146593,1.233697 -0.479333,1.766149 -0.256754,0.43707 -0.745269,0.685646 -1.215475,0.783431 -0.672714,0.138616 -1.412591,0.08024 -2.114566,0.0913 z m 1.09193,0.182397 c -0.284884,1.95e-4 -0.570103,0.0068 -0.854466,8.69e-4 h -0.08629 c -0.22191,1.139864 -0.442813,2.279919 -0.664596,3.419807 0.14876,-3.9e-5 0.297512,2.13e-4 0.446271,3.18e-4 0.68406,-0.0052 1.422319,0.03343 2.033195,-0.328049 0.510562,-0.308327 0.744139,-0.908992 0.85078,-1.469829 0.06512,-0.389332 0.149559,-0.827394 -0.05128,-1.191625 -0.173426,-0.274732 -0.524546,-0.339196 -0.820995,-0.393765 -0.283133,-0.03167 -0.56774,-0.03796 -0.852622,-0.03777 z m -16.242421,3.19e-4 c -0.282086,1.72e-4 -0.564436,0.0061 -0.846072,6.01e-4 h -0.08629 c -0.216837,1.113947 -0.432836,2.228129 -0.649447,3.342119 -0.05969,0.149268 0.184141,0.04856 0.270219,0.07789 0.717057,-0.0078 1.484667,0.05342 2.139747,-0.294989 0.53619,-0.290474 0.786987,-0.901989 0.899911,-1.471978 0.0666,-0.398264 0.158445,-0.844804 -0.0437,-1.219364 -0.176663,-0.281491 -0.536959,-0.345086 -0.839829,-0.399597 -0.280578,-0.02919 -0.56245,-0.03487 -0.844536,-0.0347 z" />
    <path
       id="path870"
       style="color:#000000;font-style:normal;font-variant:normal;font-weight:normal;font-stretch:normal;font-size:medium;line-height:normal;font-family:sans-serif;font-variant-ligatures:normal;font-variant-position:normal;font-variant-caps:normal;font-variant-numeric:normal;font-variant-alternates:normal;font-variant-east-asian:normal;font-feature-settings:normal;font-variation-settings:normal;text-indent:0;text-align:start;text-decoration:none;text-decoration-line:none;text-decoration-style:solid;text-decoration-color:#000000;letter-spacing:normal;word-spacing:normal;text-transform:none;writing-mode:lr-tb;direction:ltr;text-orientation:mixed;dominant-baseline:auto;baseline-shift:baseline;text-anchor:start;white-space:normal;shape-padding:0;shape-margin:0;inline-size:0;clip-rule:nonzero;display:inline;overflow:visible;visibility:visible;opacity:1;isolation:auto;mix-blend-mode:normal;color-interpolation:sRGB;color-interpolation-filters:linearRGB;solid-color:#000000;solid-opacity:1;vector-effect:none;fill:#808080;fill-opacity:1;fill-rule:nonzero;stroke:none;stroke-width:1.5875;stroke-linecap:square;stroke-linejoin:miter;stroke-miterlimit:4;stroke-dasharray:none;stroke-dashoffset:0;stroke-opacity:1;paint-order:markers stroke fill;color-rendering:auto;image-rendering:auto;shape-rendering:auto;text-rendering:auto;enable-background:accumulate;stop-color:#000000;stop-opacity:1"
       d="M 8.4666666,5.8203176 V 6.615101 11.773443 H 5.2911499 v 1.324466 H 8.4666666 V 17.06666 H 5.2911499 v 1.321883 h 3.1755167 v 3.96875 H 5.2911499 v 1.3224 h 3.1755167 v 3.968751 H 5.2911499 v 1.324467 H 8.4666666 V 32.94166 H 5.2911499 v 1.321882 h 3.1755167 v 3.96875 H 5.2911499 v 1.322401 h 3.1755167 v 4.894273 H 55.033333 V 43.847454 L 62.706249,38.60953 V 26.183416 L 59.819603,24.70547 62.706249,22.734531 V 10.308416 L 55.033333,6.3794565 V 5.8203176 Z M 55.033333,7.2285002 62.123857,10.857219 V 22.244122 L 59.075981,24.324615 55.033333,22.25394 Z M 10.054683,7.4083343 H 53.445317 V 42.863535 H 10.054683 v -3.308842 h 3.173967 v -1.322401 h -3.173967 v -3.96875 H 13.22865 V 32.94166 h -3.173967 v -3.968749 h 3.173967 v -1.324467 h -3.173967 v -3.968751 h 3.173967 v -1.3224 h -3.173967 v -3.96875 H 13.22865 V 17.06666 h -3.173967 v -3.968751 h 3.173967 v -1.324466 h -3.173967 z m 44.97865,15.6951667 7.090524,3.62872 v 11.386901 l -7.090524,4.840012 z" />
  </g>
</svg>
