<?xml version="1.0" encoding="UTF-8" standalone="no"?>
<svg
   xmlns:dc="http://purl.org/dc/elements/1.1/"
   xmlns:cc="http://creativecommons.org/ns#"
   xmlns:rdf="http://www.w3.org/1999/02/22-rdf-syntax-ns#"
   xmlns:svg="http://www.w3.org/2000/svg"
   xmlns="http://www.w3.org/2000/svg"
   xmlns:sodipodi="http://sodipodi.sourceforge.net/DTD/sodipodi-0.dtd"
   xmlns:inkscape="http://www.inkscape.org/namespaces/inkscape"
   width="256"
   height="256"
   viewBox="0 0 67.733332 67.733335"
   version="1.1"
   id="svg8"
   inkscape:version="1.0.1 (3bc2e813f5, 2020-09-07)"
   sodipodi:docname="powershell.svg"
   inkscape:export-filename="C:\Users\keath\Workspace\KMX\elite-streamdeck-icons\ship-lights.png"
   inkscape:export-xdpi="96"
   inkscape:export-ydpi="96">
  <defs
     id="defs2" />
  <sodipodi:namedview
     id="base"
     pagecolor="#000000"
     bordercolor="#666666"
     borderopacity="1.0"
     inkscape:pageopacity="0"
     inkscape:pageshadow="2"
     inkscape:zoom="5.6"
     inkscape:cx="111.90634"
     inkscape:cy="121.54987"
     inkscape:document-units="px"
     inkscape:current-layer="layer2"
     showgrid="true"
     units="px"
     inkscape:snap-grids="true"
     objecttolerance="10000"
     guidetolerance="10000"
     inkscape:window-width="3840"
     inkscape:window-height="2066"
     inkscape:window-x="-11"
     inkscape:window-y="-11"
     inkscape:window-maximized="1"
     inkscape:document-rotation="0"
     showguides="true"
     inkscape:guide-bbox="true">
    <inkscape:grid
       type="xygrid"
       id="grid4623" />
    <sodipodi:guide
       position="-3.96875,62.441667"
       orientation="0,256"
       id="guide3351" />
    <sodipodi:guide
       position="62.441667,42.597917"
       orientation="-1,0"
       id="guide3353"
       inkscape:label=""
       inkscape:locked="false"
       inkscape:color="rgb(0,0,255)" />
    <sodipodi:guide
       position="-2.6458333,22.754167"
       orientation="0,-256"
       id="guide3355" />
    <sodipodi:guide
       position="5.2916667,70.379167"
       orientation="-256,0"
       id="guide3357" />
    <sodipodi:guide
       position="0,67.733334"
       orientation="0,256"
       id="guide3359" />
    <sodipodi:guide
       position="67.733334,67.733334"
       orientation="256,0"
       id="guide3361" />
    <sodipodi:guide
       position="67.733334,0"
       orientation="0,-256"
       id="guide3363" />
    <sodipodi:guide
       position="0,0"
       orientation="-256,0"
       id="guide3365" />
    <sodipodi:guide
       position="0,67.733334"
       orientation="0,256"
       id="guide3367" />
    <sodipodi:guide
       position="67.733334,67.733334"
       orientation="256,0"
       id="guide3369" />
    <sodipodi:guide
       position="67.733334,0"
       orientation="0,-256"
       id="guide3371" />
    <sodipodi:guide
       position="0,0"
       orientation="-256,0"
       id="guide3373" />
    <sodipodi:guide
       position="0,67.733334"
       orientation="0,256"
       id="guide3375" />
    <sodipodi:guide
       position="67.733334,67.733334"
       orientation="256,0"
       id="guide3377" />
    <sodipodi:guide
       position="67.733334,0"
       orientation="0,-256"
       id="guide3379" />
    <sodipodi:guide
       position="0,0"
       orientation="-256,0"
       id="guide3381" />
    <sodipodi:guide
       position="33.866667,46.83125"
       orientation="1,0"
       id="guide895" />
    <sodipodi:guide
       position="41.010417,42.597917"
       orientation="0,-1"
       id="guide897" />
  </sodipodi:namedview>
  <metadata
     id="metadata5">
    <rdf:RDF>
      <cc:Work
         rdf:about="">
        <dc:format>image/svg+xml</dc:format>
        <dc:type
           rdf:resource="http://purl.org/dc/dcmitype/StillImage" />
        <dc:title></dc:title>
      </cc:Work>
    </rdf:RDF>
  </metadata>
  <g
     inkscape:groupmode="layer"
     id="layer2"
     inkscape:label="Icon">
    <path
       style="line-height:normal;text-indent:0;text-align:start;text-decoration:none;text-decoration-line:none;text-decoration-style:solid;text-decoration-color:#000000;text-transform:none;isolation:auto;mix-blend-mode:normal;fill:#808080;fill-opacity:1;stroke-width:0.264583"
       d="m 37.650606,7.6178826 c -4.957952,0.00187 -9.914988,-0.009 -14.875701,0.00561 -1.697981,0.00442 -3.023838,0.2278788 -4.039134,1.0355121 -1.015298,0.8067239 -1.532595,2.0489703 -1.916661,3.7074383 a 8179.2519,8179.2519 0 0 0 -5.721493,24.857764 c -0.373042,1.629069 -0.413471,2.993514 0.402441,4.000545 0.814996,1.00611 2.163825,1.271651 3.886613,1.27716 9.918667,0.03403 19.837333,0.03022 29.754162,0 1.533509,-0.0037 2.823533,-0.307819 3.815858,-1.08145 0.991407,-0.77365 1.584965,-1.949739 1.917578,-3.408826 1.928606,-8.455906 3.831481,-16.920078 5.693013,-25.39252 0.339976,-1.549134 0.365689,-2.8437467 -0.414388,-3.7993204 -0.780997,-0.954655 -2.04897,-1.1917129 -3.623828,-1.1981432 -4.962549,-0.020149 -9.922341,-0.00561 -14.87846,-0.00374 z m 0.0019,1.837641 c 4.959791,-0.0019 9.91499,-0.01665 14.869268,0.0037 1.372719,0.0056 1.99476,0.2637168 2.207927,0.5237247 0.213154,0.2609387 0.338137,0.9004447 0.04317,2.2428417 a 3285.3545,3285.3545 0 0 1 -5.691244,25.379658 c -0.276566,1.212842 -0.687277,1.92125 -1.256025,2.365041 -0.568751,0.443791 -1.392936,0.690034 -2.690307,0.694629 -9.914072,0.02953 -19.829064,0.03299 -29.742218,0 -1.518794,-0.0056 -2.218013,-0.291255 -2.46426,-0.596312 -0.247153,-0.304139 -0.363852,-1.010703 -0.03768,-2.434871 1.893759,-8.287766 3.797552,-16.572768 5.71697,-24.853176 0.347313,-1.497678 0.745162,-2.264893 1.270729,-2.682958 0.525563,-0.4180617 1.367207,-0.6330664 2.901635,-0.6367414 4.954279,-0.01444 9.911316,-0.0037 14.872029,-0.0056 z m -9.099951,2.7546224 c -0.58345,-0.0441 -1.179767,0.199402 -1.780672,0.7323 -1.215602,1.078694 -0.892179,2.139012 0.119466,3.231491 2.212516,2.388933 4.256893,4.723655 6.489626,7.231117 0.383149,0.42633 0.848991,0.960165 1.407632,1.591396 -0.424493,0.316989 -1.096152,0.833371 -1.598747,1.207329 a 1591.397,1591.397 0 0 1 -10.874268,8.018547 c -1.016218,0.743324 -1.921256,1.532591 -0.941791,2.860287 0.888498,1.203655 1.937792,0.99968 3.036701,0.184681 4.890881,-3.624747 9.785437,-7.243982 14.710314,-10.822786 1.281756,-0.932601 1.553726,-1.787104 0.38866,-3.044972 -3.1195,-3.368393 -6.185606,-6.787324 -9.254465,-10.20258 -0.551293,-0.612852 -1.120042,-0.943627 -1.702574,-0.986813 z m 3.197493,21.127355 c -1.03367,0 -1.607936,0.918822 -1.607936,1.83764 0,0.918819 0.574266,1.837643 1.607936,1.837643 h 8.728798 c 1.033671,0 1.607936,-0.918824 1.607936,-1.837643 0,-0.918818 -0.574265,-1.83764 -1.607936,-1.83764 z"
       font-weight="400"
       font-family="sans-serif"
       white-space="normal"
       overflow="visible"
       id="path2" />
  </g>
</svg>
