<?xml version="1.0" encoding="UTF-8" standalone="no"?>
<svg
   xmlns:dc="http://purl.org/dc/elements/1.1/"
   xmlns:cc="http://creativecommons.org/ns#"
   xmlns:rdf="http://www.w3.org/1999/02/22-rdf-syntax-ns#"
   xmlns:svg="http://www.w3.org/2000/svg"
   xmlns="http://www.w3.org/2000/svg"
   xmlns:sodipodi="http://sodipodi.sourceforge.net/DTD/sodipodi-0.dtd"
   xmlns:inkscape="http://www.inkscape.org/namespaces/inkscape"
   width="256"
   height="256"
   viewBox="0 0 67.733332 67.733335"
   version="1.1"
   id="svg8"
   inkscape:version="1.0.1 (3bc2e813f5, 2020-09-07)"
   sodipodi:docname="react-ref.svg"
   inkscape:export-filename="C:\Users\keath\Workspace\KMX\elite-streamdeck-icons\ship-lights.png"
   inkscape:export-xdpi="96"
   inkscape:export-ydpi="96">
  <defs
     id="defs2" />
  <sodipodi:namedview
     id="base"
     pagecolor="#000000"
     bordercolor="#666666"
     borderopacity="1.0"
     inkscape:pageopacity="0"
     inkscape:pageshadow="2"
     inkscape:zoom="5.6"
     inkscape:cx="111.90634"
     inkscape:cy="121.54987"
     inkscape:document-units="px"
     inkscape:current-layer="layer2"
     showgrid="true"
     units="px"
     inkscape:snap-grids="true"
     objecttolerance="10000"
     guidetolerance="10000"
     inkscape:window-width="2780"
     inkscape:window-height="1895"
     inkscape:window-x="4681"
     inkscape:window-y="172"
     inkscape:window-maximized="0"
     inkscape:document-rotation="0"
     showguides="true"
     inkscape:guide-bbox="true">
    <inkscape:grid
       type="xygrid"
       id="grid4623" />
    <sodipodi:guide
       position="-3.96875,62.441667"
       orientation="0,256"
       id="guide3351" />
    <sodipodi:guide
       position="62.441667,42.597917"
       orientation="-1,0"
       id="guide3353"
       inkscape:label=""
       inkscape:locked="false"
       inkscape:color="rgb(0,0,255)" />
    <sodipodi:guide
       position="-2.6458333,22.754167"
       orientation="0,-256"
       id="guide3355" />
    <sodipodi:guide
       position="5.2916667,70.379167"
       orientation="-256,0"
       id="guide3357" />
    <sodipodi:guide
       position="0,67.733334"
       orientation="0,256"
       id="guide3359" />
    <sodipodi:guide
       position="67.733334,67.733334"
       orientation="256,0"
       id="guide3361" />
    <sodipodi:guide
       position="67.733334,0"
       orientation="0,-256"
       id="guide3363" />
    <sodipodi:guide
       position="0,0"
       orientation="-256,0"
       id="guide3365" />
    <sodipodi:guide
       position="0,67.733334"
       orientation="0,256"
       id="guide3367" />
    <sodipodi:guide
       position="67.733334,67.733334"
       orientation="256,0"
       id="guide3369" />
    <sodipodi:guide
       position="67.733334,0"
       orientation="0,-256"
       id="guide3371" />
    <sodipodi:guide
       position="0,0"
       orientation="-256,0"
       id="guide3373" />
    <sodipodi:guide
       position="0,67.733334"
       orientation="0,256"
       id="guide3375" />
    <sodipodi:guide
       position="67.733334,67.733334"
       orientation="256,0"
       id="guide3377" />
    <sodipodi:guide
       position="67.733334,0"
       orientation="0,-256"
       id="guide3379" />
    <sodipodi:guide
       position="0,0"
       orientation="-256,0"
       id="guide3381" />
    <sodipodi:guide
       position="33.866667,46.83125"
       orientation="1,0"
       id="guide895" />
    <sodipodi:guide
       position="41.010417,42.597917"
       orientation="0,-1"
       id="guide897" />
  </sodipodi:namedview>
  <metadata
     id="metadata5">
    <rdf:RDF>
      <cc:Work
         rdf:about="">
        <dc:format>image/svg+xml</dc:format>
        <dc:type
           rdf:resource="http://purl.org/dc/dcmitype/StillImage" />
        <dc:title />
      </cc:Work>
    </rdf:RDF>
  </metadata>
  <g
     inkscape:groupmode="layer"
     id="layer2"
     inkscape:label="Icon">
    <path
       id="path2"
       style="fill:#808080;fill-opacity:1;stroke-width:0.264582"
       d="m 39.684133,11.903766 c -1.717881,0 -3.966647,1.224357 -6.240497,3.348285 -2.273851,-2.111435 -4.522738,-3.323274 -6.24062,-3.323274 v 0.0063 c -0.524735,0 -0.99947,0.112419 -1.411762,0.349799 -1.755362,1.011989 -2.148937,4.16662 -1.243145,8.127118 -3.885537,1.199395 -6.415581,3.117223 -6.415581,5.141201 0,2.030223 2.542562,3.954275 6.440592,5.147421 -0.899544,3.972992 -0.499796,7.133919 1.261814,8.145909 0.406044,0.237378 0.880805,0.349798 1.405539,0.349798 1.717881,0 3.966769,-1.224358 6.240619,-3.348283 2.273851,2.111432 4.522738,3.323271 6.240619,3.323271 0.524736,0 0.999471,-0.11242 1.411763,-0.3498 1.755361,-1.011988 2.148936,-4.166621 1.243146,-8.127116 3.873043,-1.193148 6.403013,-3.117223 6.403013,-5.1412 0,-2.030225 -2.542564,-3.954276 -6.440593,-5.147422 0.899546,-3.972991 0.499796,-7.133919 -1.261812,-8.145907 -0.404404,-0.236421 -0.877055,-0.348772 -1.393095,-0.349678 z m -0.0063,1.393217 v 0.0062 c 0.287353,0 0.518511,0.0562 0.712162,0.162394 0.849571,0.487253 1.218159,2.342518 0.930805,4.728812 -0.06871,0.587202 -0.181134,1.205665 -0.318564,1.836596 -1.224387,-0.299848 -2.561211,-0.531007 -3.966749,-0.680931 -0.843324,-1.155665 -1.717979,-2.205134 -2.598783,-3.12342 2.033265,-1.889817 3.941904,-2.926294 5.241124,-2.929552 z m -12.4749,0.02478 c 1.293096,0 3.210877,1.030827 5.247348,2.911128 -0.874559,0.918285 -1.749166,1.96141 -2.579996,3.117076 -1.411785,0.149925 -2.748587,0.381057 -3.972967,0.687153 -0.143672,-0.624684 -0.24982,-1.230628 -0.324782,-1.811584 -0.293601,-2.386294 0.06869,-4.241534 0.912015,-4.735036 0.187405,-0.112442 0.431031,-0.162392 0.718387,-0.162392 z m 6.234243,3.891833 c 0.580957,0.599697 1.161961,1.26811 1.736671,1.99899 -0.562216,-0.02499 -1.136925,-0.04368 -1.717882,-0.04368 -0.587202,0 -1.168208,0.01245 -1.73667,0.04368 0.562216,-0.73088 1.143172,-1.399293 1.717881,-1.99899 z m 0.01878,3.354506 c 0.943275,0 1.886548,0.04374 2.811079,0.118714 0.518488,0.743374 1.024433,1.536723 1.511688,2.373799 0.47476,0.818337 0.90584,1.649215 1.299391,2.486294 -0.393553,0.837075 -0.824536,1.674176 -1.293049,2.492513 -0.487254,0.843322 -0.987098,1.64287 -1.505586,2.386246 -0.930778,0.08121 -1.874003,0.124934 -2.823523,0.124934 -0.943274,0 -1.886546,-0.04374 -2.81108,-0.118714 -0.518487,-0.743374 -1.024432,-1.536721 -1.511685,-2.3738 -0.474761,-0.818335 -0.905843,-1.649092 -1.299392,-2.48617 0.387304,-0.837076 0.824534,-1.674176 1.293047,-2.492513 0.487254,-0.843324 0.987098,-1.642994 1.505586,-2.386367 0.930779,-0.08121 1.874003,-0.124937 2.823524,-0.124936 z m -4.641451,0.324909 c -0.306095,0.481007 -0.612093,0.974458 -0.899448,1.480453 -0.287354,0.499747 -0.555969,0.999494 -0.812089,1.499241 -0.337329,-0.837076 -0.624733,-1.67408 -0.862113,-2.486169 0.818337,-0.193653 1.680351,-0.362341 2.57365,-0.493525 z m 9.270337,0 c 0.887051,0.131184 1.742871,0.293625 2.561204,0.493525 -0.231132,0.805843 -0.518485,1.636672 -0.843322,2.467502 -0.256122,-0.499749 -0.524711,-0.999494 -0.818313,-1.499243 -0.287355,-0.499747 -0.593476,-0.987025 -0.899569,-1.461784 z m 3.910499,0.86199 c 0.618439,0.193652 1.205738,0.406119 1.755461,0.637252 2.21138,0.943272 3.641834,2.180123 3.641834,3.160876 -0.0063,0.980755 -1.436799,2.223852 -3.64818,3.160878 -0.537228,0.231134 -1.124384,0.437254 -1.730328,0.630907 -0.356069,-1.22438 -0.824582,-2.498639 -1.405539,-3.80423 0.574709,-1.299343 1.036928,-2.567548 1.38675,-3.785684 z m -17.103779,0.0064 c 0.356069,1.224381 0.824583,2.498639 1.405538,3.804229 -0.574709,1.299343 -1.037048,2.56755 -1.386872,3.785684 -0.618431,-0.193651 -1.205634,-0.406118 -1.74911,-0.637251 -2.211382,-0.943274 -3.641836,-2.180124 -3.641836,-3.160878 0,-0.980753 1.430454,-2.223852 3.641835,-3.160877 0.537229,-0.231133 1.124506,-0.437255 1.730449,-0.630907 z m 8.548167,0.937027 a 2.8548067,2.8548067 0 0 0 -2.844874,2.854757 2.8548067,2.8548067 0 0 0 2.854879,2.854758 2.8548067,2.8548067 0 0 0 2.854758,-2.854758 2.8548067,2.8548067 0 0 0 -2.854758,-2.854757 2.8548067,2.8548067 0 0 0 -0.01008,0 z m 6.362992,4.52896 c 0.337331,0.837077 0.624735,1.674079 0.862113,2.486169 -0.818336,0.199896 -1.680473,0.36856 -2.573773,0.499743 0.306096,-0.481005 0.612215,-0.974457 0.899571,-1.480452 0.287355,-0.499746 0.555969,-1.005716 0.812089,-1.505465 z m -12.699755,0.02489 c 0.25612,0.499747 0.52471,0.999494 0.818312,1.499242 0.293602,0.499747 0.593474,0.987026 0.899569,1.461785 -0.887051,-0.131184 -1.742868,-0.293625 -2.561205,-0.493525 0.231133,-0.805842 0.518487,-1.636673 0.843324,-2.467502 z m 13.911667,3.81057 c 0.143678,0.63093 0.256073,1.236973 0.324787,1.817928 0.293603,2.386294 -0.06869,4.241533 -0.912014,4.735033 -0.187406,0.112443 -0.431033,0.162395 -0.718388,0.162395 -1.293095,0 -3.210876,-1.030707 -5.247345,-2.911006 0.874557,-0.918284 1.749163,-1.961531 2.579994,-3.117198 1.411786,-0.149923 2.748585,-0.381057 3.972966,-0.687152 z m -15.104912,0.01256 c 1.224381,0.299851 2.561205,0.531007 3.966745,0.680932 0.843323,1.155666 1.717978,2.205135 2.598782,3.123421 -2.03647,1.892794 -3.948003,2.929671 -5.247346,2.929671 -0.281108,-0.0063 -0.518538,-0.06241 -0.705941,-0.168615 -0.849572,-0.487254 -1.21816,-2.342517 -0.930805,-4.728811 0.06872,-0.587202 0.181134,-1.205665 0.318565,-1.836598 z m 5.82213,0.818313 c 0.562215,0.02499 1.136926,0.04368 1.717882,0.04368 0.587203,0 1.168085,-0.01244 1.736549,-0.04368 -0.562217,0.73088 -1.143173,1.399293 -1.717882,1.998989 -0.580957,-0.599696 -1.16184,-1.268109 -1.736549,-1.998989 z" />
    <path
       id="path870"
       style="color:#000000;font-style:normal;font-variant:normal;font-weight:normal;font-stretch:normal;font-size:medium;line-height:normal;font-family:sans-serif;font-variant-ligatures:normal;font-variant-position:normal;font-variant-caps:normal;font-variant-numeric:normal;font-variant-alternates:normal;font-variant-east-asian:normal;font-feature-settings:normal;font-variation-settings:normal;text-indent:0;text-align:start;text-decoration:none;text-decoration-line:none;text-decoration-style:solid;text-decoration-color:#000000;letter-spacing:normal;word-spacing:normal;text-transform:none;writing-mode:lr-tb;direction:ltr;text-orientation:mixed;dominant-baseline:auto;baseline-shift:baseline;text-anchor:start;white-space:normal;shape-padding:0;shape-margin:0;inline-size:0;clip-rule:nonzero;display:inline;overflow:visible;visibility:visible;opacity:1;isolation:auto;mix-blend-mode:normal;color-interpolation:sRGB;color-interpolation-filters:linearRGB;solid-color:#000000;solid-opacity:1;vector-effect:none;fill:#808080;fill-opacity:1;fill-rule:nonzero;stroke:none;stroke-width:1.5875;stroke-linecap:square;stroke-linejoin:miter;stroke-miterlimit:4;stroke-dasharray:none;stroke-dashoffset:0;stroke-opacity:1;paint-order:markers stroke fill;color-rendering:auto;image-rendering:auto;shape-rendering:auto;text-rendering:auto;enable-background:accumulate;stop-color:#000000;stop-opacity:1"
       d="M 8.4666666,5.8203176 V 6.615101 11.773443 H 5.2911499 v 1.324466 H 8.4666666 V 17.06666 H 5.2911499 v 1.321883 h 3.1755167 v 3.96875 H 5.2911499 v 1.3224 h 3.1755167 v 3.968751 H 5.2911499 v 1.324467 H 8.4666666 V 32.94166 H 5.2911499 v 1.321882 h 3.1755167 v 3.96875 H 5.2911499 v 1.322401 h 3.1755167 v 4.894273 H 55.033333 V 43.847454 L 62.706249,38.60953 V 26.183416 L 59.819603,24.70547 62.706249,22.734531 V 10.308416 L 55.033333,6.3794565 V 5.8203176 Z M 55.033333,7.2285002 62.123857,10.857219 V 22.244122 L 59.075981,24.324615 55.033333,22.25394 Z M 10.054683,7.4083343 H 53.445317 V 42.863535 H 10.054683 v -3.308842 h 3.173967 v -1.322401 h -3.173967 v -3.96875 H 13.22865 V 32.94166 h -3.173967 v -3.968749 h 3.173967 v -1.324467 h -3.173967 v -3.968751 h 3.173967 v -1.3224 h -3.173967 v -3.96875 H 13.22865 V 17.06666 h -3.173967 v -3.968751 h 3.173967 v -1.324466 h -3.173967 z m 44.97865,15.6951667 7.090524,3.62872 v 11.386901 l -7.090524,4.840012 z" />
  </g>
</svg>
