<?xml version="1.0" encoding="UTF-8" standalone="no"?>
<svg
   xmlns:dc="http://purl.org/dc/elements/1.1/"
   xmlns:cc="http://creativecommons.org/ns#"
   xmlns:rdf="http://www.w3.org/1999/02/22-rdf-syntax-ns#"
   xmlns:svg="http://www.w3.org/2000/svg"
   xmlns="http://www.w3.org/2000/svg"
   xmlns:sodipodi="http://sodipodi.sourceforge.net/DTD/sodipodi-0.dtd"
   xmlns:inkscape="http://www.inkscape.org/namespaces/inkscape"
   width="256"
   height="256"
   viewBox="0 0 67.733332 67.733335"
   version="1.1"
   id="svg8"
   inkscape:version="1.0.1 (3bc2e813f5, 2020-09-07)"
   sodipodi:docname="react.svg"
   inkscape:export-filename="C:\Users\keath\Workspace\KMX\elite-streamdeck-icons\ship-lights.png"
   inkscape:export-xdpi="96"
   inkscape:export-ydpi="96">
  <defs
     id="defs2">
    <clipPath
       clipPathUnits="userSpaceOnUse"
       id="clipPath1014">
      <rect
         style="opacity:0.07;fill:#800080;stroke-width:0.286404"
         id="rect1016"
         width="81.64286"
         height="88.824394"
         x="56.50745"
         y="100.64066"
         ry="3.1166456" />
    </clipPath>
    <clipPath
       clipPathUnits="userSpaceOnUse"
       id="clipPath3444">
      <path
         d="M 11.52,162 C 11.52,81.677 135.307,16.561 288,16.561 v 0 c 152.693,0 276.481,65.116 276.481,145.439 v 0 c 0,80.322 -123.788,145.439 -276.481,145.439 v 0 C 135.307,307.439 11.52,242.322 11.52,162"
         id="path3446" />
    </clipPath>
    <radialGradient
       cx="0"
       cy="0"
       fx="0"
       fy="0"
       gradientTransform="matrix(363.05789,0,0,-363.05789,177.52002,256.30713)"
       gradientUnits="userSpaceOnUse"
       id="radialGradient3452"
       r="1"
       spreadMethod="pad">
      <stop
         id="stop3454"
         offset="0"
         style="stop-opacity:1;stop-color:#aeb2d5" />
      <stop
         id="stop3456"
         offset="0.3"
         style="stop-opacity:1;stop-color:#aeb2d5" />
      <stop
         id="stop3458"
         offset="0.75"
         style="stop-opacity:1;stop-color:#484c89" />
      <stop
         id="stop3460"
         offset="1"
         style="stop-opacity:1;stop-color:#484c89" />
    </radialGradient>
    <clipPath
       clipPathUnits="userSpaceOnUse"
       id="clipPath3468">
      <path
         d="M 0,324 H 576 V 0 H 0 Z"
         id="path3470" />
    </clipPath>
    <clipPath
       clipPathUnits="userSpaceOnUse"
       id="clipPath3480">
      <path
         d="M 0,324 H 576 V 0 H 0 Z"
         id="path3482" />
    </clipPath>
  </defs>
  <sodipodi:namedview
     id="base"
     pagecolor="#000000"
     bordercolor="#666666"
     borderopacity="1.0"
     inkscape:pageopacity="0"
     inkscape:pageshadow="2"
     inkscape:zoom="3.959798"
     inkscape:cx="101.80463"
     inkscape:cy="124.30592"
     inkscape:document-units="px"
     inkscape:current-layer="layer2"
     showgrid="true"
     units="px"
     inkscape:snap-grids="true"
     objecttolerance="10000"
     guidetolerance="10000"
     inkscape:window-width="3840"
     inkscape:window-height="2066"
     inkscape:window-x="3829"
     inkscape:window-y="-11"
     inkscape:window-maximized="1"
     inkscape:document-rotation="0"
     showguides="true"
     inkscape:guide-bbox="true">
    <inkscape:grid
       type="xygrid"
       id="grid4623" />
    <sodipodi:guide
       position="-3.96875,62.441667"
       orientation="0,256"
       id="guide3351" />
    <sodipodi:guide
       position="62.441667,42.597917"
       orientation="-1,0"
       id="guide3353"
       inkscape:label=""
       inkscape:locked="false"
       inkscape:color="rgb(0,0,255)" />
    <sodipodi:guide
       position="-2.6458333,22.754167"
       orientation="0,-256"
       id="guide3355" />
    <sodipodi:guide
       position="5.2916667,70.379167"
       orientation="-256,0"
       id="guide3357" />
    <sodipodi:guide
       position="0,67.733334"
       orientation="0,256"
       id="guide3359" />
    <sodipodi:guide
       position="67.733334,67.733334"
       orientation="256,0"
       id="guide3361" />
    <sodipodi:guide
       position="67.733334,0"
       orientation="0,-256"
       id="guide3363" />
    <sodipodi:guide
       position="0,0"
       orientation="-256,0"
       id="guide3365" />
    <sodipodi:guide
       position="0,67.733334"
       orientation="0,256"
       id="guide3367" />
    <sodipodi:guide
       position="67.733334,67.733334"
       orientation="256,0"
       id="guide3369" />
    <sodipodi:guide
       position="67.733334,0"
       orientation="0,-256"
       id="guide3371" />
    <sodipodi:guide
       position="0,0"
       orientation="-256,0"
       id="guide3373" />
    <sodipodi:guide
       position="0,67.733334"
       orientation="0,256"
       id="guide3375" />
    <sodipodi:guide
       position="67.733334,67.733334"
       orientation="256,0"
       id="guide3377" />
    <sodipodi:guide
       position="67.733334,0"
       orientation="0,-256"
       id="guide3379" />
    <sodipodi:guide
       position="0,0"
       orientation="-256,0"
       id="guide3381" />
    <sodipodi:guide
       position="33.866667,46.83125"
       orientation="1,0"
       id="guide895" />
    <sodipodi:guide
       position="41.010417,42.597917"
       orientation="0,-1"
       id="guide897" />
  </sodipodi:namedview>
  <metadata
     id="metadata5">
    <rdf:RDF>
      <cc:Work
         rdf:about="">
        <dc:format>image/svg+xml</dc:format>
        <dc:type
           rdf:resource="http://purl.org/dc/dcmitype/StillImage" />
        <dc:title></dc:title>
      </cc:Work>
    </rdf:RDF>
  </metadata>
  <g
     inkscape:groupmode="layer"
     id="layer2"
     inkscape:label="Icon">
    <path
       style="fill:#000000;stroke-width:1"
       id="path909"
       d="" />
    <path
       id="path2"
       style="fill:#808080;fill-opacity:1;stroke-width:0.264582"
       d="m 42.487894,6.4784967 c -2.36061,0 -5.450729,1.6824376 -8.575318,4.6010123 C 30.787987,8.1781025 27.6977,6.5128661 25.33709,6.5128661 v 0.00855 c -0.721059,0 -1.373412,0.1544788 -1.939959,0.4806723 -2.412114,1.3906152 -2.952941,5.7255216 -1.708257,11.1678006 -5.33927,1.648135 -8.815905,4.283501 -8.815905,7.064729 0,2.789811 3.493836,5.433728 8.850275,7.073279 -1.2361,5.459448 -0.68679,9.803003 1.733909,11.193618 0.557962,0.326192 1.210349,0.480672 1.931408,0.480672 2.360609,0 5.450896,-1.682438 8.575486,-4.60101 3.124588,2.901404 6.214875,4.56664 8.575485,4.56664 0.72106,0 1.373413,-0.154479 1.939959,-0.480672 2.412114,-1.390615 2.952942,-5.72552 1.708256,-11.167798 5.322104,-1.639551 8.798639,-4.283501 8.798639,-7.064729 0,-2.789812 -3.493838,-5.433728 -8.850277,-7.073279 C 47.372211,12.701893 46.822899,8.358335 44.402201,6.9677216 43.846494,6.6428462 43.197005,6.488461 42.487894,6.4872162 Z m -0.0085,1.9144751 v 0.00835 c 0.394866,0 0.712508,0.077226 0.978613,0.2231519 1.167429,0.6695547 1.673921,3.2189483 1.279055,6.4980503 -0.09442,0.806899 -0.248904,1.656752 -0.437753,2.523741 -1.68247,-0.412034 -3.519454,-0.729678 -5.450862,-0.935694 -1.158845,-1.588047 -2.360744,-3.030165 -3.571093,-4.292018 2.793993,-2.5968732 5.416729,-4.0211384 7.20204,-4.0256142 z M 25.33714,8.4270098 c 1.776896,0 4.412195,1.416501 7.210591,4.0002972 -1.201766,1.261853 -2.403599,2.695254 -3.545275,4.283301 -1.939992,0.206016 -3.776943,0.523625 -5.459414,0.944244 -0.197432,-0.858405 -0.343295,-1.691056 -0.446303,-2.489371 -0.403449,-3.279102 0.09439,-5.8284619 1.253236,-6.5066015 0.257521,-0.1545126 0.592298,-0.2231519 0.987165,-0.2231519 z m 8.566724,5.3479242 c 0.798316,0.824067 1.596698,1.742559 2.386429,2.746892 -0.772563,-0.03433 -1.562295,-0.06002 -2.36061,-0.06002 -0.806899,0 -1.605282,0.0171 -2.386429,0.06002 0.772564,-1.004333 1.570879,-1.922825 2.36061,-2.746892 z m 0.02582,4.609561 c 1.296191,0 2.59238,0.06011 3.862817,0.16313 0.712475,1.0215 1.407715,2.111673 2.07727,3.261933 0.652387,1.124509 1.244752,2.266252 1.785546,3.416514 -0.540796,1.15026 -1.133028,2.300554 -1.77683,3.425063 -0.669555,1.158845 -1.356412,2.257535 -2.068887,3.279035 -1.279021,0.111593 -2.575143,0.17168 -3.879917,0.17168 -1.29619,0 -2.592379,-0.06012 -3.862816,-0.16313 -0.712475,-1.0215 -1.407715,-2.111672 -2.07727,-3.261934 -0.652386,-1.124508 -1.244753,-2.266085 -1.785546,-3.416346 0.53221,-1.15026 1.133025,-2.300554 1.776828,-3.425063 0.669555,-1.158845 1.356412,-2.257703 2.068887,-3.279202 1.279021,-0.111593 2.575143,-0.171681 3.879917,-0.171681 z m -6.378004,0.44647 c -0.420619,0.660971 -0.841102,1.339042 -1.235968,2.03435 -0.394865,0.686722 -0.763979,1.373445 -1.115925,2.060168 -0.463537,-1.150261 -0.85847,-2.300421 -1.184663,-3.416346 1.124508,-0.266105 2.309038,-0.497907 3.536556,-0.678172 z m 12.738742,0 c 1.218934,0.180265 2.394947,0.403483 3.519455,0.678172 -0.317609,1.107341 -0.712475,2.249018 -1.158845,3.390695 -0.351945,-0.686724 -0.721025,-1.373446 -1.124475,-2.060169 -0.394866,-0.686724 -0.815517,-1.356312 -1.236135,-2.008698 z m 5.373574,1.184496 c 0.84982,0.266105 1.656852,0.558063 2.412248,0.875673 3.038749,1.296188 5.004392,2.995794 5.004392,4.343488 -0.0086,1.347693 -1.974363,3.055883 -5.013112,4.343488 -0.738227,0.31761 -1.54506,0.600849 -2.377711,0.866954 -0.48929,-1.68247 -1.133093,-3.43348 -1.931408,-5.227544 0.789731,-1.785479 1.424882,-3.528172 1.905588,-5.20206 z m -23.502991,0.0087 c 0.48929,1.682471 1.133093,3.43348 1.931408,5.227544 -0.789731,1.785479 -1.425051,3.528173 -1.905757,5.20206 -0.849819,-0.266105 -1.656718,-0.558063 -2.403529,-0.875673 -3.038749,-1.296189 -5.004394,-2.995795 -5.004394,-4.343488 0,-1.347694 1.965645,-3.055884 5.004394,-4.343489 0.738227,-0.317609 1.545227,-0.600849 2.377878,-0.866954 z m 11.746381,1.287605 a 3.9229045,3.9229045 0 0 0 -3.909256,3.922838 3.9229045,3.9229045 0 0 0 3.923004,3.922837 3.9229045,3.9229045 0 0 0 3.922838,-3.922837 3.9229045,3.9229045 0 0 0 -3.922838,-3.922838 3.9229045,3.9229045 0 0 0 -0.01375,0 z m 8.743645,6.223426 c 0.463538,1.150261 0.85847,2.300421 1.184663,3.416346 -1.124509,0.274684 -2.309206,0.506453 -3.536724,0.686717 0.420618,-0.66097 0.841269,-1.339042 1.236135,-2.034349 0.394866,-0.686723 0.763979,-1.381996 1.115925,-2.068719 z m -17.451245,0.0342 c 0.351945,0.686723 0.721025,1.373446 1.124474,2.060168 0.403451,0.686724 0.815518,1.356312 1.236135,2.008699 -1.218933,-0.180265 -2.394946,-0.403483 -3.519454,-0.678173 0.317609,-1.10734 0.712474,-2.249017 1.158845,-3.390694 z m 19.11658,5.236257 c 0.197433,0.866988 0.351879,1.699774 0.446304,2.498089 0.403449,3.279102 -0.09439,5.82846 -1.253237,6.506599 -0.257521,0.154512 -0.592298,0.223151 -0.987164,0.223151 -1.776895,0 -4.412194,-1.416332 -7.21059,-4.000128 1.201765,-1.261853 2.403597,-2.695421 3.545274,-4.283467 1.939992,-0.206017 3.776942,-0.523627 5.459413,-0.944244 z M 23.5601,32.822919 c 1.68247,0.412034 3.519454,0.729676 5.450863,0.935694 1.158844,1.588046 2.360743,3.030164 3.571092,4.292018 -2.798395,2.600963 -5.42511,4.025779 -7.21059,4.025779 -0.386281,-0.0086 -0.712542,-0.08577 -0.970063,-0.231702 -1.167429,-0.669554 -1.673921,-3.218947 -1.279055,-6.498049 0.09443,-0.806899 0.248904,-1.656752 0.437753,-2.52374 z m 8.000422,1.124475 c 0.772563,0.03434 1.562294,0.06002 2.36061,0.06002 0.8069,0 1.605114,-0.0171 2.386262,-0.06002 -0.772564,1.00433 -1.570879,1.922823 -2.36061,2.74689 -0.798316,-0.824067 -1.596531,-1.74256 -2.386262,-2.74689 z" />
    <polygon
       fill="#61dafb"
       points=""
       id="polygon4"
       transform="matrix(0.26458333,0,0,0.26458333,-79.374999,-50.270831)" />
    <polygon
       fill="#61dafb"
       points=""
       id="polygon8"
       transform="matrix(0.26458333,0,0,0.26458333,-79.374999,-50.270831)" />
  </g>
</svg>
