<?xml version="1.0" encoding="UTF-8" standalone="no"?>
<svg
   xmlns:dc="http://purl.org/dc/elements/1.1/"
   xmlns:cc="http://creativecommons.org/ns#"
   xmlns:rdf="http://www.w3.org/1999/02/22-rdf-syntax-ns#"
   xmlns:svg="http://www.w3.org/2000/svg"
   xmlns="http://www.w3.org/2000/svg"
   xmlns:sodipodi="http://sodipodi.sourceforge.net/DTD/sodipodi-0.dtd"
   xmlns:inkscape="http://www.inkscape.org/namespaces/inkscape"
   width="256"
   height="256"
   viewBox="0 0 67.733332 67.733335"
   version="1.1"
   id="svg8"
   inkscape:version="1.0.1 (3bc2e813f5, 2020-09-07)"
   sodipodi:docname="reference.svg"
   inkscape:export-filename="C:\Users\keath\Workspace\KMX\elite-streamdeck-icons\ship-lights.png"
   inkscape:export-xdpi="96"
   inkscape:export-ydpi="96">
  <defs
     id="defs2" />
  <sodipodi:namedview
     id="base"
     pagecolor="#000000"
     bordercolor="#666666"
     borderopacity="1.0"
     inkscape:pageopacity="0"
     inkscape:pageshadow="2"
     inkscape:zoom="5.6"
     inkscape:cx="111.90634"
     inkscape:cy="121.54987"
     inkscape:document-units="px"
     inkscape:current-layer="layer2"
     showgrid="true"
     units="px"
     inkscape:snap-grids="true"
     objecttolerance="10000"
     guidetolerance="10000"
     inkscape:window-width="2780"
     inkscape:window-height="1895"
     inkscape:window-x="4681"
     inkscape:window-y="172"
     inkscape:window-maximized="0"
     inkscape:document-rotation="0"
     showguides="true"
     inkscape:guide-bbox="true">
    <inkscape:grid
       type="xygrid"
       id="grid4623" />
    <sodipodi:guide
       position="-3.96875,62.441667"
       orientation="0,256"
       id="guide3351" />
    <sodipodi:guide
       position="62.441667,42.597917"
       orientation="-1,0"
       id="guide3353"
       inkscape:label=""
       inkscape:locked="false"
       inkscape:color="rgb(0,0,255)" />
    <sodipodi:guide
       position="-2.6458333,22.754167"
       orientation="0,-256"
       id="guide3355" />
    <sodipodi:guide
       position="5.2916667,70.379167"
       orientation="-256,0"
       id="guide3357" />
    <sodipodi:guide
       position="0,67.733334"
       orientation="0,256"
       id="guide3359" />
    <sodipodi:guide
       position="67.733334,67.733334"
       orientation="256,0"
       id="guide3361" />
    <sodipodi:guide
       position="67.733334,0"
       orientation="0,-256"
       id="guide3363" />
    <sodipodi:guide
       position="0,0"
       orientation="-256,0"
       id="guide3365" />
    <sodipodi:guide
       position="0,67.733334"
       orientation="0,256"
       id="guide3367" />
    <sodipodi:guide
       position="67.733334,67.733334"
       orientation="256,0"
       id="guide3369" />
    <sodipodi:guide
       position="67.733334,0"
       orientation="0,-256"
       id="guide3371" />
    <sodipodi:guide
       position="0,0"
       orientation="-256,0"
       id="guide3373" />
    <sodipodi:guide
       position="0,67.733334"
       orientation="0,256"
       id="guide3375" />
    <sodipodi:guide
       position="67.733334,67.733334"
       orientation="256,0"
       id="guide3377" />
    <sodipodi:guide
       position="67.733334,0"
       orientation="0,-256"
       id="guide3379" />
    <sodipodi:guide
       position="0,0"
       orientation="-256,0"
       id="guide3381" />
    <sodipodi:guide
       position="33.866667,46.83125"
       orientation="1,0"
       id="guide895" />
    <sodipodi:guide
       position="41.010417,42.597917"
       orientation="0,-1"
       id="guide897" />
  </sodipodi:namedview>
  <metadata
     id="metadata5">
    <rdf:RDF>
      <cc:Work
         rdf:about="">
        <dc:format>image/svg+xml</dc:format>
        <dc:type
           rdf:resource="http://purl.org/dc/dcmitype/StillImage" />
        <dc:title />
      </cc:Work>
    </rdf:RDF>
  </metadata>
  <g
     inkscape:groupmode="layer"
     id="layer2"
     inkscape:label="Icon">
    <path
       id="path879"
       style="color:#000000;font-style:normal;font-variant:normal;font-weight:normal;font-stretch:normal;font-size:medium;line-height:normal;font-family:sans-serif;font-variant-ligatures:normal;font-variant-position:normal;font-variant-caps:normal;font-variant-numeric:normal;font-variant-alternates:normal;font-variant-east-asian:normal;font-feature-settings:normal;font-variation-settings:normal;text-indent:0;text-align:start;text-decoration:none;text-decoration-line:none;text-decoration-style:solid;text-decoration-color:#000000;letter-spacing:normal;word-spacing:normal;text-transform:none;writing-mode:lr-tb;direction:ltr;text-orientation:mixed;dominant-baseline:auto;baseline-shift:baseline;text-anchor:start;white-space:normal;shape-padding:0;shape-margin:0;inline-size:0;clip-rule:nonzero;display:inline;overflow:visible;visibility:visible;opacity:1;isolation:auto;mix-blend-mode:normal;color-interpolation:sRGB;color-interpolation-filters:linearRGB;solid-color:#000000;solid-opacity:1;vector-effect:none;fill:#808080;fill-opacity:1;fill-rule:nonzero;stroke:none;stroke-width:1.10599;stroke-linecap:butt;stroke-linejoin:round;stroke-miterlimit:4;stroke-dasharray:none;stroke-dashoffset:6.00002;stroke-opacity:1;paint-order:markers fill stroke;color-rendering:auto;image-rendering:auto;shape-rendering:auto;text-rendering:auto;enable-background:accumulate;stop-color:#000000;stop-opacity:1"
       d="m 32.931681,12.649653 c -0.08789,0 -0.175291,0.0028 -0.262476,0.0067 -6.888347,0.138814 -12.449512,5.705484 -12.581676,12.595473 -0.0038,0.08299 -0.0064,0.166358 -0.0064,0.250025 0,0.08366 0.0026,0.166696 0.0064,0.249689 0.132055,6.890057 5.69326,12.45534 12.581676,12.594127 0.08718,0.0039 0.174585,0.0067 0.262476,0.0067 0.08788,0 0.175312,-0.0028 0.262476,-0.0067 6.888419,-0.138787 12.449958,-5.70407 12.582013,-12.594127 0.0038,-0.08299 0.0064,-0.166023 0.0064,-0.249689 0,-0.08366 -0.0026,-0.167031 -0.0064,-0.250025 -0.132163,-6.889989 -5.693665,-12.456659 -12.582013,-12.595473 -0.08716,-0.004 -0.174603,-0.0067 -0.262476,-0.0067 z m 0,0.721136 c 0.276837,0 0.62442,0.23098 0.991014,0.813002 0.366594,0.582021 0.719671,1.469782 1.014908,2.577983 0.05433,0.203917 0.105981,0.417555 0.156474,0.635999 -0.703506,-0.0756 -1.425218,-0.117104 -2.162396,-0.117104 -0.736698,0 -1.457728,0.04127 -2.160713,0.116768 0.05048,-0.218318 0.102182,-0.431856 0.156475,-0.635663 0.295234,-1.108201 0.646966,-1.995961 1.01356,-2.577983 0.366594,-0.582022 0.713842,-0.813002 0.990678,-0.813002 z m -1.457076,0.217383 c -0.04858,0.06818 -0.09641,0.137865 -0.142681,0.211328 -0.429652,0.682137 -0.794423,1.624294 -1.101387,2.776522 -0.07803,0.292911 -0.152117,0.599613 -0.222096,0.918666 -1.174321,0.173436 -2.28696,0.449105 -3.314598,0.813337 0.243035,-0.51359 0.509668,-0.997275 0.799542,-1.443279 1.08542,-1.670042 2.461546,-2.822374 3.98122,-3.276574 z m 2.914153,0 c 1.519798,0.454135 2.896062,1.606418 3.981557,3.276574 0.289752,0.445817 0.556252,0.929257 0.799205,1.442607 -1.027537,-0.364022 -2.140187,-0.639305 -3.314262,-0.812665 -0.06997,-0.319054 -0.14406,-0.625755 -0.222095,-0.918666 -0.306966,-1.152228 -0.671736,-2.094385 -1.101389,-2.776522 -0.04628,-0.07348 -0.09443,-0.143151 -0.143016,-0.211328 z m -5.199375,0.372851 c -0.864202,0.642824 -1.640971,1.497991 -2.300028,2.512028 -0.43459,0.668664 -0.818399,1.409524 -1.147492,2.206479 -0.655856,0.28281 -1.27007,0.603028 -1.833628,0.9577 -1.050856,0.661349 -1.930016,1.446829 -2.581013,2.322238 1.152663,-3.785654 4.104746,-6.782258 7.862161,-7.998445 z m 7.484261,0 c 3.757133,1.215901 6.709429,4.211695 7.862497,7.996762 C 43.88554,21.082996 43.00705,20.298191 41.95681,19.63723 41.392891,19.282331 40.777945,18.962137 40.1215,18.679193 39.792445,17.882394 39.408859,17.141601 38.974346,16.473051 38.315232,15.458929 37.537934,14.603865 36.673644,13.961023 Z m -3.741963,4.039435 c 0.794491,0 1.57028,0.04941 2.321901,0.140324 0.238693,1.210747 0.417395,2.60291 0.526298,4.106064 -0.916785,-0.05056 -1.867207,-0.07976 -2.848199,-0.07976 -0.980991,0 -1.931077,0.0292 -2.847862,0.07976 0.109172,-1.50316 0.288425,-2.895313 0.527307,-4.106064 0.751313,-0.09084 1.526414,-0.140324 2.320555,-0.140324 z m -3.075005,0.245651 c -0.227969,1.212038 -0.396659,2.578978 -0.499376,4.045156 -1.453742,0.102448 -2.793556,0.267321 -3.98223,0.480532 0.187983,-1.268311 0.502287,-2.460401 0.921694,-3.540395 1.078671,-0.43854 2.276456,-0.776302 3.559912,-0.985293 z m 6.150347,0 c 1.28338,0.209002 2.4813,0.546766 3.559912,0.985293 0.419407,1.079994 0.73371,2.272084 0.921694,3.540395 -1.188764,-0.213227 -2.528698,-0.378089 -3.982566,-0.480532 -0.102714,-1.466163 -0.271072,-2.833128 -0.49904,-4.045156 z m -10.625222,1.395832 c -0.344237,1.020277 -0.602498,2.117271 -0.757141,3.271526 -0.207989,0.0435 -0.412334,0.08826 -0.608407,0.134939 -1.150289,0.273878 -2.089181,0.598609 -2.770129,0.98193 -0.08806,0.04957 -0.172542,0.100765 -0.253389,0.153446 0.433769,-1.500956 1.594813,-2.86417 3.298109,-3.936127 0.342272,-0.215407 0.708202,-0.416572 1.090957,-0.605714 z m 15.100099,0 c 0.382704,0.189124 0.748387,0.390332 1.090618,0.605714 1.703297,1.071957 2.864342,2.435171 3.298111,3.936127 -0.08085,-0.05269 -0.165001,-0.103884 -0.253054,-0.153446 -0.680948,-0.383321 -1.61984,-0.708052 -2.770129,-0.98193 -0.196073,-0.04668 -0.400418,-0.09144 -0.608405,-0.134939 -0.154644,-1.154255 -0.412906,-2.251249 -0.757141,-3.271526 z m -7.550219,3.244942 c 0.999777,0 1.966877,0.03142 2.897666,0.0848 0.04517,0.816769 0.06965,1.662828 0.06965,2.530199 0,0.867003 -0.02418,1.712526 -0.06932,2.528853 -0.930891,0.05324 -1.898104,0.0848 -2.898001,0.0848 -0.999857,0 -1.966809,-0.03157 -2.897666,-0.0848 -0.04526,-0.816327 -0.06932,-1.66185 -0.06932,-2.528853 0,-0.867371 0.02436,-1.71343 0.06965,-2.530199 0.930755,-0.05338 1.897593,-0.0848 2.897329,-0.0848 z m -3.622502,0.129219 c -0.0428,0.804029 -0.06562,1.634747 -0.06562,2.48578 0,0.850795 0.02284,1.680728 0.06562,2.484434 -1.486114,-0.108032 -2.84606,-0.281481 -4.030013,-0.503416 -0.06832,-0.644783 -0.105662,-1.305974 -0.105662,-1.981018 0,-0.675022 0.03735,-1.336512 0.105662,-1.981356 1.183956,-0.222093 2.543894,-0.396111 4.030013,-0.504424 z m 7.245005,0 c 1.486127,0.108313 2.846388,0.282329 4.03035,0.504424 0.06831,0.644844 0.105332,1.306334 0.105332,1.981356 0,0.675044 -0.03701,1.336235 -0.105332,1.981018 -1.183958,0.221935 -2.544229,0.395384 -4.03035,0.503416 0.04278,-0.803706 0.06596,-1.633639 0.06596,-2.484434 0,-0.851034 -0.02316,-1.681751 -0.06596,-2.48578 z m -12.014325,0.65215 c -0.05605,0.599161 -0.08614,1.210983 -0.08614,1.83363 0,0.622646 0.0301,1.234133 0.08614,1.833293 -0.12095,-0.02657 -0.240837,-0.0531 -0.357034,-0.08077 -1.110142,-0.26432 -1.999819,-0.58128 -2.583032,-0.909581 -0.583212,-0.328302 -0.798868,-0.636663 -0.798868,-0.84295 0,-0.206288 0.215656,-0.516332 0.798868,-0.844634 0.583213,-0.328301 1.47289,-0.643914 2.583032,-0.908234 0.116197,-0.02767 0.236084,-0.05419 0.357034,-0.08077 z m 16.783644,0 c 0.120969,0.02658 0.241157,0.05309 0.357371,0.08077 1.110142,0.26432 2.001166,0.579933 2.584377,0.908235 0.583214,0.328301 0.797186,0.638345 0.797186,0.844634 0,0.206287 -0.213972,0.514648 -0.797186,0.842949 -0.583211,0.328302 -1.474235,0.645261 -2.584377,0.909581 -0.116214,0.02767 -0.236402,0.05419 -0.357371,0.08077 0.05605,-0.59916 0.08648,-1.210646 0.08648,-1.833292 0,-0.622647 -0.03043,-1.234469 -0.08648,-1.83363 z m -20.330768,3.15173 c 0.08085,0.05269 0.165335,0.103544 0.253389,0.153111 0.680948,0.383318 1.61984,0.70805 2.770129,0.981928 0.196073,0.04668 0.400418,0.09145 0.608407,0.13494 0.154632,1.154327 0.412891,2.251187 0.757141,3.271524 -0.382755,-0.18909 -0.748685,-0.390305 -1.090957,-0.605714 -1.703178,-1.071883 -2.864269,-2.434956 -3.298109,-3.935789 z m 23.877894,0 c -0.433839,1.500833 -1.594933,2.863906 -3.298111,3.935789 -0.342231,0.215383 -0.707914,0.416643 -1.090618,0.605714 0.344247,-1.020337 0.602507,-2.117197 0.757141,-3.271524 0.207987,-0.04349 0.412332,-0.08826 0.608405,-0.13494 1.150289,-0.273878 2.089181,-0.59861 2.770129,-0.981928 0.08806,-0.04957 0.172206,-0.100426 0.253054,-0.153111 z M 25.37507,28.231629 c 1.188674,0.213038 2.528488,0.377347 3.98223,0.479524 0.102724,1.46631 0.271341,2.833391 0.499376,4.045493 -1.28332,-0.208745 -2.480991,-0.546358 -3.559576,-0.984622 -0.419576,-1.079978 -0.733986,-2.271971 -0.92203,-3.540395 z m 15.113559,0 c -0.188045,1.268424 -0.502453,2.460417 -0.92203,3.540395 -1.078616,0.438289 -2.276542,0.775868 -3.559912,0.984622 0.228039,-1.212107 0.396654,-2.579172 0.499376,-4.045493 1.453868,-0.102181 2.793802,-0.266471 3.982566,-0.479524 z m -10.40481,0.523943 c 0.916785,0.05041 1.866871,0.07975 2.847862,0.07975 0.981113,0 1.931646,-0.02932 2.848535,-0.07975 -0.108898,1.503198 -0.287898,2.895289 -0.526634,4.106063 -0.751621,0.0908 -1.52741,0.139987 -2.321901,0.139987 -0.794141,0 -1.569242,-0.04926 -2.320555,-0.139987 -0.238924,-1.210773 -0.418142,-2.602869 -0.527307,-4.106063 z m -8.756933,0.287377 c 0.651024,0.875279 1.530341,1.660458 2.581349,2.321901 0.563441,0.3546 1.17759,0.67482 1.833292,0.957702 0.329206,0.797438 0.713007,1.538805 1.147828,2.207824 0.659397,1.014558 1.436637,1.869701 2.301373,2.512364 -3.758377,-1.216021 -6.711263,-4.213217 -7.863842,-7.999791 z m 23.20959,0.0017 c -1.152993,3.786024 -4.106033,6.782732 -7.864178,7.998445 0.864892,-0.642697 1.642553,-1.497992 2.302048,-2.5127 0.434715,-0.668859 0.818672,-1.409931 1.147827,-2.207153 0.656232,-0.282996 1.27088,-0.603576 1.834637,-0.958372 1.050391,-0.661057 1.929038,-1.445561 2.579666,-2.32022 z m -17.842297,3.650433 c 1.027621,0.364406 2.140312,0.639742 3.314599,0.813339 0.06991,0.318655 0.143805,0.62539 0.221759,0.917992 0.306964,1.152229 0.671735,2.094049 1.101387,2.776186 0.04658,0.07394 0.09477,0.144091 0.14369,0.212673 -1.520071,-0.454353 -2.896571,-1.607183 -3.982229,-3.277592 -0.289747,-0.445808 -0.556255,-0.929354 -0.799206,-1.442608 z m 12.475006,3.44e-4 c -0.242905,0.513116 -0.509194,0.996568 -0.79887,1.442271 -1.085733,1.670524 -2.46237,2.823304 -3.982567,3.277582 0.04892,-0.06859 0.09745,-0.13872 0.144026,-0.212673 0.429653,-0.682138 0.794423,-1.623957 1.101389,-2.776187 0.07796,-0.292603 0.151844,-0.599335 0.221759,-0.917991 1.17408,-0.173527 2.286714,-0.448791 3.314263,-0.813002 z m -8.397881,0.910283 c 0.702889,0.07557 1.423786,0.117104 2.160377,0.117104 0.737058,0 1.458662,-0.04144 2.16206,-0.117104 -0.0504,0.217945 -0.101926,0.431492 -0.156138,0.634989 -0.295237,1.108201 -0.648314,1.995961 -1.014908,2.577983 -0.366594,0.582021 -0.714177,0.814013 -0.991014,0.814013 -0.276836,-2e-6 -0.624084,-0.231992 -0.990678,-0.814013 -0.366594,-0.582022 -0.718326,-1.469782 -1.01356,-2.577983 -0.05421,-0.203487 -0.105726,-0.417056 -0.156139,-0.634989 z" />
    <path
       id="path870"
       style="color:#000000;font-style:normal;font-variant:normal;font-weight:normal;font-stretch:normal;font-size:medium;line-height:normal;font-family:sans-serif;font-variant-ligatures:normal;font-variant-position:normal;font-variant-caps:normal;font-variant-numeric:normal;font-variant-alternates:normal;font-variant-east-asian:normal;font-feature-settings:normal;font-variation-settings:normal;text-indent:0;text-align:start;text-decoration:none;text-decoration-line:none;text-decoration-style:solid;text-decoration-color:#000000;letter-spacing:normal;word-spacing:normal;text-transform:none;writing-mode:lr-tb;direction:ltr;text-orientation:mixed;dominant-baseline:auto;baseline-shift:baseline;text-anchor:start;white-space:normal;shape-padding:0;shape-margin:0;inline-size:0;clip-rule:nonzero;display:inline;overflow:visible;visibility:visible;opacity:1;isolation:auto;mix-blend-mode:normal;color-interpolation:sRGB;color-interpolation-filters:linearRGB;solid-color:#000000;solid-opacity:1;vector-effect:none;fill:#808080;fill-opacity:1;fill-rule:nonzero;stroke:none;stroke-width:1.5875;stroke-linecap:square;stroke-linejoin:miter;stroke-miterlimit:4;stroke-dasharray:none;stroke-dashoffset:0;stroke-opacity:1;paint-order:markers stroke fill;color-rendering:auto;image-rendering:auto;shape-rendering:auto;text-rendering:auto;enable-background:accumulate;stop-color:#000000;stop-opacity:1"
       d="M 8.4666666,5.8203176 V 6.615101 11.773443 H 5.2911499 v 1.324466 H 8.4666666 V 17.06666 H 5.2911499 v 1.321883 h 3.1755167 v 3.96875 H 5.2911499 v 1.3224 h 3.1755167 v 3.968751 H 5.2911499 v 1.324467 H 8.4666666 V 32.94166 H 5.2911499 v 1.321882 h 3.1755167 v 3.96875 H 5.2911499 v 1.322401 h 3.1755167 v 4.894273 H 55.033333 V 43.847454 L 62.706249,38.60953 V 26.183416 L 59.819603,24.70547 62.706249,22.734531 V 10.308416 L 55.033333,6.3794565 V 5.8203176 Z M 55.033333,7.2285002 62.123857,10.857219 V 22.244122 L 59.075981,24.324615 55.033333,22.25394 Z M 10.054683,7.4083343 H 53.445317 V 42.863535 H 10.054683 v -3.308842 h 3.173967 v -1.322401 h -3.173967 v -3.96875 H 13.22865 V 32.94166 h -3.173967 v -3.968749 h 3.173967 v -1.324467 h -3.173967 v -3.968751 h 3.173967 v -1.3224 h -3.173967 v -3.96875 H 13.22865 V 17.06666 h -3.173967 v -3.968751 h 3.173967 v -1.324466 h -3.173967 z m 44.97865,15.6951667 7.090524,3.62872 v 11.386901 l -7.090524,4.840012 z" />
  </g>
</svg>
