<?xml version="1.0" encoding="UTF-8" standalone="no"?>
<svg
   xmlns:dc="http://purl.org/dc/elements/1.1/"
   xmlns:cc="http://creativecommons.org/ns#"
   xmlns:rdf="http://www.w3.org/1999/02/22-rdf-syntax-ns#"
   xmlns:svg="http://www.w3.org/2000/svg"
   xmlns="http://www.w3.org/2000/svg"
   xmlns:sodipodi="http://sodipodi.sourceforge.net/DTD/sodipodi-0.dtd"
   xmlns:inkscape="http://www.inkscape.org/namespaces/inkscape"
   width="256"
   height="256"
   viewBox="0 0 67.733332 67.733335"
   version="1.1"
   id="svg8"
   inkscape:version="1.0.1 (3bc2e813f5, 2020-09-07)"
   sodipodi:docname="screenshot.svg"
   inkscape:export-filename="C:\Users\keath\Workspace\KMX\elite-streamdeck-icons\ship-lights.png"
   inkscape:export-xdpi="96"
   inkscape:export-ydpi="96">
  <defs
     id="defs2" />
  <sodipodi:namedview
     id="base"
     pagecolor="#000000"
     bordercolor="#666666"
     borderopacity="1.0"
     inkscape:pageopacity="0"
     inkscape:pageshadow="2"
     inkscape:zoom="5.6"
     inkscape:cx="105.71094"
     inkscape:cy="93.464151"
     inkscape:document-units="px"
     inkscape:current-layer="layer2"
     showgrid="true"
     units="px"
     inkscape:snap-grids="true"
     objecttolerance="10000"
     guidetolerance="10000"
     inkscape:window-width="3840"
     inkscape:window-height="2066"
     inkscape:window-x="3829"
     inkscape:window-y="-11"
     inkscape:window-maximized="1"
     inkscape:document-rotation="0"
     showguides="true"
     inkscape:guide-bbox="true">
    <inkscape:grid
       type="xygrid"
       id="grid4623" />
    <sodipodi:guide
       position="-3.96875,62.441667"
       orientation="0,256"
       id="guide3351" />
    <sodipodi:guide
       position="62.441667,42.597917"
       orientation="-1,0"
       id="guide3353"
       inkscape:label=""
       inkscape:locked="false"
       inkscape:color="rgb(0,0,255)" />
    <sodipodi:guide
       position="-2.6458333,22.754167"
       orientation="0,-256"
       id="guide3355" />
    <sodipodi:guide
       position="5.2916667,70.379167"
       orientation="-256,0"
       id="guide3357" />
    <sodipodi:guide
       position="0,67.733334"
       orientation="0,256"
       id="guide3359" />
    <sodipodi:guide
       position="67.733334,67.733334"
       orientation="256,0"
       id="guide3361" />
    <sodipodi:guide
       position="67.733334,0"
       orientation="0,-256"
       id="guide3363" />
    <sodipodi:guide
       position="0,0"
       orientation="-256,0"
       id="guide3365" />
    <sodipodi:guide
       position="0,67.733334"
       orientation="0,256"
       id="guide3367" />
    <sodipodi:guide
       position="67.733334,67.733334"
       orientation="256,0"
       id="guide3369" />
    <sodipodi:guide
       position="67.733334,0"
       orientation="0,-256"
       id="guide3371" />
    <sodipodi:guide
       position="0,0"
       orientation="-256,0"
       id="guide3373" />
    <sodipodi:guide
       position="0,67.733334"
       orientation="0,256"
       id="guide3375" />
    <sodipodi:guide
       position="67.733334,67.733334"
       orientation="256,0"
       id="guide3377" />
    <sodipodi:guide
       position="67.733334,0"
       orientation="0,-256"
       id="guide3379" />
    <sodipodi:guide
       position="0,0"
       orientation="-256,0"
       id="guide3381" />
    <sodipodi:guide
       position="33.866667,46.83125"
       orientation="1,0"
       id="guide895" />
    <sodipodi:guide
       position="41.010417,42.597917"
       orientation="0,-1"
       id="guide897" />
  </sodipodi:namedview>
  <metadata
     id="metadata5">
    <rdf:RDF>
      <cc:Work
         rdf:about="">
        <dc:format>image/svg+xml</dc:format>
        <dc:type
           rdf:resource="http://purl.org/dc/dcmitype/StillImage" />
        <dc:title></dc:title>
      </cc:Work>
    </rdf:RDF>
  </metadata>
  <g
     inkscape:groupmode="layer"
     id="layer2"
     inkscape:label="Icon">
    <path
       id="path876"
       style="color:#000000;font-style:normal;font-variant:normal;font-weight:normal;font-stretch:normal;font-size:medium;line-height:normal;font-family:sans-serif;font-variant-ligatures:normal;font-variant-position:normal;font-variant-caps:normal;font-variant-numeric:normal;font-variant-alternates:normal;font-variant-east-asian:normal;font-feature-settings:normal;font-variation-settings:normal;text-indent:0;text-align:start;text-decoration:none;text-decoration-line:none;text-decoration-style:solid;text-decoration-color:#000000;letter-spacing:normal;word-spacing:normal;text-transform:none;writing-mode:lr-tb;direction:ltr;text-orientation:mixed;dominant-baseline:auto;baseline-shift:baseline;text-anchor:start;white-space:normal;shape-padding:0;shape-margin:0;inline-size:0;clip-rule:nonzero;display:inline;overflow:visible;visibility:visible;isolation:auto;mix-blend-mode:normal;color-interpolation:sRGB;color-interpolation-filters:linearRGB;solid-color:#000000;solid-opacity:1;vector-effect:none;fill:#808080;fill-opacity:1;fill-rule:nonzero;stroke:none;stroke-width:9.99999;stroke-linecap:round;stroke-linejoin:round;stroke-miterlimit:4;stroke-dasharray:none;stroke-dashoffset:0;stroke-opacity:1;paint-order:markers stroke fill;color-rendering:auto;image-rendering:auto;shape-rendering:auto;text-rendering:auto;enable-background:accumulate;stop-color:#000000"
       d="m 25.001953,19.998047 a 5.0004932,5.0004932 0 0 0 -5.003906,5.003906 V 145.00195 A 5.0004932,5.0004932 0 0 0 25.001953,150 H 229.99805 a 5.0004932,5.0004932 0 0 0 5.0039,-4.99805 V 25.001953 a 5.0004932,5.0004932 0 0 0 -5.0039,-5.003906 z M 35,30 h 185 a 4.5127264,4.2353015 0 0 1 4.51562,4.238281 V 135.875 A 4.5127264,4.2353015 0 0 1 220,140.10938 H 35 A 4.5127264,4.2353015 0 0 1 30.484375,135.875 V 34.238281 A 4.5127264,4.2353015 0 0 1 35,30 Z"
       transform="scale(0.26458333)" />
    <path
       style="color:#000000;font-style:normal;font-variant:normal;font-weight:normal;font-stretch:normal;font-size:medium;line-height:normal;font-family:sans-serif;font-variant-ligatures:normal;font-variant-position:normal;font-variant-caps:normal;font-variant-numeric:normal;font-variant-alternates:normal;font-variant-east-asian:normal;font-feature-settings:normal;font-variation-settings:normal;text-indent:0;text-align:start;text-decoration:none;text-decoration-line:none;text-decoration-style:solid;text-decoration-color:#000000;letter-spacing:normal;word-spacing:normal;text-transform:none;writing-mode:lr-tb;direction:ltr;text-orientation:mixed;dominant-baseline:auto;baseline-shift:baseline;text-anchor:start;white-space:normal;shape-padding:0;shape-margin:0;inline-size:0;clip-rule:nonzero;display:inline;overflow:visible;visibility:visible;opacity:1;isolation:auto;mix-blend-mode:normal;color-interpolation:sRGB;color-interpolation-filters:linearRGB;solid-color:#000000;solid-opacity:1;vector-effect:none;fill:#808080;fill-opacity:1;fill-rule:nonzero;stroke:none;stroke-width:2.64583;stroke-linecap:round;stroke-linejoin:miter;stroke-miterlimit:4;stroke-dasharray:none;stroke-dashoffset:0;stroke-opacity:1;color-rendering:auto;image-rendering:auto;shape-rendering:auto;text-rendering:auto;enable-background:accumulate;stop-color:#000000;stop-opacity:1"
       d="m 22.490234,42.333984 a 1.322915,1.322915 0 0 0 -1.324218,1.322266 1.322915,1.322915 0 0 0 1.324218,1.322266 H 43.65625 A 1.322915,1.322915 0 0 0 44.978516,43.65625 1.322915,1.322915 0 0 0 43.65625,42.333984 Z"
       id="path857" />
    <path
       id="rect1077"
       style="fill:#808080;fill-opacity:1;stroke:none;stroke-width:2.11667;stroke-linecap:round;stroke-linejoin:round;stroke-miterlimit:4;stroke-dasharray:none;stroke-opacity:1;paint-order:markers stroke fill"
       d="m 29.386156,14.588036 a 0.63966296,0.63966296 0 0 0 -0.639598,0.639598 v 1.758895 a 0.63966296,0.63966296 0 0 0 0.01499,0.137413 h -7.678923 v 13.591457 h 25.58392 V 17.123942 h -7.861934 a 0.63966296,0.63966296 0 0 0 0.01498,-0.137413 v -1.758895 a 0.63966296,0.63966296 0 0 0 -0.639598,-0.639598 z m -6.396291,0.874763 a 0.47969849,0.47969849 0 0 0 -0.479074,0.479074 0.47969849,0.47969849 0 0 0 0.479074,0.479074 h 3.197678 a 0.47969849,0.47969849 0 0 0 0.480322,-0.479074 0.47969849,0.47969849 0 0 0 -0.480322,-0.479074 z m 10.829756,2.472195 a 5.9391196,5.9391196 0 0 1 0.02061,0 5.9391196,5.9391196 0 0 1 1.320732,0.148657 h 9.906586 a 0.6396629,0.6396629 0 0 1 0.63991,0.639598 V 29.116406 A 0.6396629,0.6396629 0 0 1 45.06755,29.756315 H 34.659405 a 5.9391196,5.9391196 0 0 1 -0.819173,0.05684 5.9391196,5.9391196 0 0 1 -0.819172,-0.05684 H 22.681933 A 0.6396629,0.6396629 0 0 1 22.042335,29.116406 V 18.723249 a 0.6396629,0.6396629 0 0 1 0.639598,-0.639598 H 32.5195 a 5.9391196,5.9391196 0 0 1 1.300121,-0.148657 z m 0.02061,0.799498 a 5.139622,5.139622 0 0 0 -5.139583,5.139582 5.139622,5.139622 0 0 0 5.139583,5.139583 5.139622,5.139622 0 0 0 5.139581,-5.139583 5.139622,5.139622 0 0 0 -5.139581,-5.139582 z M 23.321844,19.36316 v 9.113334 h 6.76481 a 5.9391196,5.9391196 0 0 1 -2.1855,-4.60242 5.9391196,5.9391196 0 0 1 2.075884,-4.510914 z m 14.381273,0 a 5.9391196,5.9391196 0 0 1 2.076196,4.510914 5.9391196,5.9391196 0 0 1 -2.185501,4.60242 h 6.833829 V 19.36316 Z m 4.630216,0.669579 a 1.4436108,1.4436108 0 0 1 3.2e-4,0 1.4436108,1.4436108 0 0 1 0.005,0 1.4436108,1.4436108 0 0 1 1.443781,1.44378 1.4436108,1.4436108 0 0 1 -1.443781,1.443468 1.4436108,1.4436108 0 0 1 -1.443467,-1.443468 1.4436108,1.4436108 0 0 1 1.438158,-1.44378 z m -8.4931,0.300748 a 3.5406269,3.5406269 0 0 1 3.540587,3.540587 3.5406269,3.5406269 0 0 1 -3.540587,3.540588 3.5406269,3.5406269 0 0 1 -3.540587,-3.540588 3.5406269,3.5406269 0 0 1 3.540587,-3.540587 z" />
  </g>
</svg>
