<?xml version="1.0" encoding="UTF-8" standalone="no"?>
<svg
   xmlns:dc="http://purl.org/dc/elements/1.1/"
   xmlns:cc="http://creativecommons.org/ns#"
   xmlns:rdf="http://www.w3.org/1999/02/22-rdf-syntax-ns#"
   xmlns:svg="http://www.w3.org/2000/svg"
   xmlns="http://www.w3.org/2000/svg"
   xmlns:sodipodi="http://sodipodi.sourceforge.net/DTD/sodipodi-0.dtd"
   xmlns:inkscape="http://www.inkscape.org/namespaces/inkscape"
   width="256"
   height="256"
   viewBox="0 0 67.733332 67.733335"
   version="1.1"
   id="svg8"
   inkscape:version="1.0.1 (3bc2e813f5, 2020-09-07)"
   sodipodi:docname="sql-database.svg"
   inkscape:export-filename="C:\Users\keath\Workspace\KMX\elite-streamdeck-icons\ship-lights.png"
   inkscape:export-xdpi="96"
   inkscape:export-ydpi="96">
  <defs
     id="defs2" />
  <sodipodi:namedview
     id="base"
     pagecolor="#000000"
     bordercolor="#666666"
     borderopacity="1.0"
     inkscape:pageopacity="0"
     inkscape:pageshadow="2"
     inkscape:zoom="5.6"
     inkscape:cx="112.58852"
     inkscape:cy="116.48818"
     inkscape:document-units="px"
     inkscape:current-layer="layer2"
     showgrid="true"
     units="px"
     inkscape:snap-grids="true"
     objecttolerance="10000"
     guidetolerance="10000"
     inkscape:window-width="3840"
     inkscape:window-height="2066"
     inkscape:window-x="-11"
     inkscape:window-y="-11"
     inkscape:window-maximized="1"
     inkscape:document-rotation="0"
     showguides="true"
     inkscape:guide-bbox="true">
    <inkscape:grid
       type="xygrid"
       id="grid4623" />
    <sodipodi:guide
       position="-3.96875,62.441667"
       orientation="0,256"
       id="guide3351" />
    <sodipodi:guide
       position="62.441667,42.597917"
       orientation="-1,0"
       id="guide3353"
       inkscape:label=""
       inkscape:locked="false"
       inkscape:color="rgb(0,0,255)" />
    <sodipodi:guide
       position="-2.6458333,22.754167"
       orientation="0,-256"
       id="guide3355" />
    <sodipodi:guide
       position="5.2916667,70.379167"
       orientation="-256,0"
       id="guide3357" />
    <sodipodi:guide
       position="0,67.733334"
       orientation="0,256"
       id="guide3359" />
    <sodipodi:guide
       position="67.733334,67.733334"
       orientation="256,0"
       id="guide3361" />
    <sodipodi:guide
       position="67.733334,0"
       orientation="0,-256"
       id="guide3363" />
    <sodipodi:guide
       position="0,0"
       orientation="-256,0"
       id="guide3365" />
    <sodipodi:guide
       position="0,67.733334"
       orientation="0,256"
       id="guide3367" />
    <sodipodi:guide
       position="67.733334,67.733334"
       orientation="256,0"
       id="guide3369" />
    <sodipodi:guide
       position="67.733334,0"
       orientation="0,-256"
       id="guide3371" />
    <sodipodi:guide
       position="0,0"
       orientation="-256,0"
       id="guide3373" />
    <sodipodi:guide
       position="0,67.733334"
       orientation="0,256"
       id="guide3375" />
    <sodipodi:guide
       position="67.733334,67.733334"
       orientation="256,0"
       id="guide3377" />
    <sodipodi:guide
       position="67.733334,0"
       orientation="0,-256"
       id="guide3379" />
    <sodipodi:guide
       position="0,0"
       orientation="-256,0"
       id="guide3381" />
    <sodipodi:guide
       position="33.866667,46.83125"
       orientation="1,0"
       id="guide895" />
    <sodipodi:guide
       position="41.010417,42.597917"
       orientation="0,-1"
       id="guide897" />
  </sodipodi:namedview>
  <metadata
     id="metadata5">
    <rdf:RDF>
      <cc:Work
         rdf:about="">
        <dc:format>image/svg+xml</dc:format>
        <dc:type
           rdf:resource="http://purl.org/dc/dcmitype/StillImage" />
        <dc:title></dc:title>
      </cc:Work>
    </rdf:RDF>
  </metadata>
  <g
     inkscape:groupmode="layer"
     id="layer2"
     inkscape:label="Icon">
    <path
       id="path849"
       style="fill:#808080;stroke:none;stroke-width:1.32292;stroke-linecap:round;stroke-linejoin:round;stroke-opacity:1;paint-order:markers stroke fill"
       d="m 33.734375,7.4741255 a 17.859375,4.8185461 0 0 0 -17.859376,4.8185895 17.859375,4.8185461 0 0 0 17.859376,4.81859 17.859375,4.8185461 0 0 0 17.859376,-4.81859 17.859375,4.8185461 0 0 0 -17.859376,-4.8185895 z m 17.859376,7.4519785 c -0.935791,0.68841 -2.134584,1.203012 -3.28433,1.578424 -6.860703,1.984359 -14.40235,2.338972 -21.612634,1.506599 -3.773246,-0.493554 -7.865614,-1.068174 -10.821788,-3.076404 v 23.21496 0.214901 h 0.0182 a 17.859374,4.8185461 0 0 0 17.841178,4.60369 17.859374,4.8185461 0 0 0 17.841178,-4.60369 h 0.0182 v -0.214901 z m -16.844473,9.398721 c 1.447834,0 2.586296,0.400306 3.415362,1.200912 0.82907,0.796775 1.243606,1.882775 1.243606,3.257977 0,1.015122 -0.242655,1.892349 -0.727964,2.631667 -0.485309,0.735484 -1.189012,1.248795 -2.111096,1.539925 0.01618,0.379234 0.125373,0.651212 0.327584,0.815931 0.202212,0.164717 0.547998,0.247077 1.037348,0.247077 0.165815,0 0.361961,-0.0268 0.58844,-0.08044 0.226475,-0.05363 0.384203,-0.101515 0.473174,-0.143649 h 0.230522 v 1.516942 c -0.226475,0.0498 -0.473177,0.09385 -0.740095,0.132158 -0.262875,0.03831 -0.667301,0.05746 -1.213273,0.05746 -0.481265,3e-6 -0.901868,-0.05746 -1.261804,-0.172377 -0.355892,-0.111091 -0.653147,-0.270062 -0.891757,-0.47692 -0.234564,-0.203023 -0.41049,-0.442442 -0.527771,-0.718247 -0.117285,-0.275807 -0.186039,-0.582261 -0.206259,-0.919359 -1.350771,-0.07278 -2.404304,-0.499901 -3.160575,-1.281356 -0.752225,-0.785283 -1.128343,-1.834891 -1.128343,-3.148806 0,-1.375202 0.412517,-2.461202 1.237536,-3.257977 0.825026,-0.800606 1.963485,-1.200912 3.415365,-1.200912 z m -9.348268,0.02298 c 0.594503,0 1.180921,0.05555 1.759245,0.166634 0.582371,0.107258 1.085881,0.243247 1.510527,0.407965 v 1.970874 h -0.248723 c -0.363981,-0.275805 -0.810872,-0.505646 -1.340665,-0.689517 -0.525752,-0.187702 -1.063639,-0.281554 -1.613652,-0.281554 -0.194123,0 -0.388249,0.01341 -0.582372,0.04022 -0.190078,0.02299 -0.374093,0.06896 -0.552039,0.137904 -0.157725,0.05746 -0.293208,0.145569 -0.406447,0.264316 -0.113238,0.114919 -0.169858,0.247075 -0.169858,0.39647 0,0.22601 0.091,0.400305 0.272986,0.522888 0.181991,0.118748 0.525754,0.227924 1.031282,0.327521 0.331628,0.06512 0.649103,0.128328 0.95242,0.189617 0.307362,0.06129 0.636968,0.145568 0.988816,0.252822 0.691565,0.214518 1.201141,0.507566 1.528726,0.87914 0.331625,0.367741 0.497441,0.846578 0.497441,1.4365 0,0.842742 -0.378141,1.528434 -1.134409,2.057064 -0.752228,0.524799 -1.775427,0.7872 -3.069582,0.7872 -0.748182,0 -1.401331,-0.06129 -1.959436,-0.183871 -0.554059,-0.12641 -1.073747,-0.285384 -1.559055,-0.47692 v -2.051317 h 0.254787 c 0.481263,0.36391 1.019151,0.643551 1.613653,0.838917 0.598546,0.195363 1.172832,0.293041 1.722848,0.293041 0.141548,0 0.327585,-0.0115 0.558104,-0.03447 0.230523,-0.02298 0.41858,-0.0613 0.564173,-0.114922 0.177948,-0.06895 0.323541,-0.155146 0.436778,-0.258567 0.117282,-0.103431 0.175926,-0.256659 0.175926,-0.45968 0,-0.187702 -0.08493,-0.348591 -0.25479,-0.482665 -0.165812,-0.137904 -0.410489,-0.243246 -0.734029,-0.31603 -0.339714,-0.07661 -0.699655,-0.147483 -1.079813,-0.2126 -0.376113,-0.06896 -0.729986,-0.155146 -1.061613,-0.25857 -0.760316,-0.233671 -1.308314,-0.549701 -1.643985,-0.94809 -0.331626,-0.402218 -0.497442,-0.900207 -0.497442,-1.493957 0,-0.796775 0.376118,-1.446076 1.128344,-1.947891 0.756272,-0.505646 1.726896,-0.758471 2.911854,-0.758472 z m 15.784679,0.155142 h 2.329484 v 6.900935 h 4.185793 v 1.654846 h -6.515277 z m -6.430345,1.436498 c -0.295229,0 -0.574283,0.0498 -0.837157,0.149396 -0.258831,0.0996 -0.497444,0.264316 -0.715832,0.494155 -0.202211,0.214515 -0.368027,0.511396 -0.497441,0.890631 -0.125373,0.375401 -0.188058,0.812098 -0.188058,1.310082 0,0.509478 0.06066,0.944259 0.181992,1.304342 0.12537,0.356252 0.289164,0.647382 0.491375,0.873391 0.202212,0.226006 0.4388,0.392644 0.709763,0.499902 0.270965,0.107257 0.556085,0.160886 0.855358,0.160886 0.299274,0 0.584393,-0.05363 0.855359,-0.160886 0.270962,-0.111091 0.507551,-0.281559 0.709763,-0.511393 0.226478,-0.260486 0.394313,-0.566943 0.50351,-0.919359 0.109193,-0.356252 0.16379,-0.773797 0.16379,-1.252629 0,-0.513305 -0.06269,-0.950005 -0.188057,-1.310085 -0.12537,-0.360082 -0.289164,-0.651209 -0.491375,-0.87339 C 36.102078,26.36465 35.863464,26.198014 35.592502,26.094587 35.325583,25.991164 35.04653,25.93945 34.755344,25.93945 Z" />
  </g>
</svg>
