<?xml version="1.0" encoding="UTF-8" standalone="no"?>
<svg
   xmlns:dc="http://purl.org/dc/elements/1.1/"
   xmlns:cc="http://creativecommons.org/ns#"
   xmlns:rdf="http://www.w3.org/1999/02/22-rdf-syntax-ns#"
   xmlns:svg="http://www.w3.org/2000/svg"
   xmlns="http://www.w3.org/2000/svg"
   xmlns:sodipodi="http://sodipodi.sourceforge.net/DTD/sodipodi-0.dtd"
   xmlns:inkscape="http://www.inkscape.org/namespaces/inkscape"
   width="256"
   height="256"
   viewBox="0 0 67.733332 67.733335"
   version="1.1"
   id="svg8"
   inkscape:version="1.0.1 (3bc2e813f5, 2020-09-07)"
   sodipodi:docname="sql-ref.svg"
   inkscape:export-filename="C:\Users\keath\Workspace\KMX\elite-streamdeck-icons\ship-lights.png"
   inkscape:export-xdpi="96"
   inkscape:export-ydpi="96">
  <defs
     id="defs2" />
  <sodipodi:namedview
     id="base"
     pagecolor="#000000"
     bordercolor="#666666"
     borderopacity="1.0"
     inkscape:pageopacity="0"
     inkscape:pageshadow="2"
     inkscape:zoom="5.6"
     inkscape:cx="103.35273"
     inkscape:cy="98.178571"
     inkscape:document-units="px"
     inkscape:current-layer="layer2"
     showgrid="true"
     units="px"
     inkscape:snap-grids="true"
     objecttolerance="10000"
     guidetolerance="10000"
     inkscape:window-width="2780"
     inkscape:window-height="1895"
     inkscape:window-x="4681"
     inkscape:window-y="172"
     inkscape:window-maximized="0"
     inkscape:document-rotation="0"
     showguides="true"
     inkscape:guide-bbox="true">
    <inkscape:grid
       type="xygrid"
       id="grid4623" />
    <sodipodi:guide
       position="-3.96875,62.441667"
       orientation="0,256"
       id="guide3351" />
    <sodipodi:guide
       position="62.441667,42.597917"
       orientation="-1,0"
       id="guide3353"
       inkscape:label=""
       inkscape:locked="false"
       inkscape:color="rgb(0,0,255)" />
    <sodipodi:guide
       position="-2.6458333,22.754167"
       orientation="0,-256"
       id="guide3355" />
    <sodipodi:guide
       position="5.2916667,70.379167"
       orientation="-256,0"
       id="guide3357" />
    <sodipodi:guide
       position="0,67.733334"
       orientation="0,256"
       id="guide3359" />
    <sodipodi:guide
       position="67.733334,67.733334"
       orientation="256,0"
       id="guide3361" />
    <sodipodi:guide
       position="67.733334,0"
       orientation="0,-256"
       id="guide3363" />
    <sodipodi:guide
       position="0,0"
       orientation="-256,0"
       id="guide3365" />
    <sodipodi:guide
       position="0,67.733334"
       orientation="0,256"
       id="guide3367" />
    <sodipodi:guide
       position="67.733334,67.733334"
       orientation="256,0"
       id="guide3369" />
    <sodipodi:guide
       position="67.733334,0"
       orientation="0,-256"
       id="guide3371" />
    <sodipodi:guide
       position="0,0"
       orientation="-256,0"
       id="guide3373" />
    <sodipodi:guide
       position="0,67.733334"
       orientation="0,256"
       id="guide3375" />
    <sodipodi:guide
       position="67.733334,67.733334"
       orientation="256,0"
       id="guide3377" />
    <sodipodi:guide
       position="67.733334,0"
       orientation="0,-256"
       id="guide3379" />
    <sodipodi:guide
       position="0,0"
       orientation="-256,0"
       id="guide3381" />
    <sodipodi:guide
       position="33.866667,46.83125"
       orientation="1,0"
       id="guide895" />
    <sodipodi:guide
       position="41.010417,42.597917"
       orientation="0,-1"
       id="guide897" />
  </sodipodi:namedview>
  <metadata
     id="metadata5">
    <rdf:RDF>
      <cc:Work
         rdf:about="">
        <dc:format>image/svg+xml</dc:format>
        <dc:type
           rdf:resource="http://purl.org/dc/dcmitype/StillImage" />
        <dc:title></dc:title>
      </cc:Work>
    </rdf:RDF>
  </metadata>
  <g
     inkscape:groupmode="layer"
     id="layer2"
     inkscape:label="Icon">
    <path
       id="path870"
       style="color:#000000;font-style:normal;font-variant:normal;font-weight:normal;font-stretch:normal;font-size:medium;line-height:normal;font-family:sans-serif;font-variant-ligatures:normal;font-variant-position:normal;font-variant-caps:normal;font-variant-numeric:normal;font-variant-alternates:normal;font-variant-east-asian:normal;font-feature-settings:normal;font-variation-settings:normal;text-indent:0;text-align:start;text-decoration:none;text-decoration-line:none;text-decoration-style:solid;text-decoration-color:#000000;letter-spacing:normal;word-spacing:normal;text-transform:none;writing-mode:lr-tb;direction:ltr;text-orientation:mixed;dominant-baseline:auto;baseline-shift:baseline;text-anchor:start;white-space:normal;shape-padding:0;shape-margin:0;inline-size:0;clip-rule:nonzero;display:inline;overflow:visible;visibility:visible;opacity:1;isolation:auto;mix-blend-mode:normal;color-interpolation:sRGB;color-interpolation-filters:linearRGB;solid-color:#000000;solid-opacity:1;vector-effect:none;fill:#808080;fill-opacity:1;fill-rule:nonzero;stroke:none;stroke-width:6;stroke-linecap:square;stroke-linejoin:miter;stroke-miterlimit:4;stroke-dasharray:none;stroke-dashoffset:0;stroke-opacity:1;paint-order:markers stroke fill;color-rendering:auto;image-rendering:auto;shape-rendering:auto;text-rendering:auto;enable-background:accumulate;stop-color:#000000;stop-opacity:1"
       d="m 32,21.998047 v 3.003906 19.496094 H 19.998047 v 5.005859 H 32 v 15 H 19.998047 V 69.5 H 32 v 15 H 19.998047 v 4.998047 H 32 V 104.49805 H 19.998047 v 5.00586 H 32 v 15 H 19.998047 V 129.5 H 32 v 15 H 19.998047 v 4.99805 H 32 v 18.49804 h 176 v -2.27343 l 29,-19.79688 V 98.960938 L 226.08984,93.375 237,85.925781 V 38.960938 l -29,-14.84961 v -2.113281 z m 176,5.322265 26.79883,13.714844 v 43.03711 L 223.2793,91.935547 208,84.109375 Z M 38.001953,28 H 201.99805 V 162.00391 H 38.001953 V 149.49805 H 49.998047 V 144.5 H 38.001953 v -15 h 11.996094 v -4.99609 H 38.001953 v -15 h 11.996094 v -5.00586 H 38.001953 V 89.498047 H 49.998047 V 84.5 H 38.001953 v -15 H 49.998047 V 64.503906 H 38.001953 v -15 H 49.998047 V 44.498047 H 38.001953 Z M 208,87.320312 234.79883,101.03516 v 43.03711 L 208,162.36523 Z"
       transform="scale(0.26458333)" />
    <path
       id="path849"
       style="fill:#808080;stroke:none;stroke-width:1.32292;stroke-linecap:round;stroke-linejoin:round;stroke-opacity:1;paint-order:markers stroke fill"
       d="m 33.175041,13.473901 a 12.574114,3.3925569 0 0 0 -12.574115,3.392587 12.574114,3.3925569 0 0 0 12.574115,3.392588 12.574114,3.3925569 0 0 0 12.574116,-3.392588 12.574114,3.3925569 0 0 0 -12.574116,-3.392587 z m 12.574116,5.246657 c -0.658856,0.484684 -1.502881,0.846996 -2.312374,1.111309 -4.830363,1.397113 -10.140153,1.646782 -15.216643,1.06074 -2.656601,-0.347493 -5.537883,-0.752061 -7.619214,-2.16598 v 16.344779 0.151305 h 0.01281 a 12.574114,3.3925569 0 0 0 12.561302,3.241285 12.574114,3.3925569 0 0 0 12.561302,-3.241285 h 0.01281 v -0.151305 z m -11.859561,6.617286 c 1.019366,0 1.820914,0.281841 2.404628,0.845517 0.583717,0.56098 0.875576,1.325591 0.875576,2.293819 0,0.71471 -0.170844,1.332332 -0.512532,1.852858 -0.341688,0.517827 -0.837138,0.87923 -1.486343,1.084203 0.01139,0.267005 0.08827,0.458494 0.230639,0.574467 0.14237,0.115972 0.385825,0.173957 0.730358,0.173957 0.116744,0 0.254843,-0.01887 0.414299,-0.05663 0.159452,-0.03776 0.270503,-0.07147 0.333144,-0.101139 h 0.162302 v 1.068021 c -0.159453,0.03506 -0.333147,0.06608 -0.521074,0.09305 -0.18508,0.02697 -0.469821,0.04046 -0.854219,0.04046 -0.338841,2e-6 -0.634972,-0.04046 -0.888389,-0.121364 -0.25057,-0.07822 -0.459856,-0.190141 -0.627853,-0.335783 -0.165147,-0.14294 -0.28901,-0.311506 -0.371583,-0.50569 -0.08258,-0.194185 -0.130984,-0.409948 -0.14522,-0.647286 -0.951027,-0.05124 -1.69278,-0.351961 -2.225242,-0.902154 -0.529613,-0.552888 -0.794424,-1.291878 -0.794424,-2.216956 0,-0.968228 0.290438,-1.73284 0.871303,-2.293819 0.58087,-0.563677 1.382416,-0.845517 2.40463,-0.845517 z m -6.581764,0.01618 c 0.418567,0 0.831442,0.03911 1.238618,0.117321 0.410026,0.07552 0.764528,0.171261 1.063506,0.287233 v 1.387619 H 29.434839 C 29.178574,26.952011 28.863935,26.790188 28.490927,26.660732 28.120765,26.528578 27.742059,26.4625 27.354816,26.4625 c -0.136675,0 -0.273352,0.0094 -0.410027,0.02832 -0.133826,0.01619 -0.263384,0.04855 -0.388669,0.09709 -0.111049,0.04045 -0.206437,0.102489 -0.286164,0.186095 -0.07973,0.08091 -0.119591,0.173956 -0.119591,0.279139 0,0.159125 0.06407,0.28184 0.192199,0.368146 0.128133,0.08361 0.370164,0.160473 0.726087,0.230595 0.233487,0.04585 0.457009,0.09035 0.670563,0.133502 0.216402,0.04315 0.448465,0.102489 0.696188,0.178003 0.486905,0.151034 0.845678,0.357358 1.076319,0.618969 0.233484,0.258913 0.350229,0.596044 0.350229,1.011386 0,0.593343 -0.266235,1.076113 -0.798695,1.448301 -0.529615,0.369492 -1.250011,0.554238 -2.161177,0.554238 -0.526767,0 -0.986624,-0.04315 -1.379565,-0.129456 -0.390092,-0.089 -0.755985,-0.200929 -1.097672,-0.335782 v -1.444255 h 0.179386 c 0.338839,0.256215 0.717546,0.4531 1.136112,0.59065 0.421414,0.137548 0.825747,0.206319 1.212993,0.206319 0.09966,0 0.23064,-0.0081 0.39294,-0.02427 0.162302,-0.01618 0.294706,-0.04316 0.397213,-0.08091 0.125286,-0.04854 0.227793,-0.109233 0.307519,-0.182048 0.08257,-0.07282 0.123863,-0.180703 0.123863,-0.323643 0,-0.132154 -0.0598,-0.24543 -0.179388,-0.339826 -0.116742,-0.09709 -0.28901,-0.171261 -0.516803,-0.222505 -0.239179,-0.05394 -0.4926,-0.103837 -0.760255,-0.149684 -0.264807,-0.04855 -0.513956,-0.109232 -0.747442,-0.182049 -0.53531,-0.164519 -0.921135,-0.387024 -1.157468,-0.667515 -0.233485,-0.283186 -0.35023,-0.633802 -0.35023,-1.051839 0,-0.560979 0.26481,-1.018127 0.794424,-1.371436 0.532463,-0.356006 1.215843,-0.534011 2.050127,-0.534012 z m 11.113399,0.109229 h 1.640102 v 4.858689 h 2.94706 v 1.165115 h -4.587162 z m -4.527364,1.011384 c -0.20786,0 -0.404331,0.03506 -0.589411,0.105184 -0.182233,0.07012 -0.350231,0.186096 -0.50399,0.347917 -0.142369,0.151032 -0.259114,0.360055 -0.35023,0.62706 -0.08827,0.264305 -0.132404,0.571767 -0.132404,0.922379 0,0.358704 0.04271,0.664817 0.128133,0.918338 0.08827,0.250824 0.20359,0.455798 0.345959,0.614922 0.14237,0.159122 0.308943,0.276446 0.499718,0.351962 0.190776,0.07552 0.391518,0.113274 0.602225,0.113274 0.210708,0 0.411449,-0.03776 0.602226,-0.113274 0.190774,-0.07822 0.357348,-0.198235 0.499717,-0.360052 0.159455,-0.183399 0.277621,-0.399164 0.354503,-0.647286 0.07688,-0.250824 0.115318,-0.544802 0.115318,-0.881929 0,-0.361399 -0.04414,-0.668863 -0.132404,-0.922382 -0.08827,-0.25352 -0.203589,-0.458492 -0.345958,-0.614921 -0.145217,-0.16182 -0.313216,-0.279142 -0.503991,-0.351961 C 34.295351,26.51105 34.09888,26.47464 33.893867,26.47464 Z" />
  </g>
</svg>
