<?xml version="1.0" encoding="UTF-8" standalone="no"?>
<svg
   xmlns:dc="http://purl.org/dc/elements/1.1/"
   xmlns:cc="http://creativecommons.org/ns#"
   xmlns:rdf="http://www.w3.org/1999/02/22-rdf-syntax-ns#"
   xmlns:svg="http://www.w3.org/2000/svg"
   xmlns="http://www.w3.org/2000/svg"
   xmlns:sodipodi="http://sodipodi.sourceforge.net/DTD/sodipodi-0.dtd"
   xmlns:inkscape="http://www.inkscape.org/namespaces/inkscape"
   width="256"
   height="256"
   viewBox="0 0 67.733332 67.733335"
   version="1.1"
   id="svg8"
   inkscape:version="1.0.1 (3bc2e813f5, 2020-09-07)"
   sodipodi:docname="start-debug.svg"
   inkscape:export-filename="C:\Users\keath\Workspace\KMX\elite-streamdeck-icons\ship-lights.png"
   inkscape:export-xdpi="96"
   inkscape:export-ydpi="96">
  <defs
     id="defs2" />
  <sodipodi:namedview
     id="base"
     pagecolor="#000000"
     bordercolor="#666666"
     borderopacity="1.0"
     inkscape:pageopacity="0"
     inkscape:pageshadow="2"
     inkscape:zoom="5.6"
     inkscape:cx="111.90634"
     inkscape:cy="121.54987"
     inkscape:document-units="px"
     inkscape:current-layer="layer2"
     showgrid="true"
     units="px"
     inkscape:snap-grids="true"
     objecttolerance="10000"
     guidetolerance="10000"
     inkscape:window-width="2705"
     inkscape:window-height="1895"
     inkscape:window-x="4625"
     inkscape:window-y="96"
     inkscape:window-maximized="0"
     inkscape:document-rotation="0"
     showguides="true"
     inkscape:guide-bbox="true">
    <inkscape:grid
       type="xygrid"
       id="grid4623" />
    <sodipodi:guide
       position="-3.96875,62.441667"
       orientation="0,256"
       id="guide3351" />
    <sodipodi:guide
       position="62.441667,42.597917"
       orientation="-1,0"
       id="guide3353"
       inkscape:label=""
       inkscape:locked="false"
       inkscape:color="rgb(0,0,255)" />
    <sodipodi:guide
       position="-2.6458333,22.754167"
       orientation="0,-256"
       id="guide3355" />
    <sodipodi:guide
       position="5.2916667,70.379167"
       orientation="-256,0"
       id="guide3357" />
    <sodipodi:guide
       position="0,67.733334"
       orientation="0,256"
       id="guide3359" />
    <sodipodi:guide
       position="67.733334,67.733334"
       orientation="256,0"
       id="guide3361" />
    <sodipodi:guide
       position="67.733334,0"
       orientation="0,-256"
       id="guide3363" />
    <sodipodi:guide
       position="0,0"
       orientation="-256,0"
       id="guide3365" />
    <sodipodi:guide
       position="0,67.733334"
       orientation="0,256"
       id="guide3367" />
    <sodipodi:guide
       position="67.733334,67.733334"
       orientation="256,0"
       id="guide3369" />
    <sodipodi:guide
       position="67.733334,0"
       orientation="0,-256"
       id="guide3371" />
    <sodipodi:guide
       position="0,0"
       orientation="-256,0"
       id="guide3373" />
    <sodipodi:guide
       position="0,67.733334"
       orientation="0,256"
       id="guide3375" />
    <sodipodi:guide
       position="67.733334,67.733334"
       orientation="256,0"
       id="guide3377" />
    <sodipodi:guide
       position="67.733334,0"
       orientation="0,-256"
       id="guide3379" />
    <sodipodi:guide
       position="0,0"
       orientation="-256,0"
       id="guide3381" />
    <sodipodi:guide
       position="33.866667,46.83125"
       orientation="1,0"
       id="guide895" />
    <sodipodi:guide
       position="41.010417,42.597917"
       orientation="0,-1"
       id="guide897" />
  </sodipodi:namedview>
  <metadata
     id="metadata5">
    <rdf:RDF>
      <cc:Work
         rdf:about="">
        <dc:format>image/svg+xml</dc:format>
        <dc:type
           rdf:resource="http://purl.org/dc/dcmitype/StillImage" />
        <dc:title></dc:title>
      </cc:Work>
    </rdf:RDF>
  </metadata>
  <g
     inkscape:groupmode="layer"
     id="layer2"
     inkscape:label="Icon">
    <path
       id="path906"
       style="color:#000000;font-style:normal;font-variant:normal;font-weight:normal;font-stretch:normal;font-size:medium;line-height:normal;font-family:sans-serif;font-variant-ligatures:normal;font-variant-position:normal;font-variant-caps:normal;font-variant-numeric:normal;font-variant-alternates:normal;font-variant-east-asian:normal;font-feature-settings:normal;font-variation-settings:normal;text-indent:0;text-align:start;text-decoration:none;text-decoration-line:none;text-decoration-style:solid;text-decoration-color:#000000;letter-spacing:normal;word-spacing:normal;text-transform:none;writing-mode:lr-tb;direction:ltr;text-orientation:mixed;dominant-baseline:auto;baseline-shift:baseline;text-anchor:start;white-space:normal;shape-padding:0;shape-margin:0;inline-size:0;clip-rule:nonzero;display:inline;overflow:visible;visibility:visible;isolation:auto;mix-blend-mode:normal;color-interpolation:sRGB;color-interpolation-filters:linearRGB;solid-color:#000000;solid-opacity:1;vector-effect:none;fill:#808080;fill-opacity:1;fill-rule:nonzero;stroke:none;stroke-width:0.999999;stroke-linecap:square;stroke-linejoin:miter;stroke-miterlimit:4;stroke-dasharray:none;stroke-dashoffset:0;stroke-opacity:1;paint-order:markers stroke fill;color-rendering:auto;image-rendering:auto;shape-rendering:auto;text-rendering:auto;enable-background:accumulate;stop-color:#000000"
       d="m 90.130859,24.882812 -4.238281,4.244141 22.990232,22.990235 c -3.54728,4.159317 -6.35136,9.525318 -8.01953,15.757812 l -0.16992,0.626953 h 52.97266 L 153.49609,67.875 c -1.54867,-5.786033 -4.07426,-10.827534 -7.26562,-14.849609 l 23.9043,-23.898438 -4.24415,-4.244141 -23.81835,23.81836 c -4.35651,-3.717351 -9.47778,-5.843467 -14.89258,-5.84375 -0.0166,-1.9e-5 -0.0344,-1.9e-5 -0.0508,0 -5.02307,0.01172 -9.79328,1.851887 -13.93164,5.091797 z m -24.626953,45.457032 -4.990234,3.330078 10.644531,15.958984 17.589844,4.400391 c -0.115956,1.534322 -0.189567,3.075198 -0.189453,4.623047 -2.3e-5,2.844986 0.204511,5.633346 0.578125,8.353516 H 61.007812 V 113 h 29.263672 c 1.02045,4.18129 2.470871,8.13569 4.298828,11.77344 l -18.628906,4.65234 -10.613281,21.23633 5.365234,2.67969 9.382813,-18.76368 17.634766,-4.4082 c 6.588272,9.85421 16.229402,16.47989 27.250002,17.54492 l 0.54883,0.0527 V 76.503906 H 92.775391 l -0.125,0.316406 c -1.418053,3.575075 -2.467237,7.341466 -3.152344,11.208985 l -14.632813,-3.65625 z m 125.013674,0 -9.36133,14.033203 -14.63477,3.65625 c -0.68546,-3.867504 -1.73393,-7.634039 -3.15234,-11.208985 l -0.125,-0.316406 h -32.73242 v 0.5 70.763674 l 0.54883,-0.0527 c 6.81675,-0.65877 13.10357,-3.44866 18.46875,-7.81054 0.0262,-4.96727 0.0529,-9.93446 0.0137,-14.89844 0.53588,-5.32036 -1.41104,-11.22585 1.60937,-16.04883 2.77715,-4.59018 8.64484,-4.18696 13.27539,-3.92383 0.87516,-0.12988 1.79143,-0.1669 2.71094,-0.15039 0.21048,-2.04269 0.32424,-4.12078 0.32422,-6.230466 1e-5,-1.547199 -0.0735,-3.087415 -0.18945,-4.621094 l 17.58789,-4.402344 10.64453,-15.958984 z m -16.35547,36.666016 c 1.01682,0.75891 1.87588,1.73125 2.47266,2.96875 0.39788,-1.08761 1.02049,-2.09214 1.78711,-2.96875 z m 18.20703,0 c 0.88267,0.48214 1.76266,0.96966 2.64258,1.45703 v -1.45703 z"
       transform="scale(0.26458333)" />
    <path
       id="path868"
       style="color:#000000;font-style:normal;font-variant:normal;font-weight:normal;font-stretch:normal;font-size:medium;line-height:normal;font-family:sans-serif;font-variant-ligatures:normal;font-variant-position:normal;font-variant-caps:normal;font-variant-numeric:normal;font-variant-alternates:normal;font-variant-east-asian:normal;font-feature-settings:normal;font-variation-settings:normal;text-indent:0;text-align:start;text-decoration:none;text-decoration-line:none;text-decoration-style:solid;text-decoration-color:#000000;letter-spacing:normal;word-spacing:normal;text-transform:none;writing-mode:lr-tb;direction:ltr;text-orientation:mixed;dominant-baseline:auto;baseline-shift:baseline;text-anchor:start;white-space:normal;shape-padding:0;shape-margin:0;inline-size:0;clip-rule:nonzero;display:inline;overflow:visible;visibility:visible;isolation:auto;mix-blend-mode:normal;color-interpolation:sRGB;color-interpolation-filters:linearRGB;solid-color:#000000;solid-opacity:1;vector-effect:none;fill:#808080;fill-opacity:1;fill-rule:nonzero;stroke:none;stroke-width:1.5875;stroke-linecap:round;stroke-linejoin:round;stroke-miterlimit:4;stroke-dasharray:none;stroke-dashoffset:0;stroke-opacity:1;color-rendering:auto;image-rendering:auto;shape-rendering:auto;text-rendering:auto;enable-background:accumulate;stop-color:#000000"
       d="m 48.947917,29.104167 a 0.79382934,0.79382934 0 0 0 -0.02687,5.29e-4 0.79382934,0.79382934 0 0 0 -0.759643,0.793233 v 13.747986 a 0.79382934,0.79382934 0 0 0 1.191658,0.687296 l 11.90625,-6.875032 a 0.79382934,0.79382934 0 0 0 0,-1.37511 L 49.35306,29.210104 a 0.79382934,0.79382934 0 0 0 -0.405143,-0.105937 z m -7.017143,0.258382 a 0.79382934,0.79382934 0 0 0 -0.778764,0.794783 v 13.22865 a 0.79382934,0.79382934 0 0 0 0.792717,0.792717 h 2.64635 a 0.79382934,0.79382934 0 0 0 0.793233,-0.792717 v -13.22865 a 0.79382934,0.79382934 0 0 0 -0.793233,-0.794783 h -2.64635 a 0.79382934,0.79382934 0 0 0 -0.01395,0 z" />
  </g>
</svg>
