<?xml version="1.0" encoding="UTF-8" standalone="no"?>
<svg
   xmlns:dc="http://purl.org/dc/elements/1.1/"
   xmlns:cc="http://creativecommons.org/ns#"
   xmlns:rdf="http://www.w3.org/1999/02/22-rdf-syntax-ns#"
   xmlns:svg="http://www.w3.org/2000/svg"
   xmlns="http://www.w3.org/2000/svg"
   xmlns:sodipodi="http://sodipodi.sourceforge.net/DTD/sodipodi-0.dtd"
   xmlns:inkscape="http://www.inkscape.org/namespaces/inkscape"
   width="256"
   height="256"
   viewBox="0 0 67.733332 67.733335"
   version="1.1"
   id="svg8"
   inkscape:version="1.0.1 (3bc2e813f5, 2020-09-07)"
   sodipodi:docname="streamdeck.svg"
   inkscape:export-filename="C:\Users\keath\Workspace\KMX\elite-streamdeck-icons\ship-lights.png"
   inkscape:export-xdpi="96"
   inkscape:export-ydpi="96">
  <defs
     id="defs2" />
  <sodipodi:namedview
     id="base"
     pagecolor="#000000"
     bordercolor="#666666"
     borderopacity="1.0"
     inkscape:pageopacity="0"
     inkscape:pageshadow="2"
     inkscape:zoom="5.6"
     inkscape:cx="110.38848"
     inkscape:cy="121.54987"
     inkscape:document-units="px"
     inkscape:current-layer="layer2"
     showgrid="true"
     units="px"
     inkscape:snap-grids="true"
     objecttolerance="10000"
     guidetolerance="10000"
     inkscape:window-width="3840"
     inkscape:window-height="2066"
     inkscape:window-x="-11"
     inkscape:window-y="-11"
     inkscape:window-maximized="1"
     inkscape:document-rotation="0"
     showguides="true"
     inkscape:guide-bbox="true">
    <inkscape:grid
       type="xygrid"
       id="grid4623" />
    <sodipodi:guide
       position="-3.96875,62.441667"
       orientation="0,256"
       id="guide3351" />
    <sodipodi:guide
       position="62.441667,42.597917"
       orientation="-1,0"
       id="guide3353"
       inkscape:label=""
       inkscape:locked="false"
       inkscape:color="rgb(0,0,255)" />
    <sodipodi:guide
       position="-2.6458333,22.754167"
       orientation="0,-256"
       id="guide3355" />
    <sodipodi:guide
       position="5.2916667,70.379167"
       orientation="-256,0"
       id="guide3357" />
    <sodipodi:guide
       position="0,67.733334"
       orientation="0,256"
       id="guide3359" />
    <sodipodi:guide
       position="67.733334,67.733334"
       orientation="256,0"
       id="guide3361" />
    <sodipodi:guide
       position="67.733334,0"
       orientation="0,-256"
       id="guide3363" />
    <sodipodi:guide
       position="0,0"
       orientation="-256,0"
       id="guide3365" />
    <sodipodi:guide
       position="0,67.733334"
       orientation="0,256"
       id="guide3367" />
    <sodipodi:guide
       position="67.733334,67.733334"
       orientation="256,0"
       id="guide3369" />
    <sodipodi:guide
       position="67.733334,0"
       orientation="0,-256"
       id="guide3371" />
    <sodipodi:guide
       position="0,0"
       orientation="-256,0"
       id="guide3373" />
    <sodipodi:guide
       position="0,67.733334"
       orientation="0,256"
       id="guide3375" />
    <sodipodi:guide
       position="67.733334,67.733334"
       orientation="256,0"
       id="guide3377" />
    <sodipodi:guide
       position="67.733334,0"
       orientation="0,-256"
       id="guide3379" />
    <sodipodi:guide
       position="0,0"
       orientation="-256,0"
       id="guide3381" />
    <sodipodi:guide
       position="33.866667,46.83125"
       orientation="1,0"
       id="guide895" />
    <sodipodi:guide
       position="41.010417,42.597917"
       orientation="0,-1"
       id="guide897" />
  </sodipodi:namedview>
  <metadata
     id="metadata5">
    <rdf:RDF>
      <cc:Work
         rdf:about="">
        <dc:format>image/svg+xml</dc:format>
        <dc:type
           rdf:resource="http://purl.org/dc/dcmitype/StillImage" />
        <dc:title></dc:title>
      </cc:Work>
    </rdf:RDF>
  </metadata>
  <g
     inkscape:groupmode="layer"
     id="layer2"
     inkscape:label="Icon">
    <path
       id="path849"
       style="fill:#808080;fill-opacity:1;stroke-width:6;stroke-linecap:round;stroke-linejoin:round;paint-order:markers stroke fill"
       d="m 128.2168,21.644531 c -40.675743,0 -73.7168,33.0391 -73.7168,73.714844 0,40.675745 33.041053,73.714845 73.7168,73.714845 40.67574,-1e-5 73.71484,-33.0391 73.71484,-73.714845 0,-40.67574 -33.0391,-73.714841 -73.71484,-73.714844 z m 0,6 c 37.4331,3e-6 67.71289,30.281742 67.71289,67.714844 0,37.433095 -30.27979,67.714845 -67.71289,67.714845 -37.433105,0 -67.714843,-30.28174 -67.714847,-67.714845 4e-6,-37.433102 30.281742,-67.714844 67.714847,-67.714844 z M 78.181641,68.691406 a 6.6666671,6.6666671 0 0 0 -6.634766,6.666016 6.6666671,6.6666671 0 0 0 6.667969,6.666016 6.6666671,6.6666671 0 0 0 6.666015,-6.666016 6.6666671,6.6666671 0 0 0 -6.666015,-6.666016 6.6666671,6.6666671 0 0 0 -0.0332,0 z m 20,0 a 6.6666671,6.6666671 0 0 0 -6.634766,6.666016 6.6666671,6.6666671 0 0 0 6.667969,6.666016 6.6666671,6.6666671 0 0 0 6.666016,-6.666016 6.6666671,6.6666671 0 0 0 -6.666016,-6.666016 6.6666671,6.6666671 0 0 0 -0.0332,0 z m 19.999999,0 a 6.6666671,6.6666671 0 0 0 -6.63476,6.666016 6.6666671,6.6666671 0 0 0 6.66796,6.666016 6.6666671,6.6666671 0 0 0 6.66602,-6.666016 6.6666671,6.6666671 0 0 0 -6.66602,-6.666016 6.6666671,6.6666671 0 0 0 -0.0332,0 z m 20,0 a 6.6666671,6.6666671 0 0 0 -6.63476,6.666016 6.6666671,6.6666671 0 0 0 6.66796,6.666016 6.6666671,6.6666671 0 0 0 6.66602,-6.666016 6.6666671,6.6666671 0 0 0 -6.66602,-6.666016 6.6666671,6.6666671 0 0 0 -0.0332,0 z m 20,0 a 6.6666671,6.6666671 0 0 0 -6.63476,6.666016 6.6666671,6.6666671 0 0 0 6.66796,6.666016 6.6666671,6.6666671 0 0 0 6.66602,-6.666016 6.6666671,6.6666671 0 0 0 -6.66602,-6.666016 6.6666671,6.6666671 0 0 0 -0.0332,0 z m 20,0 a 6.6666671,6.6666671 0 0 0 -6.63476,6.666016 6.6666671,6.6666671 0 0 0 6.66796,6.666016 6.6666671,6.6666671 0 0 0 6.66602,-6.666016 6.6666671,6.6666671 0 0 0 -6.66602,-6.666016 6.6666671,6.6666671 0 0 0 -0.0332,0 z m -99.999999,20 a 6.6666671,6.6666671 0 0 0 -6.634766,6.666016 6.6666671,6.6666671 0 0 0 6.667969,6.666018 6.6666671,6.6666671 0 0 0 6.666015,-6.666018 6.6666671,6.6666671 0 0 0 -6.666015,-6.666016 6.6666671,6.6666671 0 0 0 -0.0332,0 z m 20,0 a 6.6666671,6.6666671 0 0 0 -6.634766,6.666016 6.6666671,6.6666671 0 0 0 6.667969,6.666018 6.6666671,6.6666671 0 0 0 6.666016,-6.666018 6.6666671,6.6666671 0 0 0 -6.666016,-6.666016 6.6666671,6.6666671 0 0 0 -0.0332,0 z m 19.999999,0 a 6.6666671,6.6666671 0 0 0 -6.63476,6.666016 6.6666671,6.6666671 0 0 0 6.66796,6.666018 6.6666671,6.6666671 0 0 0 6.66602,-6.666018 6.6666671,6.6666671 0 0 0 -6.66602,-6.666016 6.6666671,6.6666671 0 0 0 -0.0332,0 z m 20,0 a 6.6666671,6.6666671 0 0 0 -6.63476,6.666016 6.6666671,6.6666671 0 0 0 6.66796,6.666018 6.6666671,6.6666671 0 0 0 6.66602,-6.666018 6.6666671,6.6666671 0 0 0 -6.66602,-6.666016 6.6666671,6.6666671 0 0 0 -0.0332,0 z m 20,0 a 6.6666671,6.6666671 0 0 0 -6.63476,6.666016 6.6666671,6.6666671 0 0 0 6.66796,6.666018 6.6666671,6.6666671 0 0 0 6.66602,-6.666018 6.6666671,6.6666671 0 0 0 -6.66602,-6.666016 6.6666671,6.6666671 0 0 0 -0.0332,0 z m 20,0 a 6.6666671,6.6666671 0 0 0 -6.63476,6.666016 6.6666671,6.6666671 0 0 0 6.66796,6.666018 6.6666671,6.6666671 0 0 0 6.66602,-6.666018 6.6666671,6.6666671 0 0 0 -6.66602,-6.666016 6.6666671,6.6666671 0 0 0 -0.0332,0 z M 78.181641,108.69141 a 6.6666671,6.6666671 0 0 0 -6.634766,6.66601 6.6666671,6.6666671 0 0 0 6.667969,6.66602 6.6666671,6.6666671 0 0 0 6.666015,-6.66602 6.6666671,6.6666671 0 0 0 -6.666015,-6.66601 6.6666671,6.6666671 0 0 0 -0.0332,0 z m 20,0 a 6.6666671,6.6666671 0 0 0 -6.634766,6.66601 6.6666671,6.6666671 0 0 0 6.667969,6.66602 6.6666671,6.6666671 0 0 0 6.666016,-6.66602 6.6666671,6.6666671 0 0 0 -6.666016,-6.66601 6.6666671,6.6666671 0 0 0 -0.0332,0 z m 19.999999,0 a 6.6666671,6.6666671 0 0 0 -6.63476,6.66601 6.6666671,6.6666671 0 0 0 6.66796,6.66602 6.6666671,6.6666671 0 0 0 6.66602,-6.66602 6.6666671,6.6666671 0 0 0 -6.66602,-6.66601 6.6666671,6.6666671 0 0 0 -0.0332,0 z m 20,0 a 6.6666671,6.6666671 0 0 0 -6.63476,6.66601 6.6666671,6.6666671 0 0 0 6.66796,6.66602 6.6666671,6.6666671 0 0 0 6.66602,-6.66602 6.6666671,6.6666671 0 0 0 -6.66602,-6.66601 6.6666671,6.6666671 0 0 0 -0.0332,0 z m 20,0 a 6.6666671,6.6666671 0 0 0 -6.63476,6.66601 6.6666671,6.6666671 0 0 0 6.66796,6.66602 6.6666671,6.6666671 0 0 0 6.66602,-6.66602 6.6666671,6.6666671 0 0 0 -6.66602,-6.66601 6.6666671,6.6666671 0 0 0 -0.0332,0 z m 20,0 a 6.6666671,6.6666671 0 0 0 -6.63476,6.66601 6.6666671,6.6666671 0 0 0 6.66796,6.66602 6.6666671,6.6666671 0 0 0 6.66602,-6.66602 6.6666671,6.6666671 0 0 0 -6.66602,-6.66601 6.6666671,6.6666671 0 0 0 -0.0332,0 z"
       transform="scale(0.26458333)" />
  </g>
</svg>
