<?xml version="1.0" encoding="UTF-8" standalone="no"?>
<svg
   xmlns:dc="http://purl.org/dc/elements/1.1/"
   xmlns:cc="http://creativecommons.org/ns#"
   xmlns:rdf="http://www.w3.org/1999/02/22-rdf-syntax-ns#"
   xmlns:svg="http://www.w3.org/2000/svg"
   xmlns="http://www.w3.org/2000/svg"
   xmlns:sodipodi="http://sodipodi.sourceforge.net/DTD/sodipodi-0.dtd"
   xmlns:inkscape="http://www.inkscape.org/namespaces/inkscape"
   width="256"
   height="256"
   viewBox="0 0 67.733332 67.733335"
   version="1.1"
   id="svg8"
   inkscape:version="1.0.1 (3bc2e813f5, 2020-09-07)"
   sodipodi:docname="streamdeck-ref.svg"
   inkscape:export-filename="C:\Users\keath\Workspace\KMX\elite-streamdeck-icons\ship-lights.png"
   inkscape:export-xdpi="96"
   inkscape:export-ydpi="96">
  <defs
     id="defs2" />
  <sodipodi:namedview
     id="base"
     pagecolor="#000000"
     bordercolor="#666666"
     borderopacity="1.0"
     inkscape:pageopacity="0"
     inkscape:pageshadow="2"
     inkscape:zoom="5.6"
     inkscape:cx="103.35273"
     inkscape:cy="98.178571"
     inkscape:document-units="px"
     inkscape:current-layer="layer2"
     showgrid="true"
     units="px"
     inkscape:snap-grids="true"
     objecttolerance="10000"
     guidetolerance="10000"
     inkscape:window-width="2780"
     inkscape:window-height="1895"
     inkscape:window-x="4681"
     inkscape:window-y="172"
     inkscape:window-maximized="0"
     inkscape:document-rotation="0"
     showguides="true"
     inkscape:guide-bbox="true">
    <inkscape:grid
       type="xygrid"
       id="grid4623" />
    <sodipodi:guide
       position="-3.96875,62.441667"
       orientation="0,256"
       id="guide3351" />
    <sodipodi:guide
       position="62.441667,42.597917"
       orientation="-1,0"
       id="guide3353"
       inkscape:label=""
       inkscape:locked="false"
       inkscape:color="rgb(0,0,255)" />
    <sodipodi:guide
       position="-2.6458333,22.754167"
       orientation="0,-256"
       id="guide3355" />
    <sodipodi:guide
       position="5.2916667,70.379167"
       orientation="-256,0"
       id="guide3357" />
    <sodipodi:guide
       position="0,67.733334"
       orientation="0,256"
       id="guide3359" />
    <sodipodi:guide
       position="67.733334,67.733334"
       orientation="256,0"
       id="guide3361" />
    <sodipodi:guide
       position="67.733334,0"
       orientation="0,-256"
       id="guide3363" />
    <sodipodi:guide
       position="0,0"
       orientation="-256,0"
       id="guide3365" />
    <sodipodi:guide
       position="0,67.733334"
       orientation="0,256"
       id="guide3367" />
    <sodipodi:guide
       position="67.733334,67.733334"
       orientation="256,0"
       id="guide3369" />
    <sodipodi:guide
       position="67.733334,0"
       orientation="0,-256"
       id="guide3371" />
    <sodipodi:guide
       position="0,0"
       orientation="-256,0"
       id="guide3373" />
    <sodipodi:guide
       position="0,67.733334"
       orientation="0,256"
       id="guide3375" />
    <sodipodi:guide
       position="67.733334,67.733334"
       orientation="256,0"
       id="guide3377" />
    <sodipodi:guide
       position="67.733334,0"
       orientation="0,-256"
       id="guide3379" />
    <sodipodi:guide
       position="0,0"
       orientation="-256,0"
       id="guide3381" />
    <sodipodi:guide
       position="33.866667,46.83125"
       orientation="1,0"
       id="guide895" />
    <sodipodi:guide
       position="41.010417,42.597917"
       orientation="0,-1"
       id="guide897" />
  </sodipodi:namedview>
  <metadata
     id="metadata5">
    <rdf:RDF>
      <cc:Work
         rdf:about="">
        <dc:format>image/svg+xml</dc:format>
        <dc:type
           rdf:resource="http://purl.org/dc/dcmitype/StillImage" />
        <dc:title></dc:title>
      </cc:Work>
    </rdf:RDF>
  </metadata>
  <g
     inkscape:groupmode="layer"
     id="layer2"
     inkscape:label="Icon">
    <path
       id="path870"
       style="color:#000000;font-style:normal;font-variant:normal;font-weight:normal;font-stretch:normal;font-size:medium;line-height:normal;font-family:sans-serif;font-variant-ligatures:normal;font-variant-position:normal;font-variant-caps:normal;font-variant-numeric:normal;font-variant-alternates:normal;font-variant-east-asian:normal;font-feature-settings:normal;font-variation-settings:normal;text-indent:0;text-align:start;text-decoration:none;text-decoration-line:none;text-decoration-style:solid;text-decoration-color:#000000;letter-spacing:normal;word-spacing:normal;text-transform:none;writing-mode:lr-tb;direction:ltr;text-orientation:mixed;dominant-baseline:auto;baseline-shift:baseline;text-anchor:start;white-space:normal;shape-padding:0;shape-margin:0;inline-size:0;clip-rule:nonzero;display:inline;overflow:visible;visibility:visible;opacity:1;isolation:auto;mix-blend-mode:normal;color-interpolation:sRGB;color-interpolation-filters:linearRGB;solid-color:#000000;solid-opacity:1;vector-effect:none;fill:#808080;fill-opacity:1;fill-rule:nonzero;stroke:none;stroke-width:6;stroke-linecap:square;stroke-linejoin:miter;stroke-miterlimit:4;stroke-dasharray:none;stroke-dashoffset:0;stroke-opacity:1;paint-order:markers stroke fill;color-rendering:auto;image-rendering:auto;shape-rendering:auto;text-rendering:auto;enable-background:accumulate;stop-color:#000000;stop-opacity:1"
       d="m 32,21.998047 v 3.003906 19.496094 H 19.998047 v 5.005859 H 32 v 15 H 19.998047 V 69.5 H 32 v 15 H 19.998047 v 4.998047 H 32 V 104.49805 H 19.998047 v 5.00586 H 32 v 15 H 19.998047 V 129.5 H 32 v 15 H 19.998047 v 4.99805 H 32 v 18.49804 h 176 v -2.27343 l 29,-19.79688 V 98.960938 L 226.08984,93.375 237,85.925781 V 38.960938 l -29,-14.84961 v -2.113281 z m 176,5.322265 26.79883,13.714844 v 43.03711 L 223.2793,91.935547 208,84.109375 Z M 38.001953,28 H 201.99805 V 162.00391 H 38.001953 V 149.49805 H 49.998047 V 144.5 H 38.001953 v -15 h 11.996094 v -4.99609 H 38.001953 v -15 h 11.996094 v -5.00586 H 38.001953 V 89.498047 H 49.998047 V 84.5 H 38.001953 v -15 H 49.998047 V 64.503906 H 38.001953 v -15 H 49.998047 V 44.498047 H 38.001953 Z M 208,87.320312 234.79883,101.03516 v 43.03711 L 208,162.36523 Z"
       transform="scale(0.26458333)" />
    <path
       id="path849"
       style="fill:#808080;fill-opacity:1;stroke-width:1.5875;stroke-linecap:round;stroke-linejoin:round;paint-order:markers stroke fill"
       d="m 33.213118,13.580413 c -6.569612,0 -11.906132,5.336204 -11.906132,11.905815 0,6.569613 5.336519,11.905817 11.906132,11.905817 6.569611,-2e-6 11.905815,-5.336204 11.905815,-11.905817 0,-6.569611 -5.336204,-11.905814 -11.905815,-11.905815 z m 0,0.969071 c 6.045886,0 10.936429,4.890858 10.936429,10.936744 0,6.045887 -4.890543,10.936746 -10.936429,10.936746 -6.045888,0 -10.936745,-4.890858 -10.936746,-10.936746 1e-6,-6.045886 4.890858,-10.936744 10.936746,-10.936744 z m -8.081268,6.629553 a 1.0767453,1.0767453 0 0 0 -1.071593,1.076641 1.0767453,1.0767453 0 0 0 1.076956,1.07664 1.0767453,1.0767453 0 0 0 1.07664,-1.07664 1.0767453,1.0767453 0 0 0 -1.07664,-1.076641 1.0767453,1.0767453 0 0 0 -0.0054,0 z m 3.230235,0 a 1.0767453,1.0767453 0 0 0 -1.071592,1.076641 1.0767453,1.0767453 0 0 0 1.076955,1.07664 1.0767453,1.0767453 0 0 0 1.07664,-1.07664 1.0767453,1.0767453 0 0 0 -1.07664,-1.076641 1.0767453,1.0767453 0 0 0 -0.0054,0 z m 3.230236,0 a 1.0767453,1.0767453 0 0 0 -1.071592,1.076641 1.0767453,1.0767453 0 0 0 1.076954,1.07664 1.0767453,1.0767453 0 0 0 1.076641,-1.07664 1.0767453,1.0767453 0 0 0 -1.076641,-1.076641 1.0767453,1.0767453 0 0 0 -0.0054,0 z m 3.230235,0 a 1.0767453,1.0767453 0 0 0 -1.071592,1.076641 1.0767453,1.0767453 0 0 0 1.076954,1.07664 1.0767453,1.0767453 0 0 0 1.076641,-1.07664 1.0767453,1.0767453 0 0 0 -1.076641,-1.076641 1.0767453,1.0767453 0 0 0 -0.0054,0 z m 3.230236,0 a 1.0767453,1.0767453 0 0 0 -1.071592,1.076641 1.0767453,1.0767453 0 0 0 1.076954,1.07664 1.0767453,1.0767453 0 0 0 1.076641,-1.07664 1.0767453,1.0767453 0 0 0 -1.076641,-1.076641 1.0767453,1.0767453 0 0 0 -0.0054,0 z m 3.230236,0 a 1.0767453,1.0767453 0 0 0 -1.071592,1.076641 1.0767453,1.0767453 0 0 0 1.076954,1.07664 1.0767453,1.0767453 0 0 0 1.076641,-1.07664 1.0767453,1.0767453 0 0 0 -1.076641,-1.076641 1.0767453,1.0767453 0 0 0 -0.0054,0 z M 25.13185,24.409273 a 1.0767453,1.0767453 0 0 0 -1.071593,1.07664 1.0767453,1.0767453 0 0 0 1.076956,1.076641 1.0767453,1.0767453 0 0 0 1.07664,-1.076641 1.0767453,1.0767453 0 0 0 -1.07664,-1.07664 1.0767453,1.0767453 0 0 0 -0.0054,0 z m 3.230235,0 a 1.0767453,1.0767453 0 0 0 -1.071592,1.07664 1.0767453,1.0767453 0 0 0 1.076955,1.076641 1.0767453,1.0767453 0 0 0 1.07664,-1.076641 1.0767453,1.0767453 0 0 0 -1.07664,-1.07664 1.0767453,1.0767453 0 0 0 -0.0054,0 z m 3.230236,0 a 1.0767453,1.0767453 0 0 0 -1.071592,1.07664 1.0767453,1.0767453 0 0 0 1.076954,1.076641 1.0767453,1.0767453 0 0 0 1.076641,-1.076641 1.0767453,1.0767453 0 0 0 -1.076641,-1.07664 1.0767453,1.0767453 0 0 0 -0.0054,0 z m 3.230235,0 a 1.0767453,1.0767453 0 0 0 -1.071592,1.07664 1.0767453,1.0767453 0 0 0 1.076954,1.076641 1.0767453,1.0767453 0 0 0 1.076641,-1.076641 1.0767453,1.0767453 0 0 0 -1.076641,-1.07664 1.0767453,1.0767453 0 0 0 -0.0054,0 z m 3.230236,0 a 1.0767453,1.0767453 0 0 0 -1.071592,1.07664 1.0767453,1.0767453 0 0 0 1.076954,1.076641 1.0767453,1.0767453 0 0 0 1.076641,-1.076641 1.0767453,1.0767453 0 0 0 -1.076641,-1.07664 1.0767453,1.0767453 0 0 0 -0.0054,0 z m 3.230236,0 a 1.0767453,1.0767453 0 0 0 -1.071592,1.07664 1.0767453,1.0767453 0 0 0 1.076954,1.076641 1.0767453,1.0767453 0 0 0 1.076641,-1.076641 1.0767453,1.0767453 0 0 0 -1.076641,-1.07664 1.0767453,1.0767453 0 0 0 -0.0054,0 z M 25.13185,27.639509 a 1.0767453,1.0767453 0 0 0 -1.071593,1.07664 1.0767453,1.0767453 0 0 0 1.076956,1.076641 1.0767453,1.0767453 0 0 0 1.07664,-1.076641 1.0767453,1.0767453 0 0 0 -1.07664,-1.07664 1.0767453,1.0767453 0 0 0 -0.0054,0 z m 3.230235,0 a 1.0767453,1.0767453 0 0 0 -1.071592,1.07664 1.0767453,1.0767453 0 0 0 1.076955,1.076641 1.0767453,1.0767453 0 0 0 1.07664,-1.076641 1.0767453,1.0767453 0 0 0 -1.07664,-1.07664 1.0767453,1.0767453 0 0 0 -0.0054,0 z m 3.230236,0 a 1.0767453,1.0767453 0 0 0 -1.071592,1.07664 1.0767453,1.0767453 0 0 0 1.076954,1.076641 1.0767453,1.0767453 0 0 0 1.076641,-1.076641 1.0767453,1.0767453 0 0 0 -1.076641,-1.07664 1.0767453,1.0767453 0 0 0 -0.0054,0 z m 3.230235,0 a 1.0767453,1.0767453 0 0 0 -1.071592,1.07664 1.0767453,1.0767453 0 0 0 1.076954,1.076641 1.0767453,1.0767453 0 0 0 1.076641,-1.076641 1.0767453,1.0767453 0 0 0 -1.076641,-1.07664 1.0767453,1.0767453 0 0 0 -0.0054,0 z m 3.230236,0 a 1.0767453,1.0767453 0 0 0 -1.071592,1.07664 1.0767453,1.0767453 0 0 0 1.076954,1.076641 1.0767453,1.0767453 0 0 0 1.076641,-1.076641 1.0767453,1.0767453 0 0 0 -1.076641,-1.07664 1.0767453,1.0767453 0 0 0 -0.0054,0 z m 3.230236,0 a 1.0767453,1.0767453 0 0 0 -1.071592,1.07664 1.0767453,1.0767453 0 0 0 1.076954,1.076641 1.0767453,1.0767453 0 0 0 1.076641,-1.076641 1.0767453,1.0767453 0 0 0 -1.076641,-1.07664 1.0767453,1.0767453 0 0 0 -0.0054,0 z" />
  </g>
</svg>
