<?xml version="1.0" encoding="UTF-8" standalone="no"?>
<svg
   xmlns:dc="http://purl.org/dc/elements/1.1/"
   xmlns:cc="http://creativecommons.org/ns#"
   xmlns:rdf="http://www.w3.org/1999/02/22-rdf-syntax-ns#"
   xmlns:svg="http://www.w3.org/2000/svg"
   xmlns="http://www.w3.org/2000/svg"
   xmlns:sodipodi="http://sodipodi.sourceforge.net/DTD/sodipodi-0.dtd"
   xmlns:inkscape="http://www.inkscape.org/namespaces/inkscape"
   width="256"
   height="256"
   viewBox="0 0 67.733332 67.733335"
   version="1.1"
   id="svg8"
   inkscape:version="1.0.1 (3bc2e813f5, 2020-09-07)"
   sodipodi:docname="swift.svg"
   inkscape:export-filename="C:\Users\keath\Workspace\KMX\elite-streamdeck-icons\ship-lights.png"
   inkscape:export-xdpi="96"
   inkscape:export-ydpi="96">
  <defs
     id="defs2">
    <clipPath
       clipPathUnits="userSpaceOnUse"
       id="clipPath1014">
      <rect
         style="opacity:0.07;fill:#800080;stroke-width:0.286404"
         id="rect1016"
         width="81.64286"
         height="88.824394"
         x="56.50745"
         y="100.64066"
         ry="3.1166456" />
    </clipPath>
    <clipPath
       clipPathUnits="userSpaceOnUse"
       id="clipPath3444">
      <path
         d="M 11.52,162 C 11.52,81.677 135.307,16.561 288,16.561 v 0 c 152.693,0 276.481,65.116 276.481,145.439 v 0 c 0,80.322 -123.788,145.439 -276.481,145.439 v 0 C 135.307,307.439 11.52,242.322 11.52,162"
         id="path3446" />
    </clipPath>
    <radialGradient
       cx="0"
       cy="0"
       fx="0"
       fy="0"
       gradientTransform="matrix(363.05789,0,0,-363.05789,177.52002,256.30713)"
       gradientUnits="userSpaceOnUse"
       id="radialGradient3452"
       r="1"
       spreadMethod="pad">
      <stop
         id="stop3454"
         offset="0"
         style="stop-opacity:1;stop-color:#aeb2d5" />
      <stop
         id="stop3456"
         offset="0.3"
         style="stop-opacity:1;stop-color:#aeb2d5" />
      <stop
         id="stop3458"
         offset="0.75"
         style="stop-opacity:1;stop-color:#484c89" />
      <stop
         id="stop3460"
         offset="1"
         style="stop-opacity:1;stop-color:#484c89" />
    </radialGradient>
    <clipPath
       clipPathUnits="userSpaceOnUse"
       id="clipPath3468">
      <path
         d="M 0,324 H 576 V 0 H 0 Z"
         id="path3470" />
    </clipPath>
    <clipPath
       clipPathUnits="userSpaceOnUse"
       id="clipPath3480">
      <path
         d="M 0,324 H 576 V 0 H 0 Z"
         id="path3482" />
    </clipPath>
  </defs>
  <sodipodi:namedview
     id="base"
     pagecolor="#000000"
     bordercolor="#666666"
     borderopacity="1.0"
     inkscape:pageopacity="0"
     inkscape:pageshadow="2"
     inkscape:zoom="3.959798"
     inkscape:cx="117.09201"
     inkscape:cy="86.722228"
     inkscape:document-units="px"
     inkscape:current-layer="layer2"
     showgrid="true"
     units="px"
     inkscape:snap-grids="true"
     objecttolerance="10000"
     guidetolerance="10000"
     inkscape:window-width="3840"
     inkscape:window-height="2066"
     inkscape:window-x="3829"
     inkscape:window-y="-11"
     inkscape:window-maximized="1"
     inkscape:document-rotation="0"
     showguides="true"
     inkscape:guide-bbox="true">
    <inkscape:grid
       type="xygrid"
       id="grid4623" />
    <sodipodi:guide
       position="-3.96875,62.441667"
       orientation="0,256"
       id="guide3351" />
    <sodipodi:guide
       position="62.441667,42.597917"
       orientation="-1,0"
       id="guide3353"
       inkscape:label=""
       inkscape:locked="false"
       inkscape:color="rgb(0,0,255)" />
    <sodipodi:guide
       position="-2.6458333,22.754167"
       orientation="0,-256"
       id="guide3355" />
    <sodipodi:guide
       position="5.2916667,70.379167"
       orientation="-256,0"
       id="guide3357" />
    <sodipodi:guide
       position="0,67.733334"
       orientation="0,256"
       id="guide3359" />
    <sodipodi:guide
       position="67.733334,67.733334"
       orientation="256,0"
       id="guide3361" />
    <sodipodi:guide
       position="67.733334,0"
       orientation="0,-256"
       id="guide3363" />
    <sodipodi:guide
       position="0,0"
       orientation="-256,0"
       id="guide3365" />
    <sodipodi:guide
       position="0,67.733334"
       orientation="0,256"
       id="guide3367" />
    <sodipodi:guide
       position="67.733334,67.733334"
       orientation="256,0"
       id="guide3369" />
    <sodipodi:guide
       position="67.733334,0"
       orientation="0,-256"
       id="guide3371" />
    <sodipodi:guide
       position="0,0"
       orientation="-256,0"
       id="guide3373" />
    <sodipodi:guide
       position="0,67.733334"
       orientation="0,256"
       id="guide3375" />
    <sodipodi:guide
       position="67.733334,67.733334"
       orientation="256,0"
       id="guide3377" />
    <sodipodi:guide
       position="67.733334,0"
       orientation="0,-256"
       id="guide3379" />
    <sodipodi:guide
       position="0,0"
       orientation="-256,0"
       id="guide3381" />
    <sodipodi:guide
       position="33.866667,46.83125"
       orientation="1,0"
       id="guide895" />
    <sodipodi:guide
       position="41.010417,42.597917"
       orientation="0,-1"
       id="guide897" />
  </sodipodi:namedview>
  <metadata
     id="metadata5">
    <rdf:RDF>
      <cc:Work
         rdf:about="">
        <dc:format>image/svg+xml</dc:format>
        <dc:type
           rdf:resource="http://purl.org/dc/dcmitype/StillImage" />
        <dc:title></dc:title>
      </cc:Work>
    </rdf:RDF>
  </metadata>
  <g
     inkscape:groupmode="layer"
     id="layer2"
     inkscape:label="Icon">
    <path
       style="fill:#000000;stroke-width:1"
       id="path909"
       d="" />
    <path
       id="rect1105"
       style="fill:#808080;fill-opacity:1;stroke:#808080;stroke-width:0.0264582;stroke-linecap:square;stroke-miterlimit:4;stroke-dasharray:none;paint-order:markers stroke fill"
       d="m 22.177657,6.165471 c -3.991195,0 -7.20432,3.2131267 -7.20432,7.20432 v 23.41404 c 0,3.991193 3.213125,7.20432 7.20432,7.20432 h 23.41404 c 3.991192,0 7.20432,-3.213127 7.20432,-7.20432 v -23.41404 c 0,-3.9911933 -3.213128,-7.20432 -7.20432,-7.20432 z m 15.021428,5.989999 c 6.555931,3.926355 10.410242,11.419269 8.825292,17.723049 -0.03603,0.144086 -0.07161,0.287891 -0.107649,0.431977 3.313988,4.03442 2.413026,8.356871 1.908723,7.600417 -1.729037,-3.313989 -4.898797,-2.485348 -6.519768,-1.656853 -0.144087,0.07205 -0.287893,0.180525 -0.431978,0.252573 0,0.03603 -0.03658,0.03588 -0.03658,0.03588 -3.350009,1.801078 -7.888734,1.909286 -12.427452,-0.03588 -3.818293,-1.656995 -6.951607,-4.466818 -8.968816,-7.708762 1.044626,0.756454 2.160874,1.440864 3.349586,1.981188 4.790871,2.269361 9.618188,2.089252 13.040241,0 -4.862916,-3.746248 -8.933497,-8.609304 -12.031354,-12.57168 -0.576347,-0.68441 -1.116811,-1.440724 -1.585091,-2.197177 3.746245,3.38603 9.617622,7.67246 11.7429,8.861174 -4.466677,-4.71883 -8.429199,-10.554612 -8.249086,-10.374503 7.060229,7.096255 13.580564,11.130816 13.580564,11.130816 0.252151,0.108058 0.432119,0.216263 0.576205,0.324334 0.144086,-0.360216 0.252159,-0.720432 0.360216,-1.080647 1.11667,-4.106463 -0.144226,-8.825575 -3.025955,-12.715906 z" />
  </g>
</svg>
