<?xml version="1.0" encoding="UTF-8" standalone="no"?>
<svg
   xmlns:dc="http://purl.org/dc/elements/1.1/"
   xmlns:cc="http://creativecommons.org/ns#"
   xmlns:rdf="http://www.w3.org/1999/02/22-rdf-syntax-ns#"
   xmlns:svg="http://www.w3.org/2000/svg"
   xmlns="http://www.w3.org/2000/svg"
   xmlns:sodipodi="http://sodipodi.sourceforge.net/DTD/sodipodi-0.dtd"
   xmlns:inkscape="http://www.inkscape.org/namespaces/inkscape"
   width="256"
   height="256"
   viewBox="0 0 67.733332 67.733335"
   version="1.1"
   id="svg8"
   inkscape:version="1.0.1 (3bc2e813f5, 2020-09-07)"
   sodipodi:docname="timestamp.svg"
   inkscape:export-filename="C:\Users\keath\Workspace\KMX\elite-streamdeck-icons\ship-lights.png"
   inkscape:export-xdpi="96"
   inkscape:export-ydpi="96">
  <defs
     id="defs2" />
  <sodipodi:namedview
     id="base"
     pagecolor="#000000"
     bordercolor="#666666"
     borderopacity="1.0"
     inkscape:pageopacity="0"
     inkscape:pageshadow="2"
     inkscape:zoom="2.8"
     inkscape:cx="88.804264"
     inkscape:cy="87.079224"
     inkscape:document-units="px"
     inkscape:current-layer="layer2"
     showgrid="true"
     units="px"
     inkscape:snap-grids="true"
     objecttolerance="10000"
     guidetolerance="10000"
     inkscape:window-width="3840"
     inkscape:window-height="2066"
     inkscape:window-x="-11"
     inkscape:window-y="-11"
     inkscape:window-maximized="1"
     inkscape:document-rotation="0"
     showguides="true"
     inkscape:guide-bbox="true"
     inkscape:snap-global="true">
    <inkscape:grid
       type="xygrid"
       id="grid4623" />
    <sodipodi:guide
       position="-3.96875,62.441667"
       orientation="0,256"
       id="guide3351" />
    <sodipodi:guide
       position="62.441667,42.597917"
       orientation="-1,0"
       id="guide3353"
       inkscape:label=""
       inkscape:locked="false"
       inkscape:color="rgb(0,0,255)" />
    <sodipodi:guide
       position="-2.6458333,22.754167"
       orientation="0,-256"
       id="guide3355" />
    <sodipodi:guide
       position="5.2916667,70.379167"
       orientation="-256,0"
       id="guide3357" />
    <sodipodi:guide
       position="0,67.733334"
       orientation="0,256"
       id="guide3359" />
    <sodipodi:guide
       position="67.733334,67.733334"
       orientation="256,0"
       id="guide3361" />
    <sodipodi:guide
       position="67.733334,0"
       orientation="0,-256"
       id="guide3363" />
    <sodipodi:guide
       position="0,0"
       orientation="-256,0"
       id="guide3365" />
    <sodipodi:guide
       position="0,67.733334"
       orientation="0,256"
       id="guide3367" />
    <sodipodi:guide
       position="67.733334,67.733334"
       orientation="256,0"
       id="guide3369" />
    <sodipodi:guide
       position="67.733334,0"
       orientation="0,-256"
       id="guide3371" />
    <sodipodi:guide
       position="0,0"
       orientation="-256,0"
       id="guide3373" />
    <sodipodi:guide
       position="0,67.733334"
       orientation="0,256"
       id="guide3375" />
    <sodipodi:guide
       position="67.733334,67.733334"
       orientation="256,0"
       id="guide3377" />
    <sodipodi:guide
       position="67.733334,0"
       orientation="0,-256"
       id="guide3379" />
    <sodipodi:guide
       position="0,0"
       orientation="-256,0"
       id="guide3381" />
    <sodipodi:guide
       position="33.866667,46.83125"
       orientation="1,0"
       id="guide895" />
    <sodipodi:guide
       position="41.010417,42.597917"
       orientation="0,-1"
       id="guide897" />
  </sodipodi:namedview>
  <metadata
     id="metadata5">
    <rdf:RDF>
      <cc:Work
         rdf:about="">
        <dc:format>image/svg+xml</dc:format>
        <dc:type
           rdf:resource="http://purl.org/dc/dcmitype/StillImage" />
        <dc:title></dc:title>
      </cc:Work>
    </rdf:RDF>
  </metadata>
  <g
     inkscape:groupmode="layer"
     id="layer2"
     inkscape:label="Icon">
    <path
       d="m 13.551022,43.680893 h -1.106879 q -1.320876,0 -2.147345,-1.85042 -0.8190887,-1.831913 -0.8190887,-5.3107 v -2.75712 q 0,-3.127208 -0.612473,-4.885107 -0.612472,-1.7764 -1.874315,-1.7764 H 6.6145833 V 24.21449 h 0.376338 q 1.261843,0 1.874315,-1.757894 0.612473,-1.776401 0.612473,-4.903608 v -2.757123 q 0,-3.478787 0.8190887,-5.3107001 0.826469,-1.8504182 2.147345,-1.8504182 h 1.106879 v 2.5535773 h -0.841229 q -1.003569,0 -1.461079,1.165764 -0.45013,1.165761 -0.45013,3.756348 v 3.238232 q 0,2.572081 -0.568197,4.329976 -0.5681987,1.739393 -1.5791477,2.757125 v 0.444102 q 1.010949,1.017729 1.5791477,2.775627 0.568197,1.739393 0.568197,4.311475 v 3.238228 q 0,2.590588 0.45013,3.756353 0.45751,1.16576 1.461079,1.16576 h 0.841229 z"
       style="font-style:normal;font-weight:normal;font-size:10.5833px;line-height:1.25;font-family:sans-serif;fill:#808080;fill-opacity:1;stroke:#808080;stroke-width:1.5875;stroke-miterlimit:4;stroke-dasharray:none;stroke-opacity:1"
       id="path1043" />
    <path
       d="m 54.239583,43.983647 h 1.106879 q 1.320876,0 2.147345,-1.85042 0.819089,-1.831914 0.819089,-5.3107 v -2.75712 q 0,-3.127208 0.612473,-4.885107 0.612472,-1.7764 1.874315,-1.7764 h 0.376338 v -2.886656 h -0.376338 q -1.261843,0 -1.874315,-1.757894 -0.612473,-1.776401 -0.612473,-4.903608 v -2.757123 q 0,-3.478787 -0.819089,-5.3107004 -0.826469,-1.8504182 -2.147345,-1.8504182 h -1.106879 v 2.5535776 h 0.841229 q 1.003569,0 1.461079,1.165763 0.45013,1.165762 0.45013,3.756349 v 3.238232 q 0,2.572081 0.568197,4.329976 0.568199,1.739393 1.579148,2.757124 v 0.444103 q -1.010949,1.017728 -1.579148,2.775627 -0.568197,1.739393 -0.568197,4.311475 v 3.238228 q 0,2.590588 -0.45013,3.756352 -0.45751,1.165761 -1.461079,1.165761 h -0.841229 z"
       style="font-style:normal;font-weight:normal;font-size:10.5833px;line-height:1.25;font-family:sans-serif;fill:#808080;fill-opacity:1;stroke:#808080;stroke-width:1.5875;stroke-miterlimit:4;stroke-dasharray:none;stroke-opacity:1"
       id="path1043-9" />
    <path
       id="path862"
       style="color:#000000;font-style:normal;font-variant:normal;font-weight:normal;font-stretch:normal;font-size:medium;line-height:normal;font-family:sans-serif;font-variant-ligatures:normal;font-variant-position:normal;font-variant-caps:normal;font-variant-numeric:normal;font-variant-alternates:normal;font-variant-east-asian:normal;font-feature-settings:normal;font-variation-settings:normal;text-indent:0;text-align:start;text-decoration:none;text-decoration-line:none;text-decoration-style:solid;text-decoration-color:#000000;letter-spacing:normal;word-spacing:normal;text-transform:none;writing-mode:lr-tb;direction:ltr;text-orientation:mixed;dominant-baseline:auto;baseline-shift:baseline;text-anchor:start;white-space:normal;shape-padding:0;shape-margin:0;inline-size:0;clip-rule:nonzero;display:inline;overflow:visible;visibility:visible;opacity:1;isolation:auto;mix-blend-mode:normal;color-interpolation:sRGB;color-interpolation-filters:linearRGB;solid-color:#000000;solid-opacity:1;vector-effect:none;fill:#808080;fill-opacity:1;fill-rule:nonzero;stroke:none;stroke-width:2.11667;stroke-linecap:butt;stroke-linejoin:round;stroke-miterlimit:4;stroke-dasharray:none;stroke-dashoffset:0;stroke-opacity:1;paint-order:markers stroke fill;color-rendering:auto;image-rendering:auto;shape-rendering:auto;text-rendering:auto;enable-background:accumulate;stop-color:#000000;stop-opacity:1"
       d="m 33.759041,11.488556 c -7.669585,0 -13.90263,6.234501 -13.90263,13.904084 0,7.669584 6.233045,13.902628 13.90263,13.902628 7.669584,0 13.904085,-6.233044 13.904085,-13.902628 0,-7.669583 -6.234501,-13.904084 -13.904085,-13.904084 z m 0,1.490802 c 6.86409,0 12.413284,5.549192 12.413284,12.413282 0,6.86409 -5.549194,12.411827 -12.413284,12.411827 -6.864092,0 -12.411828,-5.547735 -12.411828,-12.411827 0,-6.86409 5.547737,-12.413282 12.411828,-12.413282 z m -0.314753,1.184054 v 1.863412 h 0.558186 v -1.863412 z m -7.535155,3.528874 -0.394806,0.394807 0.93116,0.932251 0.395897,-0.395898 z m 15.441463,0 -0.932252,0.93116 0.395898,0.395898 0.93116,-0.932251 z m -8.186857,0.197949 v 7.718185 l 7.100322,5.756889 0.704463,-0.867843 -6.686957,-5.421398 v -7.185833 z m -10.246035,7.172006 v 0.560006 h 1.86232 v -0.560006 z m 20.493161,0 v 0.560006 h 1.86341 v -0.560006 z m -16.033127,7.534063 -0.932251,0.932251 0.395897,0.394806 0.93116,-0.931161 z m 13.436504,0 -0.395898,0.395898 0.932252,0.931161 0.394806,-0.394806 z m -7.369954,2.061359 v 1.86232 h 0.558186 v -1.86232 z" />
  </g>
</svg>
