<?xml version="1.0" encoding="UTF-8" standalone="no"?>
<svg
   xmlns:dc="http://purl.org/dc/elements/1.1/"
   xmlns:cc="http://creativecommons.org/ns#"
   xmlns:rdf="http://www.w3.org/1999/02/22-rdf-syntax-ns#"
   xmlns:svg="http://www.w3.org/2000/svg"
   xmlns="http://www.w3.org/2000/svg"
   xmlns:sodipodi="http://sodipodi.sourceforge.net/DTD/sodipodi-0.dtd"
   xmlns:inkscape="http://www.inkscape.org/namespaces/inkscape"
   width="256"
   height="256"
   viewBox="0 0 67.733332 67.733335"
   version="1.1"
   id="svg8"
   inkscape:version="1.0.1 (3bc2e813f5, 2020-09-07)"
   sodipodi:docname="tool-window.svg"
   inkscape:export-filename="C:\Users\keath\Workspace\KMX\elite-streamdeck-icons\ship-lights.png"
   inkscape:export-xdpi="96"
   inkscape:export-ydpi="96">
  <defs
     id="defs2" />
  <sodipodi:namedview
     id="base"
     pagecolor="#000000"
     bordercolor="#666666"
     borderopacity="1.0"
     inkscape:pageopacity="0"
     inkscape:pageshadow="2"
     inkscape:zoom="5.6"
     inkscape:cx="111.90634"
     inkscape:cy="121.54987"
     inkscape:document-units="px"
     inkscape:current-layer="layer2"
     showgrid="true"
     units="px"
     inkscape:snap-grids="true"
     objecttolerance="10000"
     guidetolerance="10000"
     inkscape:window-width="3840"
     inkscape:window-height="2066"
     inkscape:window-x="3829"
     inkscape:window-y="-11"
     inkscape:window-maximized="1"
     inkscape:document-rotation="0"
     showguides="true"
     inkscape:guide-bbox="true">
    <inkscape:grid
       type="xygrid"
       id="grid4623" />
    <sodipodi:guide
       position="-3.96875,62.441667"
       orientation="0,256"
       id="guide3351" />
    <sodipodi:guide
       position="62.441667,42.597917"
       orientation="-1,0"
       id="guide3353"
       inkscape:label=""
       inkscape:locked="false"
       inkscape:color="rgb(0,0,255)" />
    <sodipodi:guide
       position="-2.6458333,22.754167"
       orientation="0,-256"
       id="guide3355" />
    <sodipodi:guide
       position="5.2916667,70.379167"
       orientation="-256,0"
       id="guide3357" />
    <sodipodi:guide
       position="0,67.733334"
       orientation="0,256"
       id="guide3359" />
    <sodipodi:guide
       position="67.733334,67.733334"
       orientation="256,0"
       id="guide3361" />
    <sodipodi:guide
       position="67.733334,0"
       orientation="0,-256"
       id="guide3363" />
    <sodipodi:guide
       position="0,0"
       orientation="-256,0"
       id="guide3365" />
    <sodipodi:guide
       position="0,67.733334"
       orientation="0,256"
       id="guide3367" />
    <sodipodi:guide
       position="67.733334,67.733334"
       orientation="256,0"
       id="guide3369" />
    <sodipodi:guide
       position="67.733334,0"
       orientation="0,-256"
       id="guide3371" />
    <sodipodi:guide
       position="0,0"
       orientation="-256,0"
       id="guide3373" />
    <sodipodi:guide
       position="0,67.733334"
       orientation="0,256"
       id="guide3375" />
    <sodipodi:guide
       position="67.733334,67.733334"
       orientation="256,0"
       id="guide3377" />
    <sodipodi:guide
       position="67.733334,0"
       orientation="0,-256"
       id="guide3379" />
    <sodipodi:guide
       position="0,0"
       orientation="-256,0"
       id="guide3381" />
    <sodipodi:guide
       position="33.866667,46.83125"
       orientation="1,0"
       id="guide895" />
    <sodipodi:guide
       position="41.010417,42.597917"
       orientation="0,-1"
       id="guide897" />
  </sodipodi:namedview>
  <metadata
     id="metadata5">
    <rdf:RDF>
      <cc:Work
         rdf:about="">
        <dc:format>image/svg+xml</dc:format>
        <dc:type
           rdf:resource="http://purl.org/dc/dcmitype/StillImage" />
        <dc:title></dc:title>
      </cc:Work>
    </rdf:RDF>
  </metadata>
  <g
     inkscape:groupmode="layer"
     id="layer2"
     inkscape:label="Icon">
    <path
       id="path863"
       style="color:#000000;font-style:normal;font-variant:normal;font-weight:normal;font-stretch:normal;font-size:medium;line-height:normal;font-family:sans-serif;font-variant-ligatures:normal;font-variant-position:normal;font-variant-caps:normal;font-variant-numeric:normal;font-variant-alternates:normal;font-variant-east-asian:normal;font-feature-settings:normal;font-variation-settings:normal;text-indent:0;text-align:start;text-decoration:none;text-decoration-line:none;text-decoration-style:solid;text-decoration-color:#000000;letter-spacing:normal;word-spacing:normal;text-transform:none;writing-mode:lr-tb;direction:ltr;text-orientation:mixed;dominant-baseline:auto;baseline-shift:baseline;text-anchor:start;white-space:normal;shape-padding:0;shape-margin:0;inline-size:0;clip-rule:nonzero;display:inline;overflow:visible;visibility:visible;opacity:1;isolation:auto;mix-blend-mode:normal;color-interpolation:sRGB;color-interpolation-filters:linearRGB;solid-color:#000000;solid-opacity:1;vector-effect:none;fill:#808080;fill-opacity:1;fill-rule:nonzero;stroke:none;stroke-width:6;stroke-linecap:square;stroke-linejoin:miter;stroke-miterlimit:4;stroke-dasharray:none;stroke-dashoffset:0;stroke-opacity:1;paint-order:markers stroke fill;color-rendering:auto;image-rendering:auto;shape-rendering:auto;text-rendering:auto;enable-background:accumulate;stop-color:#000000;stop-opacity:1"
       d="M 21.998047,21.998047 V 25.001953 167.99609 H 233.00195 V 21.998047 Z M 28,28 H 227 V 47 H 28 Z m 0,25.001953 H 227 V 162.00391 H 28 Z"
       transform="scale(0.26458333)" />
    <path
       id="path868"
       style="fill:#808080;fill-opacity:1;stroke-width:0.264583"
       d="m 26.035701,16.207176 c -0.164529,0.0047 -0.329638,0.01864 -0.494324,0.04255 l 1.438695,1.439385 c 0.350999,0.350707 0.544538,0.816797 0.544828,1.312084 2.78e-4,0.495579 -0.192682,0.961323 -0.543099,1.311741 l -0.998335,0.997988 c -0.349836,0.350127 -0.815356,0.543099 -1.310355,0.543099 h -10e-4 c -0.49558,-2.78e-4 -0.96138,-0.193775 -1.312088,-0.544483 l -1.438739,-1.438348 c -0.190451,1.318059 0.240805,2.654655 1.205542,3.619392 1.216736,1.216738 3.033079,1.584176 4.628103,0.936759 0.171001,-0.06939 0.359436,-0.02143 0.478758,0.105157 l 3.005379,3.006071 0.116576,-0.116576 c 0.272031,-0.27203 0.631838,-0.421334 1.0139,-0.421334 0.311224,0 0.604372,0.103568 0.849933,0.286423 l 0.855123,-0.854776 -3.880911,-3.880909 c -5.38e-4,-5.54e-4 -7.4e-4,-7.4e-4 -0.001,-0.001 l -10e-4,-6.78e-4 c -3.58e-4,-5.55e-4 -5.6e-5,-0.001 -3.58e-4,-0.0014 -0.03948,-0.03977 -0.07047,-0.08652 -0.09167,-0.137331 -0.0026,-0.0067 -0.0035,-0.01302 -0.006,-0.01971 -0.01626,-0.04499 -0.02675,-0.09231 -0.02733,-0.14079 0,-0.009 0.0022,-0.01764 0.0023,-0.02663 0.0017,-0.04123 0.0093,-0.08216 0.02352,-0.122803 0.0031,-0.0099 0.0049,-0.01943 0.009,-0.02871 0.642195,-1.591541 0.274312,-3.402509 -0.939522,-4.616342 -0.845147,-0.845248 -1.974384,-1.281258 -3.126093,-1.248869 z m 19.25442,0.08717 -3.279696,1.819555 0.09167,1.308626 c 4.9e-4,0.0072 -3.26e-4,0.01385 -3.26e-4,0.0211 0,0.0062 -3.26e-4,0.01224 -8.02e-4,0.01834 -0.0013,0.05225 -0.01077,0.1023 -0.02906,0.148749 -0.0013,0.0032 -0.003,0.0062 -0.0042,0.009 -0.02119,0.0511 -0.05197,0.09676 -0.09028,0.135948 -8.02e-4,6.02e-4 -10e-4,0.0018 -0.0017,0.0023 l -8.12846,8.128163 0.611938,0.611591 8.11812,-8.117773 c 0.0781,-0.0845 0.187846,-0.135948 0.30891,-0.135948 0.0049,-2.78e-4 0.0099,-3.59e-4 0.01488,-3.59e-4 0.0072,2.78e-4 0.01454,-0.0012 0.02179,-3.59e-4 l 1.308281,0.09167 1.819902,-3.280043 z M 32.370244,27.873775 c -0.146068,-3.7e-5 -0.292068,0.05338 -0.399196,0.160508 l -0.420642,0.42341 c -8.64e-4,8.64e-4 -0.0013,0.0018 -0.0021,0.0028 -8.64e-4,6.05e-4 -0.0018,8.65e-4 -0.0028,0.0017 l -0.06227,0.06227 2.340169,2.340515 0.486021,-0.48879 c 0,0 0,-3.59e-4 0,-3.59e-4 0.108166,-0.108265 0.167193,-0.249991 0.167772,-0.400579 0,-0.150386 -0.05892,-0.292066 -0.166043,-0.399196 l -0.158414,-0.158411 -1.22526,-1.225258 -0.158087,-0.158087 C 32.662411,27.927315 32.516268,27.873825 32.3702,27.87379 Z m 3.542942,0.397119 -0.855122,0.855122 c 0.182905,0.245322 0.286426,0.538653 0.286426,0.849586 0,0.382064 -0.149427,0.741993 -0.420298,1.012863 l -0.117613,0.117267 3.006763,3.007111 c 0.126577,0.119032 0.174547,0.307354 0.105157,0.478064 -0.647708,1.595025 -0.280034,3.411712 0.936413,4.628449 0.965028,0.964738 2.30168,1.395648 3.619738,1.205197 l -1.438695,-1.438349 c -0.723791,-0.72377 -0.724284,-1.900926 -0.0015,-2.623826 l 0.998334,-0.998333 c 0.723189,-0.723169 1.900692,-0.722096 2.624172,0.0015 l 1.43904,1.43904 c 0.191322,-1.317186 -0.240335,-2.654183 -1.206232,-3.620084 -1.213835,-1.213542 -3.025151,-1.581773 -4.616691,-0.939873 -0.0096,0.0041 -0.01913,0.0055 -0.02871,0.009 -0.04007,0.01422 -0.08111,0.02186 -0.121764,0.02387 -0.0067,3.59e-4 -0.01338,0.0038 -0.02007,0.0038 -0.0029,0 -0.0054,-0.0017 -0.0083,-0.0017 -0.04848,-8.63e-4 -0.09573,-0.01107 -0.140445,-0.02733 -0.0067,-0.0023 -0.01336,-0.0033 -0.01972,-0.0062 -0.0508,-0.02119 -0.09755,-0.05213 -0.137332,-0.09132 -3.26e-4,-3.59e-4 -8.01e-4,-3.59e-4 -10e-4,-7.4e-4 l -8.02e-4,-7.4e-4 -0.0017,-0.0017 z m -5.80182,0.388471 c -0.180291,0 -0.349922,0.07007 -0.477374,0.197523 L 21.959,36.531537 c -0.127161,0.12774 -0.197177,0.297085 -0.197177,0.477373 0,0.180289 0.06973,0.349922 0.197177,0.477373 l 2.899872,2.899872 c 0.254902,0.254612 0.699209,0.254902 0.954401,0 l 7.674994,-7.674648 c 0.127449,-0.12774 0.19752,-0.297139 0.19752,-0.477719 0,-0.180288 -0.07041,-0.349576 -0.197866,-0.477028 l -2.90091,-2.901256 c -0.12716,-0.126289 -0.296227,-0.196139 -0.475645,-0.196139 z" />
  </g>
</svg>
