<?xml version="1.0" encoding="UTF-8" standalone="no"?>
<svg
   xmlns:dc="http://purl.org/dc/elements/1.1/"
   xmlns:cc="http://creativecommons.org/ns#"
   xmlns:rdf="http://www.w3.org/1999/02/22-rdf-syntax-ns#"
   xmlns:svg="http://www.w3.org/2000/svg"
   xmlns="http://www.w3.org/2000/svg"
   xmlns:sodipodi="http://sodipodi.sourceforge.net/DTD/sodipodi-0.dtd"
   xmlns:inkscape="http://www.inkscape.org/namespaces/inkscape"
   width="256"
   height="256"
   viewBox="0 0 67.733332 67.733335"
   version="1.1"
   id="svg8"
   inkscape:version="1.0.1 (3bc2e813f5, 2020-09-07)"
   sodipodi:docname="tool-ref.svg"
   inkscape:export-filename="C:\Users\keath\Workspace\KMX\elite-streamdeck-icons\ship-lights.png"
   inkscape:export-xdpi="96"
   inkscape:export-ydpi="96">
  <defs
     id="defs2" />
  <sodipodi:namedview
     id="base"
     pagecolor="#000000"
     bordercolor="#666666"
     borderopacity="1.0"
     inkscape:pageopacity="0"
     inkscape:pageshadow="2"
     inkscape:zoom="5.6"
     inkscape:cx="103.35273"
     inkscape:cy="98.178571"
     inkscape:document-units="px"
     inkscape:current-layer="layer2"
     showgrid="true"
     units="px"
     inkscape:snap-grids="true"
     objecttolerance="10000"
     guidetolerance="10000"
     inkscape:window-width="2780"
     inkscape:window-height="1895"
     inkscape:window-x="4681"
     inkscape:window-y="172"
     inkscape:window-maximized="0"
     inkscape:document-rotation="0"
     showguides="true"
     inkscape:guide-bbox="true">
    <inkscape:grid
       type="xygrid"
       id="grid4623" />
    <sodipodi:guide
       position="-3.96875,62.441667"
       orientation="0,256"
       id="guide3351" />
    <sodipodi:guide
       position="62.441667,42.597917"
       orientation="-1,0"
       id="guide3353"
       inkscape:label=""
       inkscape:locked="false"
       inkscape:color="rgb(0,0,255)" />
    <sodipodi:guide
       position="-2.6458333,22.754167"
       orientation="0,-256"
       id="guide3355" />
    <sodipodi:guide
       position="5.2916667,70.379167"
       orientation="-256,0"
       id="guide3357" />
    <sodipodi:guide
       position="0,67.733334"
       orientation="0,256"
       id="guide3359" />
    <sodipodi:guide
       position="67.733334,67.733334"
       orientation="256,0"
       id="guide3361" />
    <sodipodi:guide
       position="67.733334,0"
       orientation="0,-256"
       id="guide3363" />
    <sodipodi:guide
       position="0,0"
       orientation="-256,0"
       id="guide3365" />
    <sodipodi:guide
       position="0,67.733334"
       orientation="0,256"
       id="guide3367" />
    <sodipodi:guide
       position="67.733334,67.733334"
       orientation="256,0"
       id="guide3369" />
    <sodipodi:guide
       position="67.733334,0"
       orientation="0,-256"
       id="guide3371" />
    <sodipodi:guide
       position="0,0"
       orientation="-256,0"
       id="guide3373" />
    <sodipodi:guide
       position="0,67.733334"
       orientation="0,256"
       id="guide3375" />
    <sodipodi:guide
       position="67.733334,67.733334"
       orientation="256,0"
       id="guide3377" />
    <sodipodi:guide
       position="67.733334,0"
       orientation="0,-256"
       id="guide3379" />
    <sodipodi:guide
       position="0,0"
       orientation="-256,0"
       id="guide3381" />
    <sodipodi:guide
       position="33.866667,46.83125"
       orientation="1,0"
       id="guide895" />
    <sodipodi:guide
       position="41.010417,42.597917"
       orientation="0,-1"
       id="guide897" />
  </sodipodi:namedview>
  <metadata
     id="metadata5">
    <rdf:RDF>
      <cc:Work
         rdf:about="">
        <dc:format>image/svg+xml</dc:format>
        <dc:type
           rdf:resource="http://purl.org/dc/dcmitype/StillImage" />
        <dc:title></dc:title>
      </cc:Work>
    </rdf:RDF>
  </metadata>
  <g
     inkscape:groupmode="layer"
     id="layer2"
     inkscape:label="Icon">
    <path
       id="path870"
       style="color:#000000;font-style:normal;font-variant:normal;font-weight:normal;font-stretch:normal;font-size:medium;line-height:normal;font-family:sans-serif;font-variant-ligatures:normal;font-variant-position:normal;font-variant-caps:normal;font-variant-numeric:normal;font-variant-alternates:normal;font-variant-east-asian:normal;font-feature-settings:normal;font-variation-settings:normal;text-indent:0;text-align:start;text-decoration:none;text-decoration-line:none;text-decoration-style:solid;text-decoration-color:#000000;letter-spacing:normal;word-spacing:normal;text-transform:none;writing-mode:lr-tb;direction:ltr;text-orientation:mixed;dominant-baseline:auto;baseline-shift:baseline;text-anchor:start;white-space:normal;shape-padding:0;shape-margin:0;inline-size:0;clip-rule:nonzero;display:inline;overflow:visible;visibility:visible;opacity:1;isolation:auto;mix-blend-mode:normal;color-interpolation:sRGB;color-interpolation-filters:linearRGB;solid-color:#000000;solid-opacity:1;vector-effect:none;fill:#808080;fill-opacity:1;fill-rule:nonzero;stroke:none;stroke-width:6;stroke-linecap:square;stroke-linejoin:miter;stroke-miterlimit:4;stroke-dasharray:none;stroke-dashoffset:0;stroke-opacity:1;paint-order:markers stroke fill;color-rendering:auto;image-rendering:auto;shape-rendering:auto;text-rendering:auto;enable-background:accumulate;stop-color:#000000;stop-opacity:1"
       d="m 32,21.998047 v 3.003906 19.496094 H 19.998047 v 5.005859 H 32 v 15 H 19.998047 V 69.5 H 32 v 15 H 19.998047 v 4.998047 H 32 V 104.49805 H 19.998047 v 5.00586 H 32 v 15 H 19.998047 V 129.5 H 32 v 15 H 19.998047 v 4.99805 H 32 v 18.49804 h 176 v -2.27343 l 29,-19.79688 V 98.960938 L 226.08984,93.375 237,85.925781 V 38.960938 l -29,-14.84961 v -2.113281 z m 176,5.322265 26.79883,13.714844 v 43.03711 L 223.2793,91.935547 208,84.109375 Z M 38.001953,28 H 201.99805 V 162.00391 H 38.001953 V 149.49805 H 49.998047 V 144.5 H 38.001953 v -15 h 11.996094 v -4.99609 H 38.001953 v -15 h 11.996094 v -5.00586 H 38.001953 V 89.498047 H 49.998047 V 84.5 H 38.001953 v -15 H 49.998047 V 64.503906 H 38.001953 v -15 H 49.998047 V 44.498047 H 38.001953 Z M 208,87.320312 234.79883,101.03516 v 43.03711 L 208,162.36523 Z"
       transform="scale(0.26458333)" />
    <path
       id="path868"
       style="fill:#808080;fill-opacity:1;stroke-width:0.264583"
       d="m 24.678307,11.709728 c -0.179466,0.005 -0.359564,0.02032 -0.5392,0.04641 l 1.569302,1.570056 c 0.382863,0.382545 0.593973,0.890948 0.594289,1.431199 3.02e-4,0.540568 -0.210174,1.048593 -0.592403,1.430823 l -1.088965,1.088587 c -0.381595,0.381912 -0.889377,0.592403 -1.429312,0.592403 h -0.0011 c -0.540569,-3.03e-4 -1.048655,-0.211366 -1.431201,-0.593913 l -1.569305,-1.568923 c -0.20774,1.437715 0.262665,2.895649 1.314982,3.947967 1.327195,1.327194 3.308428,1.72799 5.048252,1.0218 0.186523,-0.07569 0.392066,-0.02337 0.522221,0.114708 l 3.278212,3.278967 0.127159,-0.12716 c 0.296727,-0.296725 0.689198,-0.459583 1.105944,-0.459583 0.339478,0 0.659238,0.112969 0.927092,0.312426 l 0.932752,-0.932374 -4.233227,-4.233226 c -5.87e-4,-6.04e-4 -8.07e-4,-8.07e-4 -0.0011,-0.0011 l -0.0011,-7.4e-4 c -3.91e-4,-6.05e-4 -6.1e-5,-0.0011 -3.91e-4,-0.0015 -0.04306,-0.04339 -0.07687,-0.09438 -0.09999,-0.149799 -0.0028,-0.0073 -0.0039,-0.0142 -0.0065,-0.02151 -0.01774,-0.04908 -0.02918,-0.100686 -0.02981,-0.153573 0,-0.0098 0.0024,-0.01923 0.0026,-0.02905 0.0019,-0.04497 0.01014,-0.08961 0.02566,-0.13395 0.0034,-0.01077 0.0053,-0.02118 0.0098,-0.03132 0.700495,-1.736024 0.299214,-3.711396 -1.024814,-5.035422 -0.921929,-0.921974 -2.15368,-1.397565 -3.409943,-1.362236 z m 21.002372,0.09509 -3.577433,1.984738 0.09999,1.427426 c 5.34e-4,0.0079 -3.56e-4,0.0151 -3.56e-4,0.02302 0,0.0067 -3.56e-4,0.01335 -8.75e-4,0.02 -0.0014,0.057 -0.01174,0.111585 -0.03169,0.162251 -0.0014,0.0035 -0.0033,0.0067 -0.0045,0.0098 -0.02312,0.05574 -0.05668,0.105538 -0.09848,0.148289 -8.74e-4,6.59e-4 -0.0011,0.002 -0.0019,0.0026 l -8.866377,8.866053 0.667492,0.667114 8.855098,-8.854721 c 0.08519,-0.09216 0.204899,-0.148289 0.336953,-0.148289 0.0054,-3.03e-4 0.01082,-3.92e-4 0.01623,-3.92e-4 0.0079,3.03e-4 0.01586,-0.0013 0.02377,-3.91e-4 l 1.427051,0.09999 1.985115,-3.577811 z M 31.587911,24.435442 c -0.159328,-3.9e-5 -0.318582,0.05823 -0.435435,0.17508 l -0.458829,0.461848 c -9.42e-4,9.42e-4 -0.0014,0.002 -0.0023,0.003 -9.42e-4,6.58e-4 -0.002,9.41e-4 -0.003,0.0019 l -0.06792,0.06792 2.552614,2.55299 0.530144,-0.533163 c 0,0 0,-3.91e-4 0,-3.91e-4 0.117986,-0.118094 0.18237,-0.272686 0.183002,-0.436944 0,-0.164039 -0.06427,-0.318581 -0.181116,-0.435436 L 33.53223,26.119504 32.195739,24.783015 32.023301,24.610576 c -0.116696,-0.116695 -0.276105,-0.17504 -0.435434,-0.175079 z m 3.864577,0.433171 -0.93275,0.932752 c 0.199507,0.267593 0.312427,0.587552 0.312427,0.926713 0,0.416748 -0.162992,0.809353 -0.458453,1.104812 l -0.12829,0.127913 3.279722,3.280101 c 0.138068,0.129838 0.190393,0.335258 0.114707,0.521464 -0.706506,1.739825 -0.305455,3.721434 1.021423,5.048629 1.052635,1.052318 2.510631,1.522346 3.948344,1.314606 l -1.569301,-1.568925 c -0.789499,-0.789475 -0.790036,-2.073495 -0.0016,-2.86202 l 1.088965,-1.088965 c 0.788842,-0.788819 2.073241,-0.787649 2.8624,0.0016 l 1.569679,1.569679 c 0.208689,-1.436763 -0.262154,-2.895136 -1.315738,-3.948721 -1.324028,-1.32371 -3.299778,-1.72537 -5.035801,-1.025197 -0.01045,0.0044 -0.02086,0.006 -0.03132,0.0098 -0.0437,0.01552 -0.08848,0.02385 -0.13282,0.02604 -0.0073,3.92e-4 -0.0146,0.0042 -0.02188,0.0042 -0.0032,0 -0.0059,-0.0019 -0.0091,-0.0019 -0.05288,-9.41e-4 -0.104427,-0.01207 -0.153193,-0.02981 -0.0073,-0.0026 -0.01458,-0.0036 -0.02151,-0.0068 -0.05542,-0.02312 -0.106412,-0.05686 -0.149799,-0.09961 -3.56e-4,-3.92e-4 -8.75e-4,-3.92e-4 -0.0011,-8.07e-4 l -8.74e-4,-8.07e-4 -0.0019,-0.0019 z m -6.32852,0.423738 c -0.196657,0 -0.381689,0.07643 -0.52071,0.215453 l -8.371744,8.371368 c -0.138705,0.139336 -0.215076,0.324055 -0.215076,0.520709 0,0.196657 0.07606,0.38169 0.215076,0.52071 l 3.163128,3.163128 c 0.278043,0.277726 0.762685,0.278043 1.041044,0 l 8.371745,-8.371366 c 0.13902,-0.139337 0.215452,-0.324114 0.215452,-0.521087 0,-0.196656 -0.07681,-0.381312 -0.215829,-0.520334 L 29.642793,25.506296 C 29.504089,25.36854 29.319675,25.292351 29.123968,25.292351 Z" />
  </g>
</svg>
