<?xml version="1.0" encoding="UTF-8" standalone="no"?>
<svg
   xmlns:dc="http://purl.org/dc/elements/1.1/"
   xmlns:cc="http://creativecommons.org/ns#"
   xmlns:rdf="http://www.w3.org/1999/02/22-rdf-syntax-ns#"
   xmlns:svg="http://www.w3.org/2000/svg"
   xmlns="http://www.w3.org/2000/svg"
   xmlns:sodipodi="http://sodipodi.sourceforge.net/DTD/sodipodi-0.dtd"
   xmlns:inkscape="http://www.inkscape.org/namespaces/inkscape"
   width="256"
   height="256"
   viewBox="0 0 67.733332 67.733335"
   version="1.1"
   id="svg8"
   inkscape:version="1.0.1 (3bc2e813f5, 2020-09-07)"
   sodipodi:docname="tools.svg"
   inkscape:export-filename="C:\Users\keath\Workspace\KMX\elite-streamdeck-icons\ship-lights.png"
   inkscape:export-xdpi="96"
   inkscape:export-ydpi="96">
  <defs
     id="defs2" />
  <sodipodi:namedview
     id="base"
     pagecolor="#000000"
     bordercolor="#666666"
     borderopacity="1.0"
     inkscape:pageopacity="0"
     inkscape:pageshadow="2"
     inkscape:zoom="5.6"
     inkscape:cx="111.90634"
     inkscape:cy="121.54987"
     inkscape:document-units="px"
     inkscape:current-layer="layer2"
     showgrid="true"
     units="px"
     inkscape:snap-grids="true"
     objecttolerance="10000"
     guidetolerance="10000"
     inkscape:window-width="3840"
     inkscape:window-height="2066"
     inkscape:window-x="-11"
     inkscape:window-y="-11"
     inkscape:window-maximized="1"
     inkscape:document-rotation="0"
     showguides="true"
     inkscape:guide-bbox="true">
    <inkscape:grid
       type="xygrid"
       id="grid4623" />
    <sodipodi:guide
       position="-3.96875,62.441667"
       orientation="0,256"
       id="guide3351" />
    <sodipodi:guide
       position="62.441667,42.597917"
       orientation="-1,0"
       id="guide3353"
       inkscape:label=""
       inkscape:locked="false"
       inkscape:color="rgb(0,0,255)" />
    <sodipodi:guide
       position="-2.6458333,22.754167"
       orientation="0,-256"
       id="guide3355" />
    <sodipodi:guide
       position="5.2916667,70.379167"
       orientation="-256,0"
       id="guide3357" />
    <sodipodi:guide
       position="0,67.733334"
       orientation="0,256"
       id="guide3359" />
    <sodipodi:guide
       position="67.733334,67.733334"
       orientation="256,0"
       id="guide3361" />
    <sodipodi:guide
       position="67.733334,0"
       orientation="0,-256"
       id="guide3363" />
    <sodipodi:guide
       position="0,0"
       orientation="-256,0"
       id="guide3365" />
    <sodipodi:guide
       position="0,67.733334"
       orientation="0,256"
       id="guide3367" />
    <sodipodi:guide
       position="67.733334,67.733334"
       orientation="256,0"
       id="guide3369" />
    <sodipodi:guide
       position="67.733334,0"
       orientation="0,-256"
       id="guide3371" />
    <sodipodi:guide
       position="0,0"
       orientation="-256,0"
       id="guide3373" />
    <sodipodi:guide
       position="0,67.733334"
       orientation="0,256"
       id="guide3375" />
    <sodipodi:guide
       position="67.733334,67.733334"
       orientation="256,0"
       id="guide3377" />
    <sodipodi:guide
       position="67.733334,0"
       orientation="0,-256"
       id="guide3379" />
    <sodipodi:guide
       position="0,0"
       orientation="-256,0"
       id="guide3381" />
    <sodipodi:guide
       position="33.866667,46.83125"
       orientation="1,0"
       id="guide895" />
    <sodipodi:guide
       position="41.010417,42.597917"
       orientation="0,-1"
       id="guide897" />
  </sodipodi:namedview>
  <metadata
     id="metadata5">
    <rdf:RDF>
      <cc:Work
         rdf:about="">
        <dc:format>image/svg+xml</dc:format>
        <dc:type
           rdf:resource="http://purl.org/dc/dcmitype/StillImage" />
        <dc:title></dc:title>
      </cc:Work>
    </rdf:RDF>
  </metadata>
  <g
     inkscape:groupmode="layer"
     id="layer2"
     inkscape:label="Icon">
    <path
       id="path868"
       style="fill:#808080;fill-opacity:1;stroke-width:0.264583"
       d="m 21.090276,5.3527152 c -0.266803,0.0075 -0.534546,0.030216 -0.801601,0.068997 l 2.333001,2.3341216 c 0.569183,0.5687117 0.883029,1.3245269 0.883499,2.1276914 4.59e-4,0.8036348 -0.312454,1.5588898 -0.880695,2.1271308 l -1.618908,1.618347 c -0.567299,0.56777 -1.322192,0.880695 -2.124886,0.880695 h -0.0017 c -0.803634,-4.6e-4 -1.55898,-0.314227 -2.127691,-0.882939 L 14.418296,11.29432 c -0.308837,2.137378 0.39049,4.304815 1.954917,5.869242 1.973073,1.973072 4.918471,2.568915 7.504979,1.519058 0.277294,-0.112518 0.582864,-0.03474 0.776358,0.17053 l 4.873551,4.874674 0.189041,-0.189042 c 0.441128,-0.441127 1.024595,-0.683239 1.64415,-0.683239 0.504684,0 0.980056,0.167945 1.378261,0.464468 l 1.386675,-1.386113 -6.293323,-6.293321 c -8.61e-4,-8.91e-4 -0.0012,-0.0012 -0.0017,-0.0017 l -0.0017,-0.0011 c -5.74e-4,-8.9e-4 -9.1e-5,-0.0017 -5.74e-4,-0.0023 -0.06402,-0.0645 -0.114282,-0.140309 -0.148649,-0.222699 -0.0042,-0.01085 -0.0058,-0.02111 -0.0096,-0.03197 -0.02637,-0.07297 -0.04338,-0.149684 -0.04431,-0.228308 0,-0.01459 0.0035,-0.02859 0.0039,-0.04319 0.0028,-0.06685 0.01508,-0.133226 0.03815,-0.199138 0.0051,-0.01601 0.0079,-0.03149 0.01459,-0.04656 1.041383,-2.580859 0.444819,-5.5175431 -1.523546,-7.4859063 -1.37052,-1.3705219 -3.2017,-2.0775593 -5.069323,-2.0250371 z m 31.223155,0.1413601 -5.318386,2.950608 0.148651,2.1220817 c 8.62e-4,0.01177 -5.74e-4,0.02245 -5.74e-4,0.03422 0,0.0099 -5.76e-4,0.01985 -0.0012,0.02973 -0.0021,0.08474 -0.01747,0.165887 -0.04712,0.24121 -0.0021,0.0052 -0.0049,0.0099 -0.0067,0.01458 -0.03437,0.08286 -0.08426,0.156897 -0.146406,0.220454 -0.0014,9.77e-4 -0.0017,0.003 -0.0028,0.0039 L 33.757651,24.291569 34.749976,25.283332 47.9144,12.11947 c 0.126642,-0.137006 0.304613,-0.220454 0.500931,-0.220454 0.008,-4.61e-4 0.01609,-5.74e-4 0.02412,-5.74e-4 0.01178,4.59e-4 0.02358,-0.002 0.03534,-5.76e-4 l 2.121522,0.148653 2.951169,-5.3189481 z M 31.362432,24.271386 c -0.236866,-5.9e-5 -0.47362,0.08656 -0.64734,0.260282 l -0.682118,0.686606 c -0.0014,0.0014 -0.0021,0.003 -0.0034,0.0044 -0.0014,9.77e-4 -0.003,0.0014 -0.0044,0.0028 l -0.100974,0.100974 3.794841,3.795401 0.788137,-0.792626 c 0,0 0,-5.74e-4 0,-5.74e-4 0.175404,-0.175564 0.271121,-0.405388 0.272061,-0.649583 0,-0.243868 -0.09554,-0.473617 -0.269257,-0.64734 L 34.253028,26.774912 32.266135,24.788021 32.00978,24.531665 C 31.836295,24.35818 31.599309,24.271442 31.362443,24.271384 Z m 5.745269,0.643973 -1.386672,1.386674 c 0.296597,0.397817 0.464469,0.873484 0.464469,1.377697 0,0.619558 -0.242311,1.203224 -0.681558,1.642468 l -0.190723,0.190162 4.875796,4.876359 c 0.205258,0.193023 0.283048,0.498411 0.170529,0.775235 -1.050327,2.586508 -0.454104,5.532466 1.518497,7.505539 1.5649,1.564428 3.732428,2.263195 5.869803,1.954358 L 45.414841,42.29141 c -1.173707,-1.173673 -1.174506,-3.08256 -0.0023,-4.25482 l 1.618908,-1.618909 c 1.172732,-1.172697 3.082182,-1.170959 4.255384,0.0023 l 2.333561,2.333561 c 0.310247,-2.135963 -0.389732,-4.304052 -1.956041,-5.870363 -1.968365,-1.967892 -4.90561,-2.565019 -7.486468,-1.524108 -0.01553,0.0065 -0.03102,0.0089 -0.04656,0.01459 -0.06497,0.02307 -0.131541,0.03545 -0.197456,0.03871 -0.01085,5.74e-4 -0.02169,0.0062 -0.03253,0.0062 -0.0048,0 -0.0088,-0.0028 -0.01347,-0.0028 -0.07862,-0.0014 -0.155247,-0.01795 -0.227747,-0.04432 -0.01085,-0.0038 -0.02166,-0.0054 -0.03198,-0.0101 -0.08239,-0.03437 -0.158196,-0.08453 -0.222698,-0.148089 -5.75e-4,-5.74e-4 -0.0012,-5.74e-4 -0.0017,-0.0012 l -0.0012,-0.0012 -0.0028,-0.0028 z m -9.408288,0.629949 c -0.29236,0 -0.567438,0.113627 -0.774113,0.320303 L 14.479456,38.310896 c -0.206206,0.207145 -0.319743,0.481756 -0.319743,0.774113 0,0.29236 0.113067,0.567439 0.319743,0.774113 l 4.702461,4.702462 c 0.413352,0.412881 1.133845,0.413352 1.547667,0 L 33.175429,32.116301 c 0.206674,-0.207145 0.320302,-0.481844 0.320302,-0.774675 0,-0.292358 -0.114188,-0.566877 -0.320862,-0.773554 L 28.470724,25.863369 C 28.264519,25.658575 27.99036,25.545308 27.699413,25.545308 Z" />
  </g>
</svg>
