<?xml version="1.0" encoding="UTF-8" standalone="no"?>
<svg
   xmlns:dc="http://purl.org/dc/elements/1.1/"
   xmlns:cc="http://creativecommons.org/ns#"
   xmlns:rdf="http://www.w3.org/1999/02/22-rdf-syntax-ns#"
   xmlns:svg="http://www.w3.org/2000/svg"
   xmlns="http://www.w3.org/2000/svg"
   xmlns:sodipodi="http://sodipodi.sourceforge.net/DTD/sodipodi-0.dtd"
   xmlns:inkscape="http://www.inkscape.org/namespaces/inkscape"
   width="256"
   height="256"
   viewBox="0 0 67.733332 67.733335"
   version="1.1"
   id="svg8"
   inkscape:version="1.0.1 (3bc2e813f5, 2020-09-07)"
   sodipodi:docname="tux.svg"
   inkscape:export-filename="C:\Users\keath\Workspace\KMX\elite-streamdeck-icons\ship-lights.png"
   inkscape:export-xdpi="96"
   inkscape:export-ydpi="96">
  <defs
     id="defs2" />
  <sodipodi:namedview
     id="base"
     pagecolor="#000000"
     bordercolor="#666666"
     borderopacity="1.0"
     inkscape:pageopacity="0"
     inkscape:pageshadow="2"
     inkscape:zoom="5.6"
     inkscape:cx="244.02428"
     inkscape:cy="106.97188"
     inkscape:document-units="px"
     inkscape:current-layer="layer2"
     showgrid="true"
     units="px"
     inkscape:snap-grids="true"
     objecttolerance="10000"
     guidetolerance="10000"
     inkscape:window-width="3840"
     inkscape:window-height="2066"
     inkscape:window-x="-11"
     inkscape:window-y="-11"
     inkscape:window-maximized="1"
     inkscape:document-rotation="0"
     showguides="true"
     inkscape:guide-bbox="true">
    <inkscape:grid
       type="xygrid"
       id="grid4623" />
    <sodipodi:guide
       position="-3.96875,62.441667"
       orientation="0,256"
       id="guide3351" />
    <sodipodi:guide
       position="62.441667,42.597917"
       orientation="-1,0"
       id="guide3353"
       inkscape:label=""
       inkscape:locked="false"
       inkscape:color="rgb(0,0,255)" />
    <sodipodi:guide
       position="-2.6458333,22.754167"
       orientation="0,-256"
       id="guide3355" />
    <sodipodi:guide
       position="5.2916667,1.5875"
       orientation="-256,0"
       id="guide3357" />
    <sodipodi:guide
       position="0,67.733334"
       orientation="0,256"
       id="guide3359" />
    <sodipodi:guide
       position="67.733334,67.733334"
       orientation="256,0"
       id="guide3361" />
    <sodipodi:guide
       position="67.733334,0"
       orientation="0,-256"
       id="guide3363" />
    <sodipodi:guide
       position="0,0"
       orientation="-256,0"
       id="guide3365" />
    <sodipodi:guide
       position="0,67.733334"
       orientation="0,256"
       id="guide3367" />
    <sodipodi:guide
       position="67.733334,67.733334"
       orientation="256,0"
       id="guide3369" />
    <sodipodi:guide
       position="67.733334,0"
       orientation="0,-256"
       id="guide3371" />
    <sodipodi:guide
       position="0,0"
       orientation="-256,0"
       id="guide3373" />
    <sodipodi:guide
       position="0,67.733334"
       orientation="0,256"
       id="guide3375" />
    <sodipodi:guide
       position="67.733334,67.733334"
       orientation="256,0"
       id="guide3377" />
    <sodipodi:guide
       position="67.733334,0"
       orientation="0,-256"
       id="guide3379" />
    <sodipodi:guide
       position="0,0"
       orientation="-256,0"
       id="guide3381" />
    <sodipodi:guide
       position="33.866667,46.83125"
       orientation="1,0"
       id="guide895" />
    <sodipodi:guide
       position="41.010417,42.597917"
       orientation="0,-1"
       id="guide897" />
  </sodipodi:namedview>
  <metadata
     id="metadata5">
    <rdf:RDF>
      <cc:Work
         rdf:about="">
        <dc:format>image/svg+xml</dc:format>
        <dc:type
           rdf:resource="http://purl.org/dc/dcmitype/StillImage" />
        <dc:title />
      </cc:Work>
    </rdf:RDF>
  </metadata>
  <g
     inkscape:groupmode="layer"
     id="layer2"
     inkscape:label="Icon">
    <path
       id="path914"
       style="color:#000000;font-style:normal;font-variant:normal;font-weight:normal;font-stretch:normal;font-size:medium;line-height:normal;font-family:sans-serif;font-variant-ligatures:normal;font-variant-position:normal;font-variant-caps:normal;font-variant-numeric:normal;font-variant-alternates:normal;font-variant-east-asian:normal;font-feature-settings:normal;font-variation-settings:normal;text-indent:0;text-align:start;text-decoration:none;text-decoration-line:none;text-decoration-style:solid;text-decoration-color:#000000;letter-spacing:normal;word-spacing:normal;text-transform:none;writing-mode:lr-tb;direction:ltr;text-orientation:mixed;dominant-baseline:auto;baseline-shift:baseline;text-anchor:start;white-space:normal;shape-padding:0;shape-margin:0;inline-size:0;clip-rule:nonzero;display:inline;overflow:visible;visibility:visible;isolation:auto;mix-blend-mode:normal;color-interpolation:sRGB;color-interpolation-filters:linearRGB;solid-color:#000000;solid-opacity:1;vector-effect:none;fill:#808080;fill-opacity:1;fill-rule:nonzero;stroke:none;stroke-width:7.99998;stroke-linecap:butt;stroke-linejoin:miter;stroke-miterlimit:4;stroke-dasharray:none;stroke-dashoffset:0;stroke-opacity:1;color-rendering:auto;image-rendering:auto;shape-rendering:auto;text-rendering:auto;enable-background:accumulate;stop-color:#000000"
       d="m 130.88867,21.322266 c -0.962,-0.0019 -1.96466,0.0377 -3.00586,0.121093 -6.59606,0.530942 -11.20538,2.696188 -14.33398,5.822266 -3.12861,3.126076 -4.75595,7.171796 -5.55664,11.382813 -1.60098,8.419796 0.0324,17.667969 -0.15039,22.050781 -0.46964,6.623164 -1.7739,11.71162 -6.31055,18.162109 -5.441091,6.475366 -13.088703,16.910928 -16.742188,27.888672 -1.685207,5.06409 -2.495918,10.25212 -1.820312,15.22266 -0.156737,0.15023 -0.317318,0.30136 -0.462891,0.45507 l -0.002,0.002 h -0.002 c -1.658646,1.77291 -2.846687,3.8382 -4.060547,5.125 -1.054363,1.04938 -2.677139,1.5112 -4.621094,2.20703 -1.861752,0.6684 -4.014374,1.7491 -5.414062,4.10937 h -0.06445 l -0.144531,0.27735 -0.04687,0.0918 -0.002,0.004 c -0.0017,0.003 -0.0024,0.006 -0.0039,0.01 l -0.0098,0.0195 c -4e-6,0 0.0037,-0.004 0.0039,-0.004 -0.0057,0.011 -0.0057,0.023 -0.01172,0.0332 0.0022,-0.008 0.0078,-0.0293 0.0078,-0.0293 l -0.06055,0.11328 v 0.0625 c -0.586696,1.18846 -0.802735,2.44432 -0.802735,3.67383 0,1.20118 0.175927,2.38263 0.345704,3.49218 0.353006,2.30641 0.642828,4.44848 0.259765,5.64063 -1.535187,4.20797 -1.796166,7.27547 -0.599609,9.60742 v 0.002 c 1.207109,2.34866 3.657038,3.34254 6.220703,3.87891 5.112374,1.0661 11.74415,0.83425 16.820312,3.52539 l 0.0098,0.004 0.595703,0.31445 0.02148,-0.043 c 5.586902,2.78596 11.236802,3.82082 15.875002,2.76172 3.36064,-0.76581 6.13689,-2.78005 7.66797,-5.81055 3.66207,-0.11376 7.4785,-1.52334 13.48633,-1.85351 h 0.01 0.008 c 3.92809,-0.31692 9.17377,1.39593 15.26172,1.17187 0.15998,0.53086 0.31802,1.06306 0.57812,1.5625 l 0.0254,0.0488 0.004,0.004 c 2.50593,4.96679 7.23227,7.30079 12.18359,6.91015 4.78026,-0.37693 9.74101,-3.13495 13.82227,-7.76562 l 0.0488,0.0391 0.42578,-0.51562 0.01,-0.0117 c 3.6977,-4.48424 10.00226,-6.41833 14.39844,-9.06836 2.20875,-1.33198 4.17277,-3.12638 4.32617,-5.7832 0.14438,-2.53693 -1.29732,-5.21599 -4.26562,-8.5879 l 0.0215,-0.043 -0.32617,-0.32813 c -0.83058,-0.93793 -1.37841,-3.04139 -1.91016,-5.35547 v -0.002 c -0.52877,-2.3056 -1.13225,-4.97057 -3.21875,-6.76563 l -0.002,-0.002 -0.0176,-0.0156 -0.004,-0.006 -0.006,-0.004 c -0.40755,-0.35569 -0.82884,-0.65638 -1.25196,-0.9082 v -0.002 c -0.23588,-0.13973 -0.47756,-0.2318 -0.71679,-0.34375 2.45633,-7.80964 1.40443,-15.56714 -1.23243,-22.53515 -3.31121,-8.757147 -9.05818,-16.32958 -13.4375,-21.505862 -4.88282,-6.159579 -9.49963,-11.819778 -9.4082,-20.193359 0.0724,-6.566763 0.45793,-16.029223 -2.15234,-23.958985 -1.30642,-3.964967 -3.37425,-7.562577 -6.63867,-10.166015 -3.26418,-2.603236 -7.70397,-4.180929 -13.61719,-4.189453 z m -0.004,1.367187 h 0.002 c 5.67359,0.0081 9.7629,1.496285 12.76758,3.892578 3.00467,2.396294 4.94358,5.732688 6.1914,9.523438 2.49564,7.581503 2.15678,16.913077 2.08399,23.515625 -0.097,8.884528 4.8302,14.90903 9.70508,21.058594 l 0.006,0.0078 0.008,0.0098 c 4.33681,5.124551 9.99384,12.603823 13.21484,21.123042 2.62591,6.93913 3.63016,14.55354 1.05274,22.19727 l -0.21094,0.62695 0.61719,0.23242 c 0.35773,0.13478 0.71684,0.30702 1.07226,0.51758 0.35014,0.20848 0.70103,0.45827 1.04297,0.75586 l 0.004,0.004 0.0215,0.0176 c 1.68731,1.43649 2.26943,3.74461 2.79883,6.05273 0.48613,2.11561 0.92807,4.13864 1.94726,5.54883 l -0.0351,0.0703 0.3125,0.34961 c 3.10933,3.45126 4.33886,5.92074 4.22265,7.96289 -0.11682,2.02229 -1.60983,3.44949 -3.66601,4.68945 -3.98503,2.40219 -10.16773,4.37328 -14.24219,8.90235 l -0.28906,-0.24024 -0.004,-0.002 -0.875,1.05078 0.004,0.004 0.0371,0.0293 0.13672,0.11524 c -3.88383,4.38955 -8.54551,6.92829 -12.87305,7.26953 -4.48304,0.35369 -8.60583,-1.66056 -10.87695,-6.20313 l -0.0176,-0.0371 -0.004,-0.004 c -0.28675,-0.55343 -0.49868,-1.13874 -0.64648,-1.75195 l -0.13477,-0.55274 -0.56836,0.0312 c -5.9933,0.33305 -11.27741,-1.54356 -15.80273,-1.17969 h -0.004 c -6.3962,0.35415 -10.39804,1.86857 -13.79492,1.88477 l -0.4375,0.002 -0.17969,0.39844 c -1.2963,2.8482 -3.79546,4.69059 -6.95312,5.41016 -4.2086,0.96099 -9.568155,0.0242 -14.927736,-2.63868 l 0.111328,-0.20898 0.002,-0.004 -1.210937,-0.63671 -0.002,0.002 -0.171875,0.32617 c -5.413281,-2.59956 -11.891222,-2.43897 -16.539062,-3.4082 -2.405412,-0.50327 -4.351065,-1.34762 -5.285156,-3.16407 v -0.002 c -0.934602,-1.82251 -0.810651,-4.47402 0.675781,-8.53906 l 0.0059,-0.0117 0.0039,-0.0137 c 0.564327,-1.75636 0.140634,-3.9685 -0.210938,-6.26563 -0.168794,-1.10294 -0.330078,-2.21878 -0.330078,-3.28515 0,-1.13085 0.176989,-2.19609 0.685547,-3.17383 0.06738,-0.0867 0.0639,-0.11048 0.04297,-0.082 -0.0014,0.002 -0.0024,9e-4 -0.0039,0.004 l -0.01953,0.0117 c 0.0083,-0.0106 0.0247,-0.0314 0.02734,-0.0352 l -0.0039,0.0195 c -0.002,0.003 0.0064,-0.0116 0.0039,-0.008 1.169336,-2.2366 3.049128,-3.14233 4.910156,-3.81055 1.88355,-0.67421 3.741637,-1.14183 5.132812,-2.53125 l 0.0059,-0.006 0.0059,-0.006 c 1.399155,-1.47963 2.558331,-3.51738 4.072266,-5.13672 0.204057,-0.21551 0.413563,-0.42405 0.630859,-0.61914 l 0.275391,-0.24609 -0.05664,-0.36524 c -0.725692,-4.79589 0.06044,-9.90921 1.740235,-14.95703 C 89.64819,96.483869 97.22577,86.103259 102.60777,79.702667 l 0.0195,-0.02344 0.0156,-0.02344 c 4.67205,-6.639417 6.08606,-12.10841 6.56445,-18.875 l 0.002,-0.0098 v -0.0098 c 0.20077,-4.779493 -1.4075,-13.787458 0.12696,-21.857422 0.76723,-4.034984 2.30064,-7.795132 5.17968,-10.671875 2.87906,-2.876715 7.12391,-4.914441 13.47657,-5.425781 1.00703,-0.08079 1.97045,-0.11901 2.89258,-0.117188 z m 3.07812,19.605469 c -1.34225,0.01361 -2.47655,0.415458 -3.63086,1.291016 -1.15242,0.877272 -1.97101,1.955338 -2.63281,3.455078 -0.6618,1.49803 -0.94459,2.97302 -0.92578,4.693359 v 0.130859 c 0.003,0.155119 0.025,0.296413 0.0332,0.447266 0.99975,0.182105 1.97826,0.487489 2.9082,0.892578 0.25874,0.163834 0.52957,0.303549 0.79493,0.453125 -0.01,-0.195362 -0.0184,-0.390243 -0.0137,-0.597656 0,-0.0378 8.4e-4,-0.06982 0.006,-0.107422 0.0325,-0.950801 0.19582,-1.751438 0.5293,-2.558594 0.33502,-0.807159 0.7372,-1.386675 1.2793,-1.839843 0.51661,-0.430942 1.01525,-0.629178 1.58984,-0.63086 0.0291,0 0.0568,-0.0017 0.0859,0 0.6122,0.02079 1.12149,0.246521 1.63281,0.744141 0.50943,0.497631 0.8636,1.096883 1.14063,1.929687 0.26505,0.793478 0.38405,1.568268 0.36523,2.47461 0,0.04449 -0.0117,0.07568 -0.0117,0.113281 -0.0306,0.945675 -0.19611,1.740446 -0.53125,2.552734 -0.0685,0.167139 -0.17654,0.321334 -0.29687,0.46875 1.14312,0.449548 2.27277,0.927918 3.36523,1.484375 0.27436,-0.42749 0.53151,-0.883296 0.75781,-1.402344 0.65497,-1.499734 0.9512,-2.967887 0.9375,-4.693359 -0.0121,-0.04449 -0.0121,-0.08247 -0.0117,-0.126953 -0.0325,-1.681005 -0.35259,-3.098684 -1.01953,-4.548828 -0.68073,-1.48777 -1.52586,-2.550722 -2.69726,-3.402344 -1.15431,-0.836228 -2.27846,-1.222656 -3.5918,-1.222656 z m -17.9375,1.425781 c -0.0735,0 -0.14741,0.0025 -0.22266,0.0059 -0.96448,0.04959 -1.76512,0.44603 -2.55859,1.234376 -0.79519,0.786632 -1.34154,1.744757 -1.75195,3.068359 -0.40871,1.323602 -0.55474,2.602074 -0.47266,4.089844 v 0.01172 c 0.0889,1.487766 0.38538,2.7492 0.93945,4.007813 0.37289,0.847834 0.79139,1.525628 1.29102,2.09375 0.57875,-0.504806 1.15972,-1.011169 1.74609,-1.509766 -0.26051,-0.304777 -0.48227,-0.671929 -0.67968,-1.138672 -0.2702,-0.636151 -0.42281,-1.265869 -0.49805,-2.023437 0,-0.03061 -0.006,-0.05712 -0.006,-0.08789 -0.0684,-0.7815 -0.0276,-1.461717 0.13672,-2.154297 0.16414,-0.694291 0.39285,-1.217996 0.73828,-1.638671 0.34711,-0.422393 0.7131,-0.63816 1.1543,-0.675782 0.041,-0.0034 0.0818,-0.0039 0.12109,-0.0039 0.39332,-0.0034 0.74878,0.145781 1.125,0.470703 0.41555,0.359093 0.73151,0.826482 1.01367,1.488281 0.26506,0.636152 0.42476,1.264905 0.5,2.015625 0,0.03061 7.1e-4,0.05713 0.006,0.08789 0.0325,0.336729 0.0339,0.649485 0.0215,0.955078 0.91578,-0.555355 1.87496,-1.022302 2.89843,-1.355469 0.0102,-0.366529 0.009,-0.738456 -0.0156,-1.128906 v -0.01172 c -0.0823,-1.487746 -0.37783,-2.74944 -0.9336,-4.009765 -0.55405,-1.260329 -1.21623,-2.154095 -2.09179,-2.853516 -0.80716,-0.644697 -1.58709,-0.935822 -2.46094,-0.9375 z m 8.49414,10.689453 0.002,0.002 c -1.06195,0.0034 -2.01141,0.190249 -2.86132,0.484375 -2.47106,0.84991 -4.11092,2.622672 -5.13868,3.595704 l -0.002,0.002 c 0,0.0017 -0.002,0.0022 -0.002,0.0039 -0.20179,0.191546 -0.46249,0.366406 -1.0918,0.828125 -0.63444,0.46343 -1.58506,1.161456 -2.95312,2.1875 -1.21587,0.911471 -1.61013,2.097993 -1.18946,3.488281 0.41897,1.390299 1.75869,2.993986 4.21094,4.380859 l 0.004,0.0039 h 0.006 c 1.52196,0.894372 2.56027,2.101193 3.7539,3.060547 0.59682,0.47882 1.22461,0.905317 1.98047,1.228515 0.75585,0.323225 1.63943,0.542441 2.74414,0.607422 2.59248,0.150501 4.50112,-0.62731 6.18555,-1.591797 1.68785,-0.962774 3.11573,-2.140042 4.75586,-2.671875 l 0.004,-0.002 0.004,-0.002 c 3.36185,-1.049987 5.75921,-3.166445 6.50977,-5.175781 0.37621,-1.005528 0.36405,-1.959157 -0.084,-2.839844 -0.44979,-0.880694 -1.36863,-1.718095 -2.93164,-2.359375 l -0.002,-0.002 -0.006,-0.002 c -3.2506,-1.391944 -4.66217,-1.491922 -6.47656,-2.671875 -2.95331,-1.898185 -5.39373,-2.563237 -7.42188,-2.554688 z m -1.79101,2.292969 c 0.27349,-0.0038 0.54691,0.0069 0.81445,0.06445 2.15368,0.473167 0.54245,3.409168 -1.11524,3.248047 -2.35413,1.03547 -2.74069,-3.139747 -0.51562,-3.292969 0.26988,0.0019 0.54291,-0.01573 0.81641,-0.01953 z m 5.14257,0.03125 c 1.51849,-0.05805 3.67385,0.73526 2.625,2.585937 -1.28105,2.479159 -5.84885,-0.840355 -3.22461,-2.509765 0.17972,-0.04246 0.38269,-0.06788 0.59961,-0.07617 z m 11.39649,5.429687 c 0.40489,0.07061 0.7613,0.346348 1.0918,0.589844 -1.10949,3.196985 -4.15668,5.118359 -7.0625,6.509766 -5.13366,3.553954 -12.48594,3.466895 -17.29883,-0.611328 -1.61943,-1.185188 -4.42451,-3.700391 -2.14063,-5.603516 1.47955,0.73081 2.59245,1.980599 3.78906,3.054688 3.85399,4.222628 10.45206,3.459398 14.79688,0.447265 2.3736,-1.123083 4.0458,-3.346546 6.40234,-4.380859 0.14678,-0.03079 0.28691,-0.02936 0.42188,-0.0059 z m 2.8125,6.869141 C 141.74686,69.393071 141.3877,69.72204 141,70 c -4.26808,2.156001 -8.29286,4.95583 -12.87109,6.462891 -5.13706,2.200384 -10.18186,-1.491139 -13.87305,-4.736329 -0.53837,-0.245314 -1.06228,-0.56356 -1.5625,-0.93164 -1.25685,10.47036 -7.84208,22.927163 -11.09375,30.296878 -2.375295,5.6518 -3.789448,11.6933 -3.957032,17.61718 -6.2435,-8.32483 -1.682711,-18.988573 0.75586,-23.609371 2.722442,-5.054989 3.146422,-6.444642 2.486332,-5.958984 -2.455677,4.004999 -6.304712,10.387653 -7.802739,16.949215 -0.781504,3.41845 -0.922295,6.88101 0.0918,10.08399 1.012369,3.20109 3.174774,6.14861 7.042969,8.55469 v 0.002 c 5.26362,3.22863 8.84557,6.4596 10.96093,9.32226 2.11537,2.86438 2.77922,5.37167 2.11915,7.14844 -0.33177,0.8894 -0.99842,1.58102 -1.94922,2.01367 -0.76441,0.34526 -1.71072,0.52734 -2.82227,0.52539 0.56433,0.71123 1.13344,1.43136 1.6875,2.15625 0.86701,1.1355 1.70973,2.28612 2.44336,3.44727 10.83847,7.3978 23.60203,4.55553 32.79883,-2.00586 0.91318,-3.13988 1.81607,-6.10414 1.95117,-8.29492 v -0.004 c 0.21887,-4.35899 0.45139,-8.23525 1.25,-11.44336 0.80031,-3.2117 2.23977,-5.82818 4.875,-7.27148 0.42409,-0.23085 0.84495,-0.41543 1.26563,-0.5625 0.0291,-0.2702 0.0673,-0.53914 0.11523,-0.80078 0.75586,-5.01053 5.22956,-5.25434 10.84375,-2.78516 5.41412,2.44883 7.44566,4.58799 6.52734,7.48828 0.0344,0 0.067,1.5e-4 0.0996,-0.002 0.35573,-0.009 0.72267,-0.0102 1.09375,0.004 1.12525,-3.65958 -1.2164,-6.34073 -7.54883,-9.42383 -0.4258,-0.20198 -0.84763,-0.38956 -1.25976,-0.56055 0.84495,-3.43555 0.67881,-6.91602 -0.10938,-10.22656 -1.72734,-7.260922 -6.47669,-13.693029 -10.09179,-16.89258 -0.66865,-0.02721 -0.60364,0.556782 0.74218,1.863281 3.33466,3.067877 10.62484,14.082569 6.67969,24.310549 -1.12694,-0.28887 -2.18079,-0.42765 -3.13672,-0.39844 -1.50847,-8.33663 -4.9996,-15.255735 -6.75586,-18.511718 -2.98555,-5.548747 -7.45034,-16.335092 -9.91601,-24.792969 z M 154.75,121.88477 c -0.094,0.0461 -0.18938,0.0952 -0.28516,0.14648 -2.03858,1.11668 -3.188,3.10042 -3.91992,6.0332 -0.73002,2.93279 -0.97464,6.73372 -1.19336,11.08399 v 0.01 c -0.20867,3.39451 -1.76517,7.57431 -2.84765,11.64258 -1.08248,4.06981 -1.6182,7.92568 -0.33203,10.3711 l 0.006,0.0117 0.002,0.008 c 2.07261,4.1572 5.58667,5.84688 9.6582,5.52539 4.07152,-0.32153 8.69516,-2.79961 12.48828,-7.3125 4.36564,-5.28927 11.20439,-7.31321 15.0625,-9.64063 1.93068,-1.16285 2.97455,-2.2346 3.05664,-3.67773 h 0.002 c 0.0838,-1.44502 -0.88754,-3.70611 -3.9043,-7.05274 l -0.002,-0.004 v -0.002 c -1.57022,-1.76684 -1.98827,-4.24324 -2.51172,-6.51953 -0.52329,-2.2744 -1.1276,-4.30717 -2.39649,-5.38281 l -0.006,-0.004 -0.004,-0.004 c -1.65194,-1.44331 -3.26611,-1.55611 -5.19336,-1.50977 -0.41573,0.0102 -0.84389,0.0335 -1.28321,0.0508 -2.19572,2.52579 -7.39547,5.6209 -11.0039,4.66992 -3.29686,-0.83091 -5.16155,-4.67605 -5.39258,-8.44335 z m -66.279297,0.2832 c -1.739149,0.0121 -2.892325,0.82929 -4.044922,2.06055 -1.366348,1.45869 -2.535382,3.51433 -4.089843,5.15429 l -0.0078,0.01 -0.01172,0.008 c -1.681005,1.6863 -3.810128,2.19319 -5.607422,2.83789 -1.795578,0.64299 -3.241805,1.32301 -4.228515,3.22461 l -0.0059,0.0137 c -0.771246,1.42979 -0.603246,3.48286 -0.257812,5.73828 0.345449,2.25731 0.875238,4.66193 0.162109,6.85938 l -0.0059,0.0176 -0.0078,0.0176 c -1.439886,3.92803 -1.423279,6.23084 -0.746093,7.55273 0.677193,1.32018 2.153579,2.03192 4.416015,2.50391 4.526574,0.94567 11.581168,0.63202 17.511719,3.77343 0.0017,0 0.0042,0.002 0.0059,0.002 5.359386,2.80327 10.726481,3.70541 14.683591,2.80078 3.96053,-0.90463 6.53981,-3.39601 6.88867,-7.96875 v -0.0117 l 0.002,-0.01 c 0.2685,-2.68141 -1.79492,-6.1851 -4.46093,-9.67383 -2.66602,-3.49025 -5.81131,-6.9128 -7.30079,-10.02343 l -0.004,-0.004 -0.002,-0.004 -5.599609,-10.20508 c -1.939231,-2.6301 -3.951163,-4.2449 -6.259766,-4.59375 -0.342047,-0.0532 -0.664354,-0.0782 -0.96875,-0.0801 -0.02079,0.002 -0.04006,0.002 -0.06055,0 z"
       transform="scale(0.26458333)" />
  </g>
</svg>
