<?xml version="1.0" encoding="UTF-8" standalone="no"?>
<svg
   xmlns:dc="http://purl.org/dc/elements/1.1/"
   xmlns:cc="http://creativecommons.org/ns#"
   xmlns:rdf="http://www.w3.org/1999/02/22-rdf-syntax-ns#"
   xmlns:svg="http://www.w3.org/2000/svg"
   xmlns="http://www.w3.org/2000/svg"
   xmlns:sodipodi="http://sodipodi.sourceforge.net/DTD/sodipodi-0.dtd"
   xmlns:inkscape="http://www.inkscape.org/namespaces/inkscape"
   width="256"
   height="256"
   viewBox="0 0 67.733332 67.733335"
   version="1.1"
   id="svg8"
   inkscape:version="1.0.1 (3bc2e813f5, 2020-09-07)"
   sodipodi:docname="typescript-ref.svg"
   inkscape:export-filename="C:\Users\keath\Workspace\KMX\elite-streamdeck-icons\ship-lights.png"
   inkscape:export-xdpi="96"
   inkscape:export-ydpi="96">
  <defs
     id="defs2" />
  <sodipodi:namedview
     id="base"
     pagecolor="#000000"
     bordercolor="#666666"
     borderopacity="1.0"
     inkscape:pageopacity="0"
     inkscape:pageshadow="2"
     inkscape:zoom="5.6"
     inkscape:cx="103.35273"
     inkscape:cy="98.178571"
     inkscape:document-units="px"
     inkscape:current-layer="layer2"
     showgrid="true"
     units="px"
     inkscape:snap-grids="true"
     objecttolerance="10000"
     guidetolerance="10000"
     inkscape:window-width="2780"
     inkscape:window-height="1895"
     inkscape:window-x="4681"
     inkscape:window-y="172"
     inkscape:window-maximized="0"
     inkscape:document-rotation="0"
     showguides="true"
     inkscape:guide-bbox="true">
    <inkscape:grid
       type="xygrid"
       id="grid4623" />
    <sodipodi:guide
       position="-3.96875,62.441667"
       orientation="0,256"
       id="guide3351" />
    <sodipodi:guide
       position="62.441667,42.597917"
       orientation="-1,0"
       id="guide3353"
       inkscape:label=""
       inkscape:locked="false"
       inkscape:color="rgb(0,0,255)" />
    <sodipodi:guide
       position="-2.6458333,22.754167"
       orientation="0,-256"
       id="guide3355" />
    <sodipodi:guide
       position="5.2916667,70.379167"
       orientation="-256,0"
       id="guide3357" />
    <sodipodi:guide
       position="0,67.733334"
       orientation="0,256"
       id="guide3359" />
    <sodipodi:guide
       position="67.733334,67.733334"
       orientation="256,0"
       id="guide3361" />
    <sodipodi:guide
       position="67.733334,0"
       orientation="0,-256"
       id="guide3363" />
    <sodipodi:guide
       position="0,0"
       orientation="-256,0"
       id="guide3365" />
    <sodipodi:guide
       position="0,67.733334"
       orientation="0,256"
       id="guide3367" />
    <sodipodi:guide
       position="67.733334,67.733334"
       orientation="256,0"
       id="guide3369" />
    <sodipodi:guide
       position="67.733334,0"
       orientation="0,-256"
       id="guide3371" />
    <sodipodi:guide
       position="0,0"
       orientation="-256,0"
       id="guide3373" />
    <sodipodi:guide
       position="0,67.733334"
       orientation="0,256"
       id="guide3375" />
    <sodipodi:guide
       position="67.733334,67.733334"
       orientation="256,0"
       id="guide3377" />
    <sodipodi:guide
       position="67.733334,0"
       orientation="0,-256"
       id="guide3379" />
    <sodipodi:guide
       position="0,0"
       orientation="-256,0"
       id="guide3381" />
    <sodipodi:guide
       position="33.866667,46.83125"
       orientation="1,0"
       id="guide895" />
    <sodipodi:guide
       position="41.010417,42.597917"
       orientation="0,-1"
       id="guide897" />
  </sodipodi:namedview>
  <metadata
     id="metadata5">
    <rdf:RDF>
      <cc:Work
         rdf:about="">
        <dc:format>image/svg+xml</dc:format>
        <dc:type
           rdf:resource="http://purl.org/dc/dcmitype/StillImage" />
        <dc:title></dc:title>
      </cc:Work>
    </rdf:RDF>
  </metadata>
  <g
     inkscape:groupmode="layer"
     id="layer2"
     inkscape:label="Icon">
    <path
       id="path870"
       style="color:#000000;font-style:normal;font-variant:normal;font-weight:normal;font-stretch:normal;font-size:medium;line-height:normal;font-family:sans-serif;font-variant-ligatures:normal;font-variant-position:normal;font-variant-caps:normal;font-variant-numeric:normal;font-variant-alternates:normal;font-variant-east-asian:normal;font-feature-settings:normal;font-variation-settings:normal;text-indent:0;text-align:start;text-decoration:none;text-decoration-line:none;text-decoration-style:solid;text-decoration-color:#000000;letter-spacing:normal;word-spacing:normal;text-transform:none;writing-mode:lr-tb;direction:ltr;text-orientation:mixed;dominant-baseline:auto;baseline-shift:baseline;text-anchor:start;white-space:normal;shape-padding:0;shape-margin:0;inline-size:0;clip-rule:nonzero;display:inline;overflow:visible;visibility:visible;opacity:1;isolation:auto;mix-blend-mode:normal;color-interpolation:sRGB;color-interpolation-filters:linearRGB;solid-color:#000000;solid-opacity:1;vector-effect:none;fill:#808080;fill-opacity:1;fill-rule:nonzero;stroke:none;stroke-width:6;stroke-linecap:square;stroke-linejoin:miter;stroke-miterlimit:4;stroke-dasharray:none;stroke-dashoffset:0;stroke-opacity:1;paint-order:markers stroke fill;color-rendering:auto;image-rendering:auto;shape-rendering:auto;text-rendering:auto;enable-background:accumulate;stop-color:#000000;stop-opacity:1"
       d="m 32,21.998047 v 3.003906 19.496094 H 19.998047 v 5.005859 H 32 v 15 H 19.998047 V 69.5 H 32 v 15 H 19.998047 v 4.998047 H 32 V 104.49805 H 19.998047 v 5.00586 H 32 v 15 H 19.998047 V 129.5 H 32 v 15 H 19.998047 v 4.99805 H 32 v 18.49804 h 176 v -2.27343 l 29,-19.79688 V 98.960938 L 226.08984,93.375 237,85.925781 V 38.960938 l -29,-14.84961 v -2.113281 z m 176,5.322265 26.79883,13.714844 v 43.03711 L 223.2793,91.935547 208,84.109375 Z M 38.001953,28 H 201.99805 V 162.00391 H 38.001953 V 149.49805 H 49.998047 V 144.5 H 38.001953 v -15 h 11.996094 v -4.99609 H 38.001953 v -15 h 11.996094 v -5.00586 H 38.001953 V 89.498047 H 49.998047 V 84.5 H 38.001953 v -15 H 49.998047 V 64.503906 H 38.001953 v -15 H 49.998047 V 44.498047 H 38.001953 Z M 208,87.320312 234.79883,101.03516 v 43.03711 L 208,162.36523 Z"
       transform="scale(0.26458333)" />
    <path
       id="rect1503"
       style="fill:#808080;fill-opacity:1;stroke-width:0.702659"
       d="m 23.18495,13.340207 c -1.300636,0 -2.347819,1.046939 -2.347819,2.347575 v 19.345396 c 0,1.300638 1.047183,2.347577 2.347819,2.347577 h 19.345154 c 1.300636,0 2.347818,-1.046939 2.347818,-2.347577 V 15.687782 c 0,-1.300636 -1.047182,-2.347575 -2.347818,-2.347575 z m 16.627138,11.175034 c 0.548663,0 1.034856,0.03302 1.45862,0.09913 0.423763,0.06611 0.814357,0.167818 1.171961,0.304925 v 2.196331 C 42.266308,26.99317 42.074138,26.8855 41.865943,26.792435 c -0.208242,-0.09301 -0.422521,-0.170143 -0.642971,-0.231371 -0.220498,-0.06118 -0.43982,-0.106506 -0.657828,-0.135901 -0.21801,-0.02935 -0.424868,-0.04408 -0.620808,-0.04408 -0.269471,0 -0.514535,0.02579 -0.735033,0.07721 -0.22045,0.05141 -0.406562,0.123498 -0.55846,0.216515 -0.151849,0.09306 -0.269363,0.204612 -0.352659,0.334394 -0.0833,0.129782 -0.124943,0.275358 -0.124943,0.436928 0,0.176314 0.04649,0.334353 0.139557,0.473948 0.09306,0.139547 0.225508,0.271599 0.396985,0.396498 0.171478,0.124853 0.379501,0.247257 0.624461,0.367274 0.24496,0.119969 0.521871,0.243585 0.830505,0.370926 0.421322,0.176267 0.799846,0.363777 1.135429,0.562112 0.335582,0.198336 0.623353,0.422204 0.863382,0.671954 0.240077,0.249751 0.423767,0.535087 0.551154,0.855833 0.127388,0.320746 0.190943,0.694021 0.190943,1.120084 0,0.587636 -0.111502,1.081184 -0.334394,1.480297 -0.222892,0.399114 -0.52535,0.722309 -0.907465,0.969573 -0.382115,0.247307 -0.82662,0.424684 -1.333679,0.532397 -0.507062,0.107761 -1.042318,0.161716 -1.605724,0.161716 -0.578103,0 -1.128049,-0.04891 -1.649804,-0.146858 -0.521759,-0.09795 -0.973727,-0.244936 -1.355842,-0.440828 v -2.350499 c 0.426204,0.357513 0.889276,0.625495 1.388963,0.804202 0.499736,0.178755 1.004403,0.268149 1.513905,0.268149 0.298866,0 0.559585,-0.02696 0.782525,-0.08086 0.222892,-0.05386 0.40905,-0.128317 0.558459,-0.223823 0.149409,-0.09551 0.26091,-0.208265 0.334394,-0.338046 0.07348,-0.129782 0.110329,-0.270512 0.110329,-0.422316 0,-0.205707 -0.05875,-0.389339 -0.176329,-0.550909 -0.117622,-0.161618 -0.278185,-0.311025 -0.481498,-0.448132 -0.203267,-0.137106 -0.444593,-0.26916 -0.723831,-0.396499 -0.279237,-0.127339 -0.580485,-0.257212 -0.903812,-0.389435 -0.823064,-0.342814 -1.436613,-0.761417 -1.840748,-1.255987 -0.404184,-0.494617 -0.60644,-1.092003 -0.60644,-1.792282 0,-0.548473 0.110289,-1.019867 0.330741,-1.414049 0.22045,-0.39423 0.520485,-0.718787 0.90016,-0.973468 0.37972,-0.254635 0.819376,-0.441901 1.319064,-0.56187 0.499689,-0.119969 1.028934,-0.179984 1.587457,-0.179984 z m -13.434201,0.234782 h 8.404657 v 1.929158 h -3.015389 v 8.588781 H 29.37842 v -8.588781 h -3.000533 z" />
  </g>
</svg>
