<?xml version="1.0" encoding="UTF-8" standalone="no"?>
<svg
   xmlns:dc="http://purl.org/dc/elements/1.1/"
   xmlns:cc="http://creativecommons.org/ns#"
   xmlns:rdf="http://www.w3.org/1999/02/22-rdf-syntax-ns#"
   xmlns:svg="http://www.w3.org/2000/svg"
   xmlns="http://www.w3.org/2000/svg"
   xmlns:sodipodi="http://sodipodi.sourceforge.net/DTD/sodipodi-0.dtd"
   xmlns:inkscape="http://www.inkscape.org/namespaces/inkscape"
   width="256"
   height="256"
   viewBox="0 0 67.733332 67.733335"
   version="1.1"
   id="svg8"
   inkscape:version="1.0.1 (3bc2e813f5, 2020-09-07)"
   sodipodi:docname="typescript.svg"
   inkscape:export-filename="C:\Users\keath\Workspace\KMX\elite-streamdeck-icons\ship-lights.png"
   inkscape:export-xdpi="96"
   inkscape:export-ydpi="96">
  <defs
     id="defs2">
	
	

		
		
		
		
		
		
		
		

			<radialGradient
   id="SVGID_1_"
   cx="69.955002"
   cy="60.886398"
   r="68.065002"
   gradientTransform="matrix(0.26458333,0,0,-0.26458333,64.000438,46.972822)"
   gradientUnits="userSpaceOnUse">
			<stop
   offset="0"
   style="stop-color:#FFFFFF;stop-opacity:0.1"
   id="stop1244" />

			<stop
   offset="1"
   style="stop-color:#FFFFFF;stop-opacity:0"
   id="stop1246" />

		</radialGradient>

		
	</defs>
  <sodipodi:namedview
     id="base"
     pagecolor="#000000"
     bordercolor="#666666"
     borderopacity="1.0"
     inkscape:pageopacity="0"
     inkscape:pageshadow="2"
     inkscape:zoom="3.959798"
     inkscape:cx="154.32385"
     inkscape:cy="33.672642"
     inkscape:document-units="px"
     inkscape:current-layer="layer3"
     showgrid="true"
     units="px"
     inkscape:snap-grids="true"
     objecttolerance="10000"
     guidetolerance="10000"
     inkscape:window-width="3840"
     inkscape:window-height="2066"
     inkscape:window-x="-11"
     inkscape:window-y="-11"
     inkscape:window-maximized="1"
     inkscape:document-rotation="0"
     showguides="true"
     inkscape:guide-bbox="true"
     inkscape:snap-global="false">
    <inkscape:grid
       type="xygrid"
       id="grid4623" />
    <sodipodi:guide
       position="-3.96875,62.441667"
       orientation="0,256"
       id="guide3351" />
    <sodipodi:guide
       position="62.441667,42.597917"
       orientation="-1,0"
       id="guide3353"
       inkscape:label=""
       inkscape:locked="false"
       inkscape:color="rgb(0,0,255)" />
    <sodipodi:guide
       position="-2.6458333,22.754167"
       orientation="0,-256"
       id="guide3355" />
    <sodipodi:guide
       position="5.2916667,70.379167"
       orientation="-256,0"
       id="guide3357" />
    <sodipodi:guide
       position="0,67.733334"
       orientation="0,256"
       id="guide3359" />
    <sodipodi:guide
       position="67.733334,67.733334"
       orientation="256,0"
       id="guide3361" />
    <sodipodi:guide
       position="67.733334,0"
       orientation="0,-256"
       id="guide3363" />
    <sodipodi:guide
       position="0,0"
       orientation="-256,0"
       id="guide3365" />
    <sodipodi:guide
       position="0,67.733334"
       orientation="0,256"
       id="guide3367" />
    <sodipodi:guide
       position="67.733334,67.733334"
       orientation="256,0"
       id="guide3369" />
    <sodipodi:guide
       position="67.733334,0"
       orientation="0,-256"
       id="guide3371" />
    <sodipodi:guide
       position="0,0"
       orientation="-256,0"
       id="guide3373" />
    <sodipodi:guide
       position="0,67.733334"
       orientation="0,256"
       id="guide3375" />
    <sodipodi:guide
       position="67.733334,67.733334"
       orientation="256,0"
       id="guide3377" />
    <sodipodi:guide
       position="67.733334,0"
       orientation="0,-256"
       id="guide3379" />
    <sodipodi:guide
       position="0,0"
       orientation="-256,0"
       id="guide3381" />
    <sodipodi:guide
       position="33.866667,46.83125"
       orientation="1,0"
       id="guide895" />
    <sodipodi:guide
       position="41.010417,42.597917"
       orientation="0,-1"
       id="guide897" />
  </sodipodi:namedview>
  <metadata
     id="metadata5">
    <rdf:RDF>
      <cc:Work
         rdf:about="">
        <dc:format>image/svg+xml</dc:format>
        <dc:type
           rdf:resource="http://purl.org/dc/dcmitype/StillImage" />
        <dc:title></dc:title>
      </cc:Work>
    </rdf:RDF>
  </metadata>
  <g
     inkscape:groupmode="layer"
     id="layer3"
     inkscape:label="Icon 2">
    <path
       id="rect1503"
       style="fill:#808080;stroke-width:0.70266;fill-opacity:1"
       d="m 18.75595,6.3004038 c -2.051172,0 -3.702635,1.6510783 -3.702635,3.7022502 v 30.50871 c 0,2.051174 1.651463,3.702251 3.702635,3.702251 h 30.508326 c 2.051173,0 3.702634,-1.651077 3.702634,-3.702251 v -30.50871 c 0,-2.0511719 -1.651461,-3.7022502 -3.702634,-3.7022502 z M 44.977822,23.924022 c 0.86527,0 1.632023,0.05207 2.30032,0.156325 0.668297,0.104262 1.284285,0.264658 1.848245,0.480882 v 3.46373 c -0.278131,-0.193121 -0.581192,-0.362923 -0.909526,-0.50969 -0.328411,-0.146691 -0.666339,-0.268325 -1.014,-0.364885 -0.347738,-0.09649 -0.693618,-0.167965 -1.037429,-0.214323 -0.343813,-0.04628 -0.670039,-0.06951 -0.979048,-0.06951 -0.42497,0 -0.81145,0.04067 -1.159186,0.121757 -0.347663,0.08108 -0.64117,0.194764 -0.88072,0.341456 -0.239475,0.146767 -0.4248,0.322684 -0.556162,0.527358 -0.131366,0.204672 -0.197041,0.434253 -0.197041,0.689057 0,0.278057 0.07332,0.527293 0.220087,0.747442 0.146765,0.220073 0.355637,0.428326 0.626066,0.625298 0.27043,0.196899 0.598493,0.389938 0.984808,0.57921 0.386317,0.189197 0.82302,0.384147 1.309751,0.58497 0.664446,0.277982 1.261398,0.573696 1.790631,0.886481 0.529231,0.312785 0.98306,0.665837 1.3616,1.059706 0.378614,0.39387 0.668302,0.843862 0.869198,1.349695 0.200897,0.505832 0.301127,1.094506 0.301127,1.766432 0,0.926732 -0.175843,1.705083 -0.527355,2.334504 -0.351514,0.629424 -0.828508,1.13912 -1.431123,1.529067 -0.602615,0.390018 -1.303621,0.669751 -2.103281,0.83962 -0.799663,0.169944 -1.64379,0.255035 -2.53231,0.255035 -0.911698,0 -1.778994,-0.07713 -2.60183,-0.231605 -0.822841,-0.154471 -1.535618,-0.386274 -2.138234,-0.695207 v -3.70686 c 0.672147,0.563815 1.402435,0.986437 2.190469,1.268268 0.78811,0.281905 1.583996,0.422884 2.387509,0.422884 0.471326,0 0.882494,-0.04251 1.234083,-0.127516 0.351511,-0.08494 0.645093,-0.202364 0.880718,-0.35298 0.235627,-0.150618 0.41147,-0.328447 0.527357,-0.533117 0.115888,-0.204675 0.173995,-0.426613 0.173995,-0.666015 0,-0.324411 -0.09266,-0.614008 -0.278081,-0.868813 -0.185496,-0.25488 -0.438713,-0.490501 -0.759348,-0.706727 -0.320561,-0.216224 -0.701147,-0.424479 -1.141518,-0.6253 -0.440373,-0.200821 -0.915457,-0.405637 -1.425362,-0.614161 -1.298013,-0.540635 -2.265613,-1.200794 -2.902955,-1.980756 -0.63742,-0.780037 -0.956388,-1.722147 -0.956388,-2.826523 0,-0.864972 0.173932,-1.608385 0.521596,-2.230031 0.347662,-0.62172 0.820833,-1.133565 1.4196,-1.53521 0.598838,-0.401573 1.2922,-0.696901 2.080234,-0.886098 0.788035,-0.189197 1.622683,-0.283844 2.503503,-0.283845 z m -21.186443,0.370263 h 13.254587 v 3.042383 h -4.755427 v 13.54496 h -3.767161 v -13.54496 h -4.731999 z" />
  </g>
</svg>
