<?xml version="1.0" encoding="UTF-8" standalone="no"?>
<svg
   xmlns:dc="http://purl.org/dc/elements/1.1/"
   xmlns:cc="http://creativecommons.org/ns#"
   xmlns:rdf="http://www.w3.org/1999/02/22-rdf-syntax-ns#"
   xmlns:svg="http://www.w3.org/2000/svg"
   xmlns="http://www.w3.org/2000/svg"
   xmlns:sodipodi="http://sodipodi.sourceforge.net/DTD/sodipodi-0.dtd"
   xmlns:inkscape="http://www.inkscape.org/namespaces/inkscape"
   width="256"
   height="256"
   viewBox="0 0 67.733332 67.733335"
   version="1.1"
   id="svg8"
   inkscape:version="1.0.1 (3bc2e813f5, 2020-09-07)"
   sodipodi:docname="vs-open-folder.svg"
   inkscape:export-filename="C:\Users\keath\Workspace\KMX\elite-streamdeck-icons\ship-lights.png"
   inkscape:export-xdpi="96"
   inkscape:export-ydpi="96">
  <defs
     id="defs2" />
  <sodipodi:namedview
     id="base"
     pagecolor="#000000"
     bordercolor="#666666"
     borderopacity="1.0"
     inkscape:pageopacity="0"
     inkscape:pageshadow="2"
     inkscape:zoom="5.6"
     inkscape:cx="119.83461"
     inkscape:cy="127.86294"
     inkscape:document-units="px"
     inkscape:current-layer="layer2"
     showgrid="true"
     units="px"
     inkscape:snap-grids="true"
     objecttolerance="10000"
     guidetolerance="10000"
     inkscape:window-width="3840"
     inkscape:window-height="2066"
     inkscape:window-x="-11"
     inkscape:window-y="-11"
     inkscape:window-maximized="1"
     inkscape:document-rotation="0"
     showguides="true"
     inkscape:guide-bbox="true">
    <inkscape:grid
       type="xygrid"
       id="grid4623" />
    <sodipodi:guide
       position="-3.96875,62.441667"
       orientation="0,256"
       id="guide3351" />
    <sodipodi:guide
       position="62.441667,42.597917"
       orientation="-1,0"
       id="guide3353"
       inkscape:label=""
       inkscape:locked="false"
       inkscape:color="rgb(0,0,255)" />
    <sodipodi:guide
       position="-2.6458333,22.754167"
       orientation="0,-256"
       id="guide3355" />
    <sodipodi:guide
       position="5.2916667,70.379167"
       orientation="-256,0"
       id="guide3357" />
    <sodipodi:guide
       position="0,67.733334"
       orientation="0,256"
       id="guide3359" />
    <sodipodi:guide
       position="67.733334,67.733334"
       orientation="256,0"
       id="guide3361" />
    <sodipodi:guide
       position="67.733334,0"
       orientation="0,-256"
       id="guide3363" />
    <sodipodi:guide
       position="0,0"
       orientation="-256,0"
       id="guide3365" />
    <sodipodi:guide
       position="0,67.733334"
       orientation="0,256"
       id="guide3367" />
    <sodipodi:guide
       position="67.733334,67.733334"
       orientation="256,0"
       id="guide3369" />
    <sodipodi:guide
       position="67.733334,0"
       orientation="0,-256"
       id="guide3371" />
    <sodipodi:guide
       position="0,0"
       orientation="-256,0"
       id="guide3373" />
    <sodipodi:guide
       position="0,67.733334"
       orientation="0,256"
       id="guide3375" />
    <sodipodi:guide
       position="67.733334,67.733334"
       orientation="256,0"
       id="guide3377" />
    <sodipodi:guide
       position="67.733334,0"
       orientation="0,-256"
       id="guide3379" />
    <sodipodi:guide
       position="0,0"
       orientation="-256,0"
       id="guide3381" />
    <sodipodi:guide
       position="33.866667,46.83125"
       orientation="1,0"
       id="guide895" />
    <sodipodi:guide
       position="41.010417,42.597917"
       orientation="0,-1"
       id="guide897" />
  </sodipodi:namedview>
  <metadata
     id="metadata5">
    <rdf:RDF>
      <cc:Work
         rdf:about="">
        <dc:format>image/svg+xml</dc:format>
        <dc:type
           rdf:resource="http://purl.org/dc/dcmitype/StillImage" />
        <dc:title></dc:title>
      </cc:Work>
    </rdf:RDF>
  </metadata>
  <g
     inkscape:groupmode="layer"
     id="layer2"
     inkscape:label="Icon">
    <path
       style="font-variation-settings:normal;opacity:1;vector-effect:none;fill:none;fill-opacity:1;stroke:#808080;stroke-width:1.5875;stroke-linecap:round;stroke-linejoin:round;stroke-miterlimit:4;stroke-dasharray:none;stroke-dashoffset:0;stroke-opacity:1;stop-color:#000000;stop-opacity:1"
       d="M 6.6145832,43.656249 18.520833,15.875 h 43.920833 l -8.202083,27.781249 z"
       id="path853" />
    <path
       style="font-variation-settings:normal;opacity:1;vector-effect:none;fill:none;fill-opacity:1;stroke:#808080;stroke-width:1.5875;stroke-linecap:round;stroke-linejoin:round;stroke-miterlimit:4;stroke-dasharray:none;stroke-dashoffset:0;stroke-opacity:1;stop-color:#000000;stop-opacity:1"
       d="M 6.4255952,43.656249 V 9.2604166 l 3.9687498,-3.96875 h 18.520833 l 2.645834,3.96875 H 54.050595 V 15.875"
       id="path855" />
    <path
       id="rect879"
       style="fill:#808080;fill-opacity:1;stroke:none;stroke-width:2.64583;stroke-linecap:round;stroke-linejoin:round;paint-order:markers stroke fill"
       d="m 39.815315,18.741912 c 0.171671,0.176733 0.290433,0.412847 0.290433,0.694483 V 39.23286 c 0,0.281636 -0.118763,0.517746 -0.290433,0.694484 0.05941,-0.01749 0.120716,-0.02629 0.17788,-0.05382 l 4.491398,-2.163321 c 0.40001,-0.192647 0.653546,-0.596663 0.653546,-1.041159 V 21.999923 c 0,-0.444513 -0.253537,-0.848227 -0.653546,-1.040875 l -4.491398,-2.163039 c -0.05716,-0.02753 -0.118466,-0.03662 -0.17788,-0.0541 z m -0.732447,0.101396 c -0.0821,0.0011 -0.164483,0.02051 -0.243206,0.06061 -0.05323,0.03761 -0.110567,0.06797 -0.157801,0.115275 l -2.89e-4,-2.9e-4 -0.0028,0.0043 -8.416917,7.68577 3.110495,2.362717 6.315163,-4.798224 v -4.837022 c 6e-6,-0.271719 -0.156469,-0.459153 -0.363939,-0.54522 -0.0769,-0.0319 -0.158564,-0.04897 -0.240661,-0.04786 z m -13.473912,5.058514 c -0.158311,0.007 -0.313758,0.06874 -0.438903,0.182685 l -1.201609,1.093274 c -0.307376,0.279842 -0.307232,0.755458 -2.89e-4,1.035777 l 14.710023,13.433103 0.0034,0.0034 2.89e-4,2.9e-4 c 7.11e-4,2.9e-4 0.0013,6.03e-4 0.0017,0.0012 0.04688,0.04639 0.102945,0.07669 0.155538,0.11386 0.1575,0.0803 0.330572,0.0763 0.484434,0.01246 0.207472,-0.08608 0.363961,-0.273217 0.363961,-0.544937 V 34.395833 L 26.062847,24.044288 c -0.134735,-0.102375 -0.295579,-0.149511 -0.453891,-0.142466 z m -1.903796,2.321932 v 6.240156 c 0.690037,-0.716083 1.431646,-1.379929 2.171889,-2.044931 v -2.16927 C 25.42316,27.830801 24.968877,27.412707 24.505478,27.00434 24.268191,26.746965 23.917629,26.520148 23.70516,26.223754 Z m 3.370104,3.39453 -3.10682,2.837413 c -0.30696,0.280323 -0.307332,0.755927 0,1.035778 l 1.201327,1.093555 c 0.250283,0.227911 0.623882,0.244647 0.893359,0.03993 l 3.545438,-2.693814 z" />
  </g>
</svg>
