<?xml version="1.0" encoding="UTF-8" standalone="no"?>
<svg
   xmlns:dc="http://purl.org/dc/elements/1.1/"
   xmlns:cc="http://creativecommons.org/ns#"
   xmlns:rdf="http://www.w3.org/1999/02/22-rdf-syntax-ns#"
   xmlns:svg="http://www.w3.org/2000/svg"
   xmlns="http://www.w3.org/2000/svg"
   xmlns:sodipodi="http://sodipodi.sourceforge.net/DTD/sodipodi-0.dtd"
   xmlns:inkscape="http://www.inkscape.org/namespaces/inkscape"
   width="256"
   height="256"
   viewBox="0 0 67.733332 67.733335"
   version="1.1"
   id="svg8"
   inkscape:version="1.0.1 (3bc2e813f5, 2020-09-07)"
   sodipodi:docname="vs-tool-window.svg"
   inkscape:export-filename="C:\Users\keath\Workspace\KMX\elite-streamdeck-icons\ship-lights.png"
   inkscape:export-xdpi="96"
   inkscape:export-ydpi="96">
  <defs
     id="defs2" />
  <sodipodi:namedview
     id="base"
     pagecolor="#000000"
     bordercolor="#666666"
     borderopacity="1.0"
     inkscape:pageopacity="0"
     inkscape:pageshadow="2"
     inkscape:zoom="5.6"
     inkscape:cx="111.90634"
     inkscape:cy="121.54987"
     inkscape:document-units="px"
     inkscape:current-layer="layer2"
     showgrid="true"
     units="px"
     inkscape:snap-grids="true"
     objecttolerance="10000"
     guidetolerance="10000"
     inkscape:window-width="3840"
     inkscape:window-height="2066"
     inkscape:window-x="3829"
     inkscape:window-y="-11"
     inkscape:window-maximized="1"
     inkscape:document-rotation="0"
     showguides="true"
     inkscape:guide-bbox="true">
    <inkscape:grid
       type="xygrid"
       id="grid4623" />
    <sodipodi:guide
       position="-3.96875,62.441667"
       orientation="0,256"
       id="guide3351" />
    <sodipodi:guide
       position="62.441667,42.597917"
       orientation="-1,0"
       id="guide3353"
       inkscape:label=""
       inkscape:locked="false"
       inkscape:color="rgb(0,0,255)" />
    <sodipodi:guide
       position="-2.6458333,22.754167"
       orientation="0,-256"
       id="guide3355" />
    <sodipodi:guide
       position="5.2916667,70.379167"
       orientation="-256,0"
       id="guide3357" />
    <sodipodi:guide
       position="0,67.733334"
       orientation="0,256"
       id="guide3359" />
    <sodipodi:guide
       position="67.733334,67.733334"
       orientation="256,0"
       id="guide3361" />
    <sodipodi:guide
       position="67.733334,0"
       orientation="0,-256"
       id="guide3363" />
    <sodipodi:guide
       position="0,0"
       orientation="-256,0"
       id="guide3365" />
    <sodipodi:guide
       position="0,67.733334"
       orientation="0,256"
       id="guide3367" />
    <sodipodi:guide
       position="67.733334,67.733334"
       orientation="256,0"
       id="guide3369" />
    <sodipodi:guide
       position="67.733334,0"
       orientation="0,-256"
       id="guide3371" />
    <sodipodi:guide
       position="0,0"
       orientation="-256,0"
       id="guide3373" />
    <sodipodi:guide
       position="0,67.733334"
       orientation="0,256"
       id="guide3375" />
    <sodipodi:guide
       position="67.733334,67.733334"
       orientation="256,0"
       id="guide3377" />
    <sodipodi:guide
       position="67.733334,0"
       orientation="0,-256"
       id="guide3379" />
    <sodipodi:guide
       position="0,0"
       orientation="-256,0"
       id="guide3381" />
    <sodipodi:guide
       position="33.866667,46.83125"
       orientation="1,0"
       id="guide895" />
    <sodipodi:guide
       position="41.010417,42.597917"
       orientation="0,-1"
       id="guide897" />
  </sodipodi:namedview>
  <metadata
     id="metadata5">
    <rdf:RDF>
      <cc:Work
         rdf:about="">
        <dc:format>image/svg+xml</dc:format>
        <dc:type
           rdf:resource="http://purl.org/dc/dcmitype/StillImage" />
        <dc:title />
      </cc:Work>
    </rdf:RDF>
  </metadata>
  <g
     inkscape:groupmode="layer"
     id="layer2"
     inkscape:label="Icon">
    <rect
       style="fill:none;stroke:#808080;stroke-width:1.5875;stroke-linecap:square;paint-order:markers stroke fill"
       id="rect851"
       width="54.239582"
       height="37.041668"
       x="6.614583"
       y="6.614583" />
    <path
       style="font-variation-settings:normal;opacity:1;vector-effect:none;fill:none;fill-opacity:1;stroke:#808080;stroke-width:1.5875;stroke-linecap:butt;stroke-linejoin:miter;stroke-miterlimit:4;stroke-dasharray:none;stroke-dashoffset:0;stroke-opacity:1;stop-color:#000000;stop-opacity:1"
       d="M 6.614584,13.229167 H 60.854167"
       id="path853" />
    <path
       id="rect879"
       style="fill:#808080;fill-opacity:1;stroke:none;stroke-width:9.99999;stroke-linecap:round;stroke-linejoin:round;paint-order:markers stroke fill"
       d="m 135.56641,55.822266 c 0.7598,0.781013 1.28515,1.825721 1.28515,3.070312 v 38.410156 c 1.21906,-1.209214 2.54573,-2.272049 4.20117,-2.896484 3.27861,-1.328266 5.20514,2.605366 8.03907,3.210938 1.62887,-2.710428 0.92092,-6.045036 1.9707,-8.945313 2.68671,-2e-6 5.37384,-10e-7 8.06055,0 V 70.220703 c 0,-1.964368 -1.12023,-3.748267 -2.89063,-4.599609 L 136.35352,56.0625 c -0.25301,-0.121663 -0.52415,-0.162981 -0.78711,-0.240234 z m -3.24219,0.449218 c -0.36337,0.0045 -0.72775,0.09032 -1.07617,0.267578 -0.23558,0.166186 -0.49017,0.300743 -0.69922,0.509766 l -0.002,-0.002 -0.0117,0.01953 L 93.283203,91.029297 107.04883,101.4707 135,80.267578 v -21.375 c 3e-5,-1.200775 -0.69308,-2.029811 -1.61133,-2.410156 -0.34034,-0.140977 -0.70109,-0.215851 -1.06445,-0.210938 z M 72.689453,78.625 c -0.700671,0.03137 -1.389481,0.305081 -1.943359,0.808594 l -5.31836,4.830078 c -1.360422,1.236665 -1.358505,3.339354 0,4.578125 L 128.32227,146.1875 c -0.0133,-2.60852 3.00374,-4.37384 3.58398,-6.87695 -2.71218,-1.62902 -6.08681,-0.82837 -8.94531,-2.0586 v -8.05664 c 0.54386,-3.67262 -1.15956,-7.72987 0.89258,-11.09179 0.20683,-0.40848 0.45838,-0.7325 0.73828,-1 L 74.697266,79.255859 C 74.100943,78.80345 73.390125,78.593868 72.689453,78.625 Z m -8.425781,10.261719 v 27.576171 c 3.054055,-3.16448 6.335067,-6.09836 9.611328,-9.03711 V 97.839844 C 71.866124,95.988624 69.855651,94.14057 67.804688,92.335938 66.75447,91.198557 65.204045,90.196529 64.263672,88.886719 Z m 14.916016,15.000001 -13.751954,12.53906 c -1.358581,1.23879 -1.360229,3.34142 0,4.57813 l 5.31836,4.83203 c 1.107738,1.00717 2.760438,1.0804 3.953125,0.17578 l 15.691406,-11.9043 z m 79.943362,15.67187 c -2.94529,0.9888 -5.19679,3.85754 -5.46875,6.98829 -0.64573,3.77124 2.11398,6.74861 5.46875,7.79687 z"
       transform="scale(0.26458333)" />
    <path
       d="m 51.523723,35.238547 v -3.238164 l -1.987068,-0.331177 c -0.147169,-0.551963 -0.367954,-1.06715 -0.625579,-1.50872 l 1.177543,-1.61905 -2.281469,-2.318244 -1.655889,1.140702 c -0.478347,-0.257562 -0.993534,-0.478347 -1.508657,-0.625579 l -0.331178,-1.950228 h -3.238225 l -0.331178,1.987067 c -0.551963,0.14717 -1.03031,0.367955 -1.508657,0.625517 l -1.619113,-1.140703 -2.318244,2.281468 1.177542,1.61905 c -0.257562,0.47841 -0.478348,0.993534 -0.62558,1.545496 l -1.987067,0.294401 v 3.238164 l 1.987067,0.331177 c 0.14717,0.551963 0.367954,1.030373 0.62558,1.50872 l -1.177542,1.655889 2.281468,2.281469 1.655889,-1.177543 c 0.478347,0.257562 0.993533,0.478347 1.545497,0.625579 l 0.331177,1.950227 h 3.238162 L 44.679381,40.427 c 0.515187,-0.14717 1.03031,-0.367955 1.50872,-0.625517 l 1.65589,1.177479 2.281405,-2.281406 -1.177479,-1.655889 c 0.25756,-0.47841 0.478346,-0.956756 0.625515,-1.508719 z m -8.83141,1.766282 c -1.876674,0 -3.385394,-1.508657 -3.385394,-3.385333 0,-1.876673 1.545497,-3.385394 3.385394,-3.385394 1.839899,0 3.385395,1.508721 3.385395,3.385394 0,1.876676 -1.50872,3.385333 -3.385395,3.385333 z"
       id="path2"
       style="fill:#808080;fill-opacity:1;stroke-width:0.264583" />
  </g>
</svg>
