<?xml version="1.0" encoding="UTF-8" standalone="no"?>
<svg
   xmlns:dc="http://purl.org/dc/elements/1.1/"
   xmlns:cc="http://creativecommons.org/ns#"
   xmlns:rdf="http://www.w3.org/1999/02/22-rdf-syntax-ns#"
   xmlns:svg="http://www.w3.org/2000/svg"
   xmlns="http://www.w3.org/2000/svg"
   xmlns:sodipodi="http://sodipodi.sourceforge.net/DTD/sodipodi-0.dtd"
   xmlns:inkscape="http://www.inkscape.org/namespaces/inkscape"
   width="256"
   height="256"
   viewBox="0 0 67.733332 67.733335"
   version="1.1"
   id="svg8"
   inkscape:version="1.0.1 (3bc2e813f5, 2020-09-07)"
   sodipodi:docname="vscode-streamdeck-profile.svg"
   inkscape:export-filename="C:\Users\keath\Workspace\KMX\elite-streamdeck-icons\ship-lights.png"
   inkscape:export-xdpi="96"
   inkscape:export-ydpi="96">
  <defs
     id="defs2">
    <mask
       id="mask0"
       mask-type="alpha"
       maskUnits="userSpaceOnUse"
       x="0"
       y="0"
       width="256"
       height="256">
      <path
         fill-rule="evenodd"
         clip-rule="evenodd"
         d="m 181.534,254.252 c 4.032,1.571 8.63,1.47 12.7,-0.488 l 52.706,-25.361 c 5.538,-2.665 9.06,-8.271 9.06,-14.42 V 42.0181 c 0,-6.1492 -3.522,-11.7543 -9.06,-14.4193 L 194.234,2.23681 c -5.341,-2.569942 -11.592,-1.940466 -16.279,1.46737 -0.67,0.48682 -1.308,1.03036 -1.906,1.62936 L 75.149,97.3862 31.1992,64.0247 C 27.1079,60.9191 21.3853,61.1735 17.5855,64.63 L 3.48936,77.4525 c -4.64789,4.228 -4.65322,11.5401 -0.01151,15.7749 L 41.5926,128 3.47785,162.773 c -4.64171,4.235 -4.63638,11.547 0.01151,15.775 L 17.5855,191.37 c 3.7998,3.457 9.5224,3.711 13.6137,0.606 l 43.9498,-33.362 100.9,92.053 c 1.596,1.597 3.47,2.8 5.485,3.585 z M 192.039,69.8853 115.479,128 l 76.56,58.115 z"
         fill="#ffffff"
         id="path2" />
    </mask>
    <filter
       id="filter0_d"
       x="-21.489599"
       y="40.522499"
       width="298.82199"
       height="236.149"
       filterUnits="userSpaceOnUse"
       color-interpolation-filters="sRGB">
      <feFlood
         flood-opacity="0"
         result="BackgroundImageFix"
         id="feFlood21" />
      <feColorMatrix
         in="SourceAlpha"
         type="matrix"
         values="0 0 0 0 0 0 0 0 0 0 0 0 0 0 0 0 0 0 127 0"
         id="feColorMatrix23" />
      <feOffset
         id="feOffset25" />
      <feGaussianBlur
         stdDeviation="10.6667"
         id="feGaussianBlur27" />
      <feColorMatrix
         type="matrix"
         values="0 0 0 0 0 0 0 0 0 0 0 0 0 0 0 0 0 0 0.25 0"
         id="feColorMatrix29" />
      <feBlend
         mode="overlay"
         in2="BackgroundImageFix"
         result="effect1_dropShadow"
         id="feBlend31" />
      <feBlend
         mode="normal"
         in="SourceGraphic"
         in2="effect1_dropShadow"
         result="shape"
         id="feBlend33" />
    </filter>
    <filter
       id="filter1_d"
       x="154.66701"
       y="-20.6735"
       width="122.667"
       height="297.34698"
       filterUnits="userSpaceOnUse"
       color-interpolation-filters="sRGB">
      <feFlood
         flood-opacity="0"
         result="BackgroundImageFix"
         id="feFlood36" />
      <feColorMatrix
         in="SourceAlpha"
         type="matrix"
         values="0 0 0 0 0 0 0 0 0 0 0 0 0 0 0 0 0 0 127 0"
         id="feColorMatrix38" />
      <feOffset
         id="feOffset40" />
      <feGaussianBlur
         stdDeviation="10.6667"
         id="feGaussianBlur42" />
      <feColorMatrix
         type="matrix"
         values="0 0 0 0 0 0 0 0 0 0 0 0 0 0 0 0 0 0 0.25 0"
         id="feColorMatrix44" />
      <feBlend
         mode="overlay"
         in2="BackgroundImageFix"
         result="effect1_dropShadow"
         id="feBlend46" />
      <feBlend
         mode="normal"
         in="SourceGraphic"
         in2="effect1_dropShadow"
         result="shape"
         id="feBlend48" />
    </filter>
    <linearGradient
       id="paint0_linear"
       x1="127.844"
       y1="0.65998799"
       x2="127.844"
       y2="255.34"
       gradientUnits="userSpaceOnUse">
      <stop
         stop-color="white"
         id="stop51" />
      <stop
         offset="1"
         stop-color="white"
         stop-opacity="0"
         id="stop53" />
    </linearGradient>
    <filter
       id="filter1_d-1"
       x="154.66701"
       y="-20.6735"
       width="122.667"
       height="297.34698"
       filterUnits="userSpaceOnUse"
       color-interpolation-filters="sRGB">
      <feFlood
         flood-opacity="0"
         result="BackgroundImageFix"
         id="feFlood36-5" />
      <feColorMatrix
         in="SourceAlpha"
         type="matrix"
         values="0 0 0 0 0 0 0 0 0 0 0 0 0 0 0 0 0 0 127 0"
         id="feColorMatrix38-0" />
      <feOffset
         id="feOffset40-7" />
      <feGaussianBlur
         stdDeviation="10.6667"
         id="feGaussianBlur42-1" />
      <feColorMatrix
         type="matrix"
         values="0 0 0 0 0 0 0 0 0 0 0 0 0 0 0 0 0 0 0.25 0"
         id="feColorMatrix44-5" />
      <feBlend
         mode="overlay"
         in2="BackgroundImageFix"
         result="effect1_dropShadow"
         id="feBlend46-7" />
      <feBlend
         mode="normal"
         in="SourceGraphic"
         in2="effect1_dropShadow"
         result="shape"
         id="feBlend48-9" />
    </filter>
  </defs>
  <sodipodi:namedview
     id="base"
     pagecolor="#000000"
     bordercolor="#666666"
     borderopacity="1.0"
     inkscape:pageopacity="0"
     inkscape:pageshadow="2"
     inkscape:zoom="7.9195959"
     inkscape:cx="119.40546"
     inkscape:cy="88.222594"
     inkscape:document-units="px"
     inkscape:current-layer="layer2"
     showgrid="true"
     units="px"
     inkscape:snap-grids="true"
     objecttolerance="10000"
     guidetolerance="10000"
     inkscape:window-width="3840"
     inkscape:window-height="2066"
     inkscape:window-x="3829"
     inkscape:window-y="-11"
     inkscape:window-maximized="1"
     inkscape:document-rotation="0"
     showguides="true"
     inkscape:guide-bbox="true">
    <inkscape:grid
       type="xygrid"
       id="grid4623" />
    <sodipodi:guide
       position="-3.96875,62.441667"
       orientation="0,256"
       id="guide3351" />
    <sodipodi:guide
       position="62.441667,42.597917"
       orientation="-1,0"
       id="guide3353"
       inkscape:label=""
       inkscape:locked="false"
       inkscape:color="rgb(0,0,255)" />
    <sodipodi:guide
       position="-2.6458333,22.754167"
       orientation="0,-256"
       id="guide3355" />
    <sodipodi:guide
       position="5.2916667,70.379167"
       orientation="-256,0"
       id="guide3357" />
    <sodipodi:guide
       position="0,67.733334"
       orientation="0,256"
       id="guide3359" />
    <sodipodi:guide
       position="67.733334,67.733334"
       orientation="256,0"
       id="guide3361" />
    <sodipodi:guide
       position="67.733334,0"
       orientation="0,-256"
       id="guide3363" />
    <sodipodi:guide
       position="0,0"
       orientation="-256,0"
       id="guide3365" />
    <sodipodi:guide
       position="0,67.733334"
       orientation="0,256"
       id="guide3367" />
    <sodipodi:guide
       position="67.733334,67.733334"
       orientation="256,0"
       id="guide3369" />
    <sodipodi:guide
       position="67.733334,0"
       orientation="0,-256"
       id="guide3371" />
    <sodipodi:guide
       position="0,0"
       orientation="-256,0"
       id="guide3373" />
    <sodipodi:guide
       position="0,67.733334"
       orientation="0,256"
       id="guide3375" />
    <sodipodi:guide
       position="67.733334,67.733334"
       orientation="256,0"
       id="guide3377" />
    <sodipodi:guide
       position="67.733334,0"
       orientation="0,-256"
       id="guide3379" />
    <sodipodi:guide
       position="0,0"
       orientation="-256,0"
       id="guide3381" />
    <sodipodi:guide
       position="33.866667,46.83125"
       orientation="1,0"
       id="guide895" />
    <sodipodi:guide
       position="41.010417,42.597917"
       orientation="0,-1"
       id="guide897" />
  </sodipodi:namedview>
  <metadata
     id="metadata5">
    <rdf:RDF>
      <cc:Work
         rdf:about="">
        <dc:format>image/svg+xml</dc:format>
        <dc:type
           rdf:resource="http://purl.org/dc/dcmitype/StillImage" />
        <dc:title></dc:title>
      </cc:Work>
    </rdf:RDF>
  </metadata>
  <g
     inkscape:groupmode="layer"
     id="layer2"
     inkscape:label="Icon">
    <path
       id="path910"
       style="color:#000000;font-style:normal;font-variant:normal;font-weight:normal;font-stretch:normal;font-size:medium;line-height:normal;font-family:sans-serif;font-variant-ligatures:normal;font-variant-position:normal;font-variant-caps:normal;font-variant-numeric:normal;font-variant-alternates:normal;font-variant-east-asian:normal;font-feature-settings:normal;font-variation-settings:normal;text-indent:0;text-align:start;text-decoration:none;text-decoration-line:none;text-decoration-style:solid;text-decoration-color:#000000;letter-spacing:normal;word-spacing:normal;text-transform:none;writing-mode:lr-tb;direction:ltr;text-orientation:mixed;dominant-baseline:auto;baseline-shift:baseline;text-anchor:start;white-space:normal;shape-padding:0;shape-margin:0;inline-size:0;clip-rule:nonzero;display:inline;overflow:visible;visibility:visible;isolation:auto;mix-blend-mode:normal;color-interpolation:sRGB;color-interpolation-filters:linearRGB;solid-color:#000000;solid-opacity:1;vector-effect:none;fill:#808080;fill-opacity:1;fill-rule:nonzero;stroke:none;stroke-width:2;stroke-linecap:butt;stroke-linejoin:miter;stroke-miterlimit:4;stroke-dasharray:none;stroke-dashoffset:0;stroke-opacity:1;color-rendering:auto;image-rendering:auto;shape-rendering:auto;text-rendering:auto;enable-background:accumulate;stop-color:#000000"
       d="m 157.26367,21.619141 c 1.18564,1.218733 2.00586,2.846941 2.00586,4.789062 v 58.976563 c 7.71011,-5.55046 16.92806,-8.918456 26.53906,-8.929688 2.75422,-0.110018 5.50383,0.05746 8.2168,0.457031 V 44.085938 c 0,-3.065299 -1.75104,-5.849256 -4.51367,-7.177735 L 158.49219,21.992188 c -0.39479,-0.189858 -0.81818,-0.252521 -1.22852,-0.373047 z m -5.05859,0.699218 c -0.567,0.0077 -1.13599,0.141426 -1.67969,0.417969 -0.36763,0.259336 -0.76362,0.468705 -1.08984,0.794922 l -0.002,-0.002 -0.0195,0.0293 -58.130857,53 21.482417,16.292968 43.61524,-33.08789 V 26.408203 c -1.1e-4,-1.873744 -1.08079,-3.166258 -2.51367,-3.759765 -0.5311,-0.219988 -1.09511,-0.337702 -1.66211,-0.330079 z M 59.148438,57.201172 c -1.093361,0.04857 -2.166948,0.474051 -3.03125,1.259766 L 47.818359,66 c -2.122877,1.929751 -2.121882,5.209539 -0.002,7.142578 l 101.593754,92.632812 0.0234,0.0234 0.002,0.002 c 0.005,0.002 0.009,0.004 0.0117,0.008 0.32375,0.3199 0.71098,0.52886 1.07421,0.78516 1.08776,0.55376 2.28307,0.52614 3.34571,0.0859 1.43289,-0.59357 2.51367,-1.88407 2.51367,-3.75781 v -0.37891 c -10.51611,-8.83379 -17.49392,-22.05005 -17.83008,-35.85352 -0.22183,-3.44178 0.006,-6.85418 0.60742,-10.1875 L 62.283203,58.183594 C 61.352665,57.477631 60.241806,57.15259 59.148438,57.201172 Z M 69.275391,96.621094 47.818359,116.1875 c -2.120001,1.93307 -2.122571,5.21277 0,7.14258 l 8.296875,7.54101 c 1.728567,1.57164 4.308796,1.68705 6.169922,0.27539 l 24.486328,-18.57617 z m 89.765629,67.994136 c -0.31936,1.20586 -0.95582,2.25122 -1.77735,3.09571 0.41033,-0.12061 0.83372,-0.18125 1.22852,-0.3711 l 2.64648,-1.27343 c -0.71162,-0.46488 -1.41058,-0.94927 -2.09765,-1.45118 z"
       transform="scale(0.26458333)" />
    <path
       id="path849"
       style="fill:#808080;fill-opacity:1;stroke-width:1.5875;stroke-linecap:round;stroke-linejoin:round;paint-order:markers stroke fill"
       d="m 49.510793,21.412752 c -6.434376,0 -11.661044,5.226358 -11.661044,11.660734 0,6.434377 5.226667,11.660735 11.661044,11.660735 6.434376,-2e-6 11.660734,-5.226358 11.660734,-11.660735 0,-6.434375 -5.226358,-11.660733 -11.660734,-11.660734 z m 0,0.949123 c 5.921432,0 10.711303,4.790179 10.711303,10.711611 0,5.921432 -4.789871,10.711612 -10.711303,10.711612 -5.921432,0 -10.711612,-4.790179 -10.711612,-10.711612 0,-5.921432 4.79018,-10.711611 10.711612,-10.711611 z m -7.914914,6.493084 a 1.0545804,1.0545804 0 0 0 -1.049535,1.054477 1.0545804,1.0545804 0 0 0 1.054787,1.054478 1.0545804,1.0545804 0 0 0 1.054477,-1.054478 1.0545804,1.0545804 0 0 0 -1.054477,-1.054477 1.0545804,1.0545804 0 0 0 -0.0052,0 z m 3.16374,0 a 1.0545804,1.0545804 0 0 0 -1.049533,1.054477 1.0545804,1.0545804 0 0 0 1.054786,1.054478 1.0545804,1.0545804 0 0 0 1.054477,-1.054478 1.0545804,1.0545804 0 0 0 -1.054477,-1.054477 1.0545804,1.0545804 0 0 0 -0.0052,0 z m 3.163742,0 a 1.0545804,1.0545804 0 0 0 -1.049533,1.054477 1.0545804,1.0545804 0 0 0 1.054784,1.054478 1.0545804,1.0545804 0 0 0 1.054479,-1.054478 1.0545804,1.0545804 0 0 0 -1.054479,-1.054477 1.0545804,1.0545804 0 0 0 -0.0052,0 z m 3.163741,0 a 1.0545804,1.0545804 0 0 0 -1.049533,1.054477 1.0545804,1.0545804 0 0 0 1.054785,1.054478 1.0545804,1.0545804 0 0 0 1.054478,-1.054478 1.0545804,1.0545804 0 0 0 -1.054478,-1.054477 1.0545804,1.0545804 0 0 0 -0.0052,0 z m 3.163741,0 a 1.0545804,1.0545804 0 0 0 -1.049533,1.054477 1.0545804,1.0545804 0 0 0 1.054785,1.054478 1.0545804,1.0545804 0 0 0 1.054478,-1.054478 1.0545804,1.0545804 0 0 0 -1.054478,-1.054477 1.0545804,1.0545804 0 0 0 -0.0052,0 z m 3.163741,0 a 1.0545804,1.0545804 0 0 0 -1.049533,1.054477 1.0545804,1.0545804 0 0 0 1.054785,1.054478 1.0545804,1.0545804 0 0 0 1.054478,-1.054478 1.0545804,1.0545804 0 0 0 -1.054478,-1.054477 1.0545804,1.0545804 0 0 0 -0.0052,0 z M 41.595879,32.0187 a 1.0545804,1.0545804 0 0 0 -1.049535,1.054477 1.0545804,1.0545804 0 0 0 1.054787,1.054479 1.0545804,1.0545804 0 0 0 1.054477,-1.054479 1.0545804,1.0545804 0 0 0 -1.054477,-1.054477 1.0545804,1.0545804 0 0 0 -0.0052,0 z m 3.16374,0 a 1.0545804,1.0545804 0 0 0 -1.049533,1.054477 1.0545804,1.0545804 0 0 0 1.054786,1.054479 1.0545804,1.0545804 0 0 0 1.054477,-1.054479 1.0545804,1.0545804 0 0 0 -1.054477,-1.054477 1.0545804,1.0545804 0 0 0 -0.0052,0 z m 3.163742,0 a 1.0545804,1.0545804 0 0 0 -1.049533,1.054477 1.0545804,1.0545804 0 0 0 1.054784,1.054479 1.0545804,1.0545804 0 0 0 1.054479,-1.054479 1.0545804,1.0545804 0 0 0 -1.054479,-1.054477 1.0545804,1.0545804 0 0 0 -0.0052,0 z m 3.163741,0 a 1.0545804,1.0545804 0 0 0 -1.049533,1.054477 1.0545804,1.0545804 0 0 0 1.054785,1.054479 1.0545804,1.0545804 0 0 0 1.054478,-1.054479 1.0545804,1.0545804 0 0 0 -1.054478,-1.054477 1.0545804,1.0545804 0 0 0 -0.0052,0 z m 3.163741,0 a 1.0545804,1.0545804 0 0 0 -1.049533,1.054477 1.0545804,1.0545804 0 0 0 1.054785,1.054479 1.0545804,1.0545804 0 0 0 1.054478,-1.054479 1.0545804,1.0545804 0 0 0 -1.054478,-1.054477 1.0545804,1.0545804 0 0 0 -0.0052,0 z m 3.163741,0 a 1.0545804,1.0545804 0 0 0 -1.049533,1.054477 1.0545804,1.0545804 0 0 0 1.054785,1.054479 1.0545804,1.0545804 0 0 0 1.054478,-1.054479 1.0545804,1.0545804 0 0 0 -1.054478,-1.054477 1.0545804,1.0545804 0 0 0 -0.0052,0 z m -15.818705,3.163741 a 1.0545804,1.0545804 0 0 0 -1.049535,1.054478 1.0545804,1.0545804 0 0 0 1.054787,1.054478 1.0545804,1.0545804 0 0 0 1.054477,-1.054478 1.0545804,1.0545804 0 0 0 -1.054477,-1.054478 1.0545804,1.0545804 0 0 0 -0.0052,0 z m 3.16374,0 a 1.0545804,1.0545804 0 0 0 -1.049533,1.054478 1.0545804,1.0545804 0 0 0 1.054786,1.054478 1.0545804,1.0545804 0 0 0 1.054477,-1.054478 1.0545804,1.0545804 0 0 0 -1.054477,-1.054478 1.0545804,1.0545804 0 0 0 -0.0052,0 z m 3.163742,0 a 1.0545804,1.0545804 0 0 0 -1.049533,1.054478 1.0545804,1.0545804 0 0 0 1.054784,1.054478 1.0545804,1.0545804 0 0 0 1.054479,-1.054478 1.0545804,1.0545804 0 0 0 -1.054479,-1.054478 1.0545804,1.0545804 0 0 0 -0.0052,0 z m 3.163741,0 a 1.0545804,1.0545804 0 0 0 -1.049533,1.054478 1.0545804,1.0545804 0 0 0 1.054785,1.054478 1.0545804,1.0545804 0 0 0 1.054478,-1.054478 1.0545804,1.0545804 0 0 0 -1.054478,-1.054478 1.0545804,1.0545804 0 0 0 -0.0052,0 z m 3.163741,0 a 1.0545804,1.0545804 0 0 0 -1.049533,1.054478 1.0545804,1.0545804 0 0 0 1.054785,1.054478 1.0545804,1.0545804 0 0 0 1.054478,-1.054478 1.0545804,1.0545804 0 0 0 -1.054478,-1.054478 1.0545804,1.0545804 0 0 0 -0.0052,0 z m 3.163741,0 a 1.0545804,1.0545804 0 0 0 -1.049533,1.054478 1.0545804,1.0545804 0 0 0 1.054785,1.054478 1.0545804,1.0545804 0 0 0 1.054478,-1.054478 1.0545804,1.0545804 0 0 0 -1.054478,-1.054478 1.0545804,1.0545804 0 0 0 -0.0052,0 z" />
  </g>
</svg>
